<svg version="1.1" xmlns="http://www.w3.org/2000/svg" xmlns:xlink="http://www.w3.org/1999/xlink" x="0px" y="0px"
	 viewBox="0 0 58.92 34.37" style="enable-background:new 0 0 58.92 34.37;" xml:space="preserve">
<rect style="fill:#1D2A6A;" width="58.92" height="34.37"/>
<polygon style="fill:#FFFFFF;" points="27.43,0 18.02,4.71 18.02,0 12.87,0 12.87,4.71 3.45,0 0,0 0,1.73 6.84,5.15 0,5.15 0,10.29 
	6.84,10.29 0,13.72 0,15.44 3.45,15.44 12.87,10.73 12.87,15.44 18.02,15.44 18.02,10.73 27.43,15.44 30.89,15.44 30.89,13.72 
	24.04,10.29 30.89,10.29 30.89,5.15 24.04,5.15 30.89,1.73 30.89,0 "/>
<polygon style="fill:#BD0034;" points="30.89,0 28.58,0 18.29,5.15 20.59,5.15 "/>
<polygon style="fill:#BD0034;" points="0,0 0,1.15 7.99,5.15 10.3,5.15 "/>
<polygon style="fill:#BD0034;" points="10.3,10.29 0,15.44 2.3,15.44 12.6,10.29 "/>
<polygon style="fill:#BD0034;" points="20.59,10.29 30.89,15.44 30.89,14.29 22.89,10.29 "/>
<polygon style="fill:#BD0034;" points="13.9,0 13.9,6.18 0,6.18 0,9.27 13.9,9.27 13.9,15.44 16.99,15.44 16.99,9.27 30.88,9.27 
	30.88,6.18 16.99,6.18 16.99,0 "/>
<path style="fill:#FFFFFF;" d="M44.94,9.75c-2.39,1.37-4.96,1.33-6.57,0.23v8.53c0,2.96,1.8,6.27,6.57,8c4.77-1.73,6.57-5.04,6.57-8
	V9.97C49.9,11.08,47.33,11.12,44.94,9.75"/>
<path style="fill:#3871B9;" d="M38.94,21.35c0.85,2.05,2.73,3.97,6,5.16c3.27-1.19,5.14-3.11,6-5.16H38.94z"/>
<path style="fill:#D77035;" d="M49.26,13.68c-0.77-0.71-1.67-0.39-2.39-1.01c-0.62-0.53-1.52-0.75-2.21-0.69
	c0.04-0.09,0.1-0.19,0.15-0.28c-3.25,0.78-3.61,5.07-0.64,5.56c0.04-0.45-0.33-0.73-0.34-1.18c0.14,0.03,0.31,0.09,0.42,0.16
	c-0.04-0.51-0.49-0.61-0.48-1.24c0.03-1.27,0.68-2.06,1.84-2.15c0.55-0.05,1.3,0.17,1.54,0.64c0.09,0.18,0.27,0.42,0.4,0.56
	c0.13,0.13,0.13,0.08,0.15-0.1c0.04-0.38,0.71-0.55,1.51-0.18C49.41,13.89,49.42,13.83,49.26,13.68"/>
<path style="fill:#D77035;" d="M46.41,16.06c-0.24,0.14-0.55,0.68-1.03,0.73c0.01-0.18,0-0.47-0.03-0.58
	c-0.27,0.43-0.34,0.97-1.04,1.45c-0.79,0.54-2.18,0.71-2.89-0.06c-0.37-0.4-0.61-0.94-0.4-1.7c0.14-0.51,0.57-0.53,0.81-0.75
	c0.07-0.06,0.01-0.07-0.1-0.08c-0.44-0.05-0.57-0.66-0.19-1.58c0.08-0.2-0.03-0.19-0.27,0.23c-0.34,0.6-0.34,1.17-0.52,1.69
	c-0.45,1.22-0.21,2.93,0.92,3.55c-0.06,0.08-0.12,0.19-0.19,0.27C44.04,19.84,46.61,18.76,46.41,16.06"/>
<path style="fill:#D77035;" d="M45.7,14.12c0.15,0.3,0.58,0.51,0.72,0.91c-0.12,0-0.34,0.06-0.46,0.13
	c0.32,0.15,0.49,0.17,0.79,0.41l0.07,0.04c0.95,1.01,1.37,2.02,1.02,2.93c-0.18,0.45-0.55,0.96-1.16,1.16
	c-0.82,0.26-1.04-0.41-1.78-0.29c-0.05,0.01-0.01,0.05,0.06,0.08c0.46,0.2,0.3,0.72-0.57,1.1c-0.07,0.03-0.07,0.04,0.08,0.05
	c0.53,0.06,1.19-0.11,1.54-0.3c0.43-0.23,0.96-0.39,1.43-0.61c0.9-0.43,1.39-1.18,1.53-2.22c0.17,0.13,0.22,0.24,0.31,0.38
	C49.63,16.21,48.46,14.05,45.7,14.12"/>
<path style="fill:#FFFFFF;" d="M43.09,15.86c0.08,0,0.15,0.07,0.15,0.15c0,0.08-0.07,0.15-0.15,0.15c-0.09,0-0.15-0.07-0.15-0.15
	C42.93,15.93,43,15.86,43.09,15.86"/>
<path style="fill:#FFFFFF;" d="M45.94,16.97c-0.09,0-0.15,0.07-0.15,0.15s0.07,0.15,0.15,0.15c0.08,0,0.15-0.07,0.15-0.15
	S46.02,16.97,45.94,16.97"/>
<path style="fill:#FFFFFF;" d="M47.13,14.47c-0.09,0-0.15,0.07-0.15,0.15s0.07,0.15,0.15,0.15c0.08,0,0.15-0.07,0.15-0.15
	S47.21,14.47,47.13,14.47"/>
</svg>
