<svg version="1.1" xmlns="http://www.w3.org/2000/svg" xmlns:xlink="http://www.w3.org/1999/xlink" x="0px" y="0px"
	 viewBox="0 0 58.92 34.37" style="enable-background:new 0 0 58.92 34.37;" xml:space="preserve">
<rect style="fill:#BC0030;" width="58.92" height="34.37"/>
<path d="M38.94,21.83c-0.07-0.05-0.2-0.09-0.32-0.09c-0.11,0-0.26-0.04-0.35-0.08c-0.2-0.09-0.4-0.06-0.58,0.09
	c-0.12,0.1-0.19,0.11-0.65,0.15c-0.64,0.05-0.84,0.05-0.84,0.01c0-0.02,0.16-0.14,0.36-0.26c0.27-0.18,0.39-0.23,0.47-0.21
	c0.19,0.03,0.43-0.06,0.61-0.24c0.17-0.18,0.21-0.19,0.6-0.17c0.1,0,0.03,0.01,0.16-0.01c-0.06-0.16-0.29-0.47-0.68-0.36
	c-0.17,0.04-0.27,0.05-0.36,0.02c-0.25-0.09-0.59,0.09-0.69,0.36c-0.05,0.14-0.3,0.35-0.75,0.62l-0.33,0.21l-0.63-0.24
	c-0.71-0.27-1.31-0.54-1.31-0.59c0-0.02,0.09-0.13,0.2-0.26c0.11-0.12,0.2-0.23,0.2-0.24c0-0.01-0.12-0.09-0.27-0.16
	c-0.98-0.5-1.69-1.2-1.98-1.99c-0.21-0.55-0.1-0.68,0.15-0.18c0.21,0.4,0.36,0.58,0.64,0.76c0.3,0.19,0.47,0.23,0.58,0.13
	c0.14-0.12,0.11-0.27-0.09-0.49c-0.43-0.49-0.56-1.24-0.2-1.24c0.13,0,0.15,0.02,0.43,0.66c0.39,0.89,0.78,1.48,1.09,1.64
	c0.26,0.14,0.69,0.03,0.76-0.2c0.06-0.18-0.01-0.29-0.31-0.48c-0.47-0.31-0.78-0.8-0.9-1.45c-0.04-0.21-0.04-0.26,0.03-0.36
	c0.11-0.16,0.18-0.1,0.49,0.35c0.57,0.86,1.61,1.99,2.03,2.23c0.75,0.42,1.49,0.4,1.94-0.05c0.12-0.12,0.16-0.2,0.16-0.31
	c0-0.21-0.16-0.31-0.5-0.29c-0.78,0.04-0.86,0.03-1.16-0.11c-0.58-0.28-1.15-0.94-1.59-1.86c-0.42-0.86-0.32-0.91,0.4-0.18
	c0.96,0.98,1.74,1.34,2.45,1.13c0.34-0.1,0.67-0.41,0.67-0.64c0-0.25-0.12-0.32-0.5-0.3c-0.17,0.01-0.49,0.02-0.7,0.02
	c-0.36,0-0.42-0.01-0.69-0.14c-0.16-0.08-0.42-0.27-0.6-0.43c-0.46-0.42-1.23-1.48-1.23-1.68c0-0.2,0.18-0.12,0.65,0.29
	c0.38,0.34,1.07,0.8,1.38,0.95c0.18,0.08,0.3,0.1,0.63,0.1c0.36,0,0.45-0.01,0.63-0.11c0.29-0.14,0.39-0.29,0.41-0.59
	c0.03-0.43-0.18-0.53-0.8-0.38c-0.88,0.22-1.34,0.06-2.15-0.76c-0.39-0.4-0.53-0.62-0.48-0.74c0.04-0.12,0.22-0.07,0.97,0.31
	c0.82,0.42,1.05,0.5,1.44,0.5c0.34,0,0.56-0.07,0.77-0.25c0.32-0.27,0.4-0.58,0.2-0.77c-0.15-0.16-0.47-0.15-0.82,0.03
	c-0.17,0.08-0.36,0.15-0.52,0.16c-0.55,0.05-1.36-0.26-1.76-0.66c-0.27-0.27-0.4-0.52-0.33-0.62c0.08-0.09,0.2-0.07,0.5,0.05
	c0.6,0.26,0.88,0.32,1.33,0.32c0.5,0,0.81-0.08,1.24-0.32C38.78,12.21,39,11.97,39,11.8c0-0.07-0.04-0.18-0.09-0.26
	c-0.13-0.21-0.35-0.2-0.79,0.04c-0.85,0.46-1.43,0.53-2.03,0.23c-0.25-0.13-0.68-0.54-0.79-0.75c-0.07-0.14-0.07-0.15-0.01-0.22
	c0.08-0.08,0.14-0.07,0.79,0.17c0.33,0.12,0.48,0.15,0.86,0.16c0.51,0.02,0.83-0.03,1.16-0.19C38.56,10.78,39,10.24,39,9.91
	c0-0.16-0.1-0.37-0.2-0.41c-0.19-0.07-0.3-0.03-0.59,0.28c-0.46,0.47-0.92,0.65-1.66,0.65c-0.78-0.01-1.1-0.12-1.1-0.42
	c0-0.2,0.15-0.32,0.47-0.37c0.97-0.16,2.09-0.66,2.69-1.22c0.36-0.33,0.49-0.56,0.49-0.84c-0.01-0.32-0.14-0.54-0.39-0.6
	c-0.22-0.06-0.38,0.04-0.6,0.39c-0.37,0.59-0.76,0.92-1.48,1.28c-0.43,0.21-1.1,0.44-1.23,0.41c-0.04-0.01-0.1-0.09-0.14-0.19
	c-0.11-0.3-0.12-0.3-0.56-0.12c-0.22,0.1-0.67,0.27-1,0.38c-0.67,0.24-0.89,0.38-1.05,0.69c-0.08,0.15-0.1,0.26-0.1,0.73
	c-0.01,0.5-0.02,0.56-0.1,0.69c-0.14,0.19-0.25,0.24-0.53,0.24c-0.41,0-0.63-0.24-0.66-0.71c-0.02-0.38,0.05-0.7,0.23-1.09
	c0.19-0.39,0.4-0.63,0.8-0.89c0.39-0.25,0.76-0.37,1.3-0.42c0.48-0.04,0.98-0.23,1.1-0.47c-0.5,0.15-1-0.06-0.95-0.09
	s0.93-0.02,1.05-0.04c0.37-0.04,0.52-0.14,0.72-0.29c0.24-0.17,0.39-0.33,0.33-0.44c-0.06-0.12-0.24-0.1-0.36,0.04
	c-0.06,0.07-0.18,0.19-0.26,0.29c-0.14,0.16-0.17,0.17-0.59,0.24c-0.32,0.04-0.38,0.04-0.56,0c-0.06-0.04-0.11-0.1-0.11-0.12
	c0-0.06,0.17-0.16,0.34-0.2c0.12-0.02,0.38,0.07,0.6,0.13c-0.05-0.12-0.05-0.13-0.12-0.28c-0.11-0.21-0.29-0.28-0.76-0.29
	c-0.33-0.01-0.44-0.04-0.5-0.1c-0.05-0.05-0.13-0.11-0.18-0.13c-0.06-0.03-0.14-0.05-0.24-0.05c-0.3-0.01-0.76,0.1-1.2,0.3
	C31.65,7,31.54,7.03,31.28,7.03c-0.17,0-0.39-0.02-0.49-0.05c-0.35-0.09-0.41-0.09-0.41-0.03c0,0.08,0.3,0.35,0.52,0.47
	c0.12,0.06,0.17,0.11,0.15,0.15c-0.03,0.09-0.37,0.32-0.57,0.39c-0.21,0.07-0.2,0.16,0.02,0.27c0.1,0.05,0.18,0.11,0.19,0.14
	c0,0.13-0.43,0.41-0.63,0.41c-0.24,0-0.15,0.19,0.11,0.25c0.15,0.03,0.15,0.05,0.02,0.19c-0.14,0.17-0.27,0.22-0.42,0.19
	c-0.16-0.03-0.19,0.03-0.1,0.2c0.08,0.13,0.08,0.14-0.01,0.2c-0.03,0.03-0.08,0.05-0.13,0.06v0c-0.01,0-0.02,0.01-0.03,0.01
	c-0.01,0-0.03,0-0.04,0c-0.01,0-0.03,0-0.04,0c-0.01,0-0.02,0-0.03-0.01v0c-0.05-0.01-0.1-0.03-0.13-0.06
	c-0.08-0.06-0.08-0.07,0-0.2c0.09-0.17,0.06-0.23-0.1-0.2c-0.14,0.03-0.28-0.03-0.42-0.19c-0.13-0.14-0.13-0.16,0.02-0.19
	c0.27-0.06,0.36-0.25,0.11-0.25c-0.2,0-0.63-0.29-0.63-0.41c0-0.03,0.08-0.09,0.19-0.14c0.23-0.11,0.23-0.19,0.02-0.27
	c-0.21-0.07-0.54-0.3-0.57-0.39c-0.02-0.04,0.02-0.09,0.15-0.15c0.22-0.11,0.52-0.38,0.52-0.47c0-0.07-0.07-0.07-0.42,0.03
	c-0.1,0.03-0.32,0.05-0.49,0.05c-0.25,0-0.37-0.03-0.61-0.14c-0.45-0.2-0.91-0.31-1.2-0.3c-0.1,0-0.18,0.02-0.24,0.05
	c-0.05,0.03-0.13,0.08-0.18,0.13c-0.07,0.06-0.18,0.08-0.5,0.1c-0.47,0.01-0.66,0.09-0.76,0.29c-0.08,0.14-0.08,0.16-0.12,0.28
	c0.22-0.06,0.48-0.15,0.59-0.13c0.16,0.03,0.34,0.13,0.34,0.2c0,0.02-0.05,0.07-0.11,0.12c-0.18,0.04-0.24,0.04-0.56,0
	c-0.42-0.07-0.45-0.08-0.59-0.24C23.62,7.3,23.5,7.17,23.44,7.1c-0.12-0.14-0.3-0.16-0.36-0.04c-0.06,0.11,0.1,0.27,0.33,0.44
	c0.2,0.15,0.35,0.25,0.72,0.29c0.12,0.01,1,0.01,1.05,0.04c0.04,0.03-0.46,0.24-0.95,0.09c0.12,0.24,0.61,0.43,1.1,0.47
	c0.54,0.05,0.92,0.17,1.3,0.42c0.4,0.27,0.62,0.5,0.8,0.89c0.19,0.39,0.25,0.71,0.23,1.09c-0.02,0.47-0.25,0.71-0.66,0.71
	c-0.28,0-0.39-0.05-0.52-0.24c-0.09-0.13-0.1-0.19-0.1-0.69c0-0.47-0.02-0.57-0.09-0.73c-0.16-0.31-0.38-0.46-1.05-0.69
	c-0.33-0.12-0.78-0.29-1-0.38c-0.44-0.18-0.46-0.18-0.56,0.12c-0.04,0.1-0.1,0.18-0.14,0.19c-0.13,0.03-0.8-0.21-1.23-0.41
	c-0.73-0.37-1.11-0.69-1.49-1.28c-0.22-0.35-0.38-0.45-0.6-0.39c-0.25,0.07-0.39,0.28-0.39,0.6c0,0.28,0.13,0.51,0.49,0.84
	c0.6,0.56,1.72,1.06,2.68,1.22c0.32,0.05,0.47,0.17,0.47,0.37c0,0.3-0.32,0.41-1.1,0.42c-0.73,0-1.19-0.18-1.65-0.65
	c-0.3-0.31-0.4-0.36-0.59-0.28c-0.1,0.04-0.2,0.25-0.2,0.41c0,0.33,0.44,0.87,0.89,1.07c0.34,0.16,0.65,0.21,1.16,0.19
	c0.38-0.02,0.53-0.05,0.86-0.16c0.66-0.24,0.71-0.25,0.79-0.17c0.06,0.06,0.06,0.08-0.01,0.22c-0.11,0.22-0.54,0.63-0.79,0.75
	c-0.6,0.3-1.18,0.23-2.03-0.23c-0.43-0.23-0.66-0.24-0.78-0.04c-0.05,0.08-0.09,0.2-0.09,0.26c0,0.16,0.22,0.4,0.56,0.59
	c0.43,0.24,0.74,0.32,1.24,0.32c0.45,0,0.73-0.07,1.33-0.32c0.3-0.13,0.42-0.14,0.5-0.05c0.07,0.1-0.06,0.35-0.33,0.62
	c-0.4,0.41-1.21,0.71-1.77,0.66c-0.16-0.01-0.35-0.08-0.52-0.16c-0.35-0.18-0.66-0.19-0.82-0.03c-0.2,0.2-0.12,0.51,0.2,0.77
	c0.21,0.19,0.43,0.25,0.77,0.25c0.38,0,0.62-0.08,1.44-0.5c0.75-0.38,0.92-0.43,0.96-0.31c0.05,0.13-0.09,0.34-0.48,0.74
	c-0.81,0.82-1.27,0.98-2.15,0.76c-0.62-0.16-0.83-0.05-0.8,0.38c0.02,0.3,0.13,0.44,0.41,0.59c0.18,0.1,0.27,0.11,0.63,0.11
	c0.34-0.01,0.46-0.02,0.64-0.1c0.31-0.15,0.99-0.61,1.38-0.95c0.48-0.42,0.66-0.5,0.66-0.29c0,0.2-0.77,1.26-1.23,1.68
	c-0.17,0.16-0.44,0.35-0.6,0.43c-0.27,0.13-0.32,0.14-0.69,0.14c-0.22,0-0.53-0.01-0.7-0.02c-0.38-0.02-0.5,0.05-0.5,0.3
	c0,0.23,0.33,0.54,0.67,0.64c0.71,0.21,1.49-0.15,2.45-1.13c0.71-0.73,0.82-0.68,0.39,0.18c-0.44,0.93-1.01,1.59-1.59,1.86
	c-0.3,0.14-0.38,0.15-1.16,0.11c-0.34-0.02-0.5,0.07-0.5,0.29c0,0.11,0.04,0.19,0.16,0.31c0.45,0.44,1.19,0.46,1.94,0.05
	c0.43-0.24,1.46-1.37,2.03-2.23c0.31-0.46,0.38-0.52,0.49-0.35c0.07,0.1,0.07,0.15,0.03,0.36c-0.12,0.65-0.43,1.14-0.9,1.45
	c-0.3,0.19-0.37,0.31-0.32,0.48c0.07,0.22,0.5,0.33,0.76,0.2c0.31-0.16,0.7-0.75,1.09-1.64c0.27-0.64,0.29-0.66,0.43-0.66
	c0.36,0,0.23,0.75-0.2,1.24c-0.19,0.22-0.23,0.37-0.09,0.49c0.11,0.11,0.29,0.07,0.58-0.13c0.28-0.18,0.43-0.36,0.64-0.76
	c0.26-0.49,0.36-0.37,0.15,0.18c-0.29,0.79-0.99,1.49-1.98,1.99c-0.15,0.07-0.27,0.15-0.27,0.16c0,0.01,0.09,0.13,0.2,0.24
	c0.11,0.12,0.2,0.23,0.2,0.26c0,0.04-0.6,0.31-1.31,0.59l-0.64,0.24L23,21.65c-0.45-0.28-0.7-0.48-0.75-0.62
	c-0.1-0.27-0.44-0.45-0.69-0.36c-0.09,0.03-0.19,0.03-0.36-0.02c-0.39-0.1-0.62,0.21-0.68,0.36c0.13,0.02,0.07,0.02,0.16,0.01
	c0.39-0.02,0.43-0.01,0.61,0.17c0.18,0.18,0.42,0.28,0.61,0.24c0.09-0.02,0.2,0.03,0.47,0.21c0.2,0.13,0.36,0.24,0.36,0.26
	c0,0.04-0.21,0.04-0.84-0.01c-0.45-0.04-0.53-0.05-0.65-0.15c-0.18-0.15-0.39-0.18-0.58-0.09c-0.09,0.04-0.24,0.08-0.35,0.08
	c-0.12,0-0.24,0.04-0.31,0.09c-0.13,0.1-0.21,0.15-0.27,0.34c0.24,0,0.16,0,0.33-0.02c0.29-0.05,0.32-0.04,0.42,0.04
	c0.06,0.05,0.14,0.11,0.2,0.14c0.13,0.07,0.43,0.06,0.58-0.02c0.09-0.04,0.3-0.06,0.77-0.06c0.36-0.01,0.67-0.01,0.69,0
	c0.03,0-0.12,0.1-0.31,0.21c-0.34,0.21-0.37,0.21-0.66,0.21c-0.38-0.01-0.6,0.11-0.66,0.35c-0.02,0.09-0.06,0.25-0.09,0.34
	c-0.06,0.23-0.08,0.27,0.09,0.67c0.19-0.44,0.12-0.3,0.18-0.39c0.09-0.14,0.13-0.16,0.35-0.18c0.3-0.03,0.44-0.12,0.56-0.36
	c0.08-0.17,0.16-0.24,0.56-0.49c0.55-0.34,0.52-0.34,1.14-0.05c0.31,0.15,0.42,0.22,0.47,0.32c0.09,0.18,0.29,0.25,0.51,0.19
	c0.21-0.06,0.3-0.03,0.44,0.17c0.06,0.08,0.06,0.07,0.15,0.15c0.02-0.12,0.03-0.14,0.03-0.26c0-0.18-0.02-0.21-0.25-0.45
	c-0.27-0.27-0.44-0.35-0.63-0.27c-0.09,0.04-0.17,0.02-0.4-0.09c-0.26-0.12-0.36-0.21-0.23-0.21c0.03,0,0.45-0.16,0.94-0.35
	l0.88-0.34l0.13,0.1c0.24,0.19,0.62,0.36,0.79,0.36c0.15,0,0.17-0.01,0.22-0.17c0.07-0.25,0.59-1.24,0.86-1.65
	c0.46-0.71,0.71-0.89,0.92-0.67c0.06,0.08,0.08,0.16,0.08,0.43c-0.01,0.8-0.46,1.85-1.06,2.44c-0.32,0.31-0.66,0.49-1.08,0.55
	c-0.33,0.04-0.54,0.13-0.54,0.21c0,0.09,0.21,0.34,0.35,0.41c0.12,0.06,0.23,0.07,0.48,0.06c0.3-0.01,0.36-0.03,0.65-0.2
	c0.28-0.17,0.33-0.19,0.38-0.13c0.06,0.06,0.06,0.1,0.02,0.26c-0.09,0.34-0.34,0.5-0.9,0.57c-0.58,0.07-0.78,0.25-0.58,0.52
	c0.13,0.18,0.34,0.27,0.65,0.27c0.34,0,0.64-0.15,1.02-0.52c0.17-0.15,0.32-0.27,0.34-0.25c0.06,0.04,0.06,0.39-0.01,0.6
	c-0.06,0.21-0.34,0.53-0.5,0.6c-0.07,0.03-0.23,0.08-0.37,0.11c-0.48,0.13-0.54,0.32-0.21,0.54c0.22,0.15,0.58,0.16,0.85,0.03
	c0.18-0.08,0.66-0.53,0.75-0.69c0.08-0.14,0.16-0.04,0.14,0.18c-0.02,0.18-0.12,0.38-0.36,0.71c-0.19,0.26-0.13,0.62,0.2,1.1
	c0.22,0.32,0.42,0.55,0.52,0.59c0.09-0.04,0.3-0.27,0.52-0.59c0.33-0.48,0.39-0.83,0.2-1.1c-0.24-0.33-0.34-0.53-0.36-0.71
	c-0.03-0.21,0.06-0.32,0.13-0.18c0.09,0.16,0.57,0.61,0.75,0.69c0.27,0.13,0.63,0.12,0.85-0.03c0.34-0.22,0.27-0.41-0.21-0.54
	c-0.14-0.03-0.3-0.09-0.37-0.11c-0.16-0.06-0.44-0.39-0.5-0.6c-0.07-0.21-0.07-0.56-0.01-0.6c0.03-0.02,0.18,0.1,0.35,0.25
	c0.39,0.37,0.68,0.52,1.02,0.52c0.3,0,0.52-0.09,0.65-0.27c0.19-0.27-0.01-0.45-0.58-0.52c-0.57-0.07-0.81-0.23-0.9-0.57
	c-0.05-0.16-0.04-0.2,0.02-0.26c0.06-0.06,0.1-0.04,0.38,0.13c0.29,0.18,0.35,0.19,0.65,0.2c0.25,0.01,0.36,0,0.48-0.06
	c0.14-0.07,0.35-0.33,0.35-0.41c0-0.08-0.22-0.16-0.54-0.21c-0.42-0.06-0.76-0.23-1.08-0.55c-0.6-0.59-1.06-1.64-1.06-2.44
	c0-0.27,0.01-0.35,0.08-0.43c0.21-0.23,0.46-0.04,0.92,0.67c0.27,0.42,0.79,1.4,0.86,1.65c0.05,0.16,0.07,0.17,0.22,0.17
	c0.16,0,0.55-0.18,0.79-0.36l0.13-0.1l0.88,0.34c0.49,0.19,0.91,0.35,0.93,0.35c0.14,0,0.04,0.1-0.23,0.21
	c-0.24,0.11-0.31,0.12-0.4,0.09c-0.2-0.08-0.36,0-0.63,0.27c-0.23,0.24-0.25,0.27-0.25,0.45c0,0.12,0,0.14,0.03,0.26
	c0.09-0.08,0.09-0.06,0.15-0.15c0.14-0.2,0.23-0.23,0.44-0.17c0.22,0.07,0.42-0.01,0.51-0.19c0.05-0.1,0.17-0.17,0.47-0.32
	c0.62-0.29,0.59-0.29,1.14,0.05c0.4,0.25,0.48,0.32,0.56,0.49c0.11,0.24,0.25,0.33,0.55,0.36c0.22,0.02,0.25,0.04,0.35,0.18
	c0.06,0.08-0.01-0.05,0.18,0.39c0.17-0.4,0.15-0.44,0.08-0.67c-0.03-0.1-0.07-0.25-0.09-0.34c-0.06-0.24-0.28-0.36-0.66-0.35
	c-0.29,0.01-0.32,0-0.66-0.21c-0.2-0.12-0.34-0.21-0.31-0.21c0.02-0.01,0.33-0.01,0.69,0c0.48,0,0.68,0.02,0.77,0.06
	c0.15,0.08,0.45,0.09,0.58,0.02c0.05-0.03,0.14-0.09,0.2-0.14c0.09-0.08,0.12-0.09,0.42-0.04c0.17,0.02,0.09,0.02,0.33,0.02
	C39.15,21.98,39.07,21.93,38.94,21.83 M32.64,7.47c0.09-0.06-0.08-0.24,0.11-0.23c0.04,0,0.11,0.01,0.2,0.04
	c0.14,0.03,0.21,0.18,0.12,0.27c-0.09,0.09-0.57,0.13-0.66,0.05C32.25,7.16,32.53,7.54,32.64,7.47 M26.51,7.59
	c-0.09,0.07-0.58,0.04-0.66-0.05c-0.09-0.09-0.02-0.24,0.12-0.27c0.09-0.03,0.16-0.04,0.2-0.04c0.19-0.01,0.02,0.17,0.11,0.23
	C26.4,7.54,26.68,7.16,26.51,7.59"/>
</svg>
