<svg version="1.1" xmlns="http://www.w3.org/2000/svg" xmlns:xlink="http://www.w3.org/1999/xlink" x="0px" y="0px"
	 viewBox="0 0 58.92 34.37" style="enable-background:new 0 0 58.92 34.37;" xml:space="preserve">
<rect x="0" style="fill:#FFFFFF;" width="58.92" height="34.37"/>
<rect x="23.73" style="fill:#C9002B;" width="11.46" height="34.37"/>
<rect x="0" y="11.46" style="fill:#2B0095;" width="58.92" height="11.46"/>
<polygon style="fill:#FFFFFF;" points="29.46,12.07 29.02,13.43 29.7,13.66 "/>
<polygon style="fill:#FFFFFF;" points="29.46,12.07 29.9,13.43 29.22,13.66 "/>
<polygon style="fill:#FFFFFF;" points="30.82,13.06 29.39,13.06 29.39,13.78 "/>
<polygon style="fill:#FFFFFF;" points="30.82,13.06 29.67,13.9 29.24,13.32 "/>
<polygon style="fill:#FFFFFF;" points="28.1,13.06 29.26,13.9 29.68,13.32 "/>
<polygon style="fill:#FFFFFF;" points="28.1,13.06 29.53,13.06 29.53,13.78 "/>
<polygon style="fill:#FFFFFF;" points="30.3,14.66 29.86,13.3 29.18,13.52 "/>
<polygon style="fill:#FFFFFF;" points="30.3,14.66 29.14,13.82 29.57,13.24 "/>
<polygon style="fill:#FFFFFF;" points="28.62,14.66 29.78,13.82 29.36,13.24 "/>
<polygon style="fill:#FFFFFF;" points="28.62,14.66 29.06,13.3 29.74,13.52 "/>
<polygon style="fill:#FFFFFF;" points="37.1,15.24 36.66,16.6 37.34,16.82 "/>
<polygon style="fill:#FFFFFF;" points="37.1,15.24 37.54,16.6 36.86,16.82 "/>
<polygon style="fill:#FFFFFF;" points="38.46,16.23 37.03,16.23 37.03,16.94 "/>
<polygon style="fill:#FFFFFF;" points="38.46,16.23 37.3,17.07 36.88,16.49 "/>
<polygon style="fill:#FFFFFF;" points="35.74,16.23 36.9,17.07 37.32,16.49 "/>
<polygon style="fill:#FFFFFF;" points="35.74,16.23 37.17,16.23 37.17,16.94 "/>
<polygon style="fill:#FFFFFF;" points="37.94,17.83 37.5,16.47 36.82,16.69 "/>
<polygon style="fill:#FFFFFF;" points="37.94,17.83 36.78,16.99 37.2,16.41 "/>
<polygon style="fill:#FFFFFF;" points="36.26,17.83 37.42,16.99 37,16.41 "/>
<polygon style="fill:#FFFFFF;" points="36.26,17.83 36.7,16.47 37.38,16.69 "/>
<polygon style="fill:#FFFFFF;" points="32.62,19.71 32.18,21.07 32.86,21.29 "/>
<polygon style="fill:#FFFFFF;" points="32.62,19.71 33.07,21.07 32.39,21.29 "/>
<polygon style="fill:#FFFFFF;" points="33.99,20.7 32.56,20.7 32.56,21.42 "/>
<polygon style="fill:#FFFFFF;" points="33.99,20.7 32.83,21.54 32.41,20.96 "/>
<polygon style="fill:#FFFFFF;" points="31.26,20.7 32.42,21.54 32.84,20.96 "/>
<polygon style="fill:#FFFFFF;" points="31.26,20.7 32.7,20.7 32.7,21.42 "/>
<polygon style="fill:#FFFFFF;" points="33.47,22.3 33.03,20.94 32.34,21.16 "/>
<polygon style="fill:#FFFFFF;" points="33.47,22.3 32.31,21.46 32.73,20.88 "/>
<polygon style="fill:#FFFFFF;" points="31.78,22.3 32.94,21.46 32.52,20.88 "/>
<polygon style="fill:#FFFFFF;" points="31.78,22.3 32.23,20.94 32.91,21.16 "/>
<polygon style="fill:#FFFFFF;" points="21.82,15.24 22.26,16.6 21.58,16.82 "/>
<polygon style="fill:#FFFFFF;" points="21.82,15.24 21.38,16.6 22.06,16.82 "/>
<polygon style="fill:#FFFFFF;" points="20.46,16.23 21.89,16.23 21.89,16.94 "/>
<polygon style="fill:#FFFFFF;" points="20.46,16.23 21.62,17.07 22.04,16.49 "/>
<polygon style="fill:#FFFFFF;" points="23.18,16.23 22.03,17.07 21.6,16.49 "/>
<polygon style="fill:#FFFFFF;" points="23.18,16.23 21.75,16.23 21.75,16.94 "/>
<polygon style="fill:#FFFFFF;" points="20.98,17.83 21.42,16.47 22.1,16.69 "/>
<polygon style="fill:#FFFFFF;" points="20.98,17.83 22.14,16.99 21.72,16.41 "/>
<polygon style="fill:#FFFFFF;" points="22.66,17.83 21.51,16.99 21.93,16.41 "/>
<polygon style="fill:#FFFFFF;" points="22.66,17.83 22.22,16.47 21.54,16.69 "/>
<polygon style="fill:#FFFFFF;" points="26.3,19.71 26.74,21.07 26.06,21.29 "/>
<polygon style="fill:#FFFFFF;" points="26.3,19.71 25.86,21.07 26.54,21.29 "/>
<polygon style="fill:#FFFFFF;" points="24.93,20.7 26.37,20.7 26.37,21.42 "/>
<polygon style="fill:#FFFFFF;" points="24.93,20.7 26.09,21.54 26.51,20.96 "/>
<polygon style="fill:#FFFFFF;" points="27.66,20.7 26.5,21.54 26.08,20.96 "/>
<polygon style="fill:#FFFFFF;" points="27.66,20.7 26.23,20.7 26.23,21.42 "/>
<polygon style="fill:#FFFFFF;" points="25.46,22.3 25.9,20.94 26.58,21.16 "/>
<polygon style="fill:#FFFFFF;" points="25.46,22.3 26.61,21.46 26.19,20.88 "/>
<polygon style="fill:#FFFFFF;" points="27.14,22.3 25.98,21.46 26.4,20.88 "/>
<polygon style="fill:#FFFFFF;" points="27.14,22.3 26.7,20.94 26.02,21.16 "/>
</svg>
