<svg version="1.1" xmlns="http://www.w3.org/2000/svg" xmlns:xlink="http://www.w3.org/1999/xlink" x="0px" y="0px"
	 viewBox="0 0 58.92 34.37" style="enable-background:new 0 0 58.92 34.37;" xml:space="preserve">
<rect x="0" style="fill:#BC0030;" width="58.92" height="34.37"/>
<rect x="0" y="17.18" width="58.92" height="17.19"/>
<polygon style="fill:#F1D62F;" points="26.83,16.59 28.65,15.27 30.47,16.59 29.78,14.46 31.6,13.13 29.35,13.13 28.65,11 
	27.96,13.13 25.71,13.13 27.53,14.46 "/>
<path style="fill:#F1D62F;" d="M38.34,27.14c-0.27-0.43-0.59-0.75-1.02-1.13c-0.43-0.38-1.02-0.8-1.46-1.23l-0.84,0.98
	c-0.04,0.04-0.02,0.14,0.02,0.14c0.94,0.16,1.23,0.49,1.61,0.81c0.5,0.51,0.71,1.13,1.04,1.35C38.29,28.49,38.73,27.77,38.34,27.14
	 M36.14,25.58c-0.06,0-0.11-0.05-0.11-0.11c0-0.06,0.05-0.11,0.11-0.11c0.07,0,0.12,0.05,0.12,0.11
	C36.26,25.53,36.21,25.58,36.14,25.58 M36.99,26.32c-0.06,0-0.11-0.05-0.11-0.12c0-0.06,0.05-0.11,0.11-0.11s0.12,0.05,0.12,0.11
	C37.11,26.27,37.06,26.32,36.99,26.32 M37.74,27.08c-0.07,0-0.12-0.05-0.12-0.11c0-0.06,0.05-0.11,0.12-0.11
	c0.06,0,0.11,0.05,0.11,0.11C37.86,27.03,37.81,27.08,37.74,27.08"/>
<path style="fill:#F1D62F;" d="M30.83,23.53c-0.68,0.24-1.42,0.36-2.18,0.36c-1.61,0-3.07-0.59-4.23-1.54l-0.98,1.19
	c0.41,0.34,0.86,0.64,1.33,0.9l-0.34,0.63c0.52,0.28,1.06,0.5,1.62,0.67l0.2-0.67c0.51,0.16,1.04,0.27,1.58,0.33l-0.07,0.68
	c0.58,0.06,1.17,0.06,1.75,0l-0.07-0.68c0.55-0.05,1.08-0.16,1.59-0.31l0.2,0.65c0.28-0.08,0.55-0.18,0.82-0.29l-0.36-1.41
	L30.83,23.53z"/>
<path style="fill:#F1D62F;" d="M35.36,17.19c0,2.05-0.92,3.89-2.37,5.12l1.88,1.3c0.25-0.24,0.48-0.49,0.7-0.76l-0.53-0.43
	c0.34-0.42,0.64-0.87,0.9-1.35l0.6,0.32c0.28-0.52,0.5-1.06,0.67-1.62l-0.66-0.2c0.16-0.51,0.26-1.04,0.31-1.59l0.68,0.07
	c0.06-0.58,0.06-1.17,0-1.75l-0.68,0.07c-0.05-0.55-0.16-1.08-0.32-1.59l0.66-0.2c-0.17-0.56-0.4-1.1-0.67-1.62l-0.61,0.33
	c-0.26-0.47-0.56-0.92-0.9-1.34l0.55-0.45c-0.37-0.45-0.79-0.87-1.24-1.24l-0.45,0.56c-0.42-0.34-0.86-0.64-1.34-0.89l0.34-0.64
	c-0.52-0.27-1.06-0.5-1.62-0.67l-0.21,0.7c-0.49-0.15-1-0.25-1.53-0.31l-0.16,1.53C32.72,10.91,35.36,13.73,35.36,17.19"/>
<path style="fill:#F1D62F;" d="M32.74,23.2c-1.77-1.25-3.6-2.54-5.14-3.98c-0.01-0.01-0.01-0.04,0-0.05c0.01-0.02,0.04-0.02,0.05,0
	c1.53,1.45,3.36,2.73,5.13,3.98c0.87,0.62,1.78,1.25,2.63,1.9l0.27-0.32c-2.95-2.1-9.92-6.94-10-8.71
	c-1.38,2.69,0.37,4.29,1.49,4.93c2.86,1.63,4.75,2.7,7.74,4.68l0.45-0.53C34.52,24.45,33.62,23.82,32.74,23.2"/>
</svg>
