<svg version="1.1" xmlns="http://www.w3.org/2000/svg" xmlns:xlink="http://www.w3.org/1999/xlink" x="0px" y="0px"
	 viewBox="0 0 58.93 34.37" style="enable-background:new 0 0 58.93 34.37;" xml:space="preserve">
<rect style="fill:#507ACA;" width="58.93" height="34.37"/>
<path style="fill:#FFFFFF;" d="M16.38,16.53c-0.28-0.56-0.28-0.56-0.28-1.12c-0.14,0-0.17,0.03-0.25,0.01
	c-0.08-0.02-0.11,0.52-0.38,0.41c-0.04-0.05,0.19-0.44-0.06-0.6c-0.08-0.05,0.02-0.37-0.02-0.52c0,0-0.32,0.17-0.56-0.42
	c-0.12-0.16-0.28,0.14-0.28,0.14s0.07,0.18-0.06,0.22c-0.18-0.13-0.31-0.06-0.54-0.24c-0.23-0.18,0.05-0.39-0.39-0.54
	c0.28-0.7,0.28-0.56,0.98-0.84c-0.42-0.28-0.42-0.28-0.7-0.7c-0.42-0.14-0.56-0.28-0.98-0.56c-0.56-0.7-0.84-2.11-0.84-3.09
	c0.36-0.33,0.84,1.12,1.54,1.55l0.98,0.42c0.56,0.28,0.7,0.56,1.12,0.84l1.26,0.42c0.56,0.42,0.84,0.98,1.26,1.12
	c0.46,0,0.55-0.26,0.69-0.28c0.82-0.04,1.24-0.15,1.41-0.4c0.17-0.2,0.57,0.11,1.69-0.31l-0.14-0.56c0,0,0.3-0.24,0.7-0.14
	c-0.01-0.25-0.04-0.94,0.36-1.25c-0.24-0.25-0.08-0.44-0.08-0.44s0.22-0.21,0.25-0.33c-0.12-0.62,0.1-0.63,0.15-0.81
	c0.05-0.18-0.19-0.12-0.12-0.37c0.07-0.25,0.47-0.31,0.53-0.52c0.05-0.21-0.12-0.31-0.11-0.36c0.09-0.2,0.02-0.66,0-0.84
	c0.76-0.2,1-0.82,1.27-0.56c0.14-0.84,0.28-1.12,1.12-1.12c0.12-0.26-0.31-0.48-0.14-0.56c0.28-0.04,0.5-0.02,0.83,0.41
	c0.11,0.14,0.12-0.2,0.23-0.23c0.11-0.04,0.36-0.04,0.4-0.2c0.04-0.17,0.1-0.39,0.24-0.68C27.6,3.24,27.69,3.55,27.79,4
	c0.59,0.02,1.93,0.15,2.49,0.31c0.42,0.11,0.7-0.11,1.11-0.15c0.3,0.3,0.58,0.08,0.74,0.71C32.35,5.21,32.72,4.9,32.8,5
	c0.47,1.29,2.08,0.42,2.21,0.44c0.21,0,0.46,0.58,0.62,0.56c0.26-0.04,0.19-0.22,0.42-0.15C35.98,6.34,36.5,6.9,36.5,7.27
	c0,0,0.13,0.06,0.24-0.05c0.12-0.11,0.22-0.39,0.33-0.38c0.25,0.03,0.35,0.07,0.63,0.12c0.76,0.26,1.15,0.32,1.44,0.45
	c0.14,0.25,0.27,0.38,0.55,0.33c0.23,0.15,0.06,0.36,0.2,0.37c0.28-0.14,0.37-0.29,0.65-0.15c0.28,0.14,0.56,0.42,0.7,0.7
	c0,0.14-0.14,0.7,0,1.55c0.07,0.28,0.1,0.5,0.41,0.98c-0.08,0.49,0.38,1.33,0.38,1.54c0,0.28-0.22,0.42-0.36,0.71
	c0.56,0.42,0,1.12-0.28,1.54c2.1,0.42,1.12,1.27,2.81,0.84c-0.42,0.98-0.27,0.9,0.15,1.89c-0.84,0.56-0.02,0.73-0.58,1.43
	c-0.04,0.04,0.33,0.61,0.85,0.61c-0.14,1.12-0.56,0.7-0.42,2.39c-1.11-0.02-0.66,1.26-1.4,1.13c0.04,0.8,0.42,0.87,0.28,1.69
	c-0.56,0.14-0.56,0.14-0.84,0.56l-0.42-0.14c-0.14,0.7-0.42,0.84,0,1.54c0,0-0.54,0.02-0.7,0c-0.01,0.24,0.24,0.31,0.28,0.56
	c-0.02,0.1-0.8,0.54-1.4,0.56c-0.16,0.34,0.42,0.71,0.38,0.89c-0.66,0.13-0.95,0.93-0.95,0.93s0.34,0.14,0.28,0.28
	c-0.18-0.13-0.28-0.14-0.56-0.14C39,30.05,38.65,30,38.32,30.56c-0.36,0.12-0.53,0.08-0.8,0.44c-0.12-0.34-0.29,0-0.51,0.14
	c-0.21,0.13-0.5,0.46-0.54,0.45c0.01-0.09,0.13-0.45,0.13-0.45l-0.7,0.14c0,0-0.03,0-0.09,0.01c-0.05,0.01-0.04-0.41-0.17-0.39
	c-0.13,0.01-0.51,0.52-0.64,0.54c-0.13,0.02-0.17-0.16-0.28-0.15c-0.11,0.02-0.33,0.53-0.41,0.55c-0.08,0.01-0.39-0.32-0.66-0.27
	c-1.38,0.49-1.6-0.96-1.82-0.14c-0.29-0.16-0.24-0.07-0.53,0.01c-0.19,0.05-0.21-0.25-0.37-0.24c-0.33,0.01-0.32,0.33-0.5,0.23
	c-0.15-0.66-1.05-0.54-1.14-0.82c-0.07-0.29,0.39-0.29,0.54-0.49c0.11-0.29-0.12-0.39,0.34-0.67c0.61-0.41,0.26-0.56,0.36-0.87
	c0.19-0.44,0.19-0.55,0.03-0.94c0,0-0.47-1.27-0.57-1.27c-0.28-0.08-0.28,0.46-0.69,0.61c-0.84,0.28-2.33-0.71-2.59-0.71
	c-0.24,0.01-1.33,0.26-1.29-0.29c-0.16,0.53-0.77,0.13-0.8,0.13c-0.56,0-0.35,0.44-0.72,0.42c-0.17-0.06-1.9-0.16-1.9-0.16v0.28
	l-1.12-0.56L19.9,25.8c-0.84-0.28-0.42-0.98-1.83-0.56v-0.84h-0.7c0.28-1.68,0-0.84-0.14-2.39l-0.56,0.14
	c-0.56-0.76,0.78-0.61-0.42-1.12c0,0,0.02-0.84-0.28-0.56c-0.06,0.03,0.14,0.42,0.14,0.42c-1.13-0.14-1.4-0.42-1.4-1.54
	c0,0,0.93,0.13,0.84,0c-0.13-0.21-0.3-1.58-0.27-1.67c-0.01-0.19,0.86-0.65,0.69-1.09C16.07,16.53,16.38,16.53,16.38,16.53"/>
<path style="fill:#FFFFFF;" d="M44.96,20.94c-0.02,0-0.05-0.01-0.06-0.03c-0.06-0.09-0.06-0.21-0.02-0.32
	c0.01-0.03,0.04-0.05,0.07-0.04c0.03,0,0.06,0.02,0.06,0.05c0.04,0.11,0.08,0.19,0,0.31C45,20.93,44.98,20.94,44.96,20.94"/>
<path style="fill:#FFFFFF;" d="M11.8,10.51C11.8,10.51,11.79,10.51,11.8,10.51c-0.04,0-0.08-0.03-0.09-0.06
	c-0.02-0.1,0-0.16,0.03-0.19c0.04-0.05,0.11-0.08,0.2-0.08c0.03,0,0.07,0.02,0.09,0.05c0.01,0.03,0.03,0.06,0.01,0.08
	c-0.07,0.05-0.12,0.07-0.16,0.15C11.86,10.49,11.83,10.51,11.8,10.51"/>
<path style="fill:#FFFFFF;" d="M11.8,10.08C11.8,10.08,11.79,10.08,11.8,10.08c-0.05,0-0.08-0.03-0.09-0.06
	c-0.02-0.09-0.02-0.16,0.02-0.2c0.06-0.08,0.15-0.08,0.23-0.08h0c0.03,0,0.07,0.01,0.09,0.04c0.02,0.02,0.04,0.05,0.04,0.08
	c-0.01,0.03-0.05,0.06-0.07,0.07c-0.04,0.01-0.11,0.04-0.15,0.12C11.86,10.07,11.83,10.08,11.8,10.08"/>
<path style="fill:#FFFFFF;" d="M12.96,12.6c-0.03,0-0.06-0.02-0.08-0.05c-0.05-0.1-0.09-0.12-0.1-0.14
	c-0.01-0.03-0.03-0.07-0.02-0.1c0.01-0.03,0.02-0.06,0.05-0.06c0.06,0,0.14,0.01,0.2,0.08c0.03,0.04,0.05,0.1,0.03,0.21
	C13.03,12.57,13,12.6,12.96,12.6C12.97,12.6,12.96,12.6,12.96,12.6"/>
</svg>
