<svg version="1.1" xmlns="http://www.w3.org/2000/svg" xmlns:xlink="http://www.w3.org/1999/xlink" x="0px" y="0px"
	 viewBox="0 0 58.92 34.37" style="enable-background:new 0 0 58.92 34.37;" xml:space="preserve">
<rect y="11.46" style="fill:#FFFFFF;" width="58.92" height="11.46"/>
<rect y="0" style="fill:#80A7D8;" width="58.92" height="11.46"/>
<rect y="22.91" style="fill:#80A7D8;" width="58.92" height="11.46"/>
<path style="fill:#F1BD51;" d="M29.23,17.18l0.18,4.69c0,0,0,0.09,0.06,0.09s0.06-0.09,0.06-0.09l0.18-4.69H29.23z"/>
<path style="fill:#7A361D;" d="M29.46,21.97c-0.06,0-0.07-0.07-0.07-0.1l-0.18-4.69l0.03,0l0.18,4.69c0,0,0,0.07,0.05,0.07
	c0.04,0,0.04-0.07,0.04-0.07l0.18-4.69l-0.15,4.69C29.53,21.91,29.52,21.97,29.46,21.97"/>
<polygon style="fill:#7A361D;" points="29.35,17.18 29.46,20.4 29.58,17.18 "/>
<path style="fill:#F1BD51;" d="M29.02,18.7c-0.27,0.59-0.04,1.07-0.31,1.59c-0.27,0.51-0.1,0.94-0.12,1.17
	c-0.02,0.24-0.21,0.3-0.16,0.36c0.05,0.05,0.25-0.05,0.33-0.37c0.08-0.31-0.11-0.49,0.21-1.13c0.32-0.63,0.07-0.92,0.39-1.48
	L29.02,18.7z"/>
<path style="fill:#7A361D;" d="M28.48,21.84l-0.06-0.02c-0.03-0.03,0-0.07,0.03-0.11c0.04-0.05,0.11-0.13,0.12-0.26
	c0.01-0.06,0-0.14-0.01-0.23c-0.03-0.24-0.06-0.57,0.14-0.95c0.13-0.26,0.14-0.5,0.15-0.76c0.01-0.26,0.02-0.53,0.16-0.83l0.03,0.01
	c-0.13,0.29-0.14,0.56-0.15,0.82c-0.01,0.26-0.02,0.51-0.15,0.77c-0.2,0.37-0.16,0.7-0.13,0.94c0.01,0.09,0.02,0.17,0.01,0.23
	c-0.01,0.14-0.08,0.23-0.13,0.28c-0.03,0.04-0.05,0.06-0.03,0.07c0.11-0.01,0.24-0.13,0.3-0.36c0.02-0.1,0.02-0.2,0.02-0.29
	c-0.01-0.2-0.02-0.42,0.2-0.84c0.16-0.31,0.18-0.54,0.19-0.76c0.02-0.23,0.03-0.44,0.2-0.72c-0.14,0.3-0.15,0.51-0.17,0.73
	c-0.02,0.22-0.03,0.45-0.2,0.77c-0.21,0.41-0.2,0.63-0.19,0.82c0,0.1,0.01,0.19-0.02,0.3C28.72,21.69,28.59,21.82,28.48,21.84
	L28.48,21.84z"/>
<path style="fill:#7A361D;" d="M29.09,18.85c-0.21,0.59,0.01,0.98-0.27,1.47c0.31-0.36,0.11-0.82,0.38-1.42L29.09,18.85z"/>
<path style="fill:#F1BD51;" d="M29.7,17.18l-0.18-4.69c0,0,0-0.09-0.06-0.09c-0.06,0-0.06,0.09-0.06,0.09l-0.18,4.69H29.7z"/>
<path style="fill:#7A361D;" d="M29.68,17.19l-0.18-4.69c0,0,0-0.07-0.04-0.07c-0.04,0-0.05,0.07-0.05,0.07l-0.18,4.69l0.15-4.69
	c0-0.04,0.01-0.1,0.07-0.1c0.06,0,0.07,0.07,0.07,0.1l0.18,4.68L29.68,17.19z"/>
<polygon style="fill:#7A361D;" points="29.58,17.18 29.46,13.97 29.35,17.18 "/>
<path style="fill:#F1BD51;" d="M29.91,15.67c0.27-0.59,0.04-1.07,0.3-1.59c0.27-0.51,0.1-0.94,0.12-1.18
	c0.02-0.24,0.21-0.3,0.16-0.36c-0.05-0.06-0.25,0.05-0.33,0.37c-0.08,0.31,0.11,0.5-0.21,1.13c-0.32,0.63-0.07,0.92-0.39,1.48
	L29.91,15.67z"/>
<path style="fill:#7A361D;" d="M29.92,15.68l-0.03-0.01c0.13-0.29,0.14-0.56,0.15-0.81c0.01-0.26,0.02-0.51,0.15-0.77
	c0.2-0.37,0.16-0.7,0.13-0.93c-0.01-0.09-0.02-0.17-0.01-0.24c0.01-0.14,0.08-0.22,0.13-0.28c0.04-0.04,0.04-0.05,0.03-0.06
	c-0.11,0.01-0.24,0.12-0.3,0.36c-0.03,0.1-0.02,0.2-0.02,0.29c0.01,0.2,0.02,0.42-0.2,0.84c-0.16,0.31-0.18,0.54-0.19,0.76
	c-0.02,0.22-0.03,0.44-0.2,0.72c0.14-0.29,0.15-0.5,0.17-0.72c0.02-0.22,0.03-0.45,0.2-0.77c0.21-0.41,0.2-0.63,0.19-0.82
	c-0.01-0.1-0.01-0.19,0.02-0.3c0.06-0.25,0.21-0.37,0.28-0.39l0.01,0l0.06,0.02c0.03,0.03,0,0.07-0.04,0.1
	c-0.04,0.05-0.11,0.13-0.12,0.26c-0.01,0.06,0,0.14,0.01,0.23c0.03,0.24,0.06,0.57-0.13,0.95c-0.13,0.26-0.14,0.5-0.15,0.76
	C30.06,15.11,30.05,15.38,29.92,15.68"/>
<path style="fill:#7A361D;" d="M29.83,15.52c0.21-0.59-0.01-0.98,0.27-1.47c-0.31,0.36-0.11,0.82-0.38,1.42L29.83,15.52z"/>
<path style="fill:#F1BD51;" d="M29.46,16.95l-4.69,0.18c0,0-0.09,0-0.09,0.06c0,0.06,0.09,0.06,0.09,0.06l4.69,0.18V16.95z"/>
<path style="fill:#7A361D;" d="M29.46,17.41l-4.69-0.15c-0.04,0-0.1-0.02-0.1-0.07c0-0.06,0.07-0.07,0.1-0.07l4.69-0.18l0,0.03
	l-4.69,0.17c0,0-0.08,0-0.08,0.04c0,0.05,0.08,0.05,0.08,0.05L29.46,17.41z"/>
<polygon style="fill:#7A361D;" points="29.46,17.07 26.24,17.18 29.46,17.3 "/>
<path style="fill:#F1BD51;" d="M27.95,16.74c-0.59-0.27-1.07-0.04-1.58-0.31c-0.52-0.27-0.94-0.1-1.18-0.12
	c-0.23-0.02-0.3-0.21-0.36-0.16c-0.05,0.05,0.05,0.25,0.37,0.33c0.31,0.08,0.49-0.11,1.12,0.21c0.63,0.32,0.92,0.07,1.48,0.39
	L27.95,16.74z"/>
<path style="fill:#7A361D;" d="M27.81,17.08c-0.29-0.14-0.5-0.15-0.73-0.17c-0.22-0.02-0.45-0.03-0.77-0.2
	c-0.41-0.21-0.63-0.2-0.82-0.2c-0.1,0.01-0.19,0.01-0.3-0.02c-0.23-0.06-0.36-0.19-0.39-0.28l0-0.01l0.02-0.06
	c0.03-0.03,0.07,0,0.1,0.04c0.05,0.04,0.13,0.11,0.26,0.12c0.06,0.01,0.14,0,0.23-0.01c0.24-0.03,0.57-0.06,0.96,0.13
	c0.25,0.13,0.5,0.14,0.76,0.15c0.26,0.01,0.53,0.02,0.83,0.16l-0.01,0.03c-0.29-0.13-0.56-0.14-0.81-0.15
	c-0.26-0.01-0.51-0.02-0.77-0.16c-0.37-0.19-0.7-0.16-0.94-0.13c-0.09,0.01-0.17,0.02-0.23,0.02c-0.14-0.01-0.22-0.08-0.28-0.13
	c-0.04-0.03-0.06-0.05-0.07-0.03c0.01,0.11,0.13,0.24,0.36,0.3c0.1,0.03,0.19,0.02,0.29,0.02c0.2-0.01,0.42-0.02,0.84,0.2
	c0.31,0.16,0.54,0.18,0.75,0.19C27.31,16.89,27.53,16.91,27.81,17.08"/>
<path style="fill:#7A361D;" d="M27.8,16.82c-0.59-0.21-0.98,0.01-1.47-0.27c0.36,0.31,0.82,0.11,1.42,0.38L27.8,16.82z"/>
<path style="fill:#F1BD51;" d="M29.46,17.42l4.69-0.18c0,0,0.09,0,0.09-0.06c0-0.06-0.09-0.06-0.09-0.06l-4.69-0.18V17.42z"/>
<path style="fill:#7A361D;" d="M29.46,17.44l0-0.03l4.68-0.18c0,0,0.07,0,0.07-0.05c0-0.04-0.07-0.04-0.07-0.04l-4.69-0.18
	l4.69,0.15c0.03,0,0.1,0.01,0.1,0.07c0,0.06-0.07,0.07-0.1,0.07L29.46,17.44z"/>
<polygon style="fill:#7A361D;" points="29.46,17.3 32.68,17.18 29.46,17.07 "/>
<path style="fill:#F1BD51;" d="M30.98,17.63c0.59,0.27,1.07,0.04,1.59,0.31c0.51,0.27,0.94,0.1,1.17,0.12
	c0.23,0.02,0.3,0.21,0.35,0.16c0.06-0.05-0.05-0.25-0.37-0.33c-0.31-0.08-0.49,0.11-1.12-0.21c-0.63-0.32-0.92-0.07-1.48-0.39
	L30.98,17.63z"/>
<path style="fill:#7A361D;" d="M34.07,18.24c-0.02,0-0.05-0.02-0.08-0.05c-0.05-0.04-0.13-0.11-0.26-0.12
	c-0.06-0.01-0.14,0-0.23,0.01c-0.24,0.03-0.57,0.06-0.95-0.14c-0.26-0.13-0.5-0.14-0.76-0.15c-0.26-0.01-0.53-0.02-0.82-0.16
	l0.01-0.03c0.29,0.13,0.56,0.14,0.81,0.15c0.26,0.01,0.51,0.02,0.77,0.16c0.37,0.19,0.69,0.16,0.93,0.13
	c0.09-0.01,0.17-0.02,0.24-0.01c0.14,0.01,0.22,0.08,0.28,0.13c0.04,0.04,0.05,0.04,0.07,0.04c-0.01-0.11-0.12-0.24-0.36-0.3
	c-0.1-0.03-0.19-0.02-0.29-0.02c-0.2,0.01-0.42,0.02-0.83-0.2c-0.31-0.16-0.54-0.18-0.76-0.19c-0.23-0.02-0.44-0.03-0.72-0.2
	c0.29,0.14,0.51,0.15,0.73,0.17c0.22,0.02,0.45,0.03,0.77,0.2c0.41,0.21,0.63,0.2,0.82,0.19c0.1-0.01,0.19-0.01,0.3,0.02
	c0.25,0.06,0.37,0.2,0.39,0.28l0,0.01l-0.02,0.06C34.09,18.24,34.08,18.24,34.07,18.24"/>
<path style="fill:#7A361D;" d="M31.13,17.55c0.59,0.21,0.98-0.01,1.48,0.27c-0.36-0.31-0.82-0.11-1.42-0.38L31.13,17.55z"/>
<path style="fill:#F1BD51;" d="M29.3,17.02l-3.19,3.44c0,0-0.06,0.06-0.02,0.1c0.04,0.04,0.11-0.02,0.11-0.02l3.44-3.19L29.3,17.02z
	"/>
<path style="fill:#7A361D;" d="M26.12,20.59c-0.09-0.06-0.05-0.12-0.02-0.14l3.19-3.44l0.02,0.02l-3.19,3.44
	c0,0-0.05,0.05-0.02,0.08c0.03,0.03,0.08-0.02,0.08-0.02l3.44-3.19l-3.42,3.21C26.2,20.55,26.16,20.59,26.12,20.59"/>
<polygon style="fill:#7A361D;" points="29.38,17.1 27.19,19.46 29.55,17.27 "/>
<path style="fill:#F1BD51;" d="M28.08,17.94c-0.61,0.23-0.78,0.73-1.34,0.9c-0.55,0.17-0.74,0.59-0.92,0.75
	c-0.18,0.15-0.36,0.07-0.37,0.14c0,0.07,0.21,0.14,0.49-0.03c0.28-0.16,0.27-0.43,0.95-0.64c0.68-0.22,0.69-0.6,1.32-0.77
	L28.08,17.94z"/>
<path style="fill:#7A361D;" d="M25.62,19.82c-0.06,0-0.1-0.01-0.14-0.03l-0.04-0.06c0-0.04,0.05-0.05,0.1-0.05
	c0.07,0,0.17-0.01,0.27-0.1c0.05-0.04,0.1-0.1,0.15-0.17c0.15-0.19,0.36-0.45,0.77-0.58c0.28-0.09,0.46-0.25,0.65-0.43
	c0.19-0.18,0.39-0.36,0.69-0.47l0.01,0.03c-0.3,0.11-0.49,0.29-0.68,0.47c-0.19,0.18-0.38,0.35-0.66,0.44
	c-0.4,0.13-0.61,0.38-0.76,0.57c-0.06,0.07-0.11,0.13-0.15,0.17c-0.11,0.09-0.22,0.1-0.29,0.1c-0.05,0-0.07,0.01-0.07,0.02
	c0.09,0.07,0.26,0.08,0.47-0.04c0.09-0.06,0.15-0.12,0.22-0.19c0.13-0.14,0.28-0.31,0.73-0.45c0.33-0.11,0.5-0.26,0.67-0.4
	c0.17-0.15,0.33-0.29,0.65-0.37c-0.31,0.11-0.47,0.25-0.63,0.39c-0.17,0.14-0.34,0.29-0.68,0.4c-0.44,0.14-0.59,0.3-0.72,0.44
	c-0.07,0.07-0.13,0.14-0.23,0.2C25.83,19.79,25.71,19.82,25.62,19.82"/>
<path style="fill:#7A361D;" d="M28.03,18.1c-0.56,0.27-0.68,0.7-1.23,0.85c0.47-0.03,0.65-0.5,1.27-0.74L28.03,18.1z"/>
<path style="fill:#F1BD51;" d="M29.63,17.35l3.19-3.44c0,0,0.06-0.06,0.02-0.1c-0.04-0.04-0.1,0.02-0.1,0.02l-3.44,3.19L29.63,17.35
	z"/>
<path style="fill:#7A361D;" d="M29.64,17.36l-0.02-0.02l3.19-3.44c0,0,0.05-0.05,0.02-0.08c-0.03-0.03-0.08,0.02-0.08,0.02
	l-3.44,3.19l3.42-3.21c0.02-0.02,0.08-0.06,0.12-0.02c0.04,0.04,0,0.1-0.02,0.13L29.64,17.36z"/>
<polygon style="fill:#7A361D;" points="29.55,17.27 31.74,14.91 29.38,17.1 "/>
<path style="fill:#F1BD51;" d="M30.85,16.43c0.61-0.23,0.78-0.73,1.34-0.9c0.55-0.17,0.74-0.59,0.92-0.75
	c0.18-0.15,0.36-0.06,0.37-0.14c0-0.07-0.22-0.14-0.49,0.03c-0.28,0.17-0.27,0.43-0.95,0.64c-0.67,0.22-0.69,0.6-1.32,0.77
	L30.85,16.43z"/>
<path style="fill:#7A361D;" d="M30.85,16.44l-0.01-0.03c0.3-0.11,0.49-0.29,0.68-0.47c0.19-0.18,0.38-0.35,0.66-0.44
	c0.4-0.13,0.6-0.38,0.76-0.57c0.06-0.07,0.11-0.13,0.16-0.18c0.11-0.09,0.22-0.1,0.29-0.1c0.05,0,0.07-0.01,0.07-0.02
	c-0.09-0.07-0.26-0.08-0.47,0.04c-0.09,0.06-0.15,0.12-0.22,0.2c-0.13,0.14-0.28,0.31-0.73,0.45c-0.33,0.11-0.51,0.26-0.67,0.4
	c-0.17,0.15-0.33,0.29-0.65,0.37c0.3-0.11,0.46-0.25,0.63-0.39c0.17-0.15,0.34-0.29,0.68-0.4c0.44-0.14,0.59-0.3,0.72-0.44
	c0.07-0.07,0.13-0.14,0.22-0.2c0.21-0.12,0.39-0.13,0.48-0.08l0.04,0.06c0,0.04-0.05,0.05-0.1,0.05c-0.07,0-0.17,0.01-0.27,0.1
	c-0.05,0.04-0.1,0.1-0.15,0.17c-0.15,0.19-0.36,0.45-0.77,0.58c-0.28,0.09-0.46,0.25-0.65,0.43C31.35,16.15,31.16,16.33,30.85,16.44
	"/>
<path style="fill:#7A361D;" d="M30.9,16.27c0.56-0.27,0.68-0.7,1.23-0.85c-0.47,0.03-0.65,0.5-1.27,0.74L30.9,16.27z"/>
<path style="fill:#F1BD51;" d="M29.63,17.02l-3.44-3.19c0,0-0.06-0.06-0.1-0.02c-0.04,0.04,0.02,0.1,0.02,0.1l3.19,3.44L29.63,17.02
	z"/>
<path style="fill:#7A361D;" d="M29.31,17.34l-3.21-3.42c-0.02-0.02-0.06-0.08-0.02-0.12c0.04-0.04,0.1-0.01,0.13,0.02l3.44,3.19
	l-0.02,0.02l-3.44-3.19c0,0-0.05-0.05-0.08-0.02c-0.03,0.03,0.02,0.08,0.02,0.08L29.31,17.34z"/>
<polygon style="fill:#7A361D;" points="29.55,17.1 27.19,14.91 29.38,17.27 "/>
<path style="fill:#F1BD51;" d="M28.71,15.8c-0.23-0.61-0.73-0.79-0.9-1.34c-0.17-0.56-0.59-0.73-0.75-0.92
	c-0.15-0.18-0.07-0.36-0.14-0.37s-0.14,0.22,0.03,0.49c0.17,0.28,0.43,0.27,0.64,0.95c0.22,0.68,0.6,0.7,0.77,1.32L28.71,15.8z"/>
<path style="fill:#7A361D;" d="M28.37,15.94c-0.11-0.3-0.25-0.46-0.39-0.63c-0.14-0.17-0.29-0.34-0.4-0.68
	c-0.14-0.44-0.3-0.59-0.44-0.72c-0.07-0.07-0.14-0.13-0.2-0.23c-0.13-0.22-0.12-0.41-0.07-0.47l0.06-0.04c0.04,0,0.05,0.05,0.05,0.1
	c0.01,0.07,0.01,0.17,0.1,0.27c0.04,0.05,0.1,0.1,0.17,0.15c0.19,0.15,0.45,0.36,0.58,0.77c0.09,0.27,0.25,0.45,0.43,0.64
	c0.18,0.19,0.36,0.39,0.48,0.69l-0.03,0.01c-0.11-0.3-0.29-0.5-0.47-0.68c-0.18-0.19-0.35-0.38-0.44-0.66
	c-0.12-0.4-0.38-0.6-0.57-0.75c-0.07-0.06-0.13-0.11-0.18-0.16c-0.09-0.11-0.1-0.22-0.1-0.29c0-0.05-0.01-0.07-0.02-0.07
	c-0.07,0.09-0.09,0.26,0.04,0.47c0.06,0.09,0.12,0.15,0.19,0.22c0.15,0.13,0.31,0.28,0.45,0.73c0.11,0.33,0.25,0.5,0.4,0.67
	C28.15,15.46,28.29,15.62,28.37,15.94"/>
<path style="fill:#7A361D;" d="M28.55,15.75c-0.27-0.56-0.7-0.68-0.85-1.23c0.03,0.47,0.5,0.65,0.74,1.27L28.55,15.75z"/>
<path style="fill:#F1BD51;" d="M29.3,17.35l3.44,3.19c0,0,0.06,0.06,0.1,0.02c0.04-0.04-0.02-0.1-0.02-0.1l-3.19-3.44L29.3,17.35z"
	/>
<path style="fill:#7A361D;" d="M32.8,20.58c-0.06,0-0.08-0.02-0.08-0.02l-3.44-3.19l0.02-0.02l3.44,3.19c0,0,0.05,0.05,0.08,0.02
	c0.03-0.03-0.02-0.08-0.02-0.08l-3.19-3.44l3.21,3.42c0.03,0.03,0.06,0.08,0.02,0.12C32.83,20.57,32.82,20.58,32.8,20.58"/>
<polygon style="fill:#7A361D;" points="29.38,17.27 31.74,19.46 29.55,17.1 "/>
<path style="fill:#F1BD51;" d="M30.22,18.57c0.23,0.61,0.73,0.78,0.9,1.34c0.17,0.55,0.59,0.73,0.75,0.91
	c0.16,0.18,0.06,0.36,0.14,0.37c0.07,0.01,0.14-0.21-0.03-0.49s-0.43-0.27-0.64-0.95c-0.22-0.68-0.6-0.7-0.77-1.32L30.22,18.57z"/>
<path style="fill:#7A361D;" d="M32.01,21.2c-0.04,0-0.05-0.05-0.05-0.1c-0.01-0.07-0.01-0.17-0.1-0.27
	c-0.04-0.05-0.1-0.09-0.17-0.15c-0.19-0.15-0.45-0.36-0.58-0.77c-0.09-0.28-0.25-0.46-0.43-0.65c-0.18-0.19-0.36-0.39-0.47-0.69
	l0.03-0.01c0.11,0.3,0.29,0.49,0.47,0.68c0.18,0.19,0.35,0.38,0.44,0.66c0.13,0.4,0.38,0.61,0.57,0.76c0.07,0.06,0.13,0.1,0.17,0.15
	c0.09,0.11,0.1,0.22,0.1,0.29c0,0.06,0.01,0.07,0.02,0.07c0.08-0.09,0.09-0.26-0.04-0.47c-0.06-0.09-0.12-0.15-0.19-0.22
	c-0.14-0.13-0.31-0.28-0.45-0.73c-0.11-0.33-0.26-0.51-0.4-0.67c-0.15-0.17-0.29-0.33-0.37-0.65c0.11,0.3,0.25,0.46,0.39,0.63
	c0.15,0.17,0.3,0.34,0.41,0.68c0.14,0.44,0.3,0.59,0.44,0.72c0.07,0.07,0.14,0.13,0.2,0.23c0.12,0.21,0.13,0.39,0.07,0.47
	L32.01,21.2z"/>
<path style="fill:#7A361D;" d="M30.38,18.62c0.27,0.56,0.7,0.68,0.85,1.23c-0.03-0.47-0.5-0.65-0.74-1.27L30.38,18.62z"/>
<path style="fill:#F1BD51;" d="M29.25,17.1l-1.63,4.4c0,0-0.03,0.08,0.02,0.1c0.05,0.02,0.09-0.06,0.09-0.06l1.96-4.26L29.25,17.1z"
	/>
<path style="fill:#7A361D;" d="M27.68,21.61c-0.1-0.02-0.09-0.09-0.08-0.12l1.63-4.4l0.03,0.01l-1.63,4.4c0,0-0.03,0.07,0.01,0.09
	l0.07-0.05l1.96-4.26l-1.93,4.27C27.74,21.55,27.71,21.59,27.68,21.61"/>
<polygon style="fill:#7A361D;" points="29.36,17.14 28.23,20.16 29.57,17.23 "/>
<path style="fill:#F1BD51;" d="M28.47,18.42c-0.47,0.44-0.45,0.98-0.89,1.35c-0.45,0.37-0.45,0.83-0.56,1.04
	c-0.11,0.21-0.31,0.2-0.29,0.27c0.03,0.07,0.25,0.05,0.44-0.21c0.19-0.26,0.09-0.5,0.63-0.96c0.54-0.46,0.41-0.82,0.93-1.22
	L28.47,18.42z"/>
<path style="fill:#7A361D;" d="M26.81,21.12c-0.01,0-0.02,0-0.02,0l-0.07-0.04c-0.01-0.04,0.03-0.06,0.07-0.08
	c0.06-0.03,0.16-0.08,0.21-0.19c0.03-0.06,0.05-0.13,0.08-0.22c0.07-0.23,0.16-0.55,0.49-0.83c0.22-0.18,0.32-0.41,0.43-0.65
	c0.11-0.24,0.22-0.48,0.46-0.7l0.02,0.02c-0.24,0.22-0.35,0.46-0.45,0.69c-0.11,0.24-0.21,0.47-0.44,0.65
	c-0.32,0.27-0.41,0.58-0.48,0.81c-0.03,0.09-0.05,0.17-0.08,0.22c-0.06,0.13-0.16,0.18-0.23,0.21c-0.05,0.02-0.06,0.03-0.06,0.05
	c0.11,0.03,0.28-0.02,0.42-0.22c0.07-0.09,0.1-0.17,0.13-0.26c0.07-0.18,0.15-0.39,0.5-0.7c0.27-0.23,0.37-0.43,0.47-0.63
	c0.1-0.2,0.2-0.39,0.46-0.59c-0.24,0.22-0.33,0.41-0.43,0.6c-0.1,0.2-0.2,0.4-0.47,0.63c-0.35,0.3-0.43,0.51-0.49,0.69
	c-0.03,0.09-0.07,0.18-0.13,0.27C27.06,21.04,26.91,21.12,26.81,21.12"/>
<path style="fill:#7A361D;" d="M28.49,18.58c-0.42,0.46-0.36,0.91-0.82,1.26c0.43-0.21,0.41-0.71,0.89-1.17L28.49,18.58z"/>
<path style="fill:#F1BD51;" d="M29.68,17.28l1.63-4.4c0,0,0.03-0.08-0.02-0.1c-0.05-0.02-0.09,0.06-0.09,0.06l-1.96,4.26
	L29.68,17.28z"/>
<path style="fill:#7A361D;" d="M29.69,17.28l-0.03-0.01l1.63-4.4c0,0,0.03-0.07-0.01-0.08l-0.07,0.05l-1.96,4.26l1.93-4.27
	c0,0,0.02-0.05,0.06-0.07l0.08,0.03c0.01,0.04-0.01,0.08-0.01,0.09L29.69,17.28z"/>
<polygon style="fill:#7A361D;" points="29.57,17.23 30.69,14.21 29.35,17.14 "/>
<path style="fill:#F1BD51;" d="M30.45,15.96c0.47-0.44,0.45-0.97,0.89-1.35c0.45-0.37,0.45-0.83,0.56-1.04
	c0.11-0.21,0.31-0.2,0.29-0.27c-0.03-0.07-0.25-0.05-0.44,0.21c-0.19,0.26-0.09,0.5-0.63,0.96c-0.54,0.46-0.41,0.82-0.93,1.21
	L30.45,15.96z"/>
<path style="fill:#7A361D;" d="M30.46,15.97l-0.02-0.02c0.23-0.22,0.34-0.46,0.45-0.69c0.11-0.24,0.21-0.47,0.44-0.65
	c0.32-0.27,0.41-0.58,0.48-0.81c0.03-0.09,0.05-0.17,0.08-0.22c0.06-0.13,0.16-0.18,0.23-0.21c0.05-0.02,0.06-0.03,0.06-0.05
	c-0.11-0.03-0.28,0.02-0.42,0.22c-0.07,0.09-0.1,0.17-0.13,0.26c-0.07,0.18-0.14,0.39-0.5,0.7c-0.27,0.23-0.37,0.43-0.47,0.62
	c-0.1,0.2-0.2,0.39-0.46,0.59c0.24-0.22,0.33-0.41,0.43-0.6s0.2-0.4,0.47-0.63c0.35-0.3,0.43-0.51,0.49-0.69
	c0.03-0.09,0.07-0.18,0.13-0.27c0.14-0.19,0.31-0.27,0.41-0.25l0.06,0.04c0.01,0.04-0.03,0.06-0.07,0.08
	c-0.06,0.03-0.15,0.07-0.21,0.19c-0.03,0.06-0.05,0.13-0.08,0.22c-0.07,0.23-0.16,0.55-0.49,0.83c-0.22,0.18-0.32,0.41-0.43,0.65
	C30.81,15.5,30.7,15.74,30.46,15.97"/>
<path style="fill:#7A361D;" d="M30.44,15.79c0.42-0.46,0.36-0.91,0.81-1.26c-0.43,0.21-0.41,0.72-0.9,1.17L30.44,15.79z"/>
<path style="fill:#F1BD51;" d="M29.55,16.97l-4.4-1.63c0,0-0.08-0.03-0.1,0.02c-0.02,0.06,0.06,0.09,0.06,0.09l4.26,1.96
	L29.55,16.97z"/>
<path style="fill:#7A361D;" d="M29.38,17.39l-4.28-1.93c-0.03-0.01-0.09-0.05-0.07-0.11c0.02-0.05,0.09-0.04,0.12-0.03l4.39,1.63
	l-0.01,0.03l-4.4-1.63c0,0-0.07-0.03-0.09,0.01c-0.02,0.04,0.05,0.07,0.05,0.07L29.38,17.39z"/>
<polygon style="fill:#7A361D;" points="29.51,17.08 26.49,15.95 29.42,17.3 "/>
<path style="fill:#F1BD51;" d="M28.24,16.2c-0.44-0.48-0.98-0.45-1.35-0.89c-0.37-0.45-0.83-0.45-1.04-0.56
	c-0.21-0.11-0.2-0.31-0.27-0.29c-0.07,0.02-0.05,0.25,0.22,0.45c0.26,0.19,0.5,0.09,0.96,0.63c0.46,0.54,0.82,0.41,1.22,0.93
	L28.24,16.2z"/>
<path style="fill:#7A361D;" d="M27.98,16.45c-0.22-0.24-0.41-0.33-0.61-0.43c-0.2-0.1-0.4-0.2-0.63-0.47
	c-0.3-0.35-0.51-0.43-0.69-0.49c-0.09-0.03-0.18-0.07-0.27-0.13c-0.2-0.15-0.27-0.32-0.25-0.41l0.04-0.06
	c0.04-0.02,0.06,0.03,0.08,0.07c0.03,0.06,0.08,0.15,0.19,0.21c0.06,0.03,0.13,0.05,0.21,0.07c0.24,0.07,0.56,0.16,0.83,0.49
	c0.19,0.22,0.41,0.32,0.65,0.43c0.24,0.11,0.48,0.22,0.71,0.46l-0.02,0.02c-0.22-0.24-0.46-0.35-0.7-0.45
	c-0.24-0.11-0.46-0.21-0.65-0.44c-0.27-0.32-0.59-0.42-0.82-0.48c-0.09-0.03-0.16-0.05-0.22-0.07c-0.13-0.07-0.17-0.16-0.21-0.23
	c-0.02-0.05-0.03-0.07-0.05-0.06c-0.03,0.11,0.02,0.27,0.22,0.42c0.09,0.07,0.17,0.1,0.26,0.13c0.18,0.07,0.39,0.14,0.7,0.5
	c0.23,0.27,0.43,0.37,0.63,0.47C27.59,16.09,27.78,16.19,27.98,16.45"/>
<path style="fill:#7A361D;" d="M28.07,16.21c-0.46-0.42-0.91-0.36-1.26-0.81c0.21,0.43,0.71,0.41,1.17,0.89L28.07,16.21z"/>
<path style="fill:#F1BD51;" d="M29.37,17.4l4.4,1.63c0,0,0.08,0.03,0.1-0.02c0.02-0.05-0.06-0.09-0.06-0.09l-4.26-1.96L29.37,17.4z"
	/>
<path style="fill:#7A361D;" d="M33.82,19.06c-0.02,0-0.04,0-0.06-0.01l-4.39-1.63l0.01-0.03l4.39,1.63c0,0,0.07,0.03,0.09-0.01
	c0.01-0.04-0.05-0.07-0.05-0.07l-4.26-1.96l4.28,1.93c0.03,0.02,0.09,0.05,0.07,0.11C33.87,19.05,33.85,19.06,33.82,19.06"/>
<polygon style="fill:#7A361D;" points="29.42,17.29 32.43,18.42 29.51,17.08 "/>
<path style="fill:#F1BD51;" d="M30.69,18.17c0.44,0.48,0.98,0.45,1.35,0.89c0.37,0.45,0.83,0.45,1.04,0.56
	c0.21,0.11,0.2,0.31,0.27,0.29c0.07-0.02,0.04-0.25-0.22-0.44c-0.26-0.19-0.5-0.09-0.96-0.63c-0.46-0.54-0.82-0.41-1.22-0.93
	L30.69,18.17z"/>
<path style="fill:#7A361D;" d="M33.33,19.93c-0.03,0-0.05-0.04-0.07-0.08c-0.03-0.06-0.08-0.15-0.2-0.21
	c-0.05-0.03-0.13-0.05-0.22-0.07c-0.23-0.07-0.55-0.16-0.83-0.49c-0.18-0.22-0.41-0.32-0.65-0.43c-0.24-0.11-0.48-0.22-0.7-0.46
	l0.02-0.02c0.22,0.24,0.46,0.35,0.7,0.45c0.24,0.11,0.47,0.21,0.66,0.44c0.27,0.32,0.58,0.41,0.81,0.48
	c0.09,0.03,0.16,0.05,0.22,0.08c0.13,0.06,0.17,0.16,0.21,0.23c0.03,0.05,0.04,0.06,0.05,0.06c0.03-0.11-0.02-0.27-0.22-0.42
	c-0.09-0.06-0.17-0.09-0.26-0.13c-0.18-0.07-0.39-0.14-0.7-0.5c-0.23-0.27-0.43-0.37-0.62-0.47c-0.2-0.1-0.39-0.2-0.59-0.46
	c0.22,0.24,0.41,0.33,0.61,0.43c0.2,0.1,0.4,0.2,0.63,0.47c0.3,0.35,0.51,0.43,0.68,0.49c0.09,0.03,0.18,0.07,0.27,0.13
	c0.21,0.16,0.27,0.33,0.25,0.41l-0.04,0.06C33.35,19.93,33.34,19.93,33.33,19.93"/>
<path style="fill:#7A361D;" d="M30.86,18.16c0.46,0.42,0.91,0.36,1.26,0.81c-0.21-0.42-0.71-0.41-1.17-0.89L30.86,18.16z"/>
<path style="fill:#F1BD51;" d="M29.37,16.97l-4.26,1.96c0,0-0.08,0.03-0.06,0.09c0.02,0.06,0.1,0.02,0.1,0.02l4.4-1.63L29.37,16.97z
	"/>
<path style="fill:#7A361D;" d="M25.11,19.06c-0.03,0-0.06-0.01-0.07-0.04c-0.02-0.05,0.03-0.09,0.07-0.11l4.26-1.96l0.01,0.03
	l-4.26,1.96c0,0-0.07,0.03-0.05,0.07c0.02,0.04,0.08,0.01,0.09,0.01l4.39-1.63l-4.38,1.66C25.15,19.05,25.13,19.06,25.11,19.06"/>
<polygon style="fill:#7A361D;" points="29.42,17.08 26.49,18.42 29.51,17.3 "/>
<path style="fill:#F1BD51;" d="M27.89,17.36c-0.65-0.02-1,0.37-1.58,0.32c-0.58-0.05-0.91,0.27-1.13,0.34
	c-0.23,0.07-0.36-0.08-0.39-0.01c-0.03,0.07,0.14,0.21,0.47,0.16c0.32-0.05,0.41-0.29,1.12-0.23c0.71,0.06,0.87-0.29,1.52-0.2V17.36
	z"/>
<path style="fill:#7A361D;" d="M25.13,18.19c-0.19,0-0.31-0.07-0.35-0.12L24.78,18c0.02-0.04,0.06-0.03,0.11-0.01
	c0.06,0.02,0.16,0.05,0.29,0.01c0.06-0.02,0.13-0.06,0.21-0.1c0.21-0.12,0.5-0.28,0.93-0.24c0.29,0.03,0.52-0.06,0.76-0.15
	c0.25-0.09,0.49-0.18,0.82-0.17l0,0.03c-0.32-0.01-0.57,0.08-0.81,0.17c-0.25,0.09-0.48,0.17-0.77,0.15
	c-0.41-0.04-0.71,0.12-0.92,0.24c-0.08,0.04-0.15,0.08-0.21,0.1c-0.14,0.04-0.24,0.01-0.31-0.01C24.82,18,24.81,18,24.8,18.01
	c0.05,0.1,0.21,0.18,0.45,0.14c0.11-0.02,0.19-0.05,0.28-0.09c0.18-0.08,0.37-0.18,0.85-0.14c0.35,0.03,0.57-0.04,0.77-0.11
	c0.21-0.07,0.42-0.14,0.75-0.09c-0.34-0.02-0.53,0.05-0.74,0.12c-0.21,0.07-0.43,0.14-0.78,0.11c-0.46-0.04-0.66,0.06-0.83,0.14
	c-0.09,0.04-0.17,0.08-0.28,0.1C25.21,18.19,25.17,18.19,25.13,18.19"/>
<path style="fill:#7A361D;" d="M27.78,17.48c-0.62,0.03-0.9,0.39-1.47,0.32c0.45,0.15,0.79-0.21,1.46-0.19L27.78,17.48z"/>
<path style="fill:#F1BD51;" d="M29.55,17.4l4.26-1.96c0,0,0.08-0.03,0.06-0.09c-0.02-0.05-0.1-0.02-0.1-0.02l-4.4,1.63L29.55,17.4z"
	/>
<path style="fill:#7A361D;" d="M29.56,17.42l-0.01-0.03l4.26-1.96c0,0,0.07-0.03,0.05-0.07c-0.02-0.04-0.08-0.01-0.09-0.01
	l-4.4,1.63l4.39-1.66c0.03-0.01,0.1-0.02,0.12,0.03c0.02,0.05-0.03,0.09-0.07,0.11L29.56,17.42z"/>
<polygon style="fill:#7A361D;" points="29.51,17.29 32.43,15.95 29.42,17.08 "/>
<path style="fill:#F1BD51;" d="M31.03,17.01c0.65,0.02,1-0.38,1.58-0.32c0.58,0.05,0.91-0.27,1.13-0.34
	c0.22-0.07,0.36,0.08,0.39,0.02c0.03-0.07-0.14-0.21-0.47-0.16c-0.32,0.05-0.41,0.29-1.12,0.23c-0.71-0.06-0.87,0.29-1.52,0.2V17.01
	z"/>
<path style="fill:#7A361D;" d="M31.09,17.03c-0.02,0-0.04,0-0.06,0l0-0.03c0.32,0.01,0.57-0.08,0.81-0.17
	c0.25-0.09,0.49-0.18,0.77-0.15c0.42,0.04,0.71-0.12,0.92-0.24c0.08-0.04,0.15-0.08,0.21-0.1c0.14-0.04,0.24-0.01,0.31,0.02
	c0.05,0.02,0.07,0.02,0.07,0.01c-0.05-0.1-0.2-0.18-0.45-0.14c-0.11,0.02-0.19,0.05-0.28,0.09c-0.18,0.08-0.38,0.18-0.85,0.14
	c-0.35-0.03-0.56,0.04-0.77,0.11c-0.22,0.07-0.42,0.14-0.75,0.09c0.33,0.02,0.53-0.05,0.74-0.12c0.21-0.07,0.43-0.14,0.78-0.11
	c0.46,0.03,0.66-0.06,0.83-0.14c0.09-0.04,0.17-0.08,0.28-0.1c0.24-0.04,0.41,0.03,0.47,0.11l0.01,0.07
	c-0.02,0.04-0.06,0.03-0.11,0.01c-0.06-0.02-0.16-0.06-0.29-0.02c-0.06,0.02-0.13,0.06-0.2,0.1c-0.21,0.12-0.51,0.28-0.93,0.24
	c-0.28-0.03-0.52,0.06-0.76,0.15C31.62,16.94,31.39,17.03,31.09,17.03"/>
<path style="fill:#7A361D;" d="M31.14,16.89c0.62-0.03,0.9-0.38,1.46-0.31c-0.45-0.15-0.8,0.22-1.46,0.2L31.14,16.89z"/>
<path style="fill:#F1BD51;" d="M29.68,17.1l-1.96-4.26c0,0-0.03-0.08-0.09-0.06c-0.06,0.02-0.02,0.1-0.02,0.1l1.63,4.4L29.68,17.1z"
	/>
<path style="fill:#7A361D;" d="M29.26,17.27l-1.66-4.39c0,0-0.02-0.05-0.01-0.09l0.08-0.04c0.04,0.02,0.06,0.06,0.06,0.07l1.96,4.26
	l-0.03,0.01l-1.99-4.33l-0.03,0.01l-0.01,0.08L29.26,17.27z"/>
<polygon style="fill:#7A361D;" points="29.57,17.14 28.23,14.21 29.35,17.23 "/>
<path style="fill:#F1BD51;" d="M29.29,15.62c0.02-0.65-0.38-1.01-0.33-1.58c0.05-0.58-0.27-0.91-0.34-1.13
	c-0.07-0.22,0.08-0.36,0.01-0.39c-0.07-0.03-0.21,0.15-0.16,0.46c0.05,0.32,0.29,0.42,0.23,1.12c-0.06,0.71,0.29,0.87,0.21,1.52
	L29.29,15.62z"/>
<path style="fill:#7A361D;" d="M29.31,15.62l-0.03,0c0.01-0.32-0.08-0.57-0.17-0.81c-0.09-0.25-0.18-0.48-0.15-0.77
	c0.04-0.42-0.12-0.7-0.24-0.91c-0.04-0.08-0.08-0.15-0.1-0.21c-0.04-0.14-0.01-0.24,0.02-0.31c0.02-0.05,0.02-0.07,0.01-0.08
	c-0.1,0.06-0.18,0.21-0.14,0.45c0.01,0.11,0.05,0.19,0.09,0.28c0.08,0.18,0.17,0.38,0.14,0.85c-0.03,0.35,0.04,0.57,0.11,0.77
	c0.07,0.22,0.14,0.42,0.1,0.74c0.01-0.32-0.05-0.52-0.12-0.73c-0.07-0.21-0.14-0.43-0.11-0.78c0.04-0.46-0.05-0.66-0.13-0.83
	c-0.04-0.09-0.08-0.17-0.1-0.29c-0.03-0.24,0.03-0.41,0.11-0.47l0.07-0.02c0.04,0.02,0.02,0.06,0.01,0.11
	c-0.02,0.07-0.05,0.16-0.02,0.29c0.02,0.06,0.06,0.13,0.1,0.2c0.12,0.21,0.28,0.51,0.24,0.93c-0.03,0.29,0.06,0.52,0.15,0.76
	S29.32,15.29,29.31,15.62"/>
<path style="fill:#7A361D;" d="M29.17,15.51c-0.03-0.62-0.38-0.9-0.31-1.46c-0.16,0.45,0.21,0.8,0.19,1.46L29.17,15.51z"/>
<path style="fill:#F1BD51;" d="M29.25,17.28l1.96,4.26c0,0,0.03,0.08,0.09,0.06c0.05-0.02,0.02-0.1,0.02-0.1l-1.63-4.4L29.25,17.28z
	"/>
<path style="fill:#7A361D;" d="M31.3,21.61c-0.09-0.02-0.11-0.06-0.11-0.07l-1.96-4.26l0.03-0.01l1.95,4.26c0,0,0.03,0.07,0.07,0.05
	c0.04-0.02,0.01-0.08,0.01-0.09l-1.63-4.4l1.66,4.39C31.34,21.52,31.35,21.59,31.3,21.61"/>
<polygon style="fill:#7A361D;" points="29.36,17.23 30.69,20.16 29.57,17.14 "/>
<path style="fill:#F1BD51;" d="M29.63,18.75c-0.02,0.65,0.38,1.01,0.32,1.58c-0.05,0.58,0.27,0.91,0.34,1.13
	c0.07,0.22-0.08,0.36-0.02,0.39c0.07,0.03,0.21-0.15,0.16-0.47c-0.05-0.32-0.29-0.41-0.23-1.12c0.06-0.71-0.29-0.87-0.21-1.52
	L29.63,18.75z"/>
<path style="fill:#7A361D;" d="M30.27,21.87c-0.04-0.02-0.03-0.06-0.01-0.11c0.02-0.06,0.06-0.16,0.02-0.29
	c-0.02-0.06-0.06-0.13-0.1-0.21c-0.12-0.21-0.28-0.51-0.24-0.93c0.03-0.29-0.06-0.52-0.15-0.76c-0.09-0.24-0.19-0.5-0.17-0.82
	l0.03,0c-0.01,0.32,0.08,0.57,0.17,0.81c0.09,0.25,0.18,0.48,0.15,0.77c-0.04,0.42,0.12,0.71,0.24,0.92
	c0.04,0.08,0.08,0.15,0.1,0.21c0.04,0.14,0.01,0.24-0.01,0.31c-0.02,0.05-0.02,0.07-0.01,0.08c0.1-0.06,0.18-0.21,0.14-0.45
	c-0.01-0.1-0.05-0.19-0.09-0.28c-0.08-0.18-0.18-0.38-0.14-0.85c0.03-0.35-0.04-0.56-0.11-0.77c-0.07-0.22-0.14-0.42-0.1-0.74
	c-0.01,0.32,0.05,0.52,0.12,0.73c0.07,0.21,0.14,0.43,0.11,0.78c-0.04,0.46,0.05,0.66,0.14,0.84c0.04,0.09,0.08,0.17,0.1,0.28
	c0.03,0.24-0.04,0.41-0.11,0.47L30.27,21.87z"/>
<path style="fill:#7A361D;" d="M29.76,18.86c0.03,0.62,0.38,0.9,0.31,1.47c0.15-0.45-0.21-0.8-0.19-1.46L29.76,18.86z"/>
<path style="fill:#F1BD51;" d="M29.46,15.28c1.05,0,1.91,0.85,1.91,1.91c0,1.06-0.86,1.91-1.91,1.91c-1.06,0-1.91-0.86-1.91-1.91
	C27.55,16.13,28.41,15.28,29.46,15.28"/>
<path style="fill:#7A361D;" d="M29.46,19.11c-1.06,0-1.93-0.86-1.93-1.93c0-1.06,0.86-1.92,1.93-1.92c1.06,0,1.92,0.86,1.92,1.92
	C31.39,18.25,30.52,19.11,29.46,19.11 M29.46,15.29c-1.05,0-1.9,0.85-1.9,1.89c0,1.05,0.85,1.9,1.9,1.9c1.04,0,1.89-0.85,1.89-1.9
	C31.36,16.14,30.51,15.29,29.46,15.29"/>
<path style="fill:#7A361D;" d="M30.67,16.77c-0.34-0.29-0.76-0.34-1-0.11c-0.17,0.23-0.15,0.5,0.04,0.78
	c-0.01,0-0.04,0.01-0.06,0.03c-0.15-0.28-0.17-0.57-0.07-0.84C29.9,16.36,30.35,16.33,30.67,16.77"/>
<path style="fill:#7A361D;" d="M30.14,16.69c-0.19,0-0.23,0.05-0.33,0.12c-0.09,0.07-0.13,0.06-0.15,0.07
	c-0.01,0.02,0,0.06,0.03,0.04c0.03-0.02,0.09-0.04,0.17-0.12c0.09-0.07,0.18-0.07,0.27-0.07c0.26,0,0.41,0.22,0.44,0.2
	C30.61,16.92,30.43,16.69,30.14,16.69"/>
<path style="fill:#7A361D;" d="M30.48,16.94c-0.19-0.2-0.54-0.22-0.69,0.02h0.06c0.15-0.23,0.5-0.13,0.53-0.03v0.03L30.48,16.94z"/>
<path style="fill:#7A361D;" d="M30.11,16.79c0.07,0,0.13,0.06,0.13,0.13c0,0.07-0.06,0.13-0.13,0.13c-0.07,0-0.13-0.06-0.13-0.13
	C29.98,16.85,30.04,16.79,30.11,16.79"/>
<path style="fill:#7A361D;" d="M29.79,16.95c0.15,0.13,0.47,0.15,0.69-0.01l-0.1-0.01c-0.15,0.16-0.38,0.15-0.53,0.03v-0.03
	L29.79,16.95z"/>
<path style="fill:#7A361D;" d="M30.49,17.01c-0.25,0.19-0.5,0.18-0.65,0.09c-0.15-0.09-0.15-0.12-0.12-0.12
	c0.03,0,0.06,0.03,0.18,0.09C30.02,17.13,30.2,17.13,30.49,17.01"/>
<path style="fill:#7A361D;" d="M29.77,17.45c0.04,0.02,0.07,0.07,0.05,0.11c-0.02,0.05-0.07,0.07-0.11,0.05
	c-0.03-0.01-0.06-0.04-0.06-0.08c-0.02,0.03-0.07,0.12-0.19,0.12h-0.03l0.03,0.04c0.03,0,0.12,0,0.18-0.04
	c0.04,0.06,0.12,0.07,0.18,0.03c0.06-0.04,0.07-0.13,0.03-0.19C29.84,17.48,29.81,17.46,29.77,17.45"/>
<path style="fill:#7A361D;" d="M29.95,18.07c-0.13-0.09-0.19-0.22-0.34-0.22c-0.03,0-0.09,0.02-0.15,0.05h-0.03l0.03,0.04
	c0.06,0,0.15-0.07,0.25-0.02C29.81,17.98,29.87,18.04,29.95,18.07"/>
<path style="fill:#7A361D;" d="M29.91,18.07c-0.29-0.09-0.35-0.03-0.44-0.03h-0.03l0.03,0.06C29.58,18.1,29.64,18.01,29.91,18.07"/>
<path style="fill:#7A361D;" d="M29.95,18.07c-0.32-0.03-0.22,0.16-0.48,0.16h-0.03l0.03,0.04C29.79,18.27,29.64,18.1,29.95,18.07"/>
<path style="fill:#7A361D;" d="M29.73,18.54c0-0.15-0.12-0.26-0.26-0.26c-0.15,0-0.26,0.12-0.26,0.26c0.03-0.15,0.18-0.23,0.33-0.2
	C29.63,18.36,29.7,18.44,29.73,18.54"/>
<path style="fill:#7A361D;" d="M28.26,16.77c0.34-0.29,0.76-0.34,1-0.11c0.17,0.23,0.15,0.5-0.04,0.78c0.02,0,0.04,0.01,0.06,0.03
	c0.15-0.28,0.17-0.57,0.07-0.84C29.02,16.36,28.58,16.33,28.26,16.77"/>
<path style="fill:#7A361D;" d="M28.79,16.69c0.19,0,0.23,0.05,0.32,0.12c0.09,0.07,0.13,0.06,0.15,0.07c0.01,0.02,0,0.06-0.03,0.04
	c-0.03-0.02-0.09-0.04-0.17-0.12c-0.09-0.07-0.18-0.07-0.26-0.07c-0.26,0-0.41,0.22-0.44,0.2C28.32,16.92,28.49,16.69,28.79,16.69"
	/>
<path style="fill:#7A361D;" d="M28.45,16.94c0.19-0.2,0.54-0.22,0.69,0.02h-0.06c-0.15-0.23-0.5-0.13-0.53-0.03v0.03L28.45,16.94z"
	/>
<path style="fill:#7A361D;" d="M28.82,16.79c-0.07,0-0.13,0.06-0.13,0.13c0,0.07,0.06,0.13,0.13,0.13c0.07,0,0.13-0.06,0.13-0.13
	C28.95,16.85,28.89,16.79,28.82,16.79"/>
<path style="fill:#7A361D;" d="M29.14,16.95c-0.15,0.13-0.47,0.15-0.69-0.01l0.1-0.01c0.15,0.16,0.38,0.15,0.53,0.03v-0.03
	L29.14,16.95z"/>
<path style="fill:#7A361D;" d="M28.43,17.01c0.25,0.19,0.5,0.18,0.65,0.09c0.15-0.09,0.15-0.12,0.12-0.12
	c-0.03,0-0.06,0.03-0.18,0.09C28.9,17.13,28.73,17.13,28.43,17.01"/>
<path style="fill:#7A361D;" d="M29.15,17.45c-0.05,0.02-0.07,0.07-0.05,0.11c0.02,0.05,0.07,0.07,0.11,0.05
	c0.03-0.01,0.06-0.04,0.06-0.08c0.01,0.03,0.07,0.12,0.19,0.12h0.03l-0.03,0.04c-0.03,0-0.12,0-0.18-0.04
	c-0.04,0.06-0.12,0.07-0.18,0.03c-0.06-0.04-0.07-0.13-0.03-0.19C29.09,17.48,29.12,17.46,29.15,17.45"/>
<path style="fill:#7A361D;" d="M28.98,18.07c0.13-0.09,0.19-0.22,0.34-0.22c0.03,0,0.09,0.02,0.15,0.05h0.03l-0.03,0.04
	c-0.06,0-0.15-0.07-0.25-0.02C29.11,17.98,29.05,18.04,28.98,18.07"/>
<path style="fill:#7A361D;" d="M29.02,18.07c0.29-0.09,0.35-0.03,0.44-0.03h0.03l-0.03,0.06C29.35,18.1,29.29,18.01,29.02,18.07"/>
<path style="fill:#7A361D;" d="M28.98,18.07c0.32-0.03,0.22,0.16,0.48,0.16h0.03l-0.03,0.04C29.14,18.27,29.29,18.1,28.98,18.07"/>
<path style="fill:#7A361D;" d="M29.2,18.54c0-0.15,0.12-0.26,0.26-0.26c0.14,0,0.26,0.12,0.26,0.26c-0.03-0.15-0.18-0.23-0.33-0.2
	C29.3,18.36,29.22,18.44,29.2,18.54"/>
</svg>
