<?xml version="1.0" encoding="utf-8"?>
<svg version="1.1" xmlns="http://www.w3.org/2000/svg" xmlns:xlink="http://www.w3.org/1999/xlink" x="0px" y="0px"
	 viewBox="0 0 58.92 34.37" style="enable-background:new 0 0 58.92 34.37;" xml:space="preserve">
<rect x="0" style="fill:#120065;" width="58.92" height="34.37"/>
<polygon style="fill:#AC002B;" points="58.92,0 0,17.19 58.92,34.37 "/>
<polygon style="fill-rule:evenodd;clip-rule:evenodd;fill:#FFFFFF;" points="58.92,1.84 58.92,32.53 6.31,17.18 "/>
<path style="fill-rule:evenodd;clip-rule:evenodd;fill:#8F3814;" d="M47.38,21.04c0,0-0.43-0.35,0.08-0.92
	c-0.28-0.23-0.02-0.68-0.02-0.68s-0.47-0.18,0.02-0.9c-0.35-0.23-0.2-0.76-0.2-0.76s-1.15-0.43-0.06-0.84
	c-0.9,0.39-1.74-0.53-1.74-0.53l-1.31,0.04c-0.22-1.08-1.94-0.14-0.66-3.26c-0.33-0.06-0.7-0.16-1.07,0.12
	c-0.37,0.27-1.42,0.86-2.05,0.27c-0.62-0.58,0.41-1.42,0.43-1.44c0.02-0.02,1.39-0.72,1.58-1.19c-0.02-0.35-0.45-0.62-0.06-1.39
	c0.45-0.72,3.2-1.4,4.45-1.64c0.61-0.28,0.88-0.8,0.88-0.8l0.14,0.51c0,0,2.77-0.82,2.91-1.21c0.14-0.39,0.06,0.35,0.06,0.35
	c1.09-0.1,2.48-1.04,2.67-0.61C54.34,6,56.1,5.22,56.1,5.22s0.6-0.02,0.18,0.64c0.27,0.43-0.08,0.8-0.1,0.8
	c-0.02,0,0.12,0.43-0.23,0.66c0.12,0.37-0.21,0.66-0.21,0.66s0.16,0.45-0.47,0.68c0.06,0.39-0.35,0.47-0.35,0.47
	s0.06,0.41-0.21,0.59c0,0.31-0.31,0.47-0.31,0.47s0.19,0.12-0.08,0.31c-0.27,0.2-3.1,1.93-3.1,1.91c0-0.02,2.07,0.37,2.21,0.45
	c0.13,0.08,1.7,1.11,1.7,1.11l-1.58,1.95c0,0-1.76-0.19-1.83-0.1c-0.08,0.1,0.37,0.14,0.47,0.29c0.1,0.16,0.25,0.53,0.56,0.49
	c0.31-0.04-0.58,0.57-1.17,0.62c0,0.22,0.74,0.23,0.94,0.06c0.19-0.17-0.47,0.51-0.55,0.6c-0.08,0.1,0.88-0.14,0.88-0.14
	s-0.16,0.64-0.99,0.84c0.33,0.54,0.19,0.9,0.18,0.9c-0.02,0-0.55-0.55-1.06-0.45c0.14,0.53,0.55,1.02,0.66,1.09
	c0.12,0.08-0.92,0.06-1.05-0.23c-0.13-0.29-0.25,0.7,0.12,1.02c-0.43,0.02-0.8-0.23-0.8-0.23s-0.25,0.58-0.08,0.88
	c0.18,0.29-0.6-0.59-0.6-0.59l-1.48,0.62L47.38,21.04z"/>
<path d="M49.82,21.68c-0.03,0-0.08-0.01-0.67-0.66l-1.42,0.64c-0.03,0.01-0.06,0-0.07-0.03l-0.33-0.56c0,0-0.16-0.14-0.18-0.37
	c-0.01-0.19,0.06-0.38,0.23-0.57c-0.19-0.22-0.08-0.54-0.02-0.66c-0.05-0.04-0.12-0.1-0.16-0.21c-0.06-0.18,0-0.42,0.18-0.7
	c-0.27-0.22-0.22-0.6-0.19-0.74c-0.14-0.06-0.51-0.24-0.52-0.48c0-0.09,0.04-0.16,0.12-0.24c-0.75,0.02-1.35-0.61-1.37-0.64
	l-1.26,0.06c-0.03-0.01-0.05-0.02-0.06-0.05c-0.07-0.34-0.29-0.46-0.52-0.59c-0.49-0.28-1-0.57-0.16-2.63l-0.02,0
	c-0.32-0.06-0.67-0.07-0.94,0.12c-0.34,0.25-0.9,0.54-1.41,0.54c-0.29,0-0.53-0.09-0.72-0.27c-0.15-0.14-0.22-0.3-0.22-0.49
	c0.01-0.46,0.5-0.91,0.65-1.03c0.01-0.01,0.01-0.01,0.09-0.05c1.09-0.6,1.41-0.94,1.48-1.12c-0.01-0.07-0.05-0.16-0.1-0.26
	c-0.11-0.25-0.25-0.57,0.04-1.13c0.57-0.92,4.45-1.66,4.49-1.67c0.57-0.26,0.83-0.77,0.84-0.77c0.01-0.02,0.03-0.04,0.06-0.03
	c0.02,0,0.04,0.02,0.05,0.04l0.12,0.45c1.06-0.32,2.72-0.9,2.81-1.16c0.04-0.1,0.06-0.15,0.12-0.15c0.06,0.04,0.1,0.08,0.07,0.46
	c0.46-0.06,0.96-0.25,1.41-0.42c0.6-0.23,1.07-0.39,1.22-0.18c0.91-0.19,2.6-0.94,2.62-0.94c0.07-0.01,0.29,0,0.38,0.16
	c0.07,0.13,0.03,0.32-0.13,0.57c0.19,0.24,0.1,0.51,0.02,0.64c0,0.01-0.05,0.1-0.11,0.15c0.02,0.15,0.04,0.46-0.22,0.66
	c0.08,0.36-0.2,0.64-0.24,0.68c0.03,0.01,0.13,0.44-0.45,0.68c0.02,0.28-0.19,0.43-0.35,0.47c0.01,0.12,0,0.43-0.25,0.59
	c0.02,0.21-0.15,0.36-0.25,0.43c0.02,0.03,0.03,0.06,0.03,0.09c0,0.08-0.05,0.17-0.17,0.25c-0.2,0.15-2.35,1.47-2.96,1.83
	c0.5,0.08,1.93,0.36,2.06,0.43c0.14,0.08,1.64,1.07,1.7,1.11c0.02,0.01,0.02,0.02,0.03,0.04c0,0.02,0,0.03-0.01,0.05l-1.58,1.95
	c-0.06,0.02-1.18-0.1-1.66-0.1c-0.07,0-0.12,0-0.14,0.01c0.03,0,0.08,0.02,0.11,0.03c0.12,0.05,0.27,0.1,0.33,0.19l0.04,0.08
	c0.09,0.16,0.26,0.39,0.45,0.39c0.12,0,0.15,0.04,0.15,0.07c0.01,0.16-0.72,0.57-1.2,0.65c0.13,0.08,0.67,0.09,0.8-0.03
	c0.01-0.01,0.06-0.04,0.07-0.04c0.07,0.08,0.07,0.08-0.26,0.43c-0.08,0.08-0.15,0.16-0.21,0.22c0.25-0.03,0.74-0.15,0.75-0.15
	c0.02-0.01,0.04,0,0.06,0.02c0.01,0.01,0.02,0.04,0.01,0.06c-0.01,0.03-0.16,0.64-0.96,0.86c0.26,0.46,0.19,0.8,0.15,0.88
	c-0.01,0.02-0.04,0.04-0.06,0.04c-0.01,0-0.07-0.04-0.08-0.05c-0.13-0.11-0.5-0.45-0.9-0.41c0.15,0.48,0.51,0.92,0.62,0.99
	c0.02,0.02,0.04,0.06,0.03,0.08c-0.01,0.04-0.05,0.07-0.23,0.07c-0.22,0-0.82-0.06-0.94-0.31c0,0.01-0.03,0.16-0.01,0.35
	c0.01,0.13,0.05,0.44,0.22,0.59c0.02,0.02,0.03,0.04,0.02,0.06c-0.01,0.02-0.03,0.04-0.05,0.04h0c-0.36,0-0.65-0.14-0.77-0.21
	c-0.06,0.15-0.18,0.55-0.06,0.76c0.01,0.02,0.04,0.1,0.03,0.12L49.82,21.68L49.82,21.68z M47.15,17.03L47.15,17.03
	c-0.24,0.1-0.36,0.2-0.36,0.31c0,0.17,0.36,0.35,0.49,0.39c0.03,0.01,0.04,0.04,0.04,0.07c0,0-0.14,0.49,0.17,0.7
	c0.01,0.01,0.02,0.02,0.03,0.04c0,0.02,0,0.03-0.01,0.05c-0.18,0.26-0.25,0.48-0.2,0.64c0.04,0.13,0.15,0.17,0.15,0.17
	c0.02,0.01,0.03,0.02,0.03,0.04c0.01,0.02,0,0.03,0,0.05c0,0.01-0.23,0.41,0.01,0.61c0.01,0.01,0.02,0.03,0.02,0.04
	c0,0.02,0,0.03-0.01,0.04c-0.17,0.18-0.24,0.36-0.23,0.53c0.01,0.19,0.15,0.3,0.15,0.3l0.32,0.54l1.43-0.6
	c0.21,0.2,0.41,0.41,0.54,0.53c-0.09-0.32,0.1-0.77,0.11-0.79c0.01-0.02,0.02-0.03,0.04-0.03c0.02-0.01,0.04,0,0.05,0.01
	c0,0,0.28,0.19,0.63,0.22c-0.2-0.29-0.2-0.79-0.14-0.97c0.06-0.15,0.19-0.04,0.21-0.01c0.07,0.16,0.53,0.24,0.84,0.24
	c0.02,0,0.04,0,0.05,0c-0.18-0.18-0.49-0.61-0.61-1.06c0-0.02,0-0.03,0.01-0.05c0.01-0.01,0.02-0.02,0.04-0.03
	c0.46-0.09,0.92,0.31,1.06,0.43c-0.01-0.02,0.05-0.33-0.22-0.79c-0.01-0.02-0.01-0.04,0-0.05c0.01-0.02,0.02-0.03,0.04-0.03
	c0.61-0.14,0.84-0.52,0.92-0.7c-0.19,0.04-0.6,0.14-0.74,0.14c-0.02,0-0.09-0.02-0.1-0.04c-0.01-0.02,0-0.06,0.01-0.08
	c0.03-0.04,0.16-0.17,0.29-0.31c0.04-0.04,0.07-0.07,0.1-0.11c-0.35,0.08-0.79,0.03-0.79-0.21c0-0.03,0.02-0.06,0.05-0.06
	c0.47-0.05,1.14-0.46,1.18-0.55l-0.05,0.05c-0.27,0-0.43-0.28-0.53-0.45l-0.04-0.07c-0.04-0.06-0.17-0.1-0.27-0.14
	c-0.12-0.04-0.2-0.07-0.22-0.14c-0.01-0.02,0.01-0.07,0.02-0.08c0.03-0.03,0.08-0.05,0.27-0.05c0.49,0,1.57,0.12,1.62,0.13
	l1.49-1.88c-0.28-0.18-1.52-1.01-1.64-1.08c-0.11-0.06-2.02-0.44-2.17-0.44c-0.02,0-0.04-0.01-0.05-0.03
	c-0.01-0.02-0.01-0.04,0-0.06c0.12-0.06,2.81-1.71,3.12-1.93c0.08-0.06,0.12-0.11,0.12-0.15c0-0.04-0.04-0.06-0.04-0.06
	c-0.02-0.01-0.03-0.03-0.03-0.05c0-0.02,0.01-0.04,0.03-0.05c0,0,0.28-0.14,0.28-0.41c0.27-0.2,0.22-0.57,0.22-0.58
	c0-0.03,0.02-0.06,0.05-0.07c0.01,0,0.35-0.07,0.3-0.4c0-0.03,0.01-0.05,0.04-0.06c0.56-0.21,0.44-0.59,0.43-0.61
	c0.02-0.07,0.32-0.33,0.22-0.67c-0.01-0.03,0-0.05,0.02-0.07c0.26-0.17,0.22-0.46,0.21-0.57c0-0.02,0-0.07,0.01-0.08
	c0.02-0.02,0.35-0.33,0.09-0.73c0.13-0.27,0.18-0.42,0.13-0.51c-0.06-0.1-0.23-0.11-0.25-0.11c-0.05,0.03-1.75,0.78-2.67,0.96
	c-0.03,0-0.05-0.01-0.06-0.03c-0.01-0.03-0.05-0.08-0.17-0.08c-0.21,0-0.54,0.13-0.93,0.28c-0.48,0.19-1.02,0.4-1.52,0.44
	c-0.02,0-0.03-0.01-0.05-0.02c-0.01-0.01-0.02-0.03-0.02-0.05c0.01-0.09,0.02-0.19,0.02-0.27c-0.34,0.42-2.64,1.11-2.91,1.19
	c-0.02,0-0.03,0-0.05-0.01c-0.01-0.01-0.02-0.02-0.03-0.04l-0.1-0.38c-0.12,0.18-0.39,0.51-0.83,0.71c-1.56,0.3-4.02,0.97-4.42,1.62
	c-0.26,0.5-0.14,0.78-0.03,1.02c0.05,0.11,0.09,0.22,0.1,0.33c-0.12,0.31-0.62,0.7-1.54,1.2l-0.07,0.04
	c-0.29,0.25-0.6,0.62-0.61,0.95c0,0.15,0.06,0.29,0.18,0.4c0.17,0.16,0.38,0.23,0.63,0.23c0.62,0,1.27-0.46,1.34-0.51
	c0.29-0.22,0.68-0.21,1.03-0.14l0.09,0.02c0.02,0,0.03,0.02,0.04,0.03c0.01,0.01,0.01,0.03,0,0.05c-0.83,2.03-0.39,2.28,0.08,2.55
	c0.24,0.13,0.48,0.27,0.57,0.63l1.26-0.04c0.05,0.02,0.61,0.62,1.28,0.62c0.13,0,0.25-0.02,0.37-0.06l0.08-0.03
	c0.03-0.01,0.06,0,0.07,0.03c0.01,0.03,0,0.06-0.03,0.08L47.15,17.03z"/>
<path style="fill-rule:evenodd;clip-rule:evenodd;fill:#F4C034;" d="M35.92,19.88c0.03,0,2.15-0.03,3.13-0.59
	c0.49,0.77,1.15,1.29,1.15,1.29l0.31-1.11c0,0,0.76,0.03,0.83,0.21c-0.1,0.21-0.14,0.49-0.14,0.49s0.52,0.03,0.56,0.1
	c0.03,0.07-0.14,0.66-0.14,0.66l2.22,0.52c0,0,0.17-0.87,0.35-0.76c0.17,0.1,0.94,1.18,2.01,1.25c1.08,0.07,1.15-0.9,1.15-0.9
	l0.24,0.14c0,0,0.45-0.97,0.52-0.97c0.07,0,0.17,0.14,0.76,0.14c0.17,0.21,0.24,0.7,0.24,0.7s-0.66,0.66-0.45,1.18
	c0.21,0.52,0.24,0.38,0.24,0.38l4.8,1.15c0,0,0.24,0.38-0.18,0.59c0,0.03-4.83-1.11-4.83-1.11s-0.45,0.52-0.8,0.42
	c-0.35-0.1-0.1,0.21-0.1,0.21l5.21,0.42c0,0,0.38,0.49,0.1,0.63c-0.35,0.04-5.63-0.35-5.63-0.35s-0.31,0.66-0.66,0.1
	c-0.24,0.38-0.52-0.1-0.52-0.1s-0.45,0.35-0.52-0.03c-0.38,0.28-0.63-0.18-0.63-0.18l-2.22-0.14l-0.14,0.21c0,0,0.38,0.1-0.21,0.35
	c-0.59,0.24,3.54,0.14,3.65,0.18c0.1,0.03-0.28,0.35-0.28,0.35s2.12,0.14,2.5-0.31c0.38-0.45-0.14,0.59-0.14,0.59
	s1.67-0.07,1.67-0.14c0-0.07-0.04,0.52-1.18,0.45c0.7,0.45,1.56,0.73,1.56,0.73s-0.87,0.21-1.88-0.03c0.18,0.45,0.94,0.87,0.94,0.87
	s-0.55,0.49-1.8-0.69c0.35,0.62,0.07,0.87,0.03,0.8c-0.03-0.07-0.63-0.94-2.01-1.25c0.87,0.55,0.49,0.8,0.49,0.8s-0.45-0.8-1.18,0
	c-0.28-0.73-1.35-1.15-2.67-1.21c-0.42-0.49-0.66-0.35-1.63-0.63c-0.55-0.63-1.35-1.32-1.35-1.32s0.04-0.94,0.97-0.83
	c0.1,0.31,0.1,0.21,0.1,0.21s1.04-0.38,1.35,0.14c0.45-0.8,1.08-0.12,1.18,0.16c0.3,0.05,1.81,0.09,1.81,0.09s-0.17-0.31-0.07-0.28
	c0.1,0.03,0.94-0.31,0.9-0.42c-0.04-0.1-0.07-0.45,0.07-0.42c0.14,0.04-1.18-0.17-1.91,0.38c-0.24-0.24-0.07-0.91-0.07-0.91
	l-2.15-0.45l-0.1,0.56c0,0-0.63,0.1-0.59-0.03c0.04-0.14-0.14,0.49-0.14,0.49s-0.83-0.21-0.83-0.24c0-0.04,0.24-1.25,0.24-1.22
	c0,0.04-0.69,0.07-1.67,0.8C38.11,21.06,35.92,19.91,35.92,19.88"/>
<path d="M47.68,27.59L47.68,27.59l-0.04,0l-0.03-0.04c-0.01-0.01-0.48-0.77-1.66-1.14c0.22,0.18,0.33,0.34,0.33,0.49
	c0,0.14-0.11,0.21-0.11,0.22l-0.05,0.03l-0.03-0.05c0,0-0.17-0.29-0.45-0.32c-0.2-0.03-0.41,0.09-0.64,0.33l-0.06,0.07l-0.03-0.09
	c-0.25-0.66-1.23-1.1-2.62-1.18c-0.31-0.34-0.5-0.38-0.91-0.45c-0.19-0.04-0.43-0.09-0.74-0.17c-0.57-0.63-1.37-1.33-1.38-1.33
	c-0.02-0.07,0-0.49,0.3-0.75c0.18-0.16,0.42-0.21,0.72-0.18c0.07,0.14,0.11,0.2,0.12,0.22c0.25-0.11,1-0.31,1.33,0.07
	c0.19-0.29,0.4-0.34,0.55-0.33c0.35,0.03,0.63,0.39,0.69,0.57c0.21,0.01,1.31,0.04,1.65,0.04c-0.09-0.19-0.06-0.23-0.05-0.25
	l0.03-0.03l0.07,0.01c0.09,0.02,0.78-0.27,0.83-0.36c-0.02-0.03-0.06-0.23-0.02-0.36c-0.96-0.05-1.47,0.18-1.73,0.37l-0.04,0.03
	l-0.04-0.04c-0.22-0.22-0.13-0.72-0.1-0.9l-2.04-0.43l-0.09,0.5c-0.21,0.07-0.48,0.11-0.62,0.06c-0.04,0.15-0.11,0.39-0.11,0.39
	l-0.01,0.05l-0.06-0.01c-0.88-0.22-0.88-0.24-0.88-0.3c0-0.02,0.04-0.23,0.12-0.64c0.05-0.25,0.08-0.4,0.1-0.49
	c-0.22,0.05-0.8,0.2-1.55,0.76l-0.07,0.05l-0.03-0.08c-0.22-0.69-1.75-1.6-2.25-1.9c-0.22-0.13-0.22-0.13-0.22-0.17v-0.06h0.06
	c0.02,0,2.14-0.04,3.1-0.58l0.05-0.03l0.03,0.05c0.38,0.61,0.88,1.06,1.06,1.21l0.3-1.07l0.05,0c0.19,0.01,0.81,0.05,0.89,0.24
	c-0.07,0.17-0.11,0.36-0.13,0.45c0.49,0.04,0.53,0.11,0.54,0.13c0.03,0.06-0.01,0.27-0.12,0.64l2.11,0.49
	c0.05-0.21,0.16-0.68,0.32-0.75l0.03-0.01l0.08,0.02c0.04,0.03,0.1,0.09,0.2,0.19c0.31,0.32,0.96,1,1.79,1.06
	c1.01,0.06,1.08-0.81,1.08-0.85l0.01-0.09l0.27,0.15c0.44-0.95,0.51-0.95,0.55-0.95l0.09,0.03c0.08,0.04,0.24,0.11,0.67,0.11
	c0.23,0.24,0.3,0.72,0.3,0.74c-0.02,0.06-0.65,0.69-0.46,1.17c0.13,0.32,0.18,0.36,0.18,0.36l4.81,1.13
	c0.04,0.03,0.15,0.22,0.1,0.41c-0.03,0.12-0.12,0.22-0.26,0.29c-0.01,0.01-0.02,0.02-0.45-0.08c0.09,0.12,0.2,0.32,0.16,0.48
	c-0.02,0.07-0.06,0.13-0.13,0.16c-0.36,0.04-5.35-0.32-5.65-0.34c0.02,0.02-0.13,0.31-0.36,0.33c-0.11,0.01-0.21-0.05-0.31-0.18
	c-0.06,0.07-0.14,0.1-0.21,0.1c-0.15,0-0.27-0.15-0.33-0.23c-0.09,0.06-0.27,0.16-0.41,0.11c-0.06-0.02-0.1-0.07-0.13-0.13
	c-0.1,0.05-0.2,0.07-0.29,0.05c-0.22-0.05-0.34-0.28-0.35-0.29l-2.17-0.11l-0.06,0.12c0.04,0.02,0.1,0.07,0.1,0.13
	c0.01,0.1-0.11,0.2-0.37,0.3c0.11,0.06,1.92,0.06,2.79,0.05c0.66,0,0.82,0,0.85,0.01l0.03,0.01l0.02,0.05
	c0.01,0.06-0.06,0.16-0.2,0.29c0.66,0.03,2.03,0.03,2.31-0.3c0.08-0.09,0.15-0.16,0.21-0.12c0.04,0.03,0.1,0.07-0.21,0.69
	c0.67-0.03,1.38-0.08,1.52-0.11l0.01-0.03l0.1,0.01v0.06c0,0.01,0,0.03-0.01,0.04c-0.07,0.16-0.28,0.46-1.01,0.47
	c0.64,0.38,1.35,0.61,1.36,0.61l0.2,0.06l-0.21,0.05c-0.03,0.01-0.83,0.19-1.78-0.01c0.23,0.39,0.85,0.73,0.86,0.73l0.07,0.04
	l-0.06,0.06c-0.02,0.02-0.54,0.46-1.67-0.51c0.11,0.32,0.04,0.5,0,0.55C47.77,27.56,47.72,27.59,47.68,27.59 M45.33,26.14l0.33,0.07
	c1.26,0.28,1.91,1.04,2.04,1.25c0-0.02,0.02-0.04,0.03-0.07c0.02-0.07,0.06-0.28-0.15-0.65l-0.18-0.33l0.28,0.26
	c0.92,0.88,1.45,0.81,1.64,0.74c-0.21-0.13-0.73-0.47-0.87-0.84l-0.04-0.11l0.11,0.03c0.69,0.17,1.31,0.12,1.63,0.07
	c-0.3-0.11-0.88-0.35-1.36-0.66l-0.19-0.12l0.22,0.01c0.68,0.04,0.95-0.16,1.06-0.3c-0.2,0.03-0.63,0.07-1.55,0.11l-0.1,0l0.04-0.09
	c0.09-0.18,0.19-0.39,0.24-0.52c-0.4,0.47-2.46,0.34-2.55,0.33l-0.15-0.01l0.12-0.09c0.14-0.11,0.26-0.24,0.27-0.28
	c-0.02,0.03-0.39,0.03-0.79,0.03c-2.61,0.01-2.91-0.05-2.93-0.17c-0.01-0.07,0.07-0.1,0.09-0.11c0.29-0.12,0.29-0.19,0.29-0.19
	c0-0.01-0.04-0.04-0.08-0.05l-0.08-0.02l0.19-0.28l2.27,0.11c0.05,0.03,0.15,0.22,0.32,0.26c0.08,0.02,0.17-0.01,0.27-0.07
	l0.08-0.05l0.02,0.09c0.02,0.1,0.06,0.12,0.08,0.12c0.1,0.04,0.29-0.08,0.35-0.13l0.05-0.04l0.03,0.06
	c0.04,0.06,0.15,0.22,0.26,0.22c0.06,0.01,0.11-0.04,0.16-0.12l0.05-0.08l0.05,0.08c0.08,0.13,0.17,0.2,0.25,0.19
	c0.14-0.01,0.27-0.22,0.31-0.29c0.1-0.03,4.89,0.32,5.6,0.32c0.03,0,0.06,0,0.07,0c0.02-0.01,0.04-0.04,0.04-0.07
	c0.03-0.14-0.13-0.38-0.19-0.46l-5.17-0.39c-0.08-0.08-0.18-0.21-0.12-0.3c0.05-0.07,0.16-0.05,0.24-0.03
	c0.26,0.08,0.62-0.26,0.74-0.4c0,0,0,0,0,0l0.13-0.56l0.02,0.01c-0.04-0.05-0.1-0.16-0.19-0.39c-0.21-0.54,0.41-1.19,0.46-1.24
	c-0.02,0-0.09-0.43-0.24-0.62c-0.41,0.02-0.59-0.06-0.68-0.1c-0.07,0.02-0.31,0.49-0.51,0.92l-0.03,0.06l-0.23-0.13
	c-0.05,0.25-0.27,0.93-1.19,0.87c-0.87-0.06-1.54-0.76-1.87-1.09c-0.08-0.08-0.14-0.15-0.17-0.17c-0.06,0.01-0.19,0.35-0.26,0.72
	l-0.01,0.04l0.01,0l-0.21,0.62l-0.01-0.01c-0.04,0.2-0.08,0.56,0.04,0.74c0.29-0.2,0.85-0.42,1.85-0.36l0,0.01l0.06-0.01
	c0.06,0.02,0.06,0.06,0.05,0.07l-0.01,0.05l-0.08,0c-0.04,0.04-0.03,0.23,0,0.34l0.01,0.04l-0.05,0.07
	c-0.13,0.13-0.74,0.41-0.92,0.39c0.04,0.02,0.08,0.11,0.12,0.19l0.05,0.09l-0.1,0c-0.06,0-1.52-0.04-1.81-0.09
	c-0.11-0.2-0.37-0.51-0.64-0.53c-0.18-0.01-0.34,0.1-0.48,0.34l-0.05,0.09l-0.05-0.09c-0.28-0.47-1.27-0.12-1.28-0.11
	c-0.08,0.03-0.1-0.02-0.18-0.24c-0.21,0.01-0.42,0.06-0.57,0.19c-0.26,0.22-0.28,0.59-0.28,0.62c0-0.03,0.8,0.67,1.34,1.28
	c0.28,0.07,0.51,0.11,0.7,0.15c0.41,0.08,0.64,0.13,0.93,0.47c1.34,0.05,2.33,0.49,2.65,1.15c0.23-0.23,0.45-0.33,0.68-0.31
	c0.25,0.03,0.42,0.21,0.49,0.32c0.01-0.02,0.02-0.04,0.02-0.07c0-0.09-0.07-0.28-0.54-0.58L45.33,26.14z M48.77,23.2
	c1.92,0.42,4.63,1.06,4.76,1.07c0.08-0.05,0.15-0.12,0.18-0.21c0.04-0.15-0.05-0.29-0.05-0.29l-4.73-1.11l-0.03,0.01h0L48.77,23.2z
	 M47.79,23.67c-0.01,0-0.02,0-0.02,0c0,0.01,0.04,0.08,0.08,0.13l4.61,0.35c-0.7-0.16-1.86-0.43-3.77-0.88
	c0.03,0.01-0.42,0.53-0.8,0.42C47.84,23.67,47.81,23.67,47.79,23.67 M39.88,22.35c0.07,0,0.4,0.09,0.72,0.17
	c0.04-0.15,0.07-0.25,0.09-0.32l0,0l0.44-1.98h0l0.01-0.06c0-0.01,0.04-0.29,0.15-0.51c-0.03-0.03-0.4-0.1-0.74-0.12l-0.32,1.15
	l-0.07-0.05c-0.01-0.01-0.65-0.51-1.13-1.26c-0.82,0.44-2.37,0.54-2.91,0.57c0.01,0,0.02,0.01,0.02,0.02
	c0.55,0.32,1.97,1.17,2.28,1.89c0.75-0.54,1.32-0.68,1.54-0.73c0.03-0.01,0.05-0.01,0.07-0.02c0.01-0.01,0.02-0.01,0.04-0.01h0.06
	v0.06c0,0.01,0,0.02-0.01,0.03c-0.03,0.14-0.23,1.13-0.24,1.19C39.87,22.35,39.87,22.35,39.88,22.35 M40.85,22.03l0.01,0l-0.02,0.08
	c0.03,0.01,0.28,0,0.52-0.04l0.07-0.57l0.01,0l0.12-0.55l-0.01,0l0.02-0.06c0.07-0.26,0.15-0.57,0.14-0.62
	c-0.03-0.01-0.24-0.04-0.45-0.06L40.85,22.03z M41.55,21.54l2.06,0.43l0.16-0.48l-2.11-0.5L41.55,21.54z M48.21,26.62h-0.12
	c-0.01-0.05-0.18-0.21-1.54-0.69c-0.18-0.06-0.19-0.07-0.17-0.12l0.08-0.04c0.1,0.02,0.83-0.06,1.08-0.09
	c0.09-0.01,0.15-0.02,0.16-0.02l0,0.12c-0.01,0-0.07,0.01-0.15,0.02c-0.32,0.04-0.59,0.07-0.79,0.08
	C47.96,26.3,48.21,26.48,48.21,26.62 M45.72,26.01c-0.39-0.25-0.85-0.51-1.07-0.59c-0.1,0-0.16,0-0.18-0.01l-0.04-0.06l0.05-0.07
	c0.04-0.02,0.1-0.01,0.18,0.02c0.3-0.01,0.91-0.09,0.98-0.14l0.08,0.08c-0.07,0.07-0.48,0.13-0.82,0.16
	c0.3,0.15,0.68,0.38,0.88,0.51L45.72,26.01z M43.57,25.85c-0.17,0-0.56-0.23-1.12-0.6c-0.05-0.03-0.09-0.06-0.12-0.08
	c-0.03-0.01-0.05-0.02-0.06-0.03l-0.04-0.04l0.03-0.05c0.03-0.03,0.04-0.04,0.13,0.02c0.15,0.04,0.68,0.05,1.14,0.04l0,0.12
	c-0.21,0.01-0.62,0.02-0.91-0.01c0.56,0.37,0.89,0.55,0.96,0.52l0.04,0.11C43.6,25.84,43.59,25.85,43.57,25.85 M41.46,25.18
	c-0.58-0.12-0.84-0.4-1.06-0.65c-0.05-0.06-0.1-0.11-0.15-0.16l-0.14-0.14l0.2,0.04c0.21,0.05,0.59,0.18,0.84,0.27
	c0.12,0.04,0.21,0.08,0.23,0.08l-0.01,0.12c-0.02,0-0.04-0.01-0.26-0.08c-0.18-0.06-0.43-0.15-0.63-0.21c0,0.01,0.01,0.01,0.01,0.02
	c0.22,0.25,0.45,0.51,0.99,0.62L41.46,25.18z M41.61,24.26c-0.03-0.02-0.21-0.09-0.37-0.16c-0.71-0.28-1.03-0.43-1.03-0.58v-0.08
	l0.08,0.03c0.35,0.12,0.77,0.23,1.15,0.14l0.03,0.11c-0.32,0.08-0.65,0.03-0.96-0.06c0.22,0.12,0.58,0.26,0.77,0.33
	c0.36,0.14,0.41,0.16,0.43,0.2L41.61,24.26z"/>
<path style="fill-rule:evenodd;clip-rule:evenodd;fill:#F4C034;" d="M38.63,17.03c0,0-1.46,1.25,0,1.98
	c0.07-0.49,0.17-0.56,0.17-0.56s1.21,0.45,1.94-0.63c-0.31-0.45-0.87-0.28-0.87-0.28S38.73,17.55,38.63,17.03"/>
<path d="M46.88,24.68l-0.05-0.11c0.05-0.03,0.1-0.34,0.12-0.65c-0.02-0.05-0.11-0.22-0.17-0.32l-0.28,0.34
	c0,0.15-0.04,0.59-0.17,0.66l-0.05-0.1c0.05-0.03,0.1-0.31,0.12-0.59l0.01-0.01l-0.01,0c-0.01-0.03-0.07-0.21-0.11-0.31
	c-0.15,0.09-0.32,0.22-0.34,0.3c-0.01,0.05-0.02,0.12-0.03,0.2c-0.04,0.27-0.07,0.43-0.16,0.47l-0.04-0.11
	c0.04-0.03,0.07-0.26,0.09-0.38c0.01-0.08,0.02-0.16,0.04-0.21c0.01-0.02,0.02-0.04,0.03-0.07l-0.03,0c0.01-0.13,0-0.27-0.02-0.29
	c-0.09,0.01-0.58,0.46-0.6,0.86l-0.12-0.01c0.01-0.18,0.1-0.37,0.22-0.54l-0.61-0.09l0.02-0.12l0.68,0.1
	c0.16-0.19,0.34-0.33,0.42-0.33h0.03l0.06,0.04c0.05,0.05,0.06,0.17,0.06,0.26c0.12-0.11,0.29-0.21,0.33-0.23l0.06-0.03l0.02,0.07
	c0.06,0.16,0.09,0.25,0.11,0.31l0.23-0.29c-0.06-0.02-0.11-0.04-0.15-0.08c-0.06-0.05-0.09-0.1-0.09-0.16
	c-0.18,0.02-0.32-0.02-0.42-0.11c-0.04-0.04-0.07-0.08-0.1-0.12c-0.07,0-0.39,0.02-0.39,0.02l-0.01-0.12c0,0,0.24-0.01,0.35-0.02
	c-0.04-0.12-0.04-0.24-0.04-0.3c-0.21-0.01-0.25,0-0.26,0l0,0l0,0.02l-0.08-0.08c0.01-0.06,0.01-0.07,0.48-0.06
	c0.13,0.01,0.25-0.04,0.33-0.12c0.18-0.18,0.17-0.5,0.17-0.5l0.12,0c0,0.02,0.01,0.38-0.21,0.59c-0.11,0.11-0.25,0.16-0.42,0.15
	h-0.02c0,0.09,0.01,0.32,0.15,0.44c0.1,0.08,0.24,0.11,0.43,0.07c0.5-0.36,0.53-0.75,0.55-0.97c0.01-0.06,0.01-0.12,0.02-0.16
	c0.04-0.12-0.14-0.18-0.14-0.18l0.04-0.11c0.08,0.03,0.2,0.1,0.22,0.21c0.06-0.03,0.25-0.12,0.4-0.05c0.07,0.04,0.13,0.1,0.15,0.21
	c0.07-0.05,0.22-0.12,0.36-0.08c0.08,0.03,0.14,0.09,0.18,0.19c0.07-0.03,0.24-0.07,0.37,0.04l-0.08,0.09
	c-0.09-0.08-0.23-0.03-0.26-0.02c0.05,0.34-0.16,0.9-0.35,1.18c-0.08,0.12-0.14,0.17-0.2,0.18l-0.01-0.12
	c0.01,0,0.06-0.03,0.14-0.16c0.17-0.28,0.38-0.83,0.3-1.11c-0.02-0.09-0.07-0.14-0.12-0.16c-0.11-0.04-0.25,0.06-0.29,0.09
	l-0.01-0.02c0.02,0.41-0.31,1.03-0.59,1.24l0.02-0.01c0.1,0.22,0.4,0.2,0.46,0.18l0.03,0.12c-0.05,0.01-0.23,0.03-0.38-0.04
	l0.12,0.17l0.35-0.03l0.01,0.12l-0.35,0.03l0.04,0.54l-0.12,0.01l-0.04-0.65l-0.1-0.13l-0.23,0.23
	C47.05,24.18,47.01,24.62,46.88,24.68 M46.87,23.52c0.04,0.08,0.12,0.23,0.16,0.31l0.22-0.23c-0.04-0.03-0.07-0.07-0.1-0.13
	c0,0,0,0,0,0C47.06,23.51,46.96,23.52,46.87,23.52 M46.8,23.39c0.09,0.02,0.2,0.01,0.3-0.03c0.26-0.11,0.66-0.84,0.6-1.22
	c-0.01-0.09-0.04-0.14-0.09-0.17c-0.1-0.05-0.25,0.02-0.31,0.05l-0.04-0.06c0,0.02,0,0.05-0.01,0.07c-0.01,0.03-0.01,0.07-0.02,0.13
	c-0.02,0.23-0.06,0.67-0.63,1.07c-0.01,0-0.01,0-0.02,0c0,0.03,0.02,0.06,0.05,0.09C46.68,23.36,46.73,23.38,46.8,23.39L46.8,23.39
	L46.8,23.39z M43.02,24.22l-0.1-0.06c0.18-0.27-0.01-0.49-0.02-0.49l0.09-0.08C43.08,23.68,43.21,23.94,43.02,24.22 M38.68,19.1
	l-0.07-0.04c-0.41-0.2-0.64-0.47-0.68-0.79c-0.08-0.64,0.63-1.26,0.66-1.29l0.08-0.06l0.02,0.1c0.08,0.39,0.89,0.47,1.19,0.47
	c-0.01,0,0.58-0.18,0.92,0.3c-0.7,1.09-1.84,0.77-2,0.72c0.01,0.03-0.06,0.15-0.11,0.5L38.68,19.1z M38.6,17.14
	c-0.17,0.17-0.61,0.65-0.56,1.12c0.03,0.26,0.21,0.48,0.54,0.66c0.07-0.41,0.16-0.5,0.19-0.52c0.01,0,0.02,0,0.03,0.01l0,0
	l0.94-0.81C39.42,17.58,38.77,17.5,38.6,17.14 M38.94,18.44c0.36,0.08,1.2,0.18,1.76-0.65c-0.29-0.34-0.8-0.19-0.8-0.19
	c-0.01,0-0.02,0-0.04,0l0.02,0.03L38.94,18.44z"/>
<path style="fill-rule:evenodd;clip-rule:evenodd;fill:#FFFFFF;" d="M38.68,17.04L38.68,17.04c0,0,0.19-0.19,0.25-0.43
	c0.06-0.23-0.08-0.49,0.16-0.7c0.23-0.22,3.32-1.52,3.57-1.78c0.25-0.25,0.72-0.8,0.78-0.92c0.06-0.12,0.24,0.59-0.29,0.9
	c0.57-0.15,0.94-0.33,1.17-0.25c-0.23,0.33-0.86,0.88-1.15,0.88c0.69-0.25,1.31-0.47,1.48-0.33c0.18,0.14-0.84,0.82-1.25,0.86
	c0.69-0.17,1.6-0.45,1.72-0.16c-0.37,0.12-0.25,0.21-1.01,0.64c-0.1,0.08-0.59,0.1-0.59,0.1c0.59-0.06,1.38-0.29,1.46,0.14
	c-0.47,0.18-0.64,0.41-1.03,0.51c-0.39,0.1-1.29,0.27-1.83,0.49c-0.55,0.22-1.35,0.84-1.35,0.84s-1.74,0.06-1.74,0.04
	C39.03,17.84,38.7,17.06,38.68,17.04"/>
<path d="M39.13,17.92c-0.11,0-0.16,0-0.16-0.06c-0.01-0.04-0.31-0.74-0.34-0.79c-0.02-0.02-0.01-0.05,0.01-0.07
	c0,0,0.18-0.19,0.24-0.4c0.02-0.07,0.02-0.15,0.01-0.23c-0.01-0.16-0.01-0.34,0.16-0.5c0.11-0.1,0.7-0.38,1.65-0.82
	c0.84-0.39,1.79-0.83,1.92-0.96c0.26-0.26,0.72-0.8,0.77-0.9c0.01-0.02,0.04-0.04,0.07-0.04c0.07,0,0.09,0.08,0.1,0.11
	c0.05,0.18,0.03,0.49-0.16,0.72c0.06-0.02,0.12-0.03,0.17-0.05c0.35-0.11,0.6-0.18,0.77-0.12c0.02,0.01,0.03,0.02,0.04,0.04
	c0.01,0.02,0,0.04-0.01,0.05c-0.11,0.15-0.31,0.36-0.53,0.55c0.39-0.12,0.72-0.18,0.85-0.08c0.02,0.01,0.04,0.09,0.04,0.11
	c-0.02,0.14-0.31,0.37-0.61,0.55c0.54-0.12,0.97-0.15,1.05,0.07c0,0.02,0,0.03,0,0.05c-0.01,0.02-0.02,0.03-0.04,0.03
	c-0.17,0.05-0.23,0.1-0.34,0.19c-0.09,0.08-0.21,0.18-0.46,0.33c0.06-0.01,0.12-0.01,0.17-0.01c0.12,0,0.47,0,0.52,0.3
	c0,0.03-0.01,0.06-0.04,0.07c-0.21,0.08-0.36,0.17-0.51,0.26c-0.16,0.1-0.32,0.2-0.53,0.25l-0.34,0.08c-0.45,0.1-1.07,0.24-1.48,0.4
	c-0.53,0.21-1.32,0.82-1.33,0.83C40.77,17.88,39.51,17.92,39.13,17.92 M39.07,17.8c0.25,0,1.69-0.04,1.69-0.04
	c0-0.01,0.78-0.62,1.33-0.83c0.42-0.17,1.04-0.31,1.5-0.41l0.34-0.08c0.2-0.05,0.34-0.14,0.5-0.24c0.13-0.08,0.28-0.17,0.48-0.25
	c-0.03-0.08-0.12-0.16-0.39-0.16c-0.13,0-0.29,0.02-0.44,0.04c-0.15,0.06-0.54,0.08-0.55,0.08c-0.05,0-0.06-0.02-0.06-0.05
	c0-0.03,0.02-0.06,0.05-0.06c0.12-0.01,0.25-0.03,0.38-0.05l0.17-0.02c0.4-0.23,0.56-0.36,0.67-0.45c0.09-0.08,0.16-0.13,0.29-0.18
	c-0.17-0.11-0.84,0.04-1.38,0.18c-0.08,0.03-0.16,0.05-0.23,0.06c-0.03,0.01-0.06-0.02-0.06-0.05c-0.01-0.03,0.01-0.06,0.04-0.07
	l0.2-0.05c0.47-0.17,1.03-0.6,1.02-0.71c-0.02-0.01-0.05-0.03-0.13-0.03c-0.23,0-0.65,0.14-0.98,0.26
	c-0.13,0.08-0.24,0.12-0.33,0.12c-0.03,0-0.05-0.02-0.06-0.05c-0.01-0.03,0.01-0.06,0.04-0.07l0.31-0.11
	c0.27-0.16,0.58-0.45,0.76-0.67c-0.14,0-0.35,0.06-0.62,0.14c-0.13,0.04-0.27,0.09-0.43,0.13c-0.03,0.01-0.06-0.01-0.07-0.03
	c-0.01-0.03,0-0.06,0.02-0.07c0.22-0.13,0.3-0.32,0.32-0.46c0.04-0.18,0-0.32-0.02-0.35c0,0.12-0.47,0.68-0.72,0.93
	c-0.13,0.13-0.86,0.47-1.95,0.98c-0.74,0.34-1.51,0.7-1.62,0.8C38.99,16.07,39,16.21,39,16.36c0,0.09,0.01,0.17-0.02,0.26
	c-0.05,0.2-0.19,0.36-0.24,0.43C38.82,17.2,39.01,17.64,39.07,17.8"/>
<path d="M39.56,16.91l-0.12-0.01c0-0.02,0.02-0.42,0.22-0.57c0.06-0.05,0.2-0.11,0.37-0.2c0.31-0.16,0.75-0.37,0.87-0.55
	c0.05-0.07,0.08-0.11,0.13-0.08c0.05,0.03,0.04,0.06-0.02,0.17c-0.06,0.13-0.26,0.53-0.22,0.65l-0.11,0.04
	c-0.04-0.11,0.03-0.31,0.12-0.53c-0.21,0.16-0.48,0.29-0.72,0.41c-0.04,0.02-0.09,0.04-0.13,0.06c0.16,0.09,0.36,0.27,0.29,0.52
	l-0.11-0.03c0.08-0.28-0.28-0.41-0.29-0.42l0-0.01c-0.05,0.03-0.08,0.05-0.1,0.06C39.6,16.52,39.56,16.8,39.56,16.91"/>
<path d="M40.03,16.92c-0.21,0-0.37-0.17-0.37-0.37c0-0.21,0.17-0.38,0.37-0.38c0.21,0,0.37,0.17,0.37,0.38
	C40.41,16.75,40.24,16.92,40.03,16.92 M40.03,16.27c-0.15,0-0.27,0.12-0.27,0.27s0.12,0.27,0.27,0.27c0.15,0,0.27-0.12,0.27-0.27
	S40.18,16.27,40.03,16.27"/>
<path style="fill-rule:evenodd;clip-rule:evenodd;fill:#FFFFFF;" d="M53.56,15.85l3.38,0.65c0,0,0.37-0.43,0.17-0.66
	c0.51-0.12,0.37-0.78,0.37-0.78s0.58-0.25,0.1-0.84c0.33-0.33-0.08-0.58-0.08-0.58s0.13-0.58-0.29-0.64
	c0.12-0.47-0.74-0.62-0.74-0.62s-1.78,0.49-3.02,0.53c0.41,0.41-0.15,0.66-0.15,0.66s0.33,0.23,0.23,0.43
	c-0.1,0.2,0.06,0.41-0.37,0.55c0.57,0.25-0.06,0.68-0.06,0.68S53.72,15.64,53.56,15.85"/>
<path d="M49.81,20.77c-0.56-0.58-0.36-1.5-0.35-1.54l0.12,0.03c0,0.01-0.2,0.89,0.32,1.43L49.81,20.77z M48.89,20.46
	c-0.01-0.03-0.02-0.07,0.01-0.45l0.12-0.05l0,0.06c-0.02,0.23-0.02,0.36-0.02,0.39L48.89,20.46z M48.08,20.24
	c-0.45-0.4-0.15-0.99-0.1-1.08c-0.18-0.35,0.19-0.85,0.21-0.87l0.02,0.02c-0.09-0.36,0.2-0.9,0.26-0.99
	c-0.06-0.08-0.12-0.17-0.18-0.27c-0.11-0.17-0.22-0.34-0.33-0.46c-0.22-0.25-1.08-0.34-1.21-0.35v-0.02
	c-0.06,0.12-0.21,0.19-0.23,0.2l-1.07,0.06l-0.01-0.12l1.05-0.06c0.03-0.01,0.14-0.08,0.16-0.16c0.01-0.05-0.02-0.09-0.08-0.15
	l0.08-0.09c0.08,0.07,0.12,0.14,0.12,0.22c0.14,0.01,1.02,0.1,1.27,0.39c0.11,0.13,0.22,0.3,0.34,0.47c0.15,0.22,0.3,0.44,0.39,0.49
	c0.04,0.02,0.08,0.03,0.1,0.02l0.14,0.01c0,0.01-0.02,0.07-0.1,0.1c-0.06,0.02-0.13,0.01-0.21-0.03c-0.05-0.03-0.11-0.08-0.17-0.16
	c-0.15,0.27-0.38,0.85-0.1,1.04l-0.07,0.1c-0.06-0.04-0.1-0.09-0.13-0.14c-0.1,0.15-0.34,0.58-0.07,0.81l-0.08,0.09
	c-0.01-0.01-0.03-0.02-0.04-0.04c-0.08,0.15-0.24,0.58,0.1,0.88L48.08,20.24z M50.45,19.94c-0.51-0.26-0.65-0.97-0.65-1l0.12-0.02
	c0,0.01,0.13,0.68,0.59,0.91L50.45,19.94z M47.69,19.69l-0.28-0.19l0.07-0.1l0.28,0.19L47.69,19.69z M50.89,19.05
	c-0.01-0.1-0.27-0.33-0.45-0.46l0.07-0.1c0.08,0.06,0.47,0.36,0.49,0.55L50.89,19.05z M47.72,18.75c-0.16,0-0.32-0.15-0.34-0.17
	l0.08-0.08c0.04,0.04,0.18,0.16,0.28,0.14l0.02,0.12C47.75,18.75,47.73,18.75,47.72,18.75 M51.73,18.71c-0.43,0-0.97-0.35-0.99-0.37
	l0.07-0.1c0.01,0,0.63,0.41,1.03,0.34l0.02,0.12C51.82,18.7,51.78,18.71,51.73,18.71 M51.46,18.03c-0.53,0-0.91-0.17-0.93-0.18
	l0.05-0.11c0.01,0,0.63,0.28,1.37,0.12l0.03,0.11C51.79,18.02,51.62,18.03,51.46,18.03 M47.33,17.9c-0.03,0-0.06-0.01-0.09-0.02
	l0.05-0.1c0.1,0.05,0.48-0.19,0.54-0.24l0.08,0.08C47.91,17.63,47.55,17.9,47.33,17.9 M51.16,17.37c-0.55,0-0.93-0.33-0.95-0.34
	l0.08-0.09c0,0.01,0.55,0.46,1.23,0.26l0.03,0.11C51.41,17.35,51.28,17.37,51.16,17.37 M56.98,16.53l-3.52-0.64l0.05-0.08
	c0.01-0.01,0.02-0.03,0.01-0.06c-0.03-0.15-0.31-0.38-0.44-0.48l-0.02,0.02c-0.07-0.06-0.85-0.25-1.57-0.39l0.02-0.12
	c0.31,0.06,1.23,0.26,1.54,0.38c0.08-0.06,0.28-0.23,0.27-0.38c-0.01-0.08-0.07-0.15-0.2-0.2l0,0.03c0,0-1.02-0.04-1.05-0.04l0-0.12
	c0.02,0,0.81,0.03,1.01,0.04l0.05-0.02c0.23-0.07,0.26-0.16,0.28-0.26c-0.16-0.25-1.27-0.27-1.98-0.23l-0.01-0.12
	c0.17-0.01,1.59-0.09,2,0.2c0.01-0.04,0.02-0.07,0.03-0.11c0.06-0.12-0.12-0.29-0.2-0.35l-0.02,0.02c-0.11-0.08-1.42-0.17-2.59-0.21
	l0-0.12c0.68,0.03,2.18,0.1,2.58,0.21l0.02-0.01c0,0,0.24-0.11,0.27-0.28c0.02-0.09-0.03-0.19-0.13-0.29l-0.1-0.1l0.14,0
	c1.23-0.04,2.99-0.52,3.01-0.52c0.05,0,0.58,0.1,0.76,0.39c0.05,0.08,0.07,0.16,0.06,0.25c0.09,0.02,0.16,0.07,0.21,0.15
	c0.11,0.16,0.09,0.4,0.08,0.51c0,0,0,0,0,0l0,0c0,0.01,0,0.02-0.01,0.03c0.02-0.01,0.18,0.11,0.2,0.28c0.01,0.1-0.02,0.21-0.11,0.3
	c0.15,0.19,0.2,0.37,0.16,0.53c-0.04,0.19-0.2,0.29-0.27,0.34c0.04,0.24,0,0.65-0.35,0.78C57.32,16.14,57,16.52,56.98,16.53
	 M53.64,15.8l3.3,0.63c0.04-0.09,0.25-0.41,0.12-0.57l-0.05-0.06c-0.15-0.13-0.55-0.27-0.66-0.27c-0.14,0-3.01-0.34-3.13-0.35
	l0-0.01c-0.01,0.01-0.02,0.02-0.03,0.03c0.13,0.1,0.42,0.33,0.45,0.53C53.65,15.76,53.65,15.78,53.64,15.8 M53.32,15.08
	c0.88,0.1,2.93,0.34,3.03,0.34c0.13,0,0.63,0.16,0.78,0.34c0.34-0.11,0.31-0.52,0.29-0.65l-4.05-0.1l0-0.02
	C53.37,15.02,53.34,15.05,53.32,15.08 M53.63,14.9l3.84,0.09c0.05-0.02,0.2-0.11,0.24-0.27c0.03-0.12-0.01-0.26-0.12-0.4
	C57.04,14.65,54.46,14.85,53.63,14.9 M53.29,14.53c0.1,0.07,0.15,0.14,0.16,0.23c0,0.01,0,0.02,0,0.02
	c1.43-0.09,3.66-0.31,4.07-0.57l-0.02-0.02l0.04-0.04c0.08-0.08,0.12-0.17,0.11-0.24c-0.02-0.14-0.18-0.24-0.18-0.25
	c0,0,0-0.01,0-0.02c-0.17,0-2.41,0.23-3.91,0.39c-0.01,0.04-0.01,0.07-0.02,0.11C53.53,14.29,53.51,14.43,53.29,14.53 M53.4,13.57
	c0.09,0.08,0.21,0.22,0.19,0.36c2.83-0.31,3.63-0.36,3.87-0.36c0-0.12,0.01-0.3-0.07-0.42c-0.04-0.06-0.11-0.1-0.19-0.11l-0.07-0.01
	l0,0C56.71,13.07,54.74,13.36,53.4,13.57 M53.57,12.94c0.07,0.1,0.1,0.2,0.08,0.3c-0.01,0.07-0.05,0.14-0.1,0.19
	c2.47-0.39,3.31-0.48,3.61-0.48c0.01-0.07,0-0.13-0.04-0.19c-0.16-0.24-0.65-0.33-0.66-0.34C56.47,12.42,54.8,12.87,53.57,12.94
	 M51.23,15.98l-0.03-0.11c0.31-0.08,0.49-0.1,0.55-0.04l-0.08,0.08C51.63,15.9,51.41,15.94,51.23,15.98 M49.14,15.73
	c-0.37,0-0.56-0.15-0.57-0.16l0.03-0.04c-0.44,0.1-0.78-0.07-0.78-0.07l0.01-0.02c-0.18,0.08-0.36,0.11-0.54,0.1
	c-0.55-0.04-0.88-0.51-0.89-0.53L46.4,15c-0.22,0-0.44-0.04-0.64-0.13c-0.25-0.11-0.42-0.27-0.47-0.42
	c-0.04-0.17,0.06-0.23,0.13-0.28c0.08-0.05,0.14-0.09,0.1-0.25c-0.06-0.43-0.92-0.57-1.34-0.63c-0.13-0.02-0.19-0.03-0.23-0.04
	c-0.11-0.04-0.29-0.26-0.42-0.44c0.04,0.16,0.05,0.32,0.03,0.46l-0.12-0.02c0.11-0.86-1.07-2.16-1.08-2.17l0.09-0.08
	c0.04,0.04,0.71,0.79,1,1.55l0.03-0.02c0.15,0.21,0.42,0.56,0.52,0.6c0.03,0.01,0.11,0.02,0.2,0.04c0.44,0.07,1.37,0.22,1.43,0.73
	c0.05,0.23-0.07,0.31-0.15,0.37c-0.07,0.04-0.1,0.07-0.08,0.15c0.03,0.12,0.19,0.26,0.4,0.35c0.45,0.19,1.02,0.15,1.52-0.11
	l0.05,0.1c-0.27,0.15-0.57,0.23-0.85,0.24c0.1,0.12,0.37,0.4,0.76,0.42c0.37,0.03,0.75-0.17,1.13-0.59l0.09,0.08
	c-0.19,0.21-0.38,0.36-0.57,0.47c0.23,0.09,1,0.26,1.67-0.85l0.1,0.06c-0.34,0.56-0.7,0.81-1.02,0.91c0.14,0.08,0.6,0.26,1.39-0.17
	l0.06,0.1C49.72,15.66,49.39,15.73,49.14,15.73 M50.04,13.27l-0.1-0.07c0.18-0.25,0.42-0.34,0.61-0.41
	c0.13-0.05,0.25-0.09,0.31-0.17c0.1-0.1,0.14-0.18,0.13-0.25c-0.01-0.05-0.06-0.08-0.09-0.1c-0.02-0.01-0.03-0.02-0.03-0.02
	l0.01-0.02l-0.01-0.01l-0.02,0.06c-0.12-0.03-0.22,0.04-0.28,0.09l0.01,0.07c-0.04,0.18-0.34,0.42-0.9,0.71l-0.05-0.1
	c0.64-0.33,0.79-0.53,0.83-0.61l-0.01,0c-0.01,0-0.22-0.08-0.41,0.09l-0.04,0.03l0.01,0.01c-0.02,0.02-0.52,0.4-0.96,0.58
	l-0.05-0.11c0.4-0.17,0.88-0.53,0.93-0.56c-0.08-0.1-0.22-0.11-0.26-0.1h-0.01c-0.26,0.21-0.9,0.71-1.12,0.68l0.02-0.12
	c0.1,0.02,0.62-0.33,1.04-0.67c0-0.05-0.01-0.12-0.05-0.16c-0.04-0.04-0.1-0.04-0.19-0.02l-0.01,0c-0.12,0.08-0.42,0.26-1.23,0.73
	l-0.06-0.1c0.43-0.25,1.07-0.63,1.23-0.73c0.02-0.19-0.01-0.32-0.08-0.38c-0.11-0.09-0.31-0.02-0.31-0.02l0.01,0.02l-1.46,0.9
	l-0.06-0.1l1.43-0.89c0.01-0.05,0.02-0.18-0.04-0.24c-0.06-0.06-0.18-0.03-0.27,0l-0.01,0.01c-0.15,0.1-0.59,0.36-1.89,1.08
	l-0.06-0.1c0.68-0.37,1.68-0.94,1.88-1.07c0.01-0.11-0.01-0.2-0.07-0.26c-0.07-0.08-0.19-0.09-0.23-0.09c0,0,0,0,0,0.01
	c-0.41,0.31-2.03,1.12-2.1,1.16L46,11.91c0.02-0.01,1.68-0.84,2.06-1.12c0.05-0.13,0.05-0.24-0.02-0.32
	c-0.11-0.13-0.36-0.14-0.44-0.13c-0.02,0.08-0.06,0.15-0.12,0.23c-0.41,0.12-1.4,0.73-1.82,0.99c-0.2,0.12-0.2,0.12-0.22,0.12
	l-0.02-0.11c0.01-0.01,0.08-0.05,0.18-0.11c0.43-0.26,1.42-0.88,1.82-0.98c0.09-0.15,0.13-0.34,0.05-0.46
	c-0.06-0.1-0.19-0.14-0.35-0.1l-0.01-0.04c-0.11,0.18-0.29,0.34-0.42,0.38c-0.28,0.1-2.09,1.03-2.1,1.04l-0.06-0.11
	c0.07-0.04,1.83-0.95,2.12-1.05c0.16-0.06,0.48-0.4,0.44-0.61c-0.03-0.16-0.26-0.2-0.46-0.2V9.31c-0.72,0.31-2.25,1.09-2.62,1.33
	c-0.44,0.28-0.96,0.01-0.98,0l0.05-0.1c0.01,0,0.49,0.25,0.86,0c0.43-0.28,2.41-1.28,2.91-1.44c0.48-0.15,0.76-1.08,0.86-1.48
	l0.12,0.03c-0.07,0.28-0.2,0.68-0.38,1.01l2.79-0.82c-0.01,0,0.43-0.38,0.45-1.05l0.12,0c-0.01,0.29-0.09,0.53-0.18,0.71
	c0.49-0.06,2.73-0.39,2.73-1.28h0.12c0,0.25-0.15,0.46-0.38,0.64c0.92-0.26,2.91-0.84,3.13-1.07l0.09,0.08
	c-0.28,0.3-2.84,1.01-3.29,1.13c0.14,0.13,0.2,0.27,0.18,0.41l2.93-0.82l0.03,0.11l-3,0.84l-0.01,0.02c0.05,0.02,0.16,0.07,0.21,0.2
	c0.03,0.08,0.04,0.17,0.01,0.28l2.52-0.77l0.04,0.11l-2.61,0.8c-0.01,0.01-0.01,0.02-0.02,0.04c0.06,0.03,0.19,0.12,0.21,0.26
	c0,0.03,0,0.07-0.01,0.1l2.17-0.65l0.03,0.11l-2.29,0.69c-0.01,0.01-0.01,0.02-0.02,0.02c0.05,0.02,0.23,0.09,0.26,0.24
	c0,0.02,0.01,0.04,0.01,0.06c0.63-0.19,1.53-0.47,1.59-0.47l0,0.12c-0.07,0.01-0.98,0.29-1.62,0.48c-0.02,0.05-0.06,0.1-0.11,0.16
	l0.05-0.02c0.1,0.04,0.23,0.08,0.26,0.19l1.03-0.42l0.04,0.11l-1.07,0.43l-0.01-0.03c-0.02,0.08-0.1,0.18-0.24,0.29
	c-0.5,0.22-1.62,0.67-1.87,0.77l-0.1,0.16c0.05,0.01,0.11,0.04,0.15,0.11c0.02,0.04,0.03,0.08,0.03,0.13
	c0.08-0.03,1.08-0.42,1.55-0.67c0.15-0.1,0.24-0.2,0.26-0.3c0.01-0.08-0.03-0.14-0.03-0.14l0.09-0.08c0,0,0.05,0.07,0.06,0.17
	c0.85-0.37,0.89-0.37,0.9-0.37l0.01,0.12c-0.05,0.01-0.59,0.24-0.91,0.39l-0.01-0.03c-0.03,0.11-0.12,0.22-0.27,0.33
	c0.03,0.03,0.07,0.08,0.07,0.15c0,0.09-0.05,0.18-0.17,0.26c-0.07,0.04-0.19,0.1-0.33,0.17c0.04,0.04,0.09,0.1,0.07,0.2l-0.12-0.02
	c0.01-0.07-0.04-0.1-0.05-0.1l0.02-0.04c-0.43,0.22-1.01,0.53-1.17,0.61c0,0,0,0.01,0,0.01l0,0c-0.02,0.01-0.04,0.02-0.04,0.02
	l-0.73,0.48c0.04,0.03,0.08,0.08,0.1,0.14c0.02,0.11-0.03,0.22-0.15,0.35c-0.07,0.1-0.21,0.15-0.36,0.2
	C50.4,12.97,50.19,13.05,50.04,13.27 M49.85,12.28c0.06,0.01,0.12,0.03,0.16,0.08c0.01,0.01,0.02,0.02,0.03,0.04
	c0.17-0.11,0.34-0.09,0.42-0.07c0.06-0.06,0.21-0.2,0.4-0.16l0.82-0.54c0,0,0,0,0.01,0c0-0.08-0.03-0.11-0.07-0.14v0.01
	C51.54,11.5,50.28,11.96,49.85,12.28 M49.47,11.97c0.08,0,0.14,0.02,0.19,0.07c0.05,0.05,0.07,0.12,0.08,0.18
	c0.38-0.3,1.54-0.75,1.81-0.83l0.01-0.01c0.16-0.24,0.15-0.34,0.13-0.38c-0.03-0.06-0.14-0.06-0.14-0.06l-0.07,0l-2.04,0.89
	c0,0.05,0,0.1,0,0.15C49.45,11.97,49.46,11.97,49.47,11.97 M49.09,11.46c0.07,0,0.16,0.02,0.23,0.07c0.05,0.04,0.09,0.1,0.11,0.17
	l2.1-0.9l0.09-0.2c0,0,0.01,0,0.01-0.01c-0.02-0.05-0.09-0.17-0.36-0.24l-0.02,0c-0.07,0.07-0.2,0.16-0.36,0.21
	c-0.24,0.07-1.72,0.68-1.94,0.77c0.02,0.05,0.02,0.1,0.02,0.14C49,11.46,49.04,11.46,49.09,11.46 M51.69,11.39
	c0.06,0.05,0.1,0.1,0.12,0.16c0,0,0,0.01,0,0.01c0.34-0.18,1.23-0.64,1.49-0.78c0.07-0.05,0.12-0.11,0.11-0.16
	c0-0.05-0.06-0.09-0.06-0.09l0.01-0.01c-0.51,0.27-1.5,0.65-1.51,0.65l-0.04-0.1C51.81,11.16,51.77,11.27,51.69,11.39 M48.7,11.15
	c0.08,0,0.14,0.02,0.18,0.06c0,0,0.01,0.01,0.01,0.01c0.17-0.07,1.71-0.7,1.96-0.78c0.18-0.06,0.32-0.18,0.37-0.23
	c-0.01-0.22-0.25-0.39-0.32-0.44c-0.01,0.05-0.04,0.14-0.1,0.18c-0.08,0.06-1.71,0.61-2.41,0.84c0.03,0.02,0.06,0.04,0.08,0.07
	c0.07,0.07,0.1,0.17,0.1,0.3C48.62,11.15,48.66,11.15,48.7,11.15 M48.2,10.74C48.2,10.74,48.2,10.74,48.2,10.74
	c0.98-0.32,2.45-0.82,2.54-0.88c0.04-0.03,0.07-0.13,0.08-0.18c0-0.01,0.02-0.01,0.04-0.02c0-0.07-0.02-0.22-0.23-0.37L50.6,9.26
	c-0.05,0.05-0.13,0.13-0.25,0.19c-0.19,0.1-1.96,0.61-2.54,0.77c0.11,0.02,0.23,0.06,0.31,0.14C48.19,10.43,48.25,10.54,48.2,10.74
	 M51.36,10.26c0.25,0.07,0.34,0.2,0.37,0.29c0.34-0.14,1.36-0.55,1.82-0.76c0.18-0.15,0.2-0.22,0.19-0.24
	c-0.01-0.05-0.11-0.09-0.18-0.11l-0.07-0.02l0.01-0.02c0,0,0,0,0,0C53.02,9.69,51.63,10.17,51.36,10.26 M51.01,9.7
	c0.11,0.08,0.29,0.24,0.33,0.45c0.35-0.13,1.65-0.58,2.09-0.85c0.06-0.06,0.11-0.12,0.13-0.17l-0.01-0.04
	c0.01,0,0.02-0.01,0.03-0.01c0.01-0.02,0.01-0.05,0-0.07c-0.03-0.11-0.19-0.16-0.19-0.16l0.03-0.09c-0.03,0.03-0.06,0.05-0.1,0.08
	C52.84,9.12,51.44,9.57,51.01,9.7 M47.23,9.78c0.15,0,0.28,0.06,0.35,0.17c0.04,0.06,0.06,0.13,0.06,0.2
	c0.87-0.24,2.48-0.71,2.65-0.8c0.21-0.11,0.29-0.24,0.29-0.24c0.01,0,0.03-0.01,0.06-0.02c0-0.18-0.15-0.34-0.21-0.41l-0.03-0.05
	L47.21,9.7c-0.01,0.03-0.02,0.06-0.03,0.08C47.19,9.78,47.21,9.78,47.23,9.78 M50.73,9.21c0.18,0.15,0.23,0.3,0.24,0.4
	c0.47-0.17,1.83-0.61,2.27-0.86c0.09-0.06,0.19-0.16,0.18-0.26c-0.01-0.1-0.13-0.16-0.16-0.18c-0.76,0.3-2.13,0.73-2.51,0.85
	C50.74,9.17,50.74,9.19,50.73,9.21 M46.85,9.23c0.27,0.04,0.35,0.17,0.37,0.28c0,0.02,0.01,0.04,0.01,0.06l3.13-1.04
	c0.01-0.05,0.09-0.29,0.02-0.43c-0.02-0.05-0.07-0.08-0.14-0.1l0.01-0.03L47.42,8.8l-0.01-0.04c-0.14,0.21-0.3,0.38-0.5,0.45
	C46.89,9.21,46.87,9.22,46.85,9.23 M50.49,8.57c0.08,0.08,0.24,0.26,0.26,0.47c0.47-0.15,1.76-0.56,2.46-0.83
	c0.08-0.15,0.11-0.3,0.07-0.41c-0.04-0.11-0.16-0.14-0.16-0.14l0.01-0.04c-0.49,0.29-2.52,0.78-2.61,0.8l-0.01-0.04
	c-0.02,0.1-0.06,0.19-0.07,0.21h0.07h-0.06L50.49,8.57z M50.35,7.91c0.06,0.03,0.11,0.07,0.14,0.13c0.04,0.08,0.04,0.17,0.03,0.26
	c0.27-0.07,2.13-0.52,2.53-0.77c0.14-0.22,0-0.38-0.14-0.49l-0.03-0.03c-0.81,0.45-2.17,0.6-2.3,0.62
	C50.49,7.77,50.4,7.86,50.35,7.91 M53.58,10.64l-0.05-0.11l0.82-0.39l0.05,0.11L53.58,10.64z"/>
</svg>
