<svg version="1.1" xmlns="http://www.w3.org/2000/svg" xmlns:xlink="http://www.w3.org/1999/xlink" x="0px" y="0px"
	 viewBox="0 0 58.93 34.37" style="enable-background:new 0 0 58.93 34.37;" xml:space="preserve">
<rect style="fill:#180087;" width="58.93" height="34.37"/>
<polygon style="fill:#FFFFFF;" points="15.5,21.06 16.4,23.85 19.14,22.81 17.52,25.25 20.04,26.75 17.12,27 17.52,29.9 15.5,27.78 
	13.48,29.9 13.89,27 10.97,26.75 13.49,25.25 11.87,22.81 14.61,23.85 "/>
<polygon style="fill:#FFFFFF;" points="46.51,26.08 46.93,27.41 48.24,26.91 47.47,28.08 48.67,28.79 47.28,28.91 47.47,30.29 
	46.51,29.28 45.55,30.29 45.74,28.91 44.35,28.79 45.55,28.08 44.77,26.91 46.08,27.41 "/>
<polygon style="fill:#FFFFFF;" points="38.75,13.81 39.18,15.14 40.49,14.64 39.71,15.8 40.91,16.51 39.52,16.63 39.72,18.02 
	38.75,17.01 37.79,18.02 37.98,16.63 36.6,16.51 37.79,15.8 37.02,14.64 38.33,15.14 "/>
<polygon style="fill:#FFFFFF;" points="46.51,5.41 46.93,6.74 48.24,6.25 47.47,7.41 48.67,8.12 47.28,8.24 47.47,9.62 46.51,8.61 
	45.55,9.62 45.74,8.24 44.35,8.12 45.55,7.41 44.77,6.25 46.08,6.74 "/>
<polygon style="fill:#FFFFFF;" points="53.4,11.74 53.82,13.07 55.13,12.58 54.35,13.74 55.55,14.45 54.16,14.57 54.36,15.95 
	53.4,14.94 52.43,15.95 52.63,14.57 51.24,14.45 52.44,13.74 51.66,12.58 52.97,13.07 "/>
<polygon style="fill:#FFFFFF;" points="49.61,17.96 49.94,18.79 50.83,18.85 50.15,19.43 50.37,20.3 49.61,19.83 48.85,20.3 
	49.06,19.43 48.38,18.85 49.27,18.79 "/>
<polygon style="fill:#FFFFFF;" points="12.92,0 12.92,5.17 0,5.17 0,10.34 12.92,10.34 12.92,15.5 18.09,15.5 18.09,10.34 31,10.34 
	31,5.17 18.09,5.17 18.09,0 "/>
<polygon style="fill:#FFFFFF;" points="0,0 0,1.73 27.54,15.5 31,15.5 31,13.77 3.47,0 "/>
<polygon style="fill:#FFFFFF;" points="27.54,0 0,13.77 0,15.5 3.47,15.5 31,1.73 31,0 "/>
<polygon style="fill:#EA0020;" points="13.95,0 13.95,6.2 0,6.2 0,9.3 13.95,9.3 13.95,15.5 17.05,15.5 17.05,9.3 31,9.3 31,6.2 
	17.05,6.2 17.05,0 "/>
<path style="fill:#EA0020;" d="M0,0v1.16l8.02,4.01h2.31L0,0z M28.69,0L18.36,5.17h2.31L31,0H28.69z"/>
<path style="fill:#EA0020;" d="M10.34,10.34L0,15.5h2.31l10.33-5.17H10.34z M20.67,10.34L31,15.5v-1.16l-8.02-4.01H20.67z"/>
</svg>
