<svg version="1.1" xmlns="http://www.w3.org/2000/svg" xmlns:xlink="http://www.w3.org/1999/xlink" x="0px" y="0px"
	 viewBox="0 0 58.92 34.37" style="enable-background:new 0 0 58.92 34.37;" xml:space="preserve">
<rect x="0" style="fill:#438FC3;" width="58.92" height="34.37"/>
<rect x="0" y="11.46" style="fill:#D6003F;" width="58.92" height="11.46"/>
<rect x="0" y="22.91" style="fill:#48AE68;" width="58.92" height="11.46"/>
<path style="fill:#FFFFFF;" d="M30.62,21.2c-2.22,0-4.01-1.8-4.01-4.01c0-2.21,1.79-4.01,4.01-4.01c0.8,0,1.55,0.24,2.18,0.64
	c-0.87-0.89-2.09-1.44-3.44-1.44c-2.66,0-4.81,2.15-4.81,4.81c0,2.66,2.15,4.81,4.81,4.81c1.35,0,2.56-0.55,3.44-1.44
	C32.17,20.96,31.43,21.2,30.62,21.2"/>
<polygon style="fill:#FFFFFF;" points="36.05,19.01 34.74,18.41 34.23,19.76 33.72,18.41 32.41,19.01 33.01,17.69 31.65,17.18 
	33.01,16.68 32.41,15.36 33.73,15.96 34.24,14.61 34.74,15.96 36.06,15.36 35.46,16.68 36.81,17.19 35.46,17.7 "/>
</svg>
