<svg version="1.1" xmlns="http://www.w3.org/2000/svg" xmlns:xlink="http://www.w3.org/1999/xlink" x="0px" y="0px"
	 viewBox="0 0 58.93 34.37" style="enable-background:new 0 0 58.93 34.37;" xml:space="preserve">
<rect style="fill:#1B257D;" width="58.93" height="34.37"/>
<rect x="19.64" style="fill:#F4C638;" width="19.64" height="34.37"/>
<path d="M29.46,7.67c-0.64,1.74-1.29,3.55-2.68,4.94c0.43-0.14,1.19-0.27,1.67-0.26v7.32l-2.06,0.31c-0.08-0.01-0.1-0.12-0.1-0.28
	c-0.2-2.27-0.74-4.18-1.35-6.16c-0.04-0.27-0.83-1.3-0.22-1.12c0.07,0.01,0.88,0.34,0.75,0.18c-1.1-1.14-2.71-1.96-4.27-2.2
	c-0.14-0.04-0.22,0.03-0.09,0.19c2.07,3.19,3.8,6.95,3.79,11.42c0.81,0,2.76-0.48,3.56-0.48v5.17h2.02v-5.17
	c0.81,0,2.76,0.48,3.56,0.48c-0.01-4.47,1.72-8.23,3.79-11.42c0.13-0.16,0.04-0.23-0.09-0.19c-1.56,0.24-3.17,1.06-4.27,2.2
	c-0.13,0.16,0.68-0.17,0.75-0.18c0.6-0.18-0.18,0.85-0.22,1.12c-0.62,1.98-1.16,3.89-1.36,6.16c0,0.16-0.02,0.28-0.1,0.28
	l-2.06-0.31v-7.32c0.48-0.02,1.24,0.11,1.67,0.26C30.75,11.22,30.1,9.41,29.46,7.67"/>
</svg>
