<svg version="1.1" xmlns="http://www.w3.org/2000/svg" xmlns:xlink="http://www.w3.org/1999/xlink" x="0px" y="0px"
	 viewBox="0 0 58.92 34.37" style="enable-background:new 0 0 58.92 34.37;" xml:space="preserve">
<polygon style="fill:#BC0030;" points="54.34,0 4.58,0 29.46,14.51 "/>
<polygon style="fill:#BC0030;" points="4.58,34.37 54.34,34.37 29.46,19.86 "/>
<polygon style="fill:#50B63F;" points="58.92,31.7 58.92,2.67 34.04,17.19 "/>
<polygon style="fill:#50B63F;" points="0,31.7 24.88,17.19 0,2.67 "/>
<path style="fill:#FFFFFF;" d="M58.92,0h-4.58L36.6,10.35c-1.82-1.79-4.34-2.91-7.13-2.91c-2.79,0-5.32,1.11-7.14,2.91L4.58,0H0
	v2.67l19.9,11.61c-0.29,0.92-0.45,1.89-0.45,2.91c0,1.01,0.16,1.99,0.45,2.91L0,31.7v2.67h4.58l17.75-10.35
	c1.82,1.79,4.34,2.9,7.14,2.9c2.79,0,5.32-1.11,7.13-2.9l17.75,10.35h4.58V31.7l-19.9-11.61c0.3-0.92,0.45-1.89,0.45-2.91
	c0-1.01-0.16-1.99-0.45-2.91l19.9-11.61V0z"/>
<polygon style="fill:#50B63F;" points="30.12,11 29.46,9.85 28.8,11 27.48,11 28.14,12.15 27.48,13.29 28.8,13.29 29.46,14.44 
	30.12,13.29 31.45,13.29 30.78,12.15 31.45,11 "/>
<polygon style="fill:#50B63F;" points="35.15,19.71 35.81,18.56 34.49,18.56 33.83,17.42 33.17,18.56 31.84,18.56 32.5,19.71 
	31.84,20.85 33.17,20.85 33.83,22 34.49,20.85 35.81,20.85 "/>
<polygon style="fill:#50B63F;" points="25.76,18.56 25.1,17.42 24.43,18.56 23.11,18.56 23.77,19.71 23.11,20.85 24.43,20.85 
	25.1,22 25.76,20.85 27.08,20.85 26.42,19.71 27.08,18.56 "/>
<polygon style="fill:#BC0030;" points="30,11.21 29.46,10.27 28.92,11.21 27.83,11.21 28.38,12.15 27.83,13.09 28.92,13.09 
	29.46,14.02 30,13.09 31.09,13.09 30.55,12.15 31.09,11.21 "/>
<polygon style="fill:#BC0030;" points="34.91,19.71 35.45,18.77 34.37,18.77 33.83,17.83 33.28,18.77 32.2,18.77 32.74,19.71 
	32.2,20.65 33.28,20.65 33.83,21.59 34.37,20.65 35.45,20.65 "/>
<polygon style="fill:#BC0030;" points="25.64,18.77 25.09,17.83 24.55,18.77 23.47,18.77 24.01,19.71 23.47,20.65 24.55,20.65 
	25.09,21.59 25.64,20.65 26.72,20.65 26.18,19.71 26.72,18.77 "/>
</svg>
