<svg version="1.1" xmlns="http://www.w3.org/2000/svg" xmlns:xlink="http://www.w3.org/1999/xlink" x="0px" y="0px"
	 viewBox="0 0 58.92 34.37" style="enable-background:new 0 0 58.92 34.37;" xml:space="preserve">
<rect y="0" style="fill:#F0E030;" width="58.92" height="34.37"/>
<polygon style="fill:#FFFFFF;" points="0,10.5 58.92,24.82 58.92,16.71 0,2.39 "/>
<polygon points="0,17.66 58.92,31.99 58.92,24.82 0,10.5 "/>
<rect x="29.12" y="14.32" style="fill:#BD0030;" width="0.62" height="1.65"/>
<path d="M29.79,16.02h-0.73v-1.76h0.73V16.02z M29.17,15.91h0.51v-1.54h-0.51V15.91z"/>
<path style="fill:#BD0030;" d="M30.36,18.68c-0.01-1.13,0.03-2.22,0.11-2.53c0.08-0.31,0.19-0.37,0.34-0.53
	c-0.34-0.04-0.72,0.29-0.89,0.72c-0.11-0.49-0.32-0.82-0.5-0.98c-0.18,0.17-0.39,0.5-0.49,0.99c-0.18-0.36-0.49-0.76-0.86-0.72
	c0.13,0.16,0.25,0.21,0.33,0.52c0.08,0.3,0.12,1.39,0.09,2.52L30.36,18.68z"/>
<path d="M30.25,18.68c-0.01-1.02,0.03-2.21,0.11-2.56c0.03-0.14,0.08-0.24,0.13-0.31c-0.19,0.11-0.37,0.32-0.47,0.58l-0.13,0.33
	l-0.08-0.35c-0.08-0.34-0.22-0.65-0.39-0.85c-0.11,0.13-0.29,0.4-0.38,0.85l-0.06,0.32l-0.14-0.29c-0.06-0.12-0.22-0.42-0.44-0.57
	c0.05,0.07,0.09,0.16,0.12,0.29c0.08,0.32,0.12,1.41,0.09,2.55l-0.22-0.01c0.03-1.1-0.01-2.2-0.09-2.49
	c-0.05-0.2-0.12-0.28-0.21-0.37c-0.03-0.03-0.06-0.06-0.09-0.1l-0.13-0.16l0.2-0.02c0.37-0.05,0.66,0.27,0.83,0.54
	c0.1-0.32,0.26-0.6,0.45-0.77l0.07-0.07l0.08,0.07c0.18,0.17,0.34,0.44,0.45,0.76c0.22-0.35,0.55-0.56,0.87-0.53l0.22,0.02
	l-0.23,0.24c-0.1,0.1-0.18,0.18-0.23,0.4c-0.07,0.28-0.12,1.31-0.11,2.51L30.25,18.68z"/>
<path style="fill:#BD0030;" d="M30.41,21.51c-0.01-1.36,0.04-2.52,0.12-2.89c0.07-0.37,0.19-0.44,0.36-0.6
	c-0.37-0.04-0.72,0.07-0.93,0.7c-0.12-0.59-0.34-0.88-0.54-1.07c-0.2,0.2-0.43,0.5-0.53,1.08c-0.23-0.63-0.54-0.77-0.95-0.71
	c0.17,0.17,0.3,0.24,0.38,0.6c0.08,0.36,0.09,1.51,0.06,2.88L30.41,21.51z"/>
<path d="M30.32,21.51c-0.01-1.32,0.04-2.52,0.12-2.91c0.05-0.26,0.13-0.38,0.22-0.49c-0.23,0.03-0.45,0.17-0.6,0.64l-0.12,0.35
	l-0.07-0.36c-0.1-0.49-0.27-0.76-0.44-0.95c-0.17,0.19-0.35,0.46-0.44,0.96l-0.06,0.35l-0.12-0.34c-0.18-0.49-0.4-0.63-0.63-0.66
	c0.1,0.1,0.19,0.23,0.25,0.49c0.1,0.45,0.08,2.01,0.06,2.9l-0.19,0c0.03-1.52,0.01-2.53-0.06-2.85c-0.06-0.27-0.14-0.35-0.27-0.47
	l-0.22-0.22l0.19-0.03c0.42-0.06,0.72,0.1,0.93,0.51c0.13-0.43,0.32-0.67,0.49-0.84l0.07-0.07l0.07,0.07
	c0.18,0.18,0.36,0.42,0.49,0.84c0.2-0.38,0.5-0.54,0.92-0.49l0.21,0.02l-0.21,0.2c-0.14,0.12-0.22,0.2-0.28,0.49
	c-0.08,0.38-0.12,1.56-0.12,2.87L30.32,21.51z"/>
<path style="fill:#BD0030;" d="M30.79,22.27c-0.01-0.32,0.03-0.74,0.1-0.91c0.07-0.16,0.17-0.29,0.27-0.42
	c-0.43-0.06-0.88-0.03-1.11,0.61c-0.15-0.58-0.38-0.89-0.63-1.08c-0.25,0.2-0.46,0.5-0.61,1.08c-0.23-0.64-0.68-0.67-1.13-0.61
	c0.1,0.14,0.21,0.26,0.28,0.42c0.08,0.16,0.12,0.59,0.11,0.91H30.79z"/>
<path d="M28.17,22.27L28,22.26c0.01-0.32-0.03-0.72-0.1-0.87c-0.06-0.12-0.13-0.22-0.21-0.32l-0.15-0.2l0.14-0.02
	c0.38-0.06,0.84-0.05,1.12,0.45c0.14-0.41,0.32-0.7,0.58-0.91l0.05-0.04l0.05,0.04c0.27,0.21,0.46,0.5,0.59,0.91
	c0.28-0.49,0.71-0.5,1.11-0.45l0.14,0.02l-0.14,0.19c-0.08,0.11-0.16,0.21-0.21,0.33c-0.06,0.15-0.11,0.55-0.1,0.87l-0.17,0.01
	c-0.01-0.31,0.03-0.75,0.11-0.94c0.06-0.12,0.12-0.22,0.2-0.32c-0.39-0.02-0.69,0.08-0.87,0.57l-0.09,0.26l-0.07-0.27
	c-0.15-0.57-0.37-0.84-0.54-0.99c-0.24,0.22-0.41,0.53-0.53,0.99l-0.07,0.27l-0.1-0.26c-0.19-0.52-0.53-0.6-0.89-0.57
	c0.07,0.09,0.15,0.2,0.2,0.32C28.14,21.52,28.18,21.96,28.17,22.27"/>
<rect x="29.2" y="11.11" style="fill:#BD0030;" width="0.46" height="1.31"/>
<path d="M29.75,12.5h-0.63v-1.48h0.63V12.5z M29.29,12.33h0.29v-1.13h-0.29V12.33z"/>
<path style="fill:#BD0030;" d="M32.4,27.21c0.11,0.08,0.57,0.16,1.39,0.01c1.44-0.25,1.43-1.67,3.67-1.01
	c-0.1-0.2-0.46-0.82-1.33-0.85c0.09-0.29,0.15-0.72-0.01-0.99c-0.17,0.38-0.43,0.55-0.62,0.67c-0.06-0.03-0.4-0.31-0.43-0.73
	c-0.05-0.83-0.45-0.97-0.5-0.95c-0.26-0.01-1.82,2.46-5.16,2.47c-3.29,0.02-4.93-2.45-5.12-2.47c-0.04-0.02-0.45,0.12-0.5,0.95
	c-0.04,0.42-0.38,0.68-0.44,0.72c-0.19-0.12-0.45-0.29-0.62-0.67c-0.16,0.27-0.1,0.7-0.01,0.99c-0.87,0.03-1.23,0.65-1.33,0.85
	c2.24-0.66,2.25,0.76,3.69,1.01c0.82,0.14,1.25,0.08,1.36,0L32.4,27.21z"/>
<path d="M25.93,27.39c-0.22,0-0.51-0.02-0.86-0.09c-0.56-0.1-0.91-0.36-1.24-0.62c-0.53-0.41-1.04-0.8-2.4-0.4l-0.1-0.12
	c0.15-0.31,0.52-0.82,1.29-0.89c-0.06-0.23-0.13-0.66,0.05-0.95l0.15,0.01c0.14,0.31,0.34,0.48,0.53,0.6
	c0.1-0.08,0.33-0.3,0.36-0.62c0.04-0.69,0.32-0.92,0.44-0.99c0.05-0.03,0.12-0.06,0.18-0.03c0.03,0.01,0.08,0.05,0.27,0.24
	c0.59,0.61,2.15,2.22,4.78,2.22h0.03c2.57-0.01,4.08-1.51,4.73-2.15c0.24-0.23,0.33-0.33,0.43-0.33h0c0.01-0.02,0.08,0.01,0.14,0.04
	c0.12,0.07,0.4,0.3,0.44,0.99c0.03,0.32,0.25,0.55,0.35,0.63c0.17-0.11,0.39-0.28,0.54-0.61l0.15-0.01
	c0.18,0.29,0.11,0.73,0.05,0.95c0.77,0.07,1.14,0.58,1.29,0.89l-0.1,0.12c-1.36-0.4-1.86-0.01-2.39,0.4
	c-0.33,0.26-0.68,0.52-1.24,0.62c-0.89,0.15-1.33,0.06-1.46-0.03l0.1-0.14c0.09,0.06,0.53,0.14,1.33,0
	c0.52-0.09,0.85-0.34,1.16-0.59c0.51-0.4,1.05-0.8,2.34-0.48c-0.19-0.28-0.54-0.61-1.15-0.62l-0.08-0.11
	c0.07-0.24,0.12-0.53,0.06-0.76c-0.18,0.29-0.41,0.44-0.56,0.54l-0.09,0c-0.07-0.04-0.44-0.33-0.48-0.79
	c-0.04-0.69-0.33-0.87-0.4-0.88c-0.04,0.01-0.18,0.15-0.32,0.28c-0.66,0.65-2.21,2.18-4.85,2.19h-0.03c-2.71,0-4.3-1.65-4.9-2.27
	c-0.09-0.09-0.18-0.19-0.21-0.2c-0.06,0.01-0.34,0.19-0.39,0.88c-0.04,0.42-0.36,0.71-0.48,0.78l-0.09,0
	c-0.14-0.09-0.38-0.23-0.56-0.54c-0.06,0.23-0.01,0.53,0.06,0.76l-0.08,0.11c-0.62,0.02-0.97,0.35-1.15,0.62
	c1.29-0.33,1.83,0.08,2.35,0.48c0.32,0.24,0.65,0.5,1.17,0.59c0.86,0.15,1.23,0.06,1.3,0.01l0.1,0.14
	C26.41,27.35,26.23,27.39,25.93,27.39"/>
<path style="fill:#BD0030;" d="M25.45,26.5c-0.78-0.03-2.3-1.22-2.09-1.46c0.07-0.07,0.4,0,0.98,0.41c0.86,0.59,1.6,2.44,5.06,2.43
	c3.52-0.02,4.25-1.84,5.11-2.43c0.58-0.41,0.94-0.47,0.98-0.39c0.21,0.23-1.32,1.42-2.1,1.45L25.45,26.5z"/>
<path d="M29.36,27.96c-2.11,0-3.23-0.71-3.96-1.38c-0.71-0.06-1.95-0.96-2.12-1.37c-0.05-0.12-0.02-0.19,0.02-0.23
	c0.14-0.14,0.56,0.02,1.1,0.4c0.2,0.14,0.39,0.34,0.62,0.57c0.74,0.78,1.75,1.84,4.36,1.84h0.04c2.69-0.01,3.71-1.07,4.45-1.85
	c0.22-0.23,0.41-0.43,0.61-0.56c0.43-0.3,0.83-0.47,1.01-0.43l0.09,0.07c0.02,0.02,0.05,0.09,0,0.2c-0.18,0.41-1.42,1.31-2.14,1.37
	c-0.74,0.66-1.88,1.36-4.04,1.37H29.36z M35.41,25.11c-0.08,0-0.38,0.08-0.85,0.41c-0.19,0.13-0.37,0.32-0.58,0.54
	c-0.09,0.1-0.19,0.2-0.3,0.31c0.59-0.17,1.39-0.75,1.67-1.1c0.09-0.12,0.08-0.16,0.08-0.16C35.43,25.11,35.42,25.11,35.41,25.11
	 M23.42,25.1c0.01,0,0.01,0.04,0.07,0.13c0.25,0.36,1.08,0.95,1.68,1.13c-0.1-0.1-0.2-0.2-0.29-0.3c-0.22-0.23-0.4-0.42-0.59-0.55
	C23.74,25.13,23.47,25.09,23.42,25.1"/>
<path style="fill:#BD0030;" d="M24.38,14.51c-3.08,3.25-1.43,10.72,4.98,10.82c6.44,0.07,8.32-7.47,5.12-10.84L24.38,14.51z
	 M25,14.62c-1.64,2.76,0.06,7.61,4.45,7.61c4.42,0,6.04-4.88,4.42-7.62L25,14.62z"/>
<path d="M29.45,25.42c-0.03,0-0.06,0-0.09,0c-2.78-0.05-4.97-1.49-6-3.96c-1.03-2.45-0.63-5.33,0.96-7.01l0.12,0.12
	c-1.55,1.63-1.93,4.43-0.93,6.82c1.01,2.41,3.14,3.81,5.85,3.86c2.72,0,4.92-1.34,5.97-3.77c1.05-2.41,0.67-5.25-0.91-6.92
	l0.12-0.12c1.63,1.72,2.02,4.64,0.95,7.11C34.42,24.01,32.22,25.42,29.45,25.42 M29.45,22.32c-1.89,0-3.5-0.92-4.41-2.53
	c-0.94-1.65-0.98-3.74-0.11-5.2l0.15,0.09c-0.84,1.42-0.79,3.44,0.11,5.03c0.88,1.55,2.44,2.45,4.26,2.45
	c1.84,0,3.34-0.86,4.23-2.42c0.92-1.6,0.96-3.65,0.11-5.08l0.15-0.09c0.88,1.48,0.83,3.59-0.11,5.25
	C32.92,21.43,31.36,22.32,29.45,22.32"/>
<path style="fill:#F4D02E;" d="M30.58,26.29c0.22,0.05,0.43,0.28,0.35,0.52c-0.09,0.28-0.43,0.35-0.56,0.33
	c-0.14-0.08-0.06-0.2,0.37-0.25c0.28-0.1,0.03-0.29-0.18-0.38C30.44,26.47,30.47,26.27,30.58,26.29"/>
<path style="fill:#BD0030;" d="M30.41,27.15l-0.05,0c-0.06-0.04-0.07-0.07-0.07-0.1c0.02-0.07,0.17-0.14,0.43-0.16
	c0.07-0.03,0.11-0.06,0.11-0.11c0-0.09-0.15-0.19-0.3-0.25c-0.07-0.03-0.08-0.1-0.07-0.16c0.01-0.05,0.04-0.09,0.08-0.09
	c0.15,0.03,0.27,0.12,0.34,0.24c0.05,0.09,0.06,0.19,0.03,0.29C30.85,27.06,30.58,27.15,30.41,27.15 M30.57,26.3
	c-0.05,0-0.08,0.04-0.08,0.07c-0.01,0.05,0,0.12,0.06,0.14c0.14,0.06,0.31,0.17,0.31,0.27c0,0.05-0.04,0.09-0.13,0.12
	c-0.25,0.03-0.41,0.08-0.42,0.15c-0.01,0.03,0.03,0.06,0.06,0.08l0.04,0c0.16,0,0.42-0.09,0.5-0.33c0.03-0.09,0.02-0.19-0.03-0.28
	C30.82,26.41,30.7,26.32,30.57,26.3L30.57,26.3z"/>
<path style="fill:#F4D02E;" d="M29.88,26.22c0.1-0.12,0.19,0.25,0.21,0.5c0.03,0.25,0.03,0.55-0.07,0.56
	c-0.06,0.01-0.01-0.28-0.07-0.55C29.87,26.42,29.84,26.27,29.88,26.22"/>
<path style="fill:#BD0030;" d="M30.02,27.29c-0.04,0-0.04-0.07-0.04-0.19c0-0.1-0.01-0.24-0.04-0.37c-0.08-0.31-0.12-0.46-0.07-0.52
	c0.01,0,0.03,0,0.04,0c-0.06,0.08-0.02,0.23,0.05,0.51C29.99,26.86,30,27,30,27.1c0,0.09,0,0.17,0.03,0.17V27.29l0-0.02
	c0.09-0.01,0.09-0.29,0.06-0.56c-0.01-0.16-0.05-0.32-0.09-0.42c0.06,0.1,0.09,0.29,0.1,0.42C30.11,26.8,30.16,27.26,30.02,27.29
	L30.02,27.29z"/>
<path style="fill:#F4D02E;" d="M29.64,26.66c0.26,0.25-0.18,0.99-1.15,0.67c-0.06-0.1,0.38,0,0.69-0.06
	C29.78,27.19,29.52,26.55,29.64,26.66"/>
<path style="fill:#BB4B4B;" d="M28.95,27.42c-0.14,0-0.3-0.03-0.46-0.08c0-0.01,0-0.02,0.01-0.03c0.16,0.07,0.31,0.09,0.45,0.09
	c0.42,0,0.65-0.22,0.73-0.41c0.05-0.13,0.04-0.25-0.04-0.33c-0.03-0.01-0.03,0.03-0.03,0.07c0,0.16-0.01,0.48-0.42,0.55
	c-0.08,0.01-0.16,0.02-0.24,0.02c-0.07,0-0.14,0-0.2-0.01l-0.14,0c-0.02,0-0.1,0-0.11,0.02c0.01-0.03,0.05-0.03,0.11-0.03l0.14,0
	c0.14,0.01,0.3,0.01,0.44-0.01c0.4-0.06,0.41-0.38,0.41-0.53c0-0.06,0-0.09,0.03-0.09c0.11,0.09,0.13,0.22,0.07,0.36
	C29.61,27.19,29.37,27.42,28.95,27.42"/>
<path style="fill:#F4D02E;" d="M29.17,26.16c0.1-0.12,0.04,0.26,0.06,0.51c0.02,0.24,0,0.53-0.12,0.49
	c-0.06-0.03,0.04-0.3-0.02-0.55C29.02,26.3,29.09,26.24,29.17,26.16"/>
<path style="fill:#BD0030;" d="M29.13,27.17l-0.02,0c-0.03-0.02-0.03-0.08-0.02-0.18c0.01-0.1,0.02-0.24-0.01-0.38
	c-0.07-0.31,0-0.38,0.07-0.45c0.01,0,0.02,0,0.03,0.01c-0.1,0.09-0.15,0.16-0.09,0.44c0.03,0.14,0.02,0.28,0.01,0.38
	c-0.01,0.08-0.01,0.15,0.01,0.16L29.13,27.17l0.04-0.03c0.06-0.07,0.07-0.29,0.06-0.47c-0.01-0.09,0-0.19,0-0.28
	c0-0.08,0-0.15,0-0.2c0.02,0.04,0.02,0.11,0.02,0.2c0,0.09,0,0.19,0,0.27c0.02,0.19,0,0.41-0.06,0.48L29.13,27.17z"/>
<path style="fill:#F4D02E;" d="M28.5,26.06c0.19,0,0.14,0.05,0.12,0.55c-0.01,0.55-0.48,0.62-0.59,0.46
	c-0.09-0.12-0.06-0.16-0.48-0.11c-0.09-0.05-0.09-0.15-0.4-0.12c-0.08,0.02-0.08-0.14-0.22-0.22c-0.25-0.15-0.33,0.11-0.81-0.16
	c-0.03-0.02-0.22-0.14-0.19-0.38c0.04-0.3-0.24,0.04-0.55-0.1c-0.06-0.03-0.24-0.1-0.39-0.24c-0.22-0.19,0.01-0.23,0.31-0.03
	c0.19,0.12,0.46-0.15,0.47-0.42c0.02-0.29-0.13-0.36,0.1-0.36c0.12,0,0.09,0.5-0.12,0.72c-0.28,0.3-0.09,0.24,0.01,0.23
	c0.1-0.03,0.58-0.62,0.66-0.57c0.12,0.08-0.37,0.46-0.26,0.82c0.05,0.16,0.35,0.31,0.59,0.34c0.29,0.05,0.29-0.34,0.4-0.27
	c0.16,0.1-0.31,0.3,0.18,0.45c0.11,0.03,0.17-0.24,0.23-0.23c0.15,0.02-0.1,0.32,0.17,0.37c0.19,0.03,0.14-0.28,0.26-0.26
	c0.14-0.01,0.01,0.49,0.39,0.44C28.56,26.94,28.31,26.06,28.5,26.06"/>
<path style="fill:#BD0030;" d="M28.2,27.15c-0.08,0-0.15-0.03-0.18-0.07c-0.1-0.14-0.11-0.15-0.47-0.11
	c-0.03-0.01-0.05-0.03-0.07-0.05c-0.05-0.05-0.11-0.09-0.33-0.08c-0.05,0.03-0.07-0.03-0.09-0.08c-0.03-0.05-0.06-0.11-0.13-0.15
	c-0.08-0.05-0.17-0.05-0.26-0.04c-0.1,0.01-0.21,0.07-0.54-0.12c-0.02-0.01-0.23-0.13-0.19-0.39c0.01-0.06,0-0.09-0.01-0.11
	c-0.06-0.01-0.1,0-0.14,0.01c-0.11,0.03-0.26,0.07-0.39,0.01c-0.07-0.03-0.25-0.11-0.4-0.24c-0.07-0.06-0.1-0.11-0.09-0.14
	c0.01-0.04,0.15-0.07,0.41,0.1c0.17,0.11,0.45-0.16,0.45-0.42c0.01-0.1-0.01-0.18-0.02-0.24c-0.01-0.05-0.02-0.08,0-0.1
	c0.01-0.02,0.04-0.02,0.1-0.02c0.04,0,0.07,0.01,0.08,0.05c0.06,0.14,0,0.5-0.17,0.68c-0.1,0.1-0.13,0.16-0.14,0.19
	c0-0.04,0.03-0.1,0.13-0.2c0.17-0.18,0.22-0.53,0.17-0.67l-0.04-0.05l-0.03,0.01c-0.05,0-0.07,0.01-0.08,0.02
	c-0.01,0.02-0.01,0.05,0,0.09c0.01,0.06,0.03,0.13,0.02,0.24c-0.01,0.27-0.29,0.55-0.48,0.43c-0.14-0.09-0.26-0.13-0.33-0.13
	c-0.06,0.04-0.07,0.07,0.02,0.15c0.15,0.13,0.32,0.21,0.38,0.23c0.15,0.06,0.28,0.02,0.39-0.01c0.04-0.01,0.08-0.03,0.11-0.03
	c0.07,0.04,0.07,0.08,0.06,0.14c-0.04,0.24,0.16,0.36,0.18,0.37c0.32,0.19,0.43,0.14,0.53,0.12c0.1-0.01,0.18-0.01,0.27,0.04
	c0.07,0.05,0.11,0.11,0.14,0.16c0.02,0.04,0.04,0.07,0.07,0.07c0.05,0,0.08-0.01,0.1-0.01c0.15,0,0.2,0.04,0.25,0.08
	c0.02,0.02,0.03,0.03,0.06,0.04c0.36-0.04,0.39-0.01,0.45,0.08c0.06,0.08,0.12,0.11,0.2,0.11c0.19,0,0.4-0.17,0.41-0.53l0.01-0.25
	c0.01-0.16,0.01-0.23-0.02-0.26c-0.02-0.02-0.04-0.02-0.1-0.02c-0.09,0.07-0.08,0.27-0.06,0.46c0.02,0.22,0.04,0.42-0.05,0.43
	c-0.23-0.02-0.29-0.17-0.31-0.3c-0.02-0.08-0.05-0.16-0.07-0.14c-0.05,0-0.07,0.05-0.09,0.1c-0.02,0.07-0.05,0.16-0.15,0.16
	c-0.19-0.03-0.18-0.15-0.16-0.24c0.01-0.08,0.01-0.12-0.04-0.13h0c-0.02,0-0.05,0.05-0.08,0.09c-0.04,0.07-0.08,0.14-0.14,0.14
	c-0.15-0.04-0.23-0.09-0.25-0.14c-0.02-0.06,0.01-0.11,0.04-0.16c0.04-0.07,0.06-0.11,0-0.14c-0.06-0.01-0.07,0.03-0.1,0.08
	c-0.05,0.08-0.11,0.19-0.25,0.19c-0.28-0.03-0.59-0.18-0.64-0.35c-0.07-0.21,0.08-0.43,0.18-0.59c0.07-0.11,0.13-0.19,0.08-0.23h0
	c-0.06,0-0.22,0.16-0.36,0.31c-0.13,0.13-0.24,0.25-0.29,0.26c-0.06,0.01-0.09,0.01-0.11,0.01c-0.01-0.01-0.02-0.02-0.03-0.03
	c0.05,0.01,0.08,0.01,0.1,0c0.07-0.02,0.19-0.14,0.31-0.26c0.15-0.15,0.31-0.31,0.36-0.31c0.07,0.04,0.02,0.13-0.06,0.25
	c-0.1,0.16-0.24,0.37-0.18,0.58c0.05,0.16,0.35,0.31,0.58,0.33c0.18,0.01,0.23-0.1,0.28-0.18c0.03-0.05,0.06-0.1,0.09-0.1
	c0.1,0.05,0.06,0.11,0.03,0.17c-0.03,0.05-0.06,0.1-0.04,0.15c0.02,0.05,0.09,0.09,0.22,0.13c0.06,0,0.1-0.07,0.14-0.13
	c0.03-0.05,0.06-0.1,0.09-0.1c0.08,0.01,0.07,0.08,0.06,0.15c-0.01,0.1-0.03,0.19,0.12,0.22h0.01c0.1,0,0.13-0.07,0.15-0.14
	c0.02-0.06,0.04-0.11,0.09-0.11c0.07,0,0.08,0.07,0.1,0.16c0.03,0.13,0.06,0.29,0.25,0.29c0.12-0.01,0.1-0.22,0.08-0.42
	c-0.02-0.19-0.03-0.4,0.02-0.46c0.1-0.02,0.14-0.02,0.16,0.01c0.03,0.04,0.03,0.11,0.02,0.27l-0.01,0.25
	C28.62,26.98,28.4,27.15,28.2,27.15"/>
<path style="fill:#F4D02E;" d="M25.05,25.41c0.11-0.02,0.3-0.13,0.31-0.29c0.02-0.18-0.24-0.24-0.54-0.2
	c-0.16,0.02-0.42-0.08-0.58-0.21c-0.16-0.2-0.16-0.42-0.35-0.32c-0.14,0.06,0.2,0.42,0.36,0.51c0.17,0.09,0.43,0.08,0.45,0.21
	C24.72,25.23,24.65,25.42,25.05,25.41"/>
<path style="fill:#BD0030;" d="M25.01,25.42c-0.31,0-0.31-0.14-0.31-0.25c-0.01-0.14-0.11-0.16-0.23-0.19
	c-0.07-0.02-0.15-0.04-0.21-0.07c-0.14-0.07-0.4-0.34-0.4-0.47c0.02-0.02,0.03-0.03,0.04-0.04c-0.03,0.16,0.22,0.42,0.36,0.5
	c0.06,0.03,0.14,0.05,0.21,0.07c0.12,0.03,0.23,0.06,0.24,0.14c0,0.18,0,0.3,0.29,0.3V25.42l0.04-0.02c0.09-0.02,0.29-0.12,0.3-0.28
	c0-0.04-0.01-0.08-0.04-0.11c-0.08-0.08-0.26-0.11-0.49-0.08c-0.21,0.02-0.44-0.09-0.59-0.21c-0.05-0.07-0.09-0.13-0.12-0.19
	c-0.06-0.12-0.1-0.19-0.22-0.13c0.04-0.03,0.06-0.04,0.07-0.04c0.08,0,0.11,0.07,0.16,0.16c0.03,0.06,0.06,0.12,0.11,0.19
	c0.14,0.12,0.37,0.21,0.53,0.21c0.11-0.01,0.17-0.02,0.23-0.02c0.15,0,0.26,0.04,0.32,0.1c0.03,0.03,0.05,0.08,0.04,0.12
	c-0.01,0.16-0.19,0.27-0.31,0.3L25.01,25.42z"/>
<path style="fill:#F4D02E;" d="M31.75,26.25c-0.06,0.03-0.11,0.58,0.23,0.59c0.43,0.02,0.65-0.2,0.76-0.28
	c0.18-0.14,0.5-0.41,0.35-0.64c-0.07-0.09-0.12,0.16-0.2,0.3c-0.12,0.21-0.52,0.45-0.83,0.42C31.68,26.62,31.82,26.23,31.75,26.25"
	/>
<path style="fill:#BD0030;" d="M32.02,26.85l-0.04,0c-0.14-0.01-0.24-0.1-0.27-0.27c-0.03-0.15-0.01-0.32,0.03-0.34
	c0.04-0.02,0.04,0.04,0.04,0.08c0.01,0.11,0.02,0.29,0.27,0.3c0.37-0.01,0.71-0.22,0.82-0.42c0.03-0.05,0.05-0.11,0.07-0.16
	c0.04-0.09,0.06-0.16,0.1-0.16c0.01,0.01,0.01,0.02,0.02,0.03c-0.05,0-0.08,0.06-0.11,0.14c-0.02,0.06-0.05,0.11-0.08,0.16
	c-0.11,0.2-0.47,0.43-0.78,0.43c-0.32-0.02-0.34-0.21-0.35-0.32c0-0.04-0.01-0.07-0.02-0.07c-0.03,0.01-0.06,0.17-0.03,0.32
	c0.02,0.11,0.09,0.25,0.25,0.25L32.02,26.85v-0.02c0.35,0,0.54-0.15,0.66-0.25c0.3-0.23,0.44-0.41,0.43-0.55
	c0.02,0.16-0.11,0.33-0.38,0.53C32.58,26.69,32.38,26.85,32.02,26.85"/>
<path style="fill:#F4D02E;" d="M32.63,26c-0.09-0.07,0.19-0.17,0.22-0.28c0.03-0.1-0.12-0.2-0.04-0.31c0.09-0.15,0.1,0.28,0.21,0.29
	c0.32,0.03,0.09,0.24-0.03,0.2C32.86,25.86,32.68,26.05,32.63,26"/>
<path style="fill:#BD0030;" d="M32.65,26.01L32.63,26c0-0.01,0-0.02,0-0.03L32.66,26c0.03,0,0.06-0.02,0.11-0.04
	c0.06-0.03,0.13-0.07,0.19-0.07l0.07,0.01c0.07,0,0.15-0.06,0.15-0.11c0-0.04-0.05-0.07-0.15-0.08c-0.06-0.01-0.09-0.11-0.12-0.2
	c-0.01-0.04-0.03-0.09-0.04-0.11c0.03,0.01,0.04,0.06,0.06,0.11c0.02,0.08,0.05,0.18,0.1,0.19c0.15,0.02,0.17,0.07,0.17,0.1
	c0,0.06-0.09,0.12-0.16,0.12l-0.07-0.01c-0.06,0-0.13,0.04-0.19,0.07C32.72,25.99,32.68,26.01,32.65,26.01L32.65,26.01z
	 M32.62,25.96c0.01-0.05,0.05-0.08,0.1-0.11c0.05-0.04,0.12-0.09,0.13-0.13s-0.01-0.08-0.03-0.13c-0.03-0.06-0.06-0.12-0.01-0.19
	c0.01,0,0.02-0.01,0.03-0.01c-0.06,0.08-0.04,0.14-0.01,0.19c0.02,0.04,0.04,0.09,0.03,0.14s-0.07,0.09-0.14,0.14
	C32.68,25.9,32.63,25.94,32.62,25.96"/>
<path style="fill:#F4D02E;" d="M32.39,25.35c-0.02,0.14,0.07,0.18,0.09,0.1C32.51,25.3,32.42,25.22,32.39,25.35"/>
<path style="fill:#F4D02E;" d="M32.62,25.2c-0.05,0-0.06,0.18,0.01,0.19c0.07,0.01,0.04,0.13,0.1,0.13c0.07,0,0.08-0.2,0-0.2
	C32.64,25.31,32.66,25.2,32.62,25.2"/>
<path style="fill:#BD0030;" d="M32.72,25.52L32.72,25.52l-0.05-0.06c-0.01-0.03-0.02-0.06-0.05-0.06c-0.04,0-0.06-0.06-0.06-0.1
	c0-0.05,0.01-0.1,0.05-0.1c0.06,0.08,0.07,0.1,0.1,0.11c0.05,0,0.07,0.06,0.07,0.11C32.79,25.46,32.76,25.52,32.72,25.52
	L32.72,25.52z M32.61,25.23c-0.02,0-0.03,0.03-0.03,0.06c0,0.04,0.01,0.08,0.04,0.09c0.04,0,0.05,0.04,0.06,0.07l0.03,0.06v-0.01
	c0.03,0,0.05-0.05,0.05-0.1c0-0.05-0.02-0.09-0.05-0.09c-0.05,0-0.06-0.04-0.07-0.07C32.63,25.24,32.62,25.23,32.61,25.23"/>
<path style="fill:#F4D02E;" d="M33.19,25.17c-0.06,0.08-0.18-0.29,0.21-0.35c0.18,0.02,0.34,0.32,0.32,0.61
	c-0.01,0.11-0.01,0.35-0.07,0.47c-0.05,0.11-0.23,0.49-0.31,0.45c-0.09-0.03,0.02-0.19,0.17-0.4c0.12-0.18,0.16-0.67,0.1-0.76
	c-0.06-0.09-0.12,0.22-0.24,0.28c-0.1,0.05-0.21-0.1-0.23-0.18c-0.01-0.09,0.07-0.15,0.13-0.04c0.04,0.08,0.18-0.08,0.18-0.19
	C33.44,24.88,33.32,25.03,33.19,25.17"/>
<path style="fill:#BD0030;" d="M33.35,26.37l-0.01,0c-0.01-0.01-0.01-0.02-0.01-0.03l0.03,0.02c0.08,0,0.23-0.3,0.29-0.45
	c0.05-0.1,0.06-0.3,0.07-0.42c0.02-0.33-0.14-0.63-0.31-0.65c-0.21,0.03-0.27,0.15-0.27,0.26c0,0.05,0.02,0.08,0.04,0.08
	c0.13-0.13,0.19-0.2,0.24-0.2c0.04,0.02,0.04,0.05,0.04,0.09c0,0.07-0.04,0.14-0.08,0.18c-0.02,0.03-0.05,0.04-0.07,0.04
	c-0.06-0.06-0.08-0.08-0.1-0.08c-0.05,0.03-0.05,0.06-0.05,0.09c0.01,0.06,0.09,0.18,0.18,0.18c0.1-0.04,0.14-0.13,0.18-0.2
	c0.03-0.07,0.06-0.11,0.09-0.11c0.01,0.01,0.01,0.02,0.02,0.03c0,0,0,0,0,0c-0.03-0.01-0.06,0.04-0.09,0.09
	c-0.04,0.07-0.08,0.16-0.14,0.19c-0.14,0-0.22-0.11-0.24-0.18c-0.01-0.03,0-0.07,0.02-0.09c0.06-0.02,0.09-0.01,0.12,0.04l0.09-0.02
	c0.04-0.04,0.08-0.11,0.07-0.17c0-0.05-0.01-0.07-0.01-0.07c-0.05-0.01-0.12,0.07-0.19,0.15l-0.06,0.05c-0.03,0-0.05-0.04-0.05-0.1
	c-0.01-0.11,0.06-0.25,0.28-0.28c0.19,0.02,0.35,0.32,0.33,0.62c-0.01,0.17-0.02,0.37-0.07,0.47
	C33.66,25.91,33.46,26.37,33.35,26.37 M33.32,26.28c0.01-0.08,0.08-0.18,0.16-0.3c0.12-0.18,0.17-0.59,0.14-0.73
	c0.05,0.18-0.01,0.57-0.11,0.72C33.42,26.1,33.34,26.21,33.32,26.28"/>
<path style="fill:#F4D02E;" d="M34.02,24.34c-0.05,0.07-0.22,0.23-0.25,0.29c-0.03,0.06-0.04,0.18,0.02,0.29
	c0.05,0.11,0.17,0.28,0.15,0.44c-0.02,0.16-0.13,0.48-0.07,0.45c0.06-0.03,0.21-0.35,0.17-0.59c-0.03-0.24-0.15-0.38-0.12-0.46
	c0.02-0.08,0.16-0.23,0.18-0.33c0.03-0.1-0.02-0.38-0.06-0.4c-0.04-0.02-0.17,0.03-0.13,0.12C33.96,24.24,34.05,24.18,34.02,24.34"
	/>
<path style="fill:#BD0030;" d="M33.86,25.82l-0.01-0.01c-0.02-0.02,0-0.11,0.04-0.25c0.02-0.07,0.04-0.15,0.04-0.21
	c0.02-0.13-0.06-0.27-0.11-0.38c-0.09-0.17-0.08-0.29-0.05-0.35c0.02-0.04,0.08-0.1,0.14-0.17c0.04-0.05,0.09-0.09,0.11-0.12
	c0.01-0.09-0.01-0.1-0.04-0.12c-0.02-0.01-0.05-0.03-0.07-0.06c-0.01-0.03-0.01-0.05,0-0.08c0.02-0.04,0.07-0.06,0.11-0.06
	c0.07,0.03,0.11,0.31,0.08,0.42c-0.01,0.05-0.06,0.12-0.1,0.19c-0.04,0.06-0.07,0.11-0.08,0.15c-0.01,0.04,0.01,0.09,0.04,0.15
	c0.03,0.08,0.07,0.18,0.09,0.3c0.03,0.24-0.11,0.57-0.18,0.6L33.86,25.82z M34.02,24.03c-0.05,0-0.09,0.02-0.1,0.05
	c0.01,0.1,0.04,0.11,0.06,0.12c0.03,0.02,0.07,0.04,0.05,0.14c-0.02,0.03-0.07,0.08-0.11,0.13c-0.06,0.06-0.12,0.13-0.14,0.17
	c-0.03,0.06-0.04,0.17,0.02,0.28c0.09,0.16,0.17,0.31,0.15,0.44c-0.01,0.06-0.03,0.14-0.04,0.21c-0.02,0.1-0.05,0.22-0.04,0.24h0
	c0.05-0.02,0.2-0.34,0.17-0.58c-0.02-0.13-0.05-0.22-0.08-0.3c-0.03-0.07-0.05-0.12-0.04-0.16c0.01-0.04,0.05-0.09,0.08-0.15
	c0.04-0.06,0.09-0.13,0.1-0.18c0.03-0.11-0.02-0.37-0.05-0.39C34.03,24.03,34.03,24.03,34.02,24.03"/>
<path style="fill:#F4D02E;" d="M34.24,24.47c-0.06,0.06-0.03,0.36,0.05,0.25C34.37,24.61,34.29,24.42,34.24,24.47"/>
<path style="fill:#F4D02E;" d="M32.65,26.7c-0.03,0.13,0.1,0.17,0.14,0.1C32.83,26.66,32.7,26.58,32.65,26.7"/>
<path style="fill:#F4D02E;" d="M32.85,26.59c-0.04,0.11,0.15,0.12,0.2,0.06C33.12,26.53,32.93,26.49,32.85,26.59"/>
<path style="fill:#BD0030;" d="M32.95,26.69c-0.04,0-0.08-0.01-0.1-0.04c0.01-0.02,0.01-0.03,0.02-0.05
	c0.04,0.13,0.15,0.07,0.18,0.03c-0.02-0.16-0.12-0.1-0.17-0.06c0.06-0.1,0.16-0.06,0.19-0.01c0.01,0.02,0.02,0.04-0.01,0.08
	C33.04,26.68,32.99,26.69,32.95,26.69"/>
<path style="fill:#BD0030;" d="M25.03,25.03c-0.1-0.05-0.1,0.16-0.05,0.21C25.03,25.3,25.31,25.16,25.03,25.03"/>
<path style="fill:#BD0030;" d="M25.02,25.26L25.02,25.26l-0.04-0.02c-0.03-0.04-0.05-0.14-0.02-0.19l0.08-0.03
	c0.12,0.05,0.13,0.11,0.12,0.14C25.14,25.23,25.07,25.26,25.02,25.26 M25.03,25.04c-0.08,0.07-0.07,0.16-0.04,0.2l0.03,0.01
	c0.04,0,0.11-0.04,0.12-0.08C25.15,25.12,25.11,25.08,25.03,25.04"/>
<path style="fill:#BD0030;" d="M29.47,13.92c-1.01,0.2-1.71,0.8-1.38,1c0.2,0.13,1.13-0.23,1.33-0.54c0.36,0.55,1.33,0.76,1.57,0.63
	L29.47,13.92z"/>
<path d="M30.79,15.13c-0.39,0-1.04-0.21-1.37-0.61c-0.21,0.21-0.66,0.42-1,0.49c-0.18,0.04-0.3,0.03-0.38-0.02
	c-0.09-0.06-0.13-0.15-0.11-0.25c0.06-0.33,0.76-0.75,1.53-0.9c0.05-0.01,0.09,0.02,0.1,0.07c0.01,0.05-0.02,0.09-0.07,0.1
	c-0.79,0.16-1.35,0.56-1.39,0.76c-0.01,0.03,0,0.05,0.04,0.08c0.02,0.01,0.1,0.03,0.25-0.01c0.33-0.07,0.84-0.31,0.96-0.51
	l0.07-0.11l0.07,0.11c0.34,0.53,1.28,0.7,1.46,0.6c0.04-0.02,0.09-0.01,0.12,0.04c0.02,0.04,0.01,0.09-0.04,0.12
	C30.98,15.12,30.89,15.13,30.79,15.13"/>
<path style="fill:#BD0030;" d="M24.23,13.6c0.17,0.26,1.04,0.89,1.66,0.93c0.63,0.05,2.04,0.34,2.32,0.21
	c0.27-0.12,1.05-0.66,1.25-0.56c0.2,0.09,1.36,0.73,1.78,0.72c0.43-0.02,3.19-0.79,3.28-0.95c0.09-0.15-0.55-0.55-0.96-0.55
	C33.15,13.4,24.23,13.62,24.23,13.6"/>
<path style="fill:#BD0030;" d="M26.66,14.86c0,0.16,0.13,0.27,0.41,0.27c0.48,0.01,1.3-0.22,1.79-0.77L26.66,14.86z"/>
<path d="M27.1,15.22c-0.01,0-0.02,0-0.03,0c-0.44,0-0.49-0.25-0.5-0.35c0-0.05,0.04-0.09,0.08-0.09c0.08,0.01,0.09,0.04,0.09,0.08
	c0,0.12,0.11,0.19,0.33,0.19c0.51,0,1.28-0.24,1.72-0.74c0.03-0.03,0.09-0.04,0.12-0.01c0.04,0.03,0.04,0.09,0.01,0.12
	C28.4,15.01,27.56,15.22,27.1,15.22"/>
<path style="fill:#BD0030;" d="M25.21,14.63c-0.03,0.13,0.19,0.3,0.61,0.31c0.42,0.01,1.89-0.18,2.37-0.67L25.21,14.63z"/>
<path d="M25.84,15.02h-0.02c-0.29,0-0.53-0.08-0.64-0.22c-0.05-0.06-0.07-0.13-0.06-0.19c0.01-0.05,0.05-0.08,0.1-0.07
	c0.05,0.01,0.08,0.05,0.07,0.1c0,0.01,0,0.03,0.02,0.05c0.06,0.07,0.22,0.15,0.51,0.16c0.46-0.01,1.86-0.18,2.3-0.64
	c0.03-0.03,0.09-0.04,0.12,0c0.03,0.03,0.04,0.09,0,0.12C27.74,14.86,26.23,15.02,25.84,15.02"/>
<path style="fill:#BD0030;" d="M24.21,14.23c-0.23,0.29,0.49,0.4,0.93,0.39c0.43-0.01,1.55-0.01,2.05-0.38L24.21,14.23z"/>
<path d="M25.14,14.71c-0.15,0-0.9-0.01-1.04-0.28c-0.02-0.04-0.05-0.14,0.04-0.25c0.03-0.04,0.08-0.05,0.12-0.02
	c0.04,0.03,0.04,0.08,0.02,0.12c-0.03,0.04-0.02,0.06-0.02,0.07c0.05,0.1,0.47,0.18,0.88,0.19c0.43-0.01,1.53-0.02,2-0.37
	c0.04-0.03,0.09-0.02,0.12,0.02c0.03,0.04,0.02,0.09-0.02,0.12c-0.51,0.38-1.61,0.39-2.08,0.4H25.14z"/>
<path style="fill:#BD0030;" d="M23.42,13.74c-0.22,0.29,0.51,0.54,1.39,0.52c0.81-0.02,1.64-0.3,1.64-0.3L23.42,13.74z"/>
<path d="M24.73,14.35c-0.61,0-1.26-0.13-1.4-0.4c-0.04-0.08-0.03-0.18,0.03-0.26c0.03-0.04,0.08-0.05,0.12-0.02
	c0.04,0.03,0.05,0.08,0.02,0.12c-0.03,0.04-0.02,0.06-0.01,0.08c0.08,0.16,0.64,0.32,1.34,0.3c0.79-0.02,1.61-0.3,1.62-0.3
	c0.04-0.01,0.09,0.01,0.11,0.05c0.01,0.05-0.01,0.09-0.05,0.11c-0.03,0.01-0.85,0.29-1.67,0.31C24.79,14.35,24.76,14.35,24.73,14.35
	"/>
<path style="fill:#BD0030;" d="M32.18,14.86c-0.01,0.16-0.13,0.27-0.41,0.27c-0.48,0.01-1.3-0.22-1.79-0.77L32.18,14.86z"/>
<path d="M31.74,15.22c-0.46,0-1.3-0.21-1.82-0.8c-0.03-0.04-0.03-0.09,0.01-0.12c0.03-0.03,0.09-0.03,0.12,0.01
	c0.44,0.49,1.21,0.73,1.72,0.74c0.21,0,0.32-0.06,0.33-0.19c0-0.05,0.02-0.08,0.09-0.08c0.05,0,0.08,0.04,0.08,0.09
	c0,0.1-0.06,0.35-0.5,0.35C31.76,15.22,31.75,15.22,31.74,15.22"/>
<path style="fill:#BD0030;" d="M33.63,14.63c0.02,0.13-0.19,0.3-0.61,0.31c-0.42,0.01-1.89-0.18-2.37-0.67L33.63,14.63z"/>
<path d="M33,15.02c-0.39,0-1.91-0.16-2.42-0.69c-0.03-0.03-0.03-0.09,0-0.12c0.03-0.03,0.09-0.03,0.12,0
	c0.44,0.46,1.84,0.65,2.31,0.64c0.28,0,0.45-0.09,0.51-0.16c-0.01-0.05,0.03-0.12,0.08-0.13c0.05-0.01,0.1,0,0.11,0.04
	c0.01,0.06-0.01,0.13-0.06,0.19c-0.11,0.14-0.35,0.22-0.64,0.22H33z"/>
<path style="fill:#BD0030;" d="M34.62,14.24c0.23,0.29-0.49,0.39-0.92,0.39c-0.43-0.01-1.55-0.01-2.05-0.38L34.62,14.24z"/>
<path d="M33.72,14.71H33.7c-0.49,0-1.58-0.02-2.1-0.4c-0.04-0.03-0.05-0.08-0.02-0.12c0.03-0.04,0.08-0.04,0.12-0.02
	c0.47,0.35,1.56,0.36,1.98,0.37c0.43,0.02,0.84-0.08,0.9-0.18c-0.03-0.04-0.03-0.12,0-0.15c0.04-0.03,0.08-0.05,0.11-0.02
	c0.08,0.1,0.07,0.19,0.04,0.25C34.6,14.69,33.88,14.71,33.72,14.71"/>
<path style="fill:#BD0030;" d="M35.42,13.74c0.22,0.29-0.51,0.54-1.4,0.52c-0.81-0.02-1.64-0.3-1.64-0.3L35.42,13.74z"/>
<path d="M34.11,14.35c-0.03,0-0.06,0-0.09,0c-0.82-0.02-1.64-0.3-1.67-0.31c-0.05-0.02-0.07-0.06-0.05-0.11
	c0.01-0.04,0.06-0.07,0.11-0.05c0.01,0,0.83,0.28,1.62,0.3c0.69,0.01,1.26-0.15,1.34-0.31c0.01-0.02,0.01-0.04-0.01-0.08
	c-0.03-0.04-0.02-0.09,0.02-0.12c0.04-0.03,0.09-0.02,0.12,0.02c0.06,0.08,0.07,0.18,0.03,0.26C35.38,14.21,34.72,14.35,34.11,14.35
	"/>
<path style="fill:#BD0030;" d="M25.16,13.72c-1.12,0.16-1.64,0.08-1.87-0.03c-0.28-0.12-0.76-0.5-0.05-0.51
	c0.47-0.01,0.71,0.03,1.24,0.02c1.37-0.02,3.34-1.1,3.93-1.1c0.56,0,0.7,0.25,1.02,0.26c0.32,0,0.43-0.26,0.98-0.26
	c0.6,0.01,2.57,1.08,3.94,1.1c0.53,0,0.77-0.03,1.24-0.02c0.71,0.01,0.23,0.39-0.05,0.51c-0.22,0.11-0.74,0.19-1.86,0.03H25.16z"/>
<path d="M34.77,13.89c-0.28,0-0.64-0.02-1.1-0.09c-0.05-0.01-0.08-0.05-0.07-0.1c0.01-0.05,0.05-0.08,0.1-0.07
	c1.18,0.17,1.65,0.06,1.82-0.02c0.21-0.09,0.38-0.24,0.37-0.29c0,0-0.04-0.05-0.29-0.06c-0.24-0.01-0.42,0-0.61,0.01
	c-0.18,0.01-0.37,0.01-0.63,0.01c-0.84-0.01-1.88-0.41-2.72-0.72c-0.53-0.2-1-0.38-1.22-0.38c-0.29,0.01-0.45,0.08-0.59,0.15
	c-0.12,0.06-0.23,0.12-0.39,0.11c-0.15,0-0.27-0.06-0.39-0.11c-0.15-0.07-0.33-0.15-0.63-0.15c-0.22,0-0.68,0.18-1.22,0.38
	c-0.84,0.32-1.88,0.71-2.72,0.72c-0.25,0-0.45-0.01-0.63-0.01c-0.19-0.01-0.37-0.02-0.61-0.01c-0.25,0.01-0.28,0.06-0.29,0.06
	c0,0.05,0.16,0.2,0.37,0.29c0.17,0.08,0.63,0.19,1.82,0.02c0.05-0.01,0.09,0.03,0.1,0.07c0.01,0.05-0.03,0.09-0.07,0.1
	c-1.17,0.17-1.69,0.07-1.92-0.04c-0.14-0.06-0.51-0.27-0.47-0.48c0.03-0.17,0.27-0.19,0.45-0.19c0.24-0.01,0.43,0,0.62,0.01
	c0.18,0.01,0.36,0.02,0.62,0.01c0.8-0.01,1.83-0.4,2.65-0.71c0.57-0.22,1.03-0.39,1.28-0.39c0.36,0.02,0.54,0.09,0.7,0.16
	c0.11,0.05,0.2,0.09,0.32,0.1c0.09-0.02,0.21-0.04,0.31-0.09c0.15-0.07,0.33-0.15,0.67-0.16c0.25,0,0.71,0.17,1.28,0.39
	c0.82,0.31,1.85,0.7,2.65,0.71c0.26,0,0.44-0.01,0.62-0.01c0.19-0.01,0.38-0.02,0.62-0.01c0.18,0,0.42,0.03,0.45,0.19
	c0.04,0.21-0.32,0.42-0.47,0.48C35.44,13.83,35.2,13.89,34.77,13.89"/>
<path style="fill:#BD0030;" d="M29.42,9.68c-0.53,0.03-1.26-0.06-1.49,0.53c-0.36,0.68-0.26,1.44-0.1,1.46
	c0.29,0.03,0.31-0.76,0.44-0.77c0.13,0,0.13,0.69,0.38,0.69c0.19-0.01,0.3-0.7,0.36-0.69c0.06,0.01,0.18,0.66,0.42,0.66
	c0.25,0,0.36-0.66,0.42-0.66c0.06-0.01,0.18,0.69,0.36,0.69c0.25,0.01,0.25-0.69,0.38-0.69c0.12,0,0.18,0.79,0.46,0.76
	c0.16-0.02,0.24-0.78-0.12-1.45C30.68,9.61,29.94,9.7,29.42,9.68"/>
<path d="M27.85,11.75l-0.03,0c-0.04,0-0.09-0.03-0.14-0.11c-0.13-0.23-0.14-0.89,0.17-1.47c0.22-0.55,0.83-0.56,1.32-0.56
	c0.08,0,0.17,0,0.24-0.01C29.5,9.6,29.58,9.6,29.66,9.6c0.5,0.01,1.11,0.02,1.33,0.57c0.31,0.58,0.3,1.24,0.18,1.46
	c-0.04,0.08-0.1,0.1-0.14,0.11h0c-0.25,0-0.34-0.31-0.42-0.55c-0.02-0.06-0.04-0.13-0.06-0.18c0.01,0.05-0.01,0.11-0.02,0.17
	c-0.06,0.22-0.13,0.49-0.34,0.49c-0.18-0.01-0.28-0.29-0.36-0.55c0-0.01,0-0.01-0.01-0.02c-0.08,0.22-0.19,0.54-0.42,0.54
	c-0.21,0-0.33-0.31-0.41-0.54C29,11.1,29,11.11,29,11.12c-0.08,0.25-0.17,0.54-0.35,0.55c-0.21,0-0.28-0.27-0.34-0.49
	c-0.01-0.05-0.03-0.11-0.04-0.16c0,0.04-0.02,0.11-0.03,0.17C28.16,11.44,28.08,11.75,27.85,11.75 M29.41,9.76
	c-0.07,0-0.15,0.01-0.24,0.01c-0.49,0.01-0.99,0.02-1.17,0.46c-0.34,0.65-0.24,1.28-0.16,1.34l0,0c0.1,0,0.17-0.28,0.21-0.43
	c0.06-0.2,0.09-0.33,0.2-0.33c0.12,0,0.16,0.14,0.21,0.32c0.03,0.13,0.09,0.36,0.17,0.36c0.06-0.02,0.16-0.32,0.19-0.43
	c0.06-0.19,0.08-0.26,0.17-0.26c0.08,0.01,0.11,0.07,0.16,0.23c0.05,0.13,0.16,0.44,0.25,0.44c0.11,0,0.22-0.31,0.26-0.44
	c0.05-0.15,0.07-0.21,0.15-0.22c0.07-0.02,0.12,0.08,0.18,0.27c0.04,0.11,0.13,0.41,0.2,0.42c0.08,0,0.14-0.23,0.17-0.36
	c0.05-0.18,0.08-0.32,0.2-0.32c0.11,0,0.15,0.13,0.21,0.33c0.05,0.16,0.13,0.43,0.23,0.43c0.07-0.05,0.16-0.69-0.18-1.33
	c-0.18-0.46-0.71-0.47-1.18-0.47C29.57,9.77,29.49,9.77,29.41,9.76"/>
<path style="fill:#BD0030;" d="M28.15,9.92c0.14,0.24,1.25,0.23,1.31,0.23c0.06,0,1.03,0.01,1.25-0.22L28.15,9.92z"/>
<path d="M29.49,10.24h-0.04c-0.47,0-1.24-0.04-1.38-0.27l0.15-0.09c0.07,0.11,0.58,0.19,1.22,0.19h0.04c0.6,0,1.06-0.08,1.17-0.19
	l0.12,0.12C30.56,10.2,29.89,10.24,29.49,10.24"/>
<path style="fill:#BD0030;" d="M29.22,7.43v2.35c0,0,0.01,0.13,0.21,0.13c0.19,0.01,0.22-0.11,0.22-0.13l-0.01-2.36L29.22,7.43z"/>
<path d="M29.43,10h-0.01c-0.22,0-0.28-0.14-0.29-0.21V7.43h0.17v2.35h0c0,0,0.02,0.05,0.12,0.05c0.13,0,0.14-0.05,0.14-0.05
	l-0.01-2.35h0.17l0.01,2.36c0,0.03-0.02,0.08-0.06,0.13C29.63,9.96,29.56,10,29.43,10"/>
<path style="fill:#BD0030;" d="M29.44,7.7c0.89-0.05,1.15,0.48,1.4,0.59c0.25,0.11,0.37,0.16,0.71,0.14
	c0.34-0.02-0.59,0.57-0.59,0.59l0.34,0.61c-0.32,0.05-0.92-0.25-1.16-0.41c-0.27-0.16-0.57-0.07-0.68-0.09L29.44,7.7z"/>
<path d="M31.23,9.73c-0.38,0-0.94-0.3-1.14-0.43c-0.13-0.07-0.33-0.09-0.49-0.08l-0.1,0l-0.07-0.01l-0.07-0.08l-0.01-1.52l0.19-0.01
	c0.61,0,0.93,0.28,1.14,0.46c0.07,0.06,0.14,0.12,0.19,0.14c0.25,0.11,0.35,0.15,0.66,0.13h0c0.12,0,0.15,0.05,0.16,0.08
	c0.03,0.11-0.08,0.22-0.56,0.56c-0.03,0.02-0.05,0.04-0.07,0.05l0.37,0.66L31.23,9.73z M29.74,9.04c0.18,0,0.32,0.03,0.44,0.11
	c0.23,0.15,0.67,0.36,0.97,0.4l-0.27-0.49c-0.01-0.09-0.01-0.1,0.16-0.21c0.1-0.07,0.32-0.23,0.43-0.33
	c-0.33,0.02-0.43-0.04-0.67-0.15c-0.08-0.03-0.15-0.1-0.23-0.17c-0.2-0.18-0.48-0.42-1.02-0.42h-0.02l0.01,1.26l0.05,0
	C29.64,9.05,29.69,9.04,29.74,9.04"/>
<path style="fill:#BD0030;" d="M29.93,6.99c0,0.27-0.23,0.49-0.51,0.49c-0.28,0-0.51-0.22-0.51-0.49c0-0.27,0.23-0.49,0.51-0.49
	C29.71,6.5,29.93,6.72,29.93,6.99"/>
<path d="M29.42,7.53c-0.31,0-0.57-0.25-0.57-0.55c0-0.3,0.25-0.54,0.57-0.54c0.31,0,0.57,0.24,0.57,0.54
	C29.99,7.29,29.74,7.53,29.42,7.53 M29.42,6.56c-0.25,0-0.45,0.19-0.45,0.43c0,0.24,0.2,0.43,0.45,0.43s0.45-0.19,0.45-0.43
	C29.88,6.75,29.67,6.56,29.42,6.56"/>
<path style="fill:#F4D02E;" d="M23.95,18.67c-0.07,0.09-0.13-0.15-0.36,0.02c-0.13,0.11-0.18,0.28-0.18,0.64
	c0,0.3,0.18,0.51,0.28,0.49c0.16-0.02,0.08-0.39,0.24-0.46c0.24-0.11,0.59,0.06,0.65,0.29c0.06,0.22-0.12,0.46-0.3,0.44
	c-0.11-0.04,0.06-0.2,0.07-0.26c0.01-0.07,0.04-0.29-0.13-0.35c-0.16-0.06-0.14,0.16-0.14,0.22c-0.01,0.06-0.12,0.25-0.25,0.24
	c-0.13-0.01-0.33-0.01-0.53-0.22c-0.11-0.11-0.24-0.41-0.12-0.79c0.11-0.38,0.31-0.41,0.42-0.42C23.7,18.5,23.98,18.56,23.95,18.67"
	/>
<path style="fill:#BD0030;" d="M24.3,20.1l-0.03,0c-0.06-0.08-0.02-0.14,0.02-0.2c0.02-0.03,0.04-0.06,0.04-0.08
	c0-0.01,0.05-0.27-0.12-0.34c-0.11,0-0.12,0.08-0.12,0.17c-0.01,0.11-0.12,0.3-0.26,0.3c-0.16-0.01-0.35-0.02-0.55-0.23
	c-0.11-0.12-0.24-0.43-0.12-0.8c0.11-0.37,0.3-0.42,0.43-0.43c0.13-0.01,0.29,0.04,0.35,0.12l0,0l0.02,0.07l-0.1,0
	c-0.06-0.04-0.14-0.06-0.26,0.02c-0.13,0.11-0.18,0.28-0.18,0.63c0,0.29,0.16,0.47,0.25,0.47c0.08-0.01,0.1-0.1,0.12-0.2
	c0.02-0.1,0.04-0.22,0.14-0.26c0.23-0.11,0.6,0.06,0.67,0.29c0.03,0.11,0,0.24-0.07,0.34C24.46,20.05,24.38,20.1,24.3,20.1
	 M24.17,19.44c0.25,0.08,0.19,0.37,0.19,0.38c0,0.02-0.03,0.06-0.05,0.09c-0.03,0.05-0.07,0.1-0.06,0.13l0.05,0.02
	c0.07,0,0.14-0.04,0.2-0.11c0.07-0.09,0.09-0.21,0.06-0.31c-0.06-0.22-0.41-0.38-0.63-0.28c-0.08,0.03-0.1,0.14-0.12,0.24
	c-0.02,0.11-0.04,0.21-0.13,0.22h0c-0.12,0-0.29-0.2-0.29-0.5c0-0.36,0.05-0.54,0.19-0.65c0.12-0.09,0.23-0.06,0.29-0.02
	c0.01-0.1-0.17-0.15-0.26-0.15c-0.09,0.01-0.3,0.02-0.42,0.41c-0.11,0.37,0.01,0.67,0.12,0.78c0.19,0.2,0.38,0.21,0.5,0.22h0
	c0.14,0,0.25-0.18,0.26-0.23C24.07,19.58,24.07,19.44,24.17,19.44"/>
<path style="fill:#F4D02E;" d="M23.67,20.24c-0.11-0.06,0.04-0.28-0.25-0.2c-0.12,0.03,0.18,0.37,0.3,0.39
	C23.87,20.41,23.83,20.32,23.67,20.24"/>
<path style="fill:#BD0030;" d="M23.73,20.44L23.73,20.44c-0.11-0.01-0.33-0.24-0.34-0.35c0.08-0.07,0.11-0.07,0.14-0.07
	c0.1,0,0.1,0.06,0.11,0.12c0.01,0.04,0.01,0.08,0.05,0.1c0.1,0.05,0.16,0.11,0.15,0.15C23.82,20.41,23.8,20.43,23.73,20.44
	L23.73,20.44z M23.52,20.04c-0.03,0-0.06,0.01-0.1,0.02c-0.01,0.13,0.2,0.35,0.3,0.36c0.04,0,0.07-0.02,0.07-0.03
	c0.01-0.03-0.03-0.07-0.13-0.12c-0.05-0.03-0.06-0.08-0.06-0.12C23.6,20.08,23.6,20.04,23.52,20.04"/>
<path style="fill:#F4D02E;" d="M23.98,20.43c0.06,0.28,0.12,0.25,0.13,0.39c0,0.18-0.3,0.1-0.34,0.18c-0.04,0.08-0.09,0.29,0.1,0.3
	c0.19,0.01,0.48-0.06,0.53,0.07c0.15,0.38,0.48,0.33,0.63,0.27c0.17-0.07,0.57-0.43,0.67-0.46c0.14-0.05-0.13-0.15-0.28-0.01
	c-0.04,0.04-0.38,0.39-0.55,0.39c-0.13,0.01-0.33-0.31-0.32-0.42c0.01-0.08,0.31-0.02,0.35-0.18c0.03-0.12,0.03-0.25-0.06-0.25
	c-0.09-0.01-0.54,0.05-0.55-0.02c-0.08-0.2,0.08-0.28,0.02-0.33C24.24,20.33,23.99,20.28,23.98,20.43"/>
<path style="fill:#BD0030;" d="M24.82,21.7c-0.14,0-0.32-0.06-0.42-0.32c-0.03-0.07-0.16-0.08-0.33-0.07c-0.05,0-0.09,0-0.14,0
	c-0.12-0.01-0.16-0.03-0.19-0.07c-0.04-0.08-0.01-0.2,0.02-0.25c0.02-0.04,0.08-0.05,0.15-0.06c0.1-0.01,0.19-0.02,0.19-0.12
	c-0.01-0.06-0.02-0.09-0.04-0.13c-0.02-0.05-0.06-0.11-0.09-0.26c0-0.08,0.07-0.12,0.17-0.12c0.06,0,0.13,0.02,0.17,0.03
	c0.04,0.03,0.02,0.06,0,0.1c-0.03,0.05-0.06,0.12-0.01,0.23c0,0,0.01,0.02,0.14,0.02c0.07,0,0.16-0.01,0.24-0.01
	c0.06,0,0.11-0.01,0.15-0.01c0.05,0,0.07,0.02,0.09,0.04c0.04,0.06,0.02,0.17,0,0.23c-0.03,0.11-0.14,0.13-0.24,0.14
	c-0.06,0.01-0.11,0.02-0.11,0.04c-0.01,0.07,0.07,0.23,0.17,0.33c0.05,0.05,0.1,0.08,0.13,0.08c0.11-0.01,0.31-0.15,0.55-0.39
	c0.19-0.16,0.34-0.08,0.35-0.02c-0.08,0.06-0.19,0.14-0.3,0.23c-0.15,0.11-0.32,0.24-0.41,0.28C25,21.67,24.91,21.7,24.82,21.7
	 M24.19,21.28c0.09,0,0.19,0.01,0.22,0.09c0.17,0.43,0.52,0.3,0.61,0.26c0.09-0.04,0.26-0.17,0.41-0.28
	c0.12-0.09,0.22-0.17,0.26-0.18c0.04-0.05-0.09-0.15-0.27,0.01c-0.15,0.15-0.41,0.39-0.56,0.39c-0.06,0-0.12-0.05-0.16-0.09
	c-0.1-0.1-0.18-0.27-0.17-0.35c0.01-0.04,0.07-0.05,0.13-0.06c0.09-0.02,0.19-0.03,0.22-0.12c0.03-0.1,0.03-0.18,0-0.21l-0.07-0.03
	c-0.03,0-0.08,0-0.14,0.01c-0.19,0.01-0.39,0.02-0.4-0.03c-0.05-0.12-0.01-0.2,0.02-0.25c0.02-0.04,0.03-0.06,0.01-0.07
	c-0.06-0.02-0.29-0.08-0.3,0.06c0.03,0.14,0.06,0.21,0.09,0.25c0.02,0.04,0.04,0.07,0.04,0.14c0,0.12-0.12,0.14-0.21,0.15
	c-0.06,0.01-0.11,0.02-0.13,0.04c-0.02,0.05-0.06,0.16-0.02,0.23c0.02,0.04,0.06,0.05,0.11,0.06c0.1,0,0.14,0,0.19,0
	C24.11,21.29,24.15,21.28,24.19,21.28"/>
<path style="fill:#F4D02E;" d="M25.48,21.5c-0.14,0.15-0.52,0.39-0.52,0.56c0,0.09,0.11,0.25,0.19,0.28
	c0.13,0.05,0.33,0.04,0.48-0.08c0.17-0.14,0.25-0.28,0.18-0.31c-0.26-0.07-0.26,0.28-0.39,0.29c-0.12,0.01-0.3-0.18-0.06-0.42
	c0.24-0.24,0.56-0.47,0.55-0.54C25.9,21.22,25.58,21.4,25.48,21.5"/>
<path style="fill:#BD0030;" d="M25.32,22.38c-0.06,0-0.12-0.01-0.17-0.03c-0.09-0.04-0.2-0.2-0.2-0.29c0-0.13,0.19-0.28,0.35-0.41
	c0.07-0.06,0.13-0.11,0.17-0.15c0.09-0.09,0.33-0.23,0.41-0.23c0.01,0.01,0.01,0.02,0.01,0.03h0c-0.09,0-0.32,0.13-0.4,0.22
	c-0.04,0.05-0.11,0.1-0.17,0.16c-0.15,0.13-0.34,0.28-0.34,0.39c0,0.09,0.1,0.24,0.18,0.27c0.14,0.05,0.34,0.02,0.47-0.08
	c0.14-0.11,0.21-0.22,0.2-0.26l-0.08-0.03c-0.1,0-0.15,0.09-0.2,0.18c-0.04,0.06-0.07,0.12-0.12,0.13c-0.08,0-0.15-0.05-0.18-0.12
	c-0.02-0.06-0.04-0.17,0.1-0.32c0.09-0.09,0.2-0.18,0.29-0.26c0.12-0.1,0.24-0.21,0.26-0.26c0,0.07-0.09,0.15-0.24,0.28
	c-0.09,0.08-0.2,0.17-0.29,0.26c-0.13,0.14-0.12,0.24-0.1,0.29c0.03,0.07,0.09,0.11,0.14,0.11c0.05,0,0.08-0.06,0.11-0.12
	c0.05-0.08,0.1-0.19,0.22-0.19l0.07,0.01c0.05,0.1-0.04,0.22-0.17,0.33C25.55,22.34,25.43,22.38,25.32,22.38"/>
<path style="fill:#F4D02E;" d="M24.87,22.49c-0.01,0.1,0.24,0.1,0.29,0.01C25.19,22.44,24.88,22.4,24.87,22.49"/>
<path style="fill:#BD0030;" d="M25,22.58L25,22.58c-0.06,0-0.1-0.02-0.13-0.04c-0.02-0.17,0.25-0.14,0.3-0.06
	C25.14,22.56,25.06,22.58,25,22.58 M24.99,22.45c-0.05,0-0.11,0.01-0.11,0.04c0.03,0.05,0.07,0.06,0.12,0.06
	c0.07,0,0.13-0.02,0.15-0.05C25.13,22.47,25.06,22.45,24.99,22.45"/>
<path style="fill:#F4D02E;" d="M25.72,22.56c-0.14,0.15,0.02,0.32,0.13,0.46c0.06,0.07,0.2,0.15,0.29,0.18
	c0.13,0.05,0.39,0.03,0.54-0.08c0.17-0.14,0.18-0.38,0.08-0.38c-0.27,0-0.08,0.36-0.21,0.37c-0.12,0.01-0.45-0.07-0.61-0.41
	c-0.09-0.2,0.17-0.24,0.13-0.33C26.02,22.27,25.82,22.45,25.72,22.56"/>
<path style="fill:#BD0030;" d="M26.3,23.24c-0.07,0-0.13-0.01-0.18-0.03c-0.1-0.04-0.23-0.11-0.29-0.19
	c-0.13-0.17-0.26-0.33-0.13-0.48c0.1-0.1,0.24-0.22,0.31-0.22c0.07,0.08,0.03,0.11-0.01,0.14c-0.06,0.05-0.13,0.1-0.07,0.22
	c0.16,0.33,0.47,0.4,0.58,0.4c0.06-0.01,0.06-0.05,0.06-0.13c0-0.07,0-0.15,0.05-0.2c0.04-0.05,0.16-0.07,0.19,0.01
	c0.03,0.09-0.02,0.25-0.14,0.35C26.59,23.2,26.45,23.24,26.3,23.24 M26.03,22.36c-0.08,0-0.18,0.08-0.3,0.2
	c-0.12,0.13,0,0.28,0.1,0.41c0.09,0.11,0.23,0.18,0.31,0.21c0.13,0.05,0.4,0.02,0.53-0.08c0.13-0.1,0.16-0.25,0.13-0.32
	c-0.1-0.04-0.13-0.03-0.15-0.01c-0.04,0.04-0.04,0.12-0.04,0.18c0,0.07,0,0.14-0.06,0.15h0c-0.16,0-0.47-0.09-0.62-0.42
	c-0.06-0.13,0.02-0.2,0.08-0.25c0.04-0.03,0.06-0.05,0.05-0.08C26.04,22.37,26.04,22.36,26.03,22.36"/>
<path style="fill:#F4D02E;" d="M26.42,22.54c0.06,0.08,0.24-0.09,0.22-0.18C26.62,22.29,26.36,22.46,26.42,22.54"/>
<path style="fill:#BD0030;" d="M26.46,22.58L26.46,22.58l-0.06-0.03l0.01-0.07c0.04-0.07,0.15-0.15,0.21-0.15
	c0.05,0.07,0.01,0.12-0.01,0.15C26.57,22.52,26.51,22.58,26.46,22.58"/>
<path style="fill:#F4D02E;" d="M26.79,23.25c-0.01,0.11,0.02,0.26-0.1,0.26c-0.13,0-0.29-0.17-0.42-0.16c-0.13,0-0.18,0.1-0.17,0.16
	c0.01,0.05,0.24,0.12,0.62,0.09c0.38-0.03,0.3,0.21,0.57,0.19c0.27-0.02,0.31-0.11,0.29-0.17c-0.02-0.06-0.25-0.02-0.33-0.04
	c-0.08-0.02-0.23-0.15-0.25-0.26c-0.02-0.11-0.02-0.31,0.08-0.31c0.18,0,0.1,0.17,0.11,0.22c0,0.05,0.07,0.11,0.15,0.01
	c0.11-0.13,0.05-0.33-0.05-0.4C27.16,22.79,26.81,22.99,26.79,23.25"/>
<path style="fill:#BD0030;" d="M27.25,23.81c-0.1,0-0.15-0.04-0.2-0.09c-0.06-0.05-0.12-0.1-0.28-0.1
	c-0.11,0.01-0.17,0.01-0.22,0.01c-0.25,0-0.45-0.05-0.47-0.11c-0.01-0.03,0-0.07,0.03-0.1c0.02-0.03,0.07-0.07,0.15-0.08
	c0.07,0,0.15,0.04,0.22,0.08c0.07,0.04,0.14,0.08,0.2,0.08c0.09,0,0.09-0.07,0.09-0.18c0.02-0.31,0.29-0.49,0.43-0.49
	c0.12,0.06,0.17,0.13,0.18,0.22c0.01,0.08-0.01,0.16-0.06,0.22c-0.03,0.04-0.06,0.06-0.1,0.06c-0.04,0-0.07-0.04-0.07-0.08
	c0.01-0.1,0.02-0.16,0-0.19c-0.01-0.02-0.04-0.03-0.08-0.03c-0.09,0.07-0.09,0.2-0.07,0.3c0.02,0.11,0.17,0.24,0.24,0.25l0.12,0
	l0.08,0c0.07,0,0.13,0.01,0.14,0.04c0.01,0.03,0,0.06-0.01,0.08c-0.04,0.06-0.13,0.09-0.29,0.1L27.25,23.81z M26.73,23.59
	c0.22,0,0.28,0.06,0.34,0.11c0.05,0.04,0.09,0.08,0.18,0.08v0.01l0.03-0.02c0.18-0.01,0.25-0.05,0.27-0.09
	c0-0.08-0.04-0.08-0.11-0.08l-0.08,0l-0.13,0c-0.09-0.02-0.24-0.16-0.26-0.28c-0.01-0.08-0.02-0.23,0.03-0.3L27.07,23
	c0.05,0,0.08,0.01,0.1,0.04c0.03,0.04,0.02,0.1,0.01,0.15c-0.01,0.14,0.06,0.13,0.12,0.06c0.04-0.05,0.06-0.12,0.05-0.2
	c-0.01-0.08-0.05-0.15-0.1-0.18c-0.16,0-0.44,0.16-0.45,0.39c0,0.16,0,0.27-0.12,0.28c-0.07,0-0.15-0.04-0.22-0.08
	c-0.07-0.04-0.14-0.08-0.2-0.08c-0.08,0-0.12,0.04-0.14,0.07c-0.02,0.03-0.03,0.06-0.02,0.08c0.01,0.04,0.21,0.11,0.61,0.08H26.73z"
	/>
<path style="fill:#F4D02E;" d="M27.74,23.27c-0.02,0.2-0.16,0.21-0.14,0.28c0.02,0.08,0.07,0.11,0.1,0.31
	c0.02,0.1,0.14,0.14,0.3,0.13c0.13,0,0.22-0.18,0.3-0.17c0.12,0.01,0.02,0.28,0.3,0.27c0.22,0,0.28-0.19,0.36-0.2
	c0.08-0.01,0.07,0.22,0.25,0.22c0.18,0,0.26-0.21,0.35-0.21c0.09,0.01,0.09,0.22,0.36,0.21c0.27-0.02,0.48-0.05,0.54-0.11
	c0.06-0.05,0.09-0.23,0.18-0.24c0.09-0.01,0.23,0.17,0.35,0.17s0.38-0.31,0.46-0.32c0.08-0.01,0.14,0.19,0.32,0.19
	c0.28-0.01,0.31-0.36,0.44-0.38c0.23-0.02,0.24-0.12,0.25-0.14c0.03-0.07,0-0.4-0.06-0.54c-0.02-0.08-0.32-0.74-0.45-0.76
	c-0.14-0.02-0.1,0.18-0.01,0.29c0.08,0.11,0.49,0.65,0.43,0.8c-0.06,0.15-0.34-0.07-0.57-0.07c-0.32,0-0.51,0.64-0.73,0.66
	c-0.1,0.01-0.2-0.08-0.17-0.15c0.06-0.1,0.14-0.34-0.11-0.3c-0.25,0.03-0.5,0.15-0.46,0.28c0.04,0.13,0.19,0.27,0.02,0.32
	c-0.16,0.05-0.45,0.07-0.58,0.02c-0.14-0.05-0.06-0.36-0.14-0.36c-0.09,0-0.1,0.37-0.23,0.38c-0.13,0.01-0.25-0.04-0.28-0.15
	c-0.03-0.1,0.05-0.23-0.04-0.25c-0.09-0.02-0.18,0.41-0.31,0.4c-0.13-0.01-0.14-0.04-0.22-0.12c-0.08-0.08,0.07-0.37-0.06-0.4
	c-0.13-0.03-0.27,0.43-0.36,0.42c-0.09-0.01-0.22-0.01-0.26-0.1c-0.02-0.05-0.01-0.33-0.01-0.44
	C27.86,23.19,27.73,23.21,27.74,23.27"/>
<path style="fill:#BD0030;" d="M29.21,24.14c-0.12,0-0.16-0.09-0.19-0.15c-0.02-0.04-0.04-0.07-0.06-0.07
	c-0.03,0-0.05,0.03-0.08,0.06c-0.06,0.06-0.13,0.14-0.28,0.14c-0.18,0-0.21-0.11-0.24-0.19c-0.02-0.06-0.03-0.08-0.06-0.09
	c-0.02,0.03-0.07,0.03-0.11,0.07c-0.05,0.05-0.11,0.1-0.19,0.1c-0.18,0-0.3-0.05-0.32-0.15c-0.02-0.13-0.05-0.19-0.07-0.23
	c-0.01-0.03-0.03-0.05-0.03-0.08c-0.01-0.04,0.01-0.06,0.04-0.09c0.04-0.04,0.09-0.09,0.1-0.2c0.03-0.06,0.06-0.07,0.09-0.07
	l0.06,0.04c-0.01,0.15-0.01,0.39,0.01,0.43c0.04,0.08,0.16,0.09,0.25,0.09c0.04,0,0.09-0.09,0.13-0.17
	c0.07-0.12,0.14-0.25,0.22-0.25c0.1,0.02,0.08,0.12,0.07,0.22c-0.01,0.07-0.02,0.15,0.01,0.18c0.08,0.09,0.1,0.11,0.21,0.12
	c0.07,0,0.12-0.12,0.17-0.22c0.05-0.1,0.09-0.18,0.13-0.18c0.07,0.01,0.06,0.07,0.06,0.13c0,0.04-0.01,0.09,0,0.13
	c0.02,0.08,0.12,0.14,0.24,0.14c0.1-0.01,0.13-0.11,0.16-0.21c0.03-0.09,0.05-0.17,0.11-0.17c0.05,0,0.05,0.07,0.06,0.14
	c0.01,0.09,0.01,0.19,0.08,0.21c0.13,0.04,0.42,0.03,0.58-0.02c0.04-0.01,0.06-0.03,0.06-0.05c0.01-0.04-0.01-0.09-0.04-0.15
	c-0.02-0.04-0.04-0.08-0.05-0.12c-0.01-0.03,0-0.07,0.02-0.1c0.07-0.1,0.28-0.18,0.46-0.2c0.1-0.01,0.15,0.02,0.17,0.06
	c0.04,0.08-0.01,0.2-0.05,0.27c0.03,0.1,0.09,0.13,0.14,0.13c0.11-0.01,0.2-0.14,0.3-0.28c0.13-0.18,0.27-0.38,0.45-0.38
	c0.09,0,0.2,0.04,0.29,0.07c0.13,0.05,0.24,0.08,0.27,0c0.05-0.13-0.27-0.56-0.39-0.73l-0.04-0.06c-0.06-0.08-0.1-0.21-0.06-0.27
	c0.01-0.02,0.03-0.04,0.07-0.04c0.16,0.02,0.46,0.69,0.48,0.77c0.05,0.15,0.08,0.48,0.05,0.55c-0.02,0.05-0.05,0.13-0.27,0.15
	c-0.04,0.01-0.08,0.06-0.12,0.13c-0.07,0.11-0.15,0.25-0.32,0.25c-0.11,0-0.18-0.07-0.24-0.13c-0.03-0.03-0.06-0.06-0.08-0.06
	c-0.03,0-0.11,0.07-0.17,0.13c-0.1,0.09-0.22,0.19-0.29,0.19c-0.07,0-0.14-0.05-0.2-0.1c-0.05-0.04-0.1-0.07-0.14-0.07
	c-0.05,0-0.08,0.07-0.11,0.13c-0.02,0.04-0.04,0.09-0.07,0.11c-0.07,0.06-0.27,0.1-0.55,0.11h0c-0.19,0-0.25-0.09-0.29-0.15
	c-0.02-0.03-0.04-0.06-0.07-0.06c-0.03,0-0.06,0.03-0.1,0.07C29.4,24.06,29.33,24.14,29.21,24.14 M28.96,23.89
	c0.04,0,0.06,0.04,0.08,0.08c0.03,0.06,0.07,0.14,0.17,0.14c0.1,0,0.18-0.07,0.23-0.13c0.04-0.04,0.08-0.08,0.11-0.08
	c0.04,0,0.06,0.03,0.09,0.07c0.04,0.06,0.1,0.14,0.25,0.14c0.3-0.02,0.5-0.06,0.56-0.11c0.02-0.02,0.04-0.06,0.06-0.1
	c0.03-0.07,0.07-0.14,0.13-0.15c0.05,0.01,0.11,0.04,0.16,0.08c0.06,0.04,0.13,0.09,0.19,0.09c0.07,0,0.18-0.1,0.27-0.18
	c0.09-0.08,0.15-0.13,0.19-0.13h0c0.04,0,0.07,0.03,0.11,0.07c0.05,0.06,0.11,0.12,0.22,0.12c0.16,0,0.23-0.13,0.3-0.24
	c0.04-0.07,0.08-0.14,0.14-0.15c0.2-0.02,0.23-0.09,0.24-0.12c0.03-0.08,0-0.4-0.05-0.55c-0.03-0.09-0.32-0.73-0.45-0.75
	c-0.09,0.08-0.06,0.2,0,0.27L32,22.34c0.22,0.3,0.43,0.62,0.39,0.75c-0.03,0.09-0.15,0.06-0.3,0.01c-0.09-0.03-0.19-0.07-0.28-0.07
	c-0.17,0-0.31,0.2-0.43,0.37c-0.1,0.15-0.2,0.28-0.3,0.3c-0.08,0-0.14-0.03-0.17-0.08c-0.02-0.03-0.02-0.06-0.01-0.09
	c0.04-0.06,0.08-0.18,0.05-0.24c-0.02-0.03-0.05-0.05-0.1-0.05c-0.25,0.03-0.43,0.11-0.48,0.19c-0.02,0.03-0.02,0.05-0.01,0.08
	c0.01,0.04,0.03,0.08,0.05,0.11c0.03,0.06,0.06,0.12,0.04,0.17c-0.01,0.03-0.04,0.05-0.08,0.06c-0.16,0.06-0.46,0.07-0.59,0.03
	c-0.09-0.03-0.09-0.14-0.1-0.24c-0.01-0.15-0.07-0.1-0.12,0.03c-0.03,0.1-0.07,0.22-0.15,0.22H29.4c-0.16,0-0.26-0.06-0.29-0.16
	c-0.01-0.04-0.01-0.09,0-0.14c0.01-0.07,0.01-0.1-0.03-0.1c-0.03,0-0.08,0.09-0.11,0.16c-0.06,0.12-0.11,0.24-0.19,0.24
	c-0.13-0.01-0.15-0.03-0.2-0.09c-0.07-0.08-0.06-0.16-0.05-0.24c0.01-0.11,0.02-0.18-0.04-0.19h0c-0.07,0-0.14,0.13-0.2,0.24
	c-0.06,0.1-0.1,0.19-0.15,0.19c-0.1-0.01-0.24-0.01-0.28-0.11c-0.03-0.06-0.01-0.44-0.01-0.44l-0.09,0.01
	c-0.02,0.15-0.07,0.2-0.11,0.24c-0.03,0.03-0.04,0.04-0.04,0.06c0.01,0.03,0.02,0.05,0.03,0.07c0.02,0.05,0.05,0.11,0.07,0.24
	c0.01,0.08,0.1,0.13,0.25,0.13c0.11,0,0.16-0.05,0.21-0.1c0.04-0.04,0.08-0.08,0.13-0.08c0.06,0,0.08,0.05,0.09,0.11
	c0.02,0.08,0.05,0.17,0.21,0.17c0.14,0,0.21-0.07,0.26-0.13C28.9,23.92,28.93,23.89,28.96,23.89"/>
<path style="fill:#F4D02E;" d="M32.25,22.06c0.24,0.37,0.46,0.87,0.6,0.9c0.09,0.01-0.28-0.67-0.41-0.82
	C32.34,21.97,32.04,21.74,32.25,22.06"/>
<path style="fill:#BD0030;" d="M32.85,22.97L32.85,22.97c-0.1-0.02-0.22-0.23-0.37-0.5c-0.08-0.14-0.16-0.28-0.24-0.41
	c-0.08-0.12-0.08-0.15-0.07-0.17c0.07-0.02,0.22,0.13,0.29,0.23c0.1,0.13,0.46,0.75,0.42,0.83L32.85,22.97z M32.19,21.91
	c0,0,0,0.02,0.07,0.14c0.08,0.13,0.17,0.27,0.24,0.41c0.14,0.24,0.26,0.46,0.35,0.48c0.02-0.06-0.29-0.65-0.42-0.8
	C32.36,22.03,32.22,21.91,32.19,21.91"/>
<path style="fill:#F4D02E;" d="M27.72,22.96c-0.04,0.09-0.02,0.18,0.04,0.16c0.06-0.01,0.14-0.16,0.12-0.19
	C27.86,22.9,27.77,22.88,27.72,22.96"/>
<path style="fill:#BD0030;" d="M27.75,23.14l-0.05-0.02c-0.02-0.03-0.02-0.09,0.01-0.16c0.08-0.13,0.16-0.07,0.18-0.03
	c-0.02,0.12-0.08,0.2-0.13,0.21L27.75,23.14z"/>
<path style="fill:#F4D02E;" d="M32.97,22.22c0,0.2,0.14,0.43,0.4,0.41c0.26-0.01,0.55-0.31,0.58-0.61c0.02-0.3-0.35-0.52-0.44-0.46
	c-0.09,0.06,0.03,0.29,0.27,0.3c0.1,0.01,0.07,0.2-0.13,0.36c-0.21,0.16-0.51,0.16-0.58,0.05C33.01,22.13,32.96,22.13,32.97,22.22"
	/>
<path style="fill:#BD0030;" d="M33.35,22.65c-0.1,0-0.2-0.04-0.27-0.11c-0.08-0.08-0.13-0.2-0.13-0.32l0.01-0.07
	c0.07-0.02,0.09,0.07,0.11,0.13c0.07,0.1,0.39,0.09,0.56-0.05c0.15-0.12,0.19-0.25,0.17-0.31c-0.21-0.04-0.32-0.15-0.35-0.24
	c-0.01-0.05,0-0.09,0.03-0.11c0.14-0.01,0.25,0.05,0.33,0.14c0.09,0.1,0.14,0.21,0.13,0.32c-0.02,0.3-0.31,0.6-0.59,0.62H33.35z
	 M32.99,22.17c-0.01,0.17,0.03,0.28,0.11,0.35c0.07,0.07,0.15,0.1,0.25,0.1v0.01l0.02-0.01c0.26-0.01,0.54-0.31,0.56-0.59
	c0.01-0.1-0.04-0.21-0.12-0.3c-0.09-0.1-0.2-0.15-0.26-0.15c-0.07,0.03-0.06,0.07-0.06,0.09c0.02,0.07,0.12,0.19,0.29,0.19l0.01,0
	l0.05,0.05c0.02,0.07-0.03,0.21-0.18,0.33c-0.19,0.15-0.52,0.17-0.6,0.05C33.02,22.19,33,22.17,32.99,22.17"/>
<path style="fill:#F4D02E;" d="M33.13,21.61c-0.04,0.08,0.04,0.26,0.13,0.26C33.34,21.86,33.15,21.56,33.13,21.61"/>
<path style="fill:#BD0030;" d="M33.13,21.62c-0.02,0.04,0,0.12,0.03,0.17c0.03,0.04,0.05,0.06,0.08,0.06v0.01l0-0.01
	C33.26,21.77,33.16,21.62,33.13,21.62"/>
<path style="fill:#F4D02E;" d="M33.9,21.47c0.05,0.12,0.11,0.3,0.22,0.3c0.11,0,0.2,0.03,0.2,0.12c0,0.09-0.28,0.4-0.29,0.5
	c-0.02,0.17,0.11,0.17,0.17,0.07c0.06-0.1,0.23-0.55,0.27-0.67c0.02-0.1,0.14-0.28,0.14-0.47c-0.01-0.22,0.19-0.04,0.29-0.03
	c0.09,0,0.18-0.16,0.2-0.28c0.01-0.12-0.09-0.14-0.09-0.24c0-0.06,0.11-0.25,0.12-0.37c0.01-0.11-0.22-0.43-0.31-0.43
	c-0.08,0-0.01,0.12,0.03,0.17c0.05,0.05,0.16,0.15,0.12,0.25c-0.08,0.18-0.44,0.23-0.46,0.42c-0.02,0.14,0.02,0.57-0.1,0.57
	s-0.21-0.27-0.38-0.27C33.83,21.1,33.86,21.38,33.9,21.47"/>
<path style="fill:#BD0030;" d="M34.1,22.55l-0.06-0.03c-0.02-0.03-0.03-0.07-0.03-0.13c0-0.05,0.07-0.15,0.15-0.26
	c0.07-0.09,0.14-0.2,0.14-0.24c0-0.07-0.06-0.11-0.18-0.11c-0.1,0-0.16-0.15-0.21-0.26c-0.05-0.11-0.07-0.27-0.01-0.36
	c0.08-0.13,0.28-0.02,0.37,0.1c0.05,0.06,0.09,0.11,0.14,0.11c0.07,0,0.07-0.24,0.08-0.4c0-0.07,0-0.13,0.01-0.16
	c0.01-0.11,0.12-0.17,0.24-0.24c0.09-0.05,0.19-0.1,0.22-0.19c0.03-0.07-0.05-0.16-0.1-0.21c-0.05-0.05-0.11-0.14-0.09-0.18
	c0.09-0.02,0.15,0.03,0.19,0.07c0.09,0.1,0.19,0.26,0.18,0.34c0,0.07-0.04,0.17-0.07,0.25c-0.02,0.05-0.04,0.1-0.04,0.12
	c0,0.05,0.02,0.07,0.04,0.1c0.03,0.03,0.06,0.07,0.05,0.14C35.09,21.12,35,21.3,34.9,21.3c-0.03,0-0.07-0.02-0.11-0.04
	c-0.04-0.02-0.09-0.04-0.12-0.04c-0.05,0.03-0.05,0.05-0.05,0.1c0,0.12-0.05,0.24-0.09,0.34c-0.02,0.06-0.04,0.1-0.05,0.14
	c-0.03,0.12-0.2,0.58-0.27,0.68C34.18,22.52,34.14,22.55,34.1,22.55 M34.03,21.12c-0.05,0-0.09,0.02-0.11,0.05
	c-0.05,0.08-0.03,0.23,0,0.3c0.07,0.16,0.12,0.29,0.21,0.29c0.17,0,0.21,0.07,0.21,0.13c0,0.05-0.07,0.15-0.14,0.26
	c-0.07,0.1-0.14,0.2-0.15,0.25c-0.01,0.06,0.01,0.09,0.02,0.11l0.04,0.02c0.03,0,0.07-0.03,0.09-0.06c0.06-0.09,0.23-0.54,0.26-0.67
	c0.01-0.04,0.03-0.09,0.05-0.14c0.04-0.09,0.09-0.21,0.09-0.33c0-0.05,0.01-0.08,0.02-0.1c0.09-0.02,0.14,0,0.18,0.02
	c0.04,0.02,0.07,0.03,0.1,0.03c0.08,0,0.17-0.15,0.18-0.26c0.01-0.06-0.02-0.09-0.04-0.12c-0.02-0.03-0.05-0.07-0.05-0.12
	c0-0.03,0.02-0.07,0.04-0.13c0.03-0.08,0.07-0.17,0.07-0.24c0.01-0.06-0.07-0.21-0.17-0.32c-0.05-0.06-0.1-0.09-0.13-0.09
	c-0.04,0.04,0,0.11,0.04,0.15c0.07,0.08,0.16,0.17,0.12,0.26c-0.04,0.09-0.14,0.14-0.24,0.2c-0.11,0.06-0.21,0.12-0.22,0.22
	c0,0.04-0.01,0.09-0.01,0.16c0,0.2-0.01,0.42-0.1,0.42c-0.06,0-0.1-0.05-0.16-0.12C34.19,21.2,34.12,21.12,34.03,21.12z"/>
<path style="fill:#F4D02E;" d="M34.19,19.82c0,0.08,0.17,0.41,0.26,0.41c0.14,0-0.06-0.16-0.05-0.22c0.01-0.06,0.21-0.15,0.13-0.17
	C34.39,19.81,34.18,19.72,34.19,19.82"/>
<path style="fill:#BD0030;" d="M34.45,20.25c-0.11,0-0.27-0.35-0.28-0.43l0.07-0.06c0.05,0,0.14,0.03,0.22,0.05l0.07,0.02
	c0.03,0.05,0,0.07-0.04,0.1c-0.03,0.03-0.07,0.06-0.08,0.08c0,0.02,0.02,0.06,0.05,0.09c0.03,0.05,0.06,0.09,0.05,0.12L34.45,20.25z
	 M34.25,19.79c-0.04,0.1,0.12,0.44,0.21,0.44v0.01l0.03-0.02c0.01-0.02-0.02-0.06-0.05-0.09c-0.03-0.04-0.06-0.08-0.05-0.11
	c0.01-0.03,0.05-0.06,0.09-0.09c0.02-0.02,0.06-0.04,0.06-0.06l-0.08-0.03C34.38,19.82,34.3,19.79,34.25,19.79"/>
<path style="fill:#F4D02E;" d="M34.18,19.39c0.03,0.11,0.48,0.27,0.67,0.33c0.19,0.05,0.43,0.28,0.51,0.21
	c0.09-0.07-0.59-0.34-0.69-0.38C34.57,19.51,34.16,19.28,34.18,19.39"/>
<path style="fill:#BD0030;" d="M35.31,19.95c-0.06,0-0.14-0.05-0.23-0.1c-0.08-0.05-0.16-0.1-0.24-0.12
	c-0.13-0.04-0.64-0.21-0.68-0.33c0.01,0,0.03-0.01,0.04-0.01c0.03,0.11,0.43,0.26,0.64,0.32c0.08,0.02,0.17,0.07,0.25,0.12
	c0.08,0.05,0.17,0.1,0.22,0.1v0.01l0.04-0.02c-0.01-0.08-0.46-0.27-0.68-0.36c-0.02-0.01-0.07-0.03-0.12-0.05
	c-0.1-0.05-0.22-0.11-0.3-0.12c0.1,0,0.22,0.06,0.31,0.1c0.05,0.02,0.09,0.04,0.11,0.05c0.01,0,0.68,0.26,0.7,0.37L35.31,19.95z"/>
<path style="fill:#F4D02E;" d="M35.52,20.09c0.17,0,0.08-0.33,0.03-0.4c-0.04-0.08-0.1,0.15-0.1,0.22
	C35.47,19.97,35.47,20.09,35.52,20.09"/>
<path style="fill:#BD0030;" d="M35.53,20.1L35.53,20.1L35.53,20.1c-0.06,0-0.07-0.1-0.08-0.17c-0.01-0.08,0.02-0.22,0.06-0.26
	c0.01,0.01,0.02,0.02,0.03,0.03c-0.04,0.04-0.07,0.16-0.06,0.2c0.01,0.08,0.02,0.17,0.05,0.18l0,0.01v-0.01
	c0.03,0,0.05-0.01,0.06-0.03c0.04-0.07,0-0.23-0.03-0.32c0.06,0.1,0.1,0.25,0.05,0.33C35.59,20.09,35.56,20.1,35.53,20.1"/>
<path style="fill:#F4D02E;" d="M34.55,18.45c0,0.07,0.46,0.02,0.68,0.08c0.09,0.02,0.41,0.2,0.47,0.15
	c0.07-0.09-0.43-0.28-0.71-0.28C34.89,18.41,34.55,18.36,34.55,18.45"/>
<path style="fill:#BD0030;" d="M35.67,18.7c-0.06,0-0.19-0.06-0.3-0.1c-0.06-0.03-0.11-0.05-0.14-0.06
	c-0.1-0.03-0.25-0.03-0.38-0.03c-0.2,0-0.31-0.01-0.31-0.06c0-0.1,0.23-0.07,0.35-0.06l0.09,0c0.25,0,0.68,0.15,0.73,0.25
	L35.67,18.7z M34.72,18.41c-0.14,0-0.16,0.02-0.16,0.04c0,0.03,0.17,0.03,0.28,0.03c0.13,0,0.28,0.01,0.38,0.03
	c0.03,0.01,0.08,0.03,0.14,0.06c0.1,0.05,0.23,0.1,0.29,0.1v0.01l0.02-0.02c-0.04-0.11-0.45-0.25-0.71-0.25l-0.09-0.01
	C34.84,18.41,34.78,18.41,34.72,18.41"/>
<path style="fill:#F4D02E;" d="M34.43,18.66c-0.08,0.09,0.28,0.19,0.6,0.2c0.32,0.01,0.53,0.2,0.5,0.35
	c-0.04,0.24-0.45,0.08-0.4,0.21c0.03,0.1,0.21,0.06,0.22,0.17c0.01,0.11,0.13,0.13,0.12-0.01c0-0.11,0.25-0.28,0.24-0.33
	c-0.01-0.1-0.16-0.45-0.55-0.49C34.79,18.73,34.54,18.55,34.43,18.66"/>
<path style="fill:#BD0030;" d="M35.43,19.7c-0.03,0-0.07-0.04-0.08-0.1c-0.01-0.05-0.06-0.06-0.1-0.08
	c-0.05-0.02-0.11-0.03-0.12-0.09c0.02-0.07,0.07-0.08,0.13-0.08c0.11-0.01,0.24-0.01,0.26-0.14c0.01-0.04-0.01-0.09-0.05-0.14
	c-0.07-0.09-0.22-0.18-0.44-0.19c-0.27-0.01-0.59-0.08-0.62-0.17c0.09-0.19,0.19-0.09,0.36-0.04c0.11,0.03,0.25,0.08,0.41,0.09
	c0.38,0.04,0.54,0.38,0.56,0.5c0,0.03-0.03,0.06-0.09,0.13c-0.07,0.07-0.15,0.15-0.15,0.21c0,0.05-0.01,0.08-0.02,0.09L35.43,19.7z
	 M34.53,18.64c-0.04,0-0.07,0.01-0.09,0.04c0.02,0.09,0.31,0.17,0.59,0.18c0.23,0.01,0.39,0.11,0.46,0.2
	c0.04,0.05,0.06,0.11,0.05,0.16c-0.03,0.15-0.18,0.15-0.29,0.16c-0.05,0-0.1,0.01-0.11,0.02c0.01,0.07,0.06,0.08,0.1,0.1
	c0.05,0.02,0.11,0.04,0.12,0.1c0.01,0.05,0.03,0.08,0.06,0.08v0.01l0.02-0.02c0.01-0.01,0.02-0.04,0.02-0.07
	c0-0.07,0.08-0.15,0.16-0.23c0.04-0.04,0.09-0.09,0.09-0.1c-0.01-0.11-0.17-0.44-0.54-0.48c-0.16-0.02-0.3-0.06-0.42-0.09
	C34.67,18.66,34.59,18.64,34.53,18.64"/>
<path style="fill:#BD0030;" d="M24.17,21c-0.05-0.03-0.24,0.14-0.17,0.17C24.13,21.25,24.25,21.05,24.17,21"/>
<path style="fill:#BD0030;" d="M24.06,21.19L24.06,21.19L24,21.18c0-0.01,0-0.02,0-0.03L24.06,21.19c0.06,0,0.12-0.06,0.13-0.12
	c0.01-0.03,0-0.06-0.02-0.07c-0.03,0-0.08,0.02-0.12,0.06c0.03-0.04,0.08-0.06,0.11-0.06c0.04,0.02,0.05,0.04,0.04,0.08
	C24.18,21.13,24.13,21.19,24.06,21.19"/>
<path style="fill:#BD0030;" d="M24.57,20.81c-0.09-0.01-0.13,0.18-0.06,0.19C24.7,21.02,24.74,20.83,24.57,20.81"/>
<path style="fill:#BD0030;" d="M24.54,21L24.54,21l-0.03,0c-0.03,0-0.04-0.03-0.04-0.07c0-0.06,0.04-0.12,0.09-0.12
	c0.09,0.01,0.12,0.06,0.12,0.1C24.67,20.95,24.63,21,24.54,21"/>
<path style="fill:#BD0030;" d="M34.17,21.34c-0.04,0-0.18,0.06-0.13,0.15c0.04,0.09,0.18,0.09,0.24,0.04
	C34.33,21.48,34.32,21.34,34.17,21.34"/>
<path style="fill:#BD0030;" d="M34.17,21.57c-0.06,0-0.11-0.03-0.14-0.08c-0.01-0.03-0.01-0.06,0-0.08c0.03-0.05,0.1-0.07,0.13-0.07
	c0.06,0,0.11,0.03,0.13,0.08c0.02,0.04,0.01,0.09-0.02,0.12C34.25,21.56,34.21,21.57,34.17,21.57 M34.17,21.34
	c-0.03,0-0.1,0.03-0.13,0.07c-0.02,0.03-0.02,0.05,0,0.08c0.04,0.08,0.17,0.09,0.23,0.04c0.03-0.03,0.04-0.07,0.02-0.11
	C34.29,21.39,34.25,21.34,34.17,21.34"/>
<path style="fill:#BD0030;" d="M34.69,20.94c0.01,0.1,0.09,0.08,0.15,0.06c0.07-0.03,0.09-0.12,0.02-0.15
	C34.79,20.82,34.68,20.87,34.69,20.94"/>
<path style="fill:#BD0030;" d="M34.76,21.02c-0.04,0-0.07-0.03-0.08-0.08c0.01-0.01,0.01-0.03,0.02-0.04
	c-0.01,0.15,0.08,0.11,0.13,0.09c0.03-0.01,0.06-0.05,0.06-0.08c0-0.02,0-0.03-0.01-0.04c0.01,0.01,0.02,0.03,0.02,0.04
	c0,0.04-0.03,0.07-0.06,0.09C34.82,21.01,34.79,21.02,34.76,21.02"/>
<path style="fill:#BD0030;" d="M31.67,23.3c-0.09,0.2-0.01,0.39,0.13,0.36c0.14-0.04,0.29-0.31,0.18-0.4
	C31.88,23.17,31.73,23.17,31.67,23.3"/>
<path style="fill:#BD0030;" d="M31.77,23.66c-0.04,0-0.08-0.02-0.1-0.06c-0.05-0.07-0.04-0.19,0-0.3c0.06-0.12,0.2-0.14,0.32-0.05
	c0.03,0.03,0.04,0.08,0.03,0.14c-0.02,0.1-0.11,0.23-0.21,0.26L31.77,23.66z M31.83,23.2c-0.07,0-0.12,0.04-0.15,0.1
	c-0.05,0.11-0.05,0.23,0,0.3c0.03,0.04,0.06,0.06,0.1,0.06v0l0.04-0.01c0.1-0.03,0.19-0.16,0.21-0.26c0.01-0.06,0-0.11-0.03-0.14
	C31.94,23.22,31.88,23.2,31.83,23.2"/>
<path style="fill:#BD0030;" d="M19.58,15.06c-0.33-0.03-1.09-0.18-1.13-0.03c-0.03,0.15,0.41,1.93,0.64,2.16
	c0.23,0.23,1.29,0.72,1.4,0.65c0.11-0.06-0.21-1.17-0.33-1.37c-0.12-0.2-0.49-0.91-0.46-0.94C19.73,15.5,19.56,15.06,19.58,15.06"/>
<path style="fill:#BD0030;" d="M18.91,15c0.08-0.43,0.58,0.09,0.53,0.64c-0.02,0.19,0.08,0.4,0.18,0.5L18.91,15z"/>
<path d="M19.56,16.2c-0.12-0.12-0.24-0.36-0.21-0.57c0.03-0.37-0.2-0.69-0.31-0.7c-0.02,0-0.05,0.07-0.05,0.09l-0.17-0.03
	c0.05-0.24,0.2-0.23,0.24-0.23c0.23,0.03,0.49,0.46,0.46,0.89c-0.02,0.16,0.07,0.34,0.16,0.43L19.56,16.2z"/>
<path style="fill:#BD0030;" d="M19.34,15.02l-0.02,0.02c0.25-0.42,0.49,0.18,0.53,0.87L19.34,15.02z"/>
<path d="M19.76,15.92c-0.03-0.54-0.18-0.91-0.27-0.93c-0.02-0.01-0.05,0.02-0.09,0.08l0,0l-0.02,0.03L19.24,15
	c0.11-0.18,0.22-0.2,0.29-0.18c0.27,0.07,0.38,0.72,0.4,1.09L19.76,15.92z"/>
<path style="fill:#BD0030;" d="M18.48,14.95c-0.02-0.35,0.55-0.45,0.51,0.81c0.25,0.16,0.53,0.76,0.55,0.98
	c0.18,0.04,0.49,0.27,0.57,0.46L18.48,14.95z"/>
<path d="M20.02,17.23c-0.06-0.16-0.35-0.37-0.5-0.4l-0.06-0.02l0-0.06c-0.01-0.2-0.3-0.78-0.51-0.91L18.9,15.8l0-0.05
	c0.02-0.75-0.18-0.91-0.22-0.93c-0.03-0.02-0.05-0.02-0.07-0.01c-0.03,0.02-0.06,0.07-0.05,0.13l-0.17,0.01
	c0-0.12,0.05-0.23,0.14-0.28c0.08-0.05,0.17-0.04,0.25,0c0.12,0.07,0.31,0.3,0.3,1.04c0.24,0.19,0.49,0.69,0.54,0.96
	c0.21,0.07,0.49,0.29,0.57,0.49L20.02,17.23z"/>
<path style="fill:#BD0030;" d="M19.86,21.88c0.03-0.95,0.04-2.99-0.06-3.21c-0.18-0.41-1.06-0.89-1.33-1.53
	c-0.27-0.68-0.5-2.24-0.39-2.42c0.14-0.27,0.62,0.33,0.49,0.99c0.58,0.68,0.46,1.08,0.56,1.17c0.36,0.27,0.9,0.46,0.99,0.71
	c0.2,0.44-0.04-0.62-0.2-0.84c-0.16-0.22-0.43-0.69-0.25-0.81c0.19-0.12,0.52,0.19,0.56,0.27c0.04,0.09,0.49,0.58,0.62,0.69
	c0.23,0.17,0.81,0.56,0.8,0.89c0,0.54,0.05,4.06,0.05,4.06L19.86,21.88z"/>
<path d="M19.94,21.89l-0.17,0c0.03-1.21,0.03-3-0.05-3.18c-0.07-0.17-0.29-0.36-0.51-0.56c-0.31-0.28-0.66-0.59-0.82-0.97
	c-0.25-0.63-0.53-2.26-0.38-2.5c0.05-0.09,0.14-0.13,0.24-0.1c0.23,0.08,0.5,0.58,0.41,1.11c0.39,0.47,0.46,0.82,0.49,1.01
	c0.01,0.05,0.02,0.11,0.03,0.12c0.13,0.1,0.29,0.19,0.44,0.28c0.17,0.09,0.32,0.18,0.43,0.27c-0.06-0.21-0.14-0.48-0.2-0.56
	c-0.04-0.05-0.37-0.52-0.32-0.78c0.01-0.06,0.05-0.11,0.1-0.15c0.05-0.03,0.13-0.06,0.25-0.02c0.19,0.05,0.4,0.25,0.44,0.33
	c0.04,0.07,0.46,0.54,0.6,0.67L21,16.9c0.29,0.21,0.77,0.56,0.76,0.9c0,0.53,0.05,4.06,0.05,4.06l-0.17,0c0,0-0.05-3.53-0.05-4.06
	c0.01-0.26-0.46-0.6-0.68-0.76l-0.08-0.06c-0.13-0.11-0.59-0.62-0.64-0.72c-0.02-0.04-0.19-0.2-0.33-0.24
	c-0.05-0.01-0.08-0.01-0.11,0c-0.04,0.16,0.11,0.46,0.27,0.68c0.11,0.15,0.34,0.91,0.28,1.03l-0.03,0.05l-0.06,0
	c-0.07,0-0.1-0.06-0.14-0.16c-0.05-0.13-0.28-0.26-0.5-0.38c-0.16-0.09-0.32-0.18-0.46-0.29c-0.06-0.05-0.07-0.12-0.09-0.22
	c-0.04-0.19-0.1-0.51-0.48-0.96l-0.03-0.03l0.01-0.04c0.1-0.49-0.16-0.91-0.29-0.96c-0.11,0.17,0.07,1.65,0.36,2.37
	c0.14,0.34,0.48,0.64,0.77,0.91c0.25,0.22,0.47,0.42,0.55,0.62C20,18.91,19.96,21.27,19.94,21.89"/>
<path style="fill:#BD0030;" d="M19.75,23.14c0,0,0,0.38,0,0.39c0.17,0.2,0.86,0.22,1.02,0.22c0.15-0.01,0.8,0.01,0.96-0.24
	c0-0.01,0.01-0.33,0.01-0.41L19.75,23.14z"/>
<path d="M20.78,23.84c-0.2,0-0.91-0.02-1.1-0.25l-0.02-0.45l0.17,0l0,0.39c0.09,0.08,0.61,0.13,0.93,0.14
	c0.53-0.01,0.81-0.08,0.88-0.2c-0.01,0,0-0.29,0-0.37h0.17c0,0.12,0,0.42-0.02,0.45c-0.15,0.25-0.6,0.29-0.98,0.29H20.78z"/>
<path style="fill:#BD0030;" d="M19.72,22.57c-0.19,0.04-0.24,0.28-0.11,0.45c0.11,0.14,0.57,0.3,1.09,0.31
	c0.52,0.01,1.22-0.17,1.25-0.46c0.01-0.29-0.26-0.27-0.23-0.26L19.72,22.57z"/>
<path d="M20.75,23.42c-0.02,0-0.03,0-0.05,0c-0.5-0.01-1.01-0.16-1.16-0.34c-0.09-0.11-0.12-0.26-0.07-0.38
	c0.04-0.1,0.12-0.18,0.23-0.2l0.04,0.17c-0.07,0.01-0.09,0.06-0.11,0.09c-0.02,0.07,0,0.15,0.05,0.22c0.09,0.11,0.52,0.27,1.02,0.28
	c0.54-0.01,1.14-0.18,1.16-0.38c0-0.06-0.01-0.1-0.04-0.13c-0.03-0.03-0.06-0.04-0.09-0.04l-0.01-0.08l-0.03,0.08l-0.06-0.1
	l0.11-0.06l0,0l0.02-0.01c0.13,0.02,0.28,0.12,0.27,0.35C22,23.24,21.28,23.42,20.75,23.42"/>
<path style="fill:#BD0030;" d="M19.72,22.04c-0.19,0.04-0.23,0.28-0.09,0.46c0.11,0.14,0.57,0.33,1.1,0.34
	c0.52,0.01,1.18-0.2,1.22-0.49c0.01-0.29-0.19-0.26-0.2-0.26L19.72,22.04z"/>
<path d="M20.76,22.93c-0.01,0-0.02,0-0.04,0c-0.53-0.01-1.03-0.2-1.16-0.38c-0.09-0.12-0.12-0.27-0.08-0.4
	c0.04-0.1,0.12-0.17,0.22-0.2l0.04,0.17c-0.05,0.01-0.08,0.04-0.1,0.09c-0.03,0.07,0,0.16,0.05,0.23c0.08,0.1,0.5,0.3,1.03,0.31
	c0.54,0.01,1.11-0.2,1.13-0.42c0-0.07-0.01-0.12-0.04-0.15l-0.12-0.18c0.04-0.02,0.13-0.02,0.2,0.03c0.06,0.04,0.13,0.13,0.12,0.31
	C21.99,22.72,21.27,22.93,20.76,22.93"/>
<path style="fill:#BD0030;" d="M20.81,22.34c0.69,0.01,1.14-0.33,1.14-0.51c0-0.18-0.22-0.19-0.36-0.14
	c-0.14,0.05-0.35,0.19-0.8,0.19c-0.46,0.01-0.87-0.32-1-0.31c-0.14,0.01-0.25,0.16-0.2,0.32C19.63,22.05,20.12,22.36,20.81,22.34"/>
<path d="M20.74,22.43c-0.65,0-1.17-0.3-1.24-0.51c-0.03-0.11-0.01-0.21,0.05-0.3c0.06-0.08,0.14-0.13,0.23-0.14
	c0.1,0.03,0.17,0.04,0.29,0.1c0.18,0.09,0.43,0.21,0.69,0.21c0.38,0,0.58-0.09,0.72-0.15l0.08-0.04c0.22-0.08,0.48,0.01,0.48,0.22
	c0,0.24-0.48,0.6-1.2,0.6H20.74z M19.79,21.65c-0.04,0-0.08,0.03-0.1,0.06c-0.03,0.04-0.04,0.1-0.02,0.15
	c0.03,0.09,0.43,0.39,1.08,0.39v0.09l0.07-0.09c0.7,0,1.06-0.32,1.06-0.43c0-0.02,0-0.08-0.12-0.08c-0.04,0-0.08,0.01-0.12,0.02
	l-0.08,0.03c-0.15,0.07-0.37,0.16-0.76,0.17h0c-0.33,0-0.6-0.13-0.79-0.23C19.91,21.7,19.82,21.65,19.79,21.65"/>
<path style="fill:#BD0030;" d="M39.35,15.06c0.33-0.03,1.09-0.18,1.13-0.03c0.03,0.15-0.41,1.93-0.64,2.16
	c-0.23,0.23-1.29,0.72-1.4,0.65c-0.11-0.06,0.21-1.17,0.33-1.37c0.12-0.2,0.49-0.91,0.46-0.94C39.19,15.5,39.36,15.06,39.35,15.06"
	/>
<path style="fill:#BD0030;" d="M40.02,15c-0.08-0.43-0.58,0.09-0.53,0.64c0.02,0.19-0.08,0.4-0.18,0.5L40.02,15z"/>
<path d="M39.36,16.2l-0.12-0.12c0.09-0.09,0.18-0.27,0.16-0.43c-0.04-0.44,0.22-0.86,0.46-0.9c0.04-0.01,0.2-0.01,0.24,0.23
	l-0.17,0.03c0-0.02-0.01-0.09-0.05-0.09c-0.11,0.01-0.34,0.33-0.31,0.71C39.6,15.84,39.49,16.08,39.36,16.2"/>
<path style="fill:#BD0030;" d="M39.59,15.02l0.02,0.02c-0.25-0.42-0.49,0.18-0.53,0.87L39.59,15.02z"/>
<path d="M39.16,15.92l-0.17-0.01c0.02-0.37,0.13-1.02,0.4-1.09c0.07-0.02,0.18,0,0.29,0.18l-0.14,0.09l0.02-0.02l-0.03,0.02
	c-0.04-0.07-0.08-0.11-0.1-0.1C39.34,15.01,39.19,15.38,39.16,15.92"/>
<path style="fill:#BD0030;" d="M40.45,14.95c0.01-0.35-0.55-0.45-0.51,0.81c-0.25,0.16-0.53,0.76-0.55,0.98
	c-0.18,0.04-0.49,0.27-0.56,0.46L40.45,14.95z"/>
<path d="M38.9,17.23l-0.16-0.06c0.08-0.2,0.36-0.42,0.57-0.49c0.05-0.26,0.3-0.77,0.54-0.96c-0.01-0.74,0.18-0.97,0.3-1.04
	c0.08-0.05,0.17-0.05,0.25,0c0.09,0.05,0.14,0.16,0.14,0.28l-0.17-0.01c0-0.06-0.02-0.11-0.05-0.13c-0.02-0.01-0.05-0.01-0.07,0.01
	C40.19,14.85,40,15,40.02,15.76l0,0.05l-0.04,0.03c-0.21,0.14-0.49,0.71-0.51,0.91l0,0.06l-0.06,0.02
	C39.25,16.86,38.96,17.07,38.9,17.23"/>
<path style="fill:#BD0030;" d="M39.07,21.88c-0.03-0.95-0.04-2.99,0.06-3.21c0.18-0.41,1.06-0.89,1.33-1.53
	c0.27-0.68,0.5-2.24,0.39-2.42c-0.14-0.27-0.62,0.33-0.49,0.99c-0.58,0.68-0.46,1.08-0.56,1.17c-0.36,0.27-0.9,0.46-0.99,0.71
	c-0.2,0.44,0.04-0.62,0.2-0.84c0.16-0.22,0.43-0.69,0.25-0.81c-0.19-0.12-0.52,0.19-0.56,0.27c-0.04,0.09-0.49,0.58-0.62,0.69
	c-0.23,0.17-0.81,0.56-0.8,0.89c0,0.54-0.05,4.06-0.05,4.06L39.07,21.88z"/>
<path d="M38.98,21.89c-0.02-0.62-0.06-2.98,0.06-3.25c0.09-0.2,0.3-0.39,0.55-0.62c0.29-0.27,0.63-0.57,0.77-0.91
	c0.28-0.72,0.47-2.2,0.39-2.35c-0.17,0.03-0.43,0.45-0.33,0.94l0.01,0.04l-0.03,0.03c-0.38,0.45-0.44,0.77-0.48,0.96
	c-0.02,0.1-0.03,0.18-0.09,0.22c-0.14,0.11-0.31,0.2-0.47,0.29c-0.22,0.13-0.45,0.26-0.5,0.38c-0.04,0.09-0.08,0.16-0.14,0.16
	l-0.05,0l-0.03-0.05c-0.06-0.12,0.17-0.88,0.28-1.03c0.16-0.22,0.32-0.52,0.29-0.65C39.17,16,39.13,16,39.09,16.02
	c-0.15,0.04-0.31,0.2-0.33,0.24c-0.05,0.11-0.52,0.61-0.64,0.72l-0.09,0.06c-0.22,0.17-0.69,0.51-0.68,0.76
	c0,0.54-0.05,4.07-0.05,4.07l-0.17,0c0,0,0.05-3.53,0.05-4.06c-0.01-0.34,0.47-0.69,0.76-0.9l0.08-0.06
	c0.13-0.12,0.56-0.59,0.6-0.66c0.04-0.08,0.24-0.28,0.44-0.33c0.12-0.03,0.2-0.01,0.25,0.02c0.05,0.03,0.09,0.08,0.1,0.15
	c0.05,0.27-0.28,0.73-0.32,0.79c-0.06,0.09-0.15,0.35-0.2,0.56c0.11-0.09,0.26-0.18,0.43-0.27c0.15-0.09,0.31-0.18,0.44-0.28
	c0.01-0.01,0.02-0.07,0.03-0.12c0.04-0.19,0.1-0.54,0.49-1.01c-0.09-0.53,0.18-1.03,0.41-1.11c0.1-0.03,0.19,0,0.25,0.1
	c0.14,0.24-0.14,1.86-0.39,2.49c-0.16,0.38-0.51,0.69-0.82,0.97c-0.23,0.2-0.44,0.4-0.51,0.56c-0.08,0.18-0.09,1.97-0.05,3.18
	L38.98,21.89z"/>
<path style="fill:#BD0030;" d="M39.18,23.14c0,0,0,0.38,0,0.39c-0.17,0.2-0.86,0.22-1.02,0.22c-0.15-0.01-0.8,0.01-0.96-0.24
	c0-0.01-0.01-0.33-0.01-0.41L39.18,23.14z"/>
<path d="M38.17,23.84L38.17,23.84c-0.44-0.01-0.89-0.05-1.04-0.28c-0.02-0.04-0.02-0.33-0.02-0.46h0.17c0,0.08,0,0.37,0.01,0.4
	c0.06,0.09,0.35,0.16,0.82,0.17c0.39-0.01,0.89-0.06,1-0.19l-0.02-0.33l0.17,0l0,0.39C39.04,23.83,38.29,23.84,38.17,23.84"/>
<path style="fill:#BD0030;" d="M39.21,22.57c0.19,0.04,0.24,0.28,0.11,0.45c-0.11,0.14-0.57,0.3-1.09,0.31
	c-0.52,0.01-1.22-0.17-1.25-0.46c-0.01-0.29,0.26-0.27,0.23-0.26L39.21,22.57z"/>
<path d="M38.18,23.42c-0.53,0-1.25-0.18-1.29-0.54c-0.01-0.24,0.14-0.34,0.26-0.36l0.08-0.01l0.08,0.15l-0.08,0.03l-0.03-0.08
	l-0.01,0.08c-0.02-0.01-0.05,0.01-0.09,0.04c-0.03,0.03-0.04,0.08-0.04,0.14c0.02,0.19,0.61,0.37,1.16,0.38
	c0.51-0.01,0.94-0.17,1.02-0.28c0.05-0.07,0.07-0.15,0.05-0.22c-0.01-0.03-0.04-0.08-0.11-0.09l0.04-0.17
	c0.11,0.03,0.19,0.1,0.23,0.2c0.04,0.12,0.01,0.27-0.08,0.38c-0.14,0.18-0.65,0.33-1.15,0.34C38.21,23.42,38.19,23.42,38.18,23.42"
	/>
<path style="fill:#BD0030;" d="M39.21,22.04c0.19,0.04,0.23,0.28,0.09,0.46c-0.11,0.14-0.57,0.33-1.1,0.34
	c-0.52,0.01-1.18-0.2-1.22-0.49c-0.01-0.29,0.19-0.26,0.2-0.26L39.21,22.04z"/>
<path d="M38.17,22.93c-0.52,0-1.23-0.21-1.27-0.57c-0.01-0.19,0.06-0.28,0.12-0.32c0.07-0.05,0.17-0.05,0.2-0.03l-0.07,0.16
	c-0.07,0.05-0.08,0.1-0.08,0.18c0.02,0.2,0.6,0.4,1.13,0.41c0.53-0.01,0.95-0.21,1.03-0.31c0.06-0.07,0.08-0.16,0.05-0.23
	c-0.02-0.05-0.05-0.07-0.1-0.09l0.04-0.17c0.1,0.02,0.19,0.1,0.22,0.2c0.04,0.13,0.01,0.28-0.08,0.4c-0.14,0.17-0.64,0.36-1.16,0.38
	C38.19,22.93,38.18,22.93,38.17,22.93"/>
<path style="fill:#BD0030;" d="M38.12,22.34c-0.69,0.01-1.14-0.33-1.14-0.51c0-0.18,0.22-0.19,0.36-0.14
	c0.14,0.05,0.35,0.19,0.8,0.19c0.46,0.01,0.87-0.32,1-0.31c0.14,0.01,0.25,0.16,0.2,0.32C39.29,22.05,38.8,22.36,38.12,22.34"/>
<path d="M38.18,22.42l-0.07,0h0c-0.34,0-0.64-0.07-0.88-0.2c-0.22-0.12-0.35-0.27-0.35-0.4c0-0.21,0.26-0.3,0.48-0.22l0.08,0.04
	c0.13,0.06,0.33,0.15,0.69,0.15h0c0.29,0,0.54-0.12,0.72-0.21c0.12-0.06,0.21-0.1,0.28-0.1c0.1,0.01,0.19,0.06,0.24,0.14
	c0.06,0.09,0.08,0.19,0.05,0.29C39.35,22.12,38.83,22.42,38.18,22.42 M37.18,21.74c-0.13,0-0.13,0.06-0.13,0.08
	c0,0.04,0.06,0.14,0.26,0.25c0.21,0.11,0.48,0.18,0.77,0.18l0.1,0c0.65,0,1.05-0.3,1.08-0.39c0.01-0.05,0-0.1-0.03-0.14
	c-0.02-0.04-0.06-0.06-0.1-0.06c-0.03,0-0.12,0.05-0.2,0.08c-0.2,0.1-0.46,0.23-0.77,0.23c-0.42,0-0.64-0.1-0.79-0.17l-0.07-0.03
	C37.27,21.75,37.23,21.74,37.18,21.74"/>
</svg>
