<svg version="1.1" xmlns="http://www.w3.org/2000/svg" xmlns:xlink="http://www.w3.org/1999/xlink" x="0px" y="0px"
	 viewBox="0 0 58.93 34.37" style="enable-background:new 0 0 58.93 34.37;" xml:space="preserve">
<rect style="fill:#BA0019;" width="58.93" height="22.91"/>
<rect y="22.91" style="fill:#3E9A13;" width="58.93" height="11.46"/>
<rect style="fill:#FFFFFF;" width="7.56" height="34.37"/>
<path style="fill:#BA0019;" d="M0.92,33.74h0.34v-0.95H0.92V33.74z M3.61,33.74h0.34v-0.95H3.61V33.74z M6.31,33.74h0.34v-0.95H6.31
	V33.74z M2.27,31.2H2.6v-0.79H2.27V31.2z M4.96,31.2H5.3v-0.79H4.96V31.2z M0.92,29.15h0.34V28.2H0.92V29.15z M3.61,29.15h0.34V28.2
	H3.61V29.15z M6.31,29.15h0.34V28.2H6.31V29.15z M1.59,30.41h0.34v-0.79h0.34v-0.79H2.6v0.79h0.34v0.79h0.34v0.79H2.94V32H2.6v0.79
	H2.27V32H1.93V31.2H1.59V30.41z M4.29,30.41h0.34v-0.79h0.34v-0.79H5.3v0.79h0.34v0.79h0.34v0.79H5.63V32H5.3v0.79H4.96V32H4.62
	V31.2H4.29V30.41z M4.96,27.25v0.79H4.62v0.79H4.29v0.79H3.95v0.79H3.61v-0.79H3.28v-0.79H2.94v-0.79H2.6v-0.79H2.27v0.79H1.93v0.79
	H1.59v0.79H1.25v0.79H0.92v0.79h0.34V32h0.34v0.79h0.34v0.79h0.34v0.79H2.6v-0.79h0.34v-0.79h0.34V32h0.34V31.2h0.34V32h0.34v0.79
	h0.34v0.79h0.34v0.79H5.3v-0.79h0.34v-0.79h0.34V32h0.34V31.2h0.34v-0.79H6.31v-0.79H5.97v-0.79H5.63v-0.79H5.3v-0.79H4.96z
	 M5.8,26.45h0.17v-0.31h0.17v0.31H6.3v0.32H6.14v0.32H5.97v-0.32H5.8V26.45z M5.8,25.35v0.47H5.63v0.48H5.46v0.63h0.17v0.47H5.8
	v0.47H6.3v-0.47h0.17v-0.47h0.17V26.3H6.47v-0.48H6.3v-0.47H5.8z M1.25,26.45h0.17v-0.32h0.17v0.32h0.17v0.32H1.59v0.32H1.42v-0.32
	H1.25V26.45z M1.25,25.34v0.47H1.09v0.47H0.92v0.64h0.17v0.47h0.17v0.48h0.51V27.4h0.17v-0.47H2.1v-0.64H1.93v-0.47H1.76v-0.47H1.25
	z M3.11,26.45h0.17v-0.32h0.17v0.32h0.17v0.32H3.44v0.32H3.28v-0.32H3.11V26.45z M3.95,26.45h0.17v-0.32h0.17v0.32h0.17v0.32H4.29
	v0.32H4.12v-0.32H3.95V26.45z M3.95,25.34v0.47H3.61v-0.47H3.11v0.47H2.94v0.47H2.77v0.64h0.17v0.47h0.17v0.48h0.51V27.4h0.34v0.48
	h0.5V27.4h0.17v-0.47h0.17v-0.64H4.62v-0.47H4.45v-0.47H3.95z M0.92,25.03h0.34v-0.95H0.92V25.03z M3.61,25.03h0.34v-0.95H3.61
	V25.03z M6.31,25.03h0.34v-0.95H6.31V25.03z M0.92,21.07h0.34v-0.64H0.92V21.07z M6.31,21.07h0.34v-0.64H6.31V21.07z M3.61,18.85
	h0.34v-0.79H3.61V18.85z M0.92,16.71v0.47v0.01v0.47h0.34v-0.47v-0.01v-0.47H0.92z M2.77,16.71v0.47v0.01v0.47h0.34v-0.47v-0.01
	v-0.47H2.77z M4.45,16.71v0.47v0.01v0.47h0.34v-0.47v-0.01v-0.47H4.45z M6.31,16.71v0.47v0.01v0.47h0.34v-0.47v-0.01v-0.47H6.31z
	 M4.12,16.16v0.32H3.95v0.24H3.61v-0.24H3.44v-0.32H3.11v0.48h0.17v0.24h0.17v0.31v0.01v0.31H3.28v0.24H3.11v0.48h0.34V17.9h0.17
	v-0.24h0.34v0.24h0.17v0.32h0.34v-0.48H4.29V17.5H4.12v-0.31v-0.01v-0.31h0.17v-0.24h0.17v-0.48H4.12z M3.61,16.31h0.34v-0.79H3.61
	V16.31z M0.92,13.94h0.34v-0.63H0.92V13.94z M6.31,13.94h0.34v-0.63H6.31V13.94z M0.92,10.3h0.34V9.35H0.92V10.3z M3.61,10.3h0.34
	V9.35H3.61V10.3z M6.31,10.3h0.34V9.35H6.31V10.3z M2.27,17.19v-0.02v-0.31H2.6v-0.56h0.34v-0.63h0.51v-0.75h0.17v-0.36h0.17h0.17
	v0.36h0.17v0.75h0.51V16v0.32h0.34v0.56H5.3v0.31v0.32H4.96v0.55H4.62v0.32v0.32H4.12v0.75H3.95v0.36H3.78H3.61v-0.36H3.44v-0.74
	H2.94v-0.63H2.6V17.5H2.27V17.19z M4.96,8.39v0.8H4.62v0.79H4.29v0.79H3.95v0.63v0.16H3.61v-0.79H3.28V9.98H2.94V9.19H2.6v-0.8H2.27
	v0.8H1.93v0.79H1.59v0.79H1.25v0.63v0.16H0.92v0.79h0.34v0.79h0.34v0.79h0.34v0.79h0.34v-0.79H2.6v-0.79h0.34v-0.79H2.6V11.4h0.34
	v0.16v0.48h0.34v1.27h0.17l0,0.78L2.94,14.1v0.63H2.6v0.47H2.27V16H1.93v-0.79H1.59v-0.47H1.25v-0.48H0.92v1.43h0.34v0.63h0.34v0.56
	h0.34v0.31v0.01v0.31H1.59v0.55H1.25v0.63H0.92v1.43h0.34v-0.47h0.34v-0.48h0.34v-0.79h0.34v0.79H2.6v0.48h0.34v0.63l0.51,0.01
	l0,0.78H3.28v1.27H2.94v0.48v0.16H2.6v-0.95h0.34v-0.79H2.6v-0.79H2.27v-0.79H1.93v0.79H1.59v0.79H1.25v0.79H0.92v0.79h0.34v0.16
	v0.63h0.34v0.79h0.34v0.79h0.34v0.79H2.6v-0.79h0.34v-0.79h0.34V23.6h0.34v-0.79h0.34v0.16v0.64h0.34v0.79h0.34v0.79h0.34v0.79H5.3
	v-0.79h0.34v-0.79h0.34V23.6h0.34v-0.79h0.34v-0.79H6.31v-0.79H5.97v-0.79H5.63v-0.79H5.3v0.79H4.96v0.79H4.62v0.79h0.34v0.79v0.16
	H4.62v-0.16v-0.48H4.29v-1.27H4.24H4.12v-0.79h0.12h0.09h0.12h0.17v-0.63h0.34v-0.48H5.3v-0.79h0.34v0.79h0.34v0.48h0.34v0.47h0.34
	v-1.43H6.31v-0.63H5.97V17.5H5.63v-0.31v-0.01v-0.31h0.34v-0.56h0.34v-0.63h0.34v-1.43H6.31v0.48H5.97v0.47H5.63V16H5.3v-0.79H4.96
	v-0.47H4.62V14.1H4.45H4.33H4.24H4.12v-0.79h0.12h0.04v-1.27h0.34v-0.48V11.4h0.34v0.16v0.79H4.62v0.79h0.34v0.79H5.3v0.79h0.34
	v-0.79h0.34v-0.79h0.34v-0.79h0.34v-0.79H6.31v-0.79H5.97V9.98H5.63V9.19H5.3v-0.8H4.96z M1.25,7.6h0.17V7.29h0.17V7.6h0.17v0.32
	H1.59v0.32H1.42V7.92H1.25V7.6z M1.25,6.97H1.09v0.47H0.92v0.64h0.17v0.47h0.17v0.47h0.51V8.55h0.17V8.08H2.1V7.44H1.93V6.97H1.76
	V6.5H1.25V6.97z M3.11,7.6h0.17V7.29h0.17V7.6h0.17v0.32H3.44v0.32H3.28V7.92H3.11V7.6z M3.95,7.6h0.17V7.29h0.17V7.6h0.17v0.32
	H4.29v0.32H4.12V7.92H3.95V7.6z M3.11,6.97H2.94v0.47H2.77v0.64h0.17v0.47h0.17v0.47h0.51V8.55h0.34v0.47h0.5V8.55h0.17V8.08h0.17
	V7.44H4.62V6.97H4.45V6.5h-0.5v0.47H3.61V6.5H3.11V6.97z M5.8,7.6h0.17V7.28h0.17V7.6H6.3v0.31H6.14v0.32H5.97V7.92H5.8V7.6z
	 M5.8,6.49v0.48H5.63v0.47H5.46v0.63h0.17v0.48H5.8v0.47H6.3V8.55h0.17V8.07h0.17V7.44H6.47V6.97H6.3V6.49H5.8z M0.92,6.18h0.34
	V5.23H0.92V6.18z M3.61,6.18h0.34V5.23H3.61V6.18z M6.31,6.18h0.34V5.23H6.31V6.18z M2.27,3.96H2.6V3.17H2.27V3.96z M4.96,3.96H5.3
	V3.17H4.96V3.96z M0.92,1.59h0.34V0.63H0.92V1.59z M3.61,1.59h0.34V0.63H3.61V1.59z M6.31,1.59h0.34V0.63H6.31V1.59z M1.59,3.17
	h0.34V2.38h0.34V1.59H2.6v0.79h0.34v0.79h0.34v0.79H2.94v0.79H2.6v0.79H2.27V4.75H1.93V3.96H1.59V3.17z M4.29,3.17h0.34V2.38h0.34
	V1.59H5.3v0.79h0.34v0.79h0.34v0.79H5.63v0.79H5.3v0.79H4.96V4.75H4.62V3.96H4.29V3.17z M4.96,0v0.79H4.62v0.79H4.29v0.79H3.95v0.79
	H3.61V2.38H3.28V1.59H2.94V0.79H2.6V0H2.27v0.79H1.93v0.79H1.59v0.79H1.25v0.79H0.92v0.79h0.34v0.79h0.34v0.79h0.34v0.79h0.34v0.79
	H2.6V6.34h0.34V5.54h0.34V4.75h0.34V3.96h0.34v0.79h0.34v0.79h0.34v0.79h0.34v0.79H5.3V6.34h0.34V5.54h0.34V4.75h0.34V3.96h0.34
	V3.17H6.31V2.38H5.97V1.58H5.63V0.79H5.3V0H4.96z"/>
</svg>
