<svg version="1.1" xmlns="http://www.w3.org/2000/svg" xmlns:xlink="http://www.w3.org/1999/xlink" x="0px" y="0px"
	 viewBox="0 0 58.5 34.13" style="enable-background:new 0 0 58.5 34.13;" xml:space="preserve">
<rect style="fill:#EA0020;" width="13.76" height="34.13"/>
<rect x="44.74" style="fill:#EA0020;" width="13.76" height="34.13"/>
<rect x="13.76" style="fill:#FFFFFF;" width="30.98" height="34.13"/>
<path style="fill:#EA0020;" d="M29.25,4.43l-2.03,3.94c-0.23,0.43-0.64,0.39-1.06,0.15L24.7,7.72l1.1,6.06
	c0.23,1.11-0.51,1.11-0.87,0.63l-2.56-2.99l-0.42,1.52c-0.05,0.2-0.26,0.41-0.58,0.36l-3.24-0.71l0.85,3.22
	c0.18,0.72,0.32,1.02-0.18,1.2l-1.15,0.56l5.58,4.72c0.22,0.18,0.33,0.5,0.25,0.79l-0.49,1.67c1.92-0.23,3.64-0.44,5.56-0.67
	c0.17,0,0.45,0.15,0.45,0.35l-0.26,6.12h0.94l-0.15-6.11c0-0.2,0.26-0.37,0.43-0.37c1.92,0.23,3.64,0.44,5.57,0.67l-0.49-1.67
	c-0.08-0.29,0.03-0.61,0.25-0.79l5.58-4.72l-1.16-0.56c-0.51-0.19-0.37-0.49-0.18-1.2l0.85-3.22l-3.24,0.71
	c-0.32,0.05-0.53-0.16-0.58-0.36l-0.42-1.52l-2.56,2.99c-0.36,0.48-1.1,0.48-0.87-0.63l1.09-6.06l-1.47,0.79
	c-0.41,0.24-0.83,0.28-1.06-0.15L29.25,4.43z"/>
</svg>
