<svg version="1.1" xmlns="http://www.w3.org/2000/svg" xmlns:xlink="http://www.w3.org/1999/xlink" x="0px" y="0px"
	 viewBox="-450 263.63 58.92 34.37" style="enable-background:new -450 263.63 58.92 34.37;" xml:space="preserve">
<rect x="-450" y="263.63" style="fill:#008000;" width="58.93" height="34.37"/>
<ellipse style="fill:#FFE000;" cx="-420.25" cy="281.95" rx="6.2" ry="7.63"/>
<ellipse style="fill:#008000;" cx="-418.32" cy="281.95" rx="5.1" ry="6.28"/>
<ellipse style="fill:#FFE000;" cx="-439.79" cy="274.31" rx="6.49" ry="8"/>
<path style="fill:#591404;" d="M-438.68,273.85c0,0.32-0.01,0.84-0.1,1.46c-0.14,1-0.18,1.09-0.32,1.86
	c-0.15,0.77-0.17,0.84-0.31,1.29c-0.14,0.45-0.15,0.47-0.36,0.89c-0.21,0.42-0.14,0.26-0.25,0.51c-0.06,0.12-0.13,0.09-0.17,0.18
	c-0.04,0.09-0.05,0.31-0.05,0.31v0h1.62c0,0,0.07-0.18-0.02-0.27c-0.09-0.09-0.44-0.11-0.34-0.44c0.19-0.67,0.22-0.46,0.34-2.04
	c0.09-1.22,0.15-2.98,0.17-3.72C-438.53,273.82-438.61,273.8-438.68,273.85z"/>
<polygon style="fill:#008000;" points="-439,268.49 -439,268.49 -439,268.49 "/>
<path style="fill:#008000;" d="M-435.16,273.47c-0.1-0.17,0.14-0.45-0.16-0.44c0.01-0.28-0.08-0.54-0.33-0.63
	c-0.25-0.26-0.98,0.38-0.96-0.2c-0.07-0.32,0.3-0.04,0.4-0.2c0.11-0.34-0.51-0.3-0.31-0.56c0.13-0.11,0.76-0.26,0.27-0.37
	c-0.24,0.08-0.45,0.02-0.65-0.13c-0.18,0.36-0.67-0.2-0.59,0.45c-0.07,0.24-0.52,0.87-0.64,0.39c0.1-0.38,0.63-0.5,0.47-1.01
	c-0.03-0.32-0.24,0.06-0.34,0.03c-0.05-0.2,0.15-0.43,0.3-0.48c0.28,0.27,0.29-0.34,0.56-0.29c0.2-0.05-0.06-0.16-0.12-0.2
	c0.05-0.18,0.36-0.27,0.06-0.42c-0.26-0.24-0.46,0.24-0.67,0.26c-0.21-0.29,0.19-0.43,0.3-0.58c0.01-0.11-0.23-0.03-0.16-0.13
	c0.06-0.14,0.48-0.15,0.28-0.35c-0.29-0.12-0.68-0.09-0.96,0.07c-0.18,0.07-0.23,0.57-0.38,0.55c-0.07-0.22,0.02-0.66-0.22-0.72
	c0.01,0.31-0.01,0.72-0.12,1.05c-0.11,0.37-0.22,0.74-0.22,1.13c-0.17,0.07-0.34-0.45-0.5-0.14c0.12,0.42,0.4,0.76,0.6,1.14
	c0.03,0.12,0.31,0.43,0.15,0.5c-0.4-0.17-0.5-0.8-0.75-1.19c-0.29-0.65-0.83-1.1-1.44-1.13c-0.23,0.01-0.97-0.07-0.77,0.41
	c0.28,0.24,0.63,0.39,0.91,0.66c0.21,0.02,0.59,0.45,0.56,0.61c-0.37-0.18-0.54-0.4-0.93-0.59c-0.54-0.25-1.28-0.1-1.57,0.55
	c-0.06,0.17-0.14,0.67,0.04,0.71c0.2-0.39,0.49-0.83,0.92-0.71c0.34,0.03-0.38,0.78-0.1,0.63c0.09-0.05,0.29-0.21,0.43-0.23
	c0.14-0.02,0.22,0.11,0.32,0.13c0.21,0.04,0.27,0.14,0.25,0.21c-0.02,0.07-0.09,0.01-0.3,0.09c-0.11,0.04-0.16,0.16-0.29,0.21
	c-0.12,0.05-0.38,0.06-0.48,0.01c-0.34-0.18-0.9-0.15-1,0.37c0,0.23-0.17-0.03-0.24,0.07c-0.06,0.25-0.07,0.51-0.38,0.49
	c-0.18,0.24-0.37,0.48-0.61,0.65c0.14,0.39,0.68-0.39,0.65-0.06c-0.24,0.4,0.12,0.48,0.28,0.18c0.27-0.35,0.6-0.77,0.99-0.42
	c0.19,0.22,0.3-0.12,0.44-0.1c0.09,0.27,0.19,0.01,0.29-0.06c0.16-0.02,0.12,0.25,0.31,0.08c0.38-0.31,0.85-0.05,1.22-0.35
	c0.39-0.22,0.06,0.18-0.05,0.33c-0.17,0.41-0.02,0.96-0.4,1.21c-0.15,0.49,0.18,1.14-0.16,1.51c-0.05,0.23,0.43,0.2,0.57,0.3
	c0.24,0.01-0.01-0.67,0.22-0.76c0.31,0.24,0.3-0.43,0.24-0.64c0.03-0.47,0.05-0.98,0.24-1.41c0.2-0.52,0.39,0.21,0.16,0.42
	c-0.13,0.48-0.31,1.08-0.02,1.52c0.08,0.02,0.15,0.27,0.26,0.35c0.11,0.08,0.26-0.02,0.28-0.25c0.14-0.69,0.07-1.42,0.27-2.09
	c0.02-0.03,0.04-0.04,0.07-0.05c0-0.2-0.01-0.32-0.01-0.32h0.23c0,0,0,0.13-0.01,0.34c0.05,0.05,0.11,0.11,0.14,0.18
	c0.28,0.4,0.47,0.9,0.81,1.23c0.31,0.18,0.58,0.44,0.72,0.83c0,0.3,0.69,0.35,0.49,0.01c-0.2-0.33-0.07-0.65,0.13-0.87
	c0.11,0.03,0.08-0.21-0.01-0.11c-0.14-0.04-0.14-0.35,0.04-0.2c0.32,0.13-0.02-0.28-0.14-0.3c-0.27-0.21-0.58-0.44-0.71-0.8
	c0.35,0,0.71,0.24,1.07,0.09c0.29-0.18,0.58,0.02,0.68,0.33c0.22-0.04,0.13-0.32,0-0.41C-435.07,273.79-434.96,273.62-435.16,273.47
	z M-437.71,273.75c0.01-0.17-0.33-0.15-0.12-0.3c0.07-0.05,0.14-0.09,0.22-0.12C-437.38,273.29-437.6,273.76-437.71,273.75z"/>
<path id="Star7" style="fill:#FFE000;" d="M-405.37,291.54l0.41,1.57l1.25-0.58l-0.74,1.37l1.15,0.84l-1.33,0.14l0.18,1.63
	l-0.92-1.19l-0.92,1.19l0.18-1.63l-1.33-0.14l1.15-0.84l-0.74-1.37l1.25,0.58L-405.37,291.54z"/>
<path id="Star7_1_" style="fill:#FFE000;" d="M-412.81,277.04l0.41,1.57l1.25-0.58l-0.74,1.37l1.15,0.84l-1.33,0.14l0.18,1.63
	l-0.92-1.19l-0.92,1.19l0.18-1.63l-1.33-0.14l1.15-0.84l-0.74-1.37l1.25,0.58L-412.81,277.04z"/>
<path id="Star7_2_" style="fill:#FFE000;" d="M-405.37,267.12l0.41,1.57l1.25-0.58l-0.74,1.37l1.15,0.84l-1.33,0.14l0.18,1.63
	l-0.92-1.19l-0.92,1.19l0.18-1.63l-1.33-0.14l1.15-0.84l-0.74-1.37l1.25,0.58L-405.37,267.12z"/>
<path id="Star7_3_" style="fill:#FFE000;" d="M-398.76,274.6l0.41,1.57l1.25-0.58l-0.74,1.37l1.15,0.84l-1.33,0.14l0.18,1.63
	l-0.92-1.19l-0.92,1.19l0.18-1.63l-1.33-0.14l1.15-0.84l-0.74-1.37l1.25,0.58L-398.76,274.6z"/>
<path id="Star5" style="fill:#FFE000;" d="M-402.4,281.95l0.32,0.98l0.86,0.08l-0.65,0.68l0.2,1.03l-0.73-0.56l-0.73,0.56l0.2-1.03
	l-0.65-0.68l0.86-0.08L-402.4,281.95z"/>
</svg>
