<svg version="1.1" xmlns="http://www.w3.org/2000/svg" xmlns:xlink="http://www.w3.org/1999/xlink" x="0px" y="0px"
	 viewBox="0 0 58.92 34.37" style="enable-background:new 0 0 58.92 34.37;" xml:space="preserve">
<polygon style="fill:#1A237B;" points="29.47,0 29.47,1.09 29.47,1.47 29.47,1.64 22.93,4.91 29.47,4.91 29.47,5.89 29.47,7.37 
	29.47,8.84 29.47,9.82 22.93,9.82 29.47,13.09 29.47,13.64 29.47,14.74 29.47,14.83 27.46,14.83 26.71,14.83 26.36,14.83 
	17.19,10.24 17.19,14.83 16.2,14.83 14.73,14.83 13.26,14.83 12.27,14.83 12.27,10.24 3.1,14.83 2,14.83 0,14.83 0,34.37 
	58.92,34.37 58.92,0 "/>
<polygon style="fill:#1A237B;" points="0,9.82 0,13.08 6.53,9.82 "/>
<polygon style="fill:#1A237B;" points="17.19,0 17.19,4.49 26.17,0 "/>
<polygon style="fill:#1A237B;" points="12.27,0 3.29,0 12.27,4.49 "/>
<polygon style="fill:#1A237B;" points="0,4.91 6.53,4.91 0,1.65 "/>
<polygon style="fill:#FFFFFF;" points="29.46,0 19.64,4.91 17.44,4.91 27.27,0 26.17,0 17.19,4.49 17.19,0 16.2,0 16.2,4.98 
	16.2,5.53 16.2,5.89 17.68,5.89 19.87,5.89 20.62,5.89 20.97,5.89 29.47,5.89 29.47,4.91 22.93,4.91 29.47,1.64 29.47,1.47 
	29.47,1.09 29.47,0 "/>
<polygon style="fill:#FFFFFF;" points="12.27,0 12.27,4.49 3.29,0 0,0 9.82,4.91 7.62,4.91 0,1.1 0,1.65 6.53,4.91 0,4.91 0,5.89 
	8.49,5.89 9.59,5.89 11.78,5.89 13.26,5.89 13.26,5.53 13.26,5.16 13.26,4.98 13.26,0 "/>
<polygon style="fill:#FFFFFF;" points="19.87,8.84 17.68,8.84 16.2,8.84 16.2,9.2 16.2,9.57 16.2,9.75 16.2,14.83 17.19,14.83 
	17.19,10.24 26.36,14.83 26.71,14.83 27.46,14.83 29.47,14.83 29.47,14.74 19.64,9.82 21.84,9.82 29.47,13.64 29.47,13.09 
	22.93,9.82 29.47,9.82 29.47,8.84 20.97,8.84 "/>
<polygon style="fill:#FFFFFF;" points="11.78,8.84 9.59,8.84 8.84,8.84 8.49,8.84 0,8.84 0,9.82 6.53,9.82 0,13.08 0,14.73 
	9.82,9.82 12.01,9.82 2,14.83 3.1,14.83 12.27,10.24 12.27,14.83 13.26,14.83 13.26,9.75 13.26,9.2 13.26,8.84 "/>
<polygon style="fill:#BD0034;" points="9.82,9.82 0,14.73 0,14.83 2,14.83 12.01,9.82 "/>
<polygon style="fill:#BD0034;" points="0,1.1 7.62,4.91 9.82,4.91 0,0 "/>
<polygon style="fill:#BD0034;" points="29.46,0 27.27,0 17.44,4.91 19.64,4.91 "/>
<polygon style="fill:#BD0034;" points="19.64,9.82 29.47,14.74 29.47,13.64 21.84,9.82 "/>
<polygon style="fill:#BD0034;" points="13.26,0 13.26,4.98 13.26,5.16 13.26,5.53 13.26,5.89 11.78,5.89 9.59,5.89 8.49,5.89 
	0,5.89 0,8.84 8.49,8.84 8.84,8.84 9.59,8.84 11.78,8.84 13.26,8.84 13.26,9.2 13.26,9.75 13.26,14.83 14.73,14.83 16.2,14.83 
	16.2,9.75 16.2,9.58 16.2,9.2 16.2,8.84 17.68,8.84 19.87,8.84 20.97,8.84 29.47,8.84 29.47,7.37 29.47,5.89 20.97,5.89 20.62,5.89 
	19.87,5.89 17.68,5.89 16.2,5.89 16.2,5.53 16.2,4.98 16.2,0 "/>
<polygon style="fill:#FFFFFF;" points="43.39,7.4 42.89,8.93 44.19,7.98 45.49,8.93 44.99,7.4 46.29,6.46 44.69,6.46 44.19,4.93 
	43.7,6.46 42.09,6.46 "/>
<polygon style="fill:#FFFFFF;" points="47.92,8.78 48.73,10.17 48.89,8.57 50.46,8.24 49,7.58 49.16,5.99 48.09,7.18 46.62,6.53 
	47.43,7.92 46.35,9.11 "/>
<polygon style="fill:#FFFFFF;" points="50.91,10.03 49.44,10.68 51.01,11.02 51.18,12.62 51.98,11.22 53.55,11.56 52.48,10.37 
	53.28,8.97 51.81,9.63 50.74,8.43 "/>
<polygon style="fill:#FFFFFF;" points="53.22,13.38 51.62,13.38 52.92,14.32 52.42,15.85 53.72,14.9 55.02,15.85 54.52,14.32 
	55.82,13.38 54.21,13.38 53.72,11.85 "/>
<polygon style="fill:#FFFFFF;" points="53.81,18.98 54.61,20.37 54.78,18.77 56.35,18.43 54.89,17.78 55.05,16.18 53.98,17.38 
	52.51,16.73 53.32,18.12 52.24,19.31 "/>
<polygon style="fill:#FFFFFF;" points="53.71,22.08 54.51,20.69 53.04,21.34 51.97,20.15 52.14,21.74 50.67,22.39 52.24,22.73 
	52.41,24.33 53.21,22.94 54.78,23.27 "/>
<polygon style="fill:#FFFFFF;" points="50.58,24.58 50.08,23.05 49.58,24.58 47.98,24.58 49.28,25.52 48.78,27.05 50.08,26.1 
	51.38,27.05 50.88,25.52 52.18,24.58 "/>
<polygon style="fill:#FFFFFF;" points="47.01,26.53 47.17,24.94 46.1,26.13 44.63,25.47 45.44,26.87 44.36,28.06 45.93,27.72 
	46.74,29.12 46.9,27.52 48.47,27.19 "/>
<polygon style="fill:#FFFFFF;" points="42.95,26.87 43.75,25.47 42.28,26.13 41.21,24.94 41.38,26.53 39.91,27.19 41.48,27.52 
	41.65,29.12 42.45,27.72 44.02,28.06 "/>
<polygon style="fill:#FFFFFF;" points="39.11,25.52 40.41,24.58 38.8,24.58 38.3,23.05 37.81,24.58 36.2,24.58 37.5,25.52 37,27.05 
	38.3,26.1 39.6,27.05 "/>
<polygon style="fill:#FFFFFF;" points="36.14,22.73 37.71,22.4 36.25,21.74 36.41,20.15 35.34,21.34 33.87,20.69 34.68,22.08 
	33.6,23.27 35.17,22.94 35.98,24.33 "/>
<polygon style="fill:#FFFFFF;" points="33.77,20.37 34.57,18.97 36.14,19.31 35.07,18.12 35.87,16.72 34.41,17.38 33.33,16.18 
	33.5,17.78 32.03,18.43 33.6,18.77 "/>
<polygon style="fill:#FFFFFF;" points="33.86,14.32 33.37,15.85 34.67,14.9 35.96,15.85 35.47,14.32 36.77,13.38 35.16,13.38 
	34.67,11.85 34.17,13.38 32.56,13.38 "/>
<polygon style="fill:#FFFFFF;" points="36.4,11.22 37.21,12.62 37.38,11.02 38.95,10.68 37.48,10.03 37.65,8.43 36.57,9.63 
	35.11,8.97 35.91,10.37 34.83,11.56 "/>
<polygon style="fill:#FFFFFF;" points="39.49,8.57 39.66,10.17 40.46,8.78 42.03,9.11 40.96,7.92 41.76,6.53 40.29,7.18 39.22,5.99 
	39.39,7.58 37.92,8.24 "/>
</svg>
