<svg version="1.1" xmlns="http://www.w3.org/2000/svg" xmlns:xlink="http://www.w3.org/1999/xlink" x="0px" y="0px"
	 viewBox="0 0 58.92 34.37" style="enable-background:new 0 0 58.92 34.37;" xml:space="preserve">
<rect y="0" style="fill:#FFFFFF;" width="58.92" height="34.37"/>
<rect y="0" style="fill:#2530A9;" width="17.19" height="34.37"/>
<rect y="17.19" style="fill:#C22623;" width="58.92" height="17.19"/>
<polygon style="fill:#FFFFFF;" points="8.59,4.3 7.26,8.38 9.31,9.05 "/>
<polygon style="fill:#FFFFFF;" points="8.59,4.3 9.92,8.38 7.88,9.05 "/>
<polygon style="fill:#FFFFFF;" points="12.68,7.27 8.38,7.27 8.38,9.41 "/>
<polygon style="fill:#FFFFFF;" points="12.68,7.27 9.2,9.79 7.94,8.05 "/>
<polygon style="fill:#FFFFFF;" points="4.51,7.27 7.98,9.79 9.25,8.05 "/>
<polygon style="fill:#FFFFFF;" points="4.51,7.27 8.8,7.27 8.8,9.41 "/>
<polygon style="fill:#FFFFFF;" points="11.12,12.07 9.79,7.98 7.75,8.65 "/>
<polygon style="fill:#FFFFFF;" points="11.12,12.07 7.64,9.55 8.9,7.81 "/>
<polygon style="fill:#FFFFFF;" points="6.07,12.07 9.54,9.55 8.28,7.81 "/>
<polygon style="fill:#FFFFFF;" points="6.07,12.07 7.39,7.98 9.44,8.65 "/>
</svg>
