<svg version="1.1" xmlns="http://www.w3.org/2000/svg" xmlns:xlink="http://www.w3.org/1999/xlink" x="0px" y="0px"
	 viewBox="0 0 58.92 34.37" style="enable-background:new 0 0 58.92 34.37;" xml:space="preserve">
<rect style="fill:#CB1D23;" width="58.92" height="34.37"/>
<polygon style="fill:#F7DE29;" points="5.67,12.44 6.78,9.01 3.87,6.88 7.47,6.88 8.59,3.45 9.71,6.88 13.32,6.89 10.41,9.01 
	11.51,12.44 8.59,10.33 "/>
<polygon style="fill:#F7DE29;" points="15.72,14.3 16.93,14.78 17.78,13.78 17.69,15.09 18.91,15.58 17.63,15.9 17.54,17.21 
	16.84,16.1 15.57,16.41 16.41,15.41 "/>
<polygon style="fill:#F7DE29;" points="22.3,7.7 21.01,7.48 20.39,8.64 20.21,7.34 18.92,7.11 20.09,6.53 19.92,5.23 20.83,6.17 
	22.01,5.6 21.39,6.76 "/>
<polygon style="fill:#F7DE29;" points="19.56,13.58 19.96,12.33 18.9,11.56 20.22,11.55 20.62,10.31 21.03,11.55 22.34,11.56 
	21.28,12.33 21.68,13.58 20.62,12.81 "/>
<polygon style="fill:#F7DE29;" points="15.78,2.18 16.97,2.74 17.87,1.78 17.71,3.08 18.9,3.64 17.61,3.89 17.45,5.19 16.81,4.05 
	15.52,4.29 16.41,3.33 "/>
</svg>
