<svg version="1.1" xmlns="http://www.w3.org/2000/svg" xmlns:xlink="http://www.w3.org/1999/xlink" x="0px" y="0px"
	 viewBox="0 0 58.92 34.37" style="enable-background:new 0 0 58.92 34.37;" xml:space="preserve">
<rect style="fill:#2F3C85;" width="58.92" height="34.37"/>
<path style="fill:#292C2F;" d="M0,24.08h58.92H0z M0,10.29h58.92H0z"/>
<path style="fill:#FFFFFF;" d="M0,27.51h58.92v-6.86H0V27.51z M0,13.73h58.92V6.86H0V13.73z"/>
<polygon style="fill:#D80031;" points="0,0 0,34.37 29.72,17.22 "/>
<polygon style="fill-rule:evenodd;clip-rule:evenodd;fill:#FFFFFF;" points="9.92,11.46 8.15,16.88 10.87,17.77 "/>
<polygon style="fill-rule:evenodd;clip-rule:evenodd;fill:#FFFFFF;" points="9.92,11.46 11.64,16.88 8.93,17.77 "/>
<polygon style="fill-rule:evenodd;clip-rule:evenodd;fill:#FFFFFF;" points="15.36,15.44 9.65,15.44 9.65,18.27 "/>
<polygon style="fill-rule:evenodd;clip-rule:evenodd;fill:#FFFFFF;" points="15.36,15.44 10.7,18.76 9.04,16.49 "/>
<polygon style="fill-rule:evenodd;clip-rule:evenodd;fill:#FFFFFF;" points="4.44,15.44 9.09,18.76 10.76,16.49 "/>
<polygon style="fill-rule:evenodd;clip-rule:evenodd;fill:#FFFFFF;" points="4.44,15.44 10.2,15.44 10.2,18.27 "/>
<polygon style="fill-rule:evenodd;clip-rule:evenodd;fill:#FFFFFF;" points="13.25,21.81 11.48,16.38 8.76,17.27 "/>
<polygon style="fill-rule:evenodd;clip-rule:evenodd;fill:#FFFFFF;" points="13.25,21.81 8.65,18.43 10.31,16.16 "/>
<polygon style="fill-rule:evenodd;clip-rule:evenodd;fill:#FFFFFF;" points="6.54,21.81 11.14,18.43 9.48,16.16 "/>
<polygon style="fill-rule:evenodd;clip-rule:evenodd;fill:#FFFFFF;" points="6.54,21.81 8.32,16.38 11.03,17.27 "/>
</svg>
