<svg version="1.1" xmlns="http://www.w3.org/2000/svg" xmlns:xlink="http://www.w3.org/1999/xlink" x="0px" y="0px"
	 viewBox="0 0 58.93 34.37" style="enable-background:new 0 0 58.93 34.37;" xml:space="preserve">
<rect x="0" style="fill:#2115A9;" width="58.92" height="34.37"/>
<polygon style="fill:#3F8A45;" points="0,0 58.92,34.37 58.89,0.03 "/>
<path style="fill:#F4C545;" d="M34.84,17.17c0,2.94-2.38,5.32-5.32,5.32c-2.94,0-5.32-2.38-5.32-5.32c0-2.94,2.38-5.32,5.32-5.32
	C32.46,11.85,34.84,14.23,34.84,17.17"/>
<path style="fill:#3F8A45;" d="M26.21,14.8c0.36,0.5,0.92,1.34,1.36,1.12c0.35,0,0.53,0.03,0.57,0.26c0.82,0.14,2.19-0.2,3.04-1.32
	c0,0,0.07,0.01,0.05-0.41c0-0.19,0.25-0.15,0.26-0.09c0.03,0.09,0.03,0.16,0.07,0.16c0.11-0.04,0.25-0.27,0.37-0.42
	c0.03-0.07,0.01-0.14,0.02-0.22c0.06-0.16,0.22-0.12,0.26-0.04c0.03,0.05,0.03,0.09,0.06,0.15c0.16,0.11,0.45,0.01,0.47,0.01
	c0.03-0.13,0.11-0.12,0.11-0.12c0.11-0.02,0.07-0.01,0.14,0.02c-0.06,0.71,0.14,0.74,0.12,1.1C33.13,15.4,33,15.51,33,15.67
	c0.04,0.19,0.64,0.19,0.43,0.35c-0.18,0.1,0,0.29-0.28,0.35c-0.81,0.41-0.96,0.76-0.96,0.76s-0.2,0.38-0.23,0.38
	c-0.14,0.26-0.31,0.12-0.4,0.24c-0.05,0.16-0.1,0.5,0,0.68c0.05,0.25-0.01,0.38-0.07,0.63c-0.05,0.52-0.26,0.6-0.28,0.78
	c-0.1,0.2,0.02,1.11-0.07,1.11c-0.6,0.01-1.06-0.11-1.3-0.16c0.23-1,0.14-1.88,0.14-1.97c-0.06-0.72-1.07-0.54-1.23-0.64
	c-0.13-0.03-0.21-0.13-0.26-0.18c-0.14-0.02-0.2-0.05-0.34-0.06c-0.07,0.03-0.03,0.07-0.19,0.12c-0.4,0.05-0.58-0.35-0.58-0.35
	c0.02-0.13-0.91,0.03-1.41-0.09c-0.21,0.11-0.3,0.46-0.47,0.5c-0.01,0.11-0.28-0.09-0.33-0.19c-0.01-0.3,0.26-0.44,0.26-0.44
	c0.22-0.15,0.35-0.18,0.45-0.29c0.05-0.26,0.03-0.46,0.14-0.65c0.09-0.15,0.24-0.08,0.33-0.15c0.1-0.07,0.15-0.51,0.05-0.63
	c0,0-0.41-0.37-0.43-0.39C25.84,15.01,26.13,14.77,26.21,14.8"/>
<path style="fill:#F4C545;" d="M51.73,8.2c-0.24-0.95-2.4-3.01-4.02-4.32c-0.39-0.26-0.64-0.11-0.59,0.27
	c0.2,0.34,0.35,0.71,0.56,1.04c0.06,0.22,0.16,0.38,0.22,0.61c0,0,0.02,0.39,0.05,0.42c0.51,0.56,0.57,1.03,0.57,1.03
	c0.29,0.56,0.55,0.97,1.06,1.43c0.57,0.36,0.15,1.48,0.17,2.07c0,0.38-0.27,0.33-0.51,0.29c-1.86-1.71-3.7-1.71-5.32-2.21
	c-0.63-0.07-0.65,0.23-0.44,0.4c1.13,1.21,2.2,2.04,3.6,2.73c0.24,0.15,0.47,0.29,0.71,0.44c0.27,0.23,0.54,0.45,0.81,0.67
	c0.62,0.41,0.67,0.77,0.67,0.81c0.02,0.76-0.39,1.35-0.51,1.58c-0.21,0.81-0.64,0.94-0.64,0.94c-3.47,2.34-5.29,2.95-10.91,2.22
	c-0.08-0.05-0.62,0.04,0,0.27c1.43,0.48,4.95,1.24,8.35-0.37c0.82-0.57,1.36-0.38,1.95-0.73c0.97-0.6,2.36-1.35,2.61-1.43
	c0.76-0.4,2.88-0.86,3.37-1.26c0.56-0.04,1.14-0.12,1.18-0.6c0.19-0.12,0.45-0.03,0.65-0.43c0.44-0.08,0.37-0.24,0.37-0.24
	c-0.11-0.31-0.53-0.44-0.83-0.67c-0.44-0.15-0.74-0.19-1.06-0.03c-0.1,0.04-0.2,0.09-0.3,0.14c0,0-0.47-0.07-0.47-0.1
	C52,13.12,52.1,9.65,51.73,8.2"/>
<path style="fill:#3F8A45;" d="M54.19,13.89c-0.03,0.08-0.17,0.12-0.3,0.07c-0.14-0.04-0.22-0.14-0.19-0.23
	c0.03-0.09,0.17-0.12,0.3-0.08C54.13,13.7,54.22,13.8,54.19,13.89"/>
<polygon style="fill:#FFFFFF;" points="11.09,13.71 10.33,13 9.58,13.7 9.66,12.67 8.64,12.51 9.49,11.93 8.99,11.04 9.97,11.34 
	10.35,10.39 10.72,11.35 11.71,11.05 11.19,11.94 12.04,12.53 11.02,12.68 "/>
<polygon style="fill:#FFFFFF;" points="13.75,22.23 12.94,21.69 12.15,22.26 12.43,21.34 11.63,20.78 12.61,20.76 12.91,19.84 
	13.24,20.75 14.22,20.74 13.44,21.32 "/>
<polygon style="fill:#FFFFFF;" points="17.48,18.72 16.72,18.01 15.96,18.71 16.05,17.68 15.03,17.52 15.88,16.94 15.38,16.05 
	16.36,16.35 16.74,15.4 17.11,16.36 18.1,16.07 17.58,16.95 18.43,17.54 17.41,17.69 "/>
<polygon style="fill:#FFFFFF;" points="4.48,20.97 3.73,20.26 2.97,20.96 3.05,19.93 2.04,19.77 2.89,19.19 2.38,18.3 3.36,18.61 
	3.75,17.65 4.12,18.61 5.11,18.32 4.59,19.2 5.43,19.79 4.41,19.94 "/>
<polygon style="fill:#FFFFFF;" points="11.24,29.56 10.48,28.86 9.72,29.55 9.8,28.52 8.79,28.36 9.64,27.79 9.14,26.89 10.12,27.2 
	10.5,26.25 10.87,27.2 11.86,26.91 11.34,27.8 12.19,28.39 11.17,28.53 "/>
</svg>
