<svg version="1.1" xmlns="http://www.w3.org/2000/svg" xmlns:xlink="http://www.w3.org/1999/xlink" x="0px" y="0px"
	 viewBox="0 0 58.92 34.37" style="enable-background:new 0 0 58.92 34.37;" xml:space="preserve">
<rect style="fill:#FFFFFF;" width="58.92" height="34.37"/>
<path style="fill:#DD7D21;" d="M25.2,10.45c0,0.45,0.06,0.51,0.08,0.59c0.03,0.09,0.06,1.64-0.17,2.07
	c-0.23,0.42-0.69,0.66-0.88,0.71c-0.18,0.04-0.76-0.37-1.3-0.54c-0.54-0.17-0.51-0.14-0.73-0.14c-0.23,0-0.74,0.19-0.88,0.31
	c-0.09-0.02-0.11-0.06-0.17,0c-0.05,0.06-0.28,0.28-0.34,0.42c-0.06,0.14-0.2,0.68-0.37,0.73c-0.17,0.06-0.63,0.52-0.93,0.54
	c-0.3,0.02-0.22-0.02-0.42-0.03c-0.21-0.01-0.23-0.23-0.43-0.34c-0.2-0.11-0.25-0.2-0.25-0.2s-0.06-0.23-0.14-0.23
	c-0.08,0-0.17,0.4-0.17,0.51c0,0.11,0.23,0.54,0.34,0.62c0.11,0.09,0.11,0.59,0.06,0.74c-0.06,0.14,0.11,0.28,0.14,0.42
	c0.03,0.14-0.17,0.25-0.08,0.28c0.08,0.03,0.2,0.2,0.2,0.37c0,0.17,0.42,0.23,0.51,0.4c0.08,0.17,0.11,0.45,0.14,0.62
	c0.03,0.17,0.13,0.09,0.14,0.51c0.13,0.06,0.34,0.2,0.51,0.28c0.17,0.08,0.14,0.28,0.37,0.37c0.23,0.08,0.23,0,0.34,0.03
	c0.11,0.03-0.06,0.06,0.14,0.11c0.2,0.06,0.28-0.03,0.45,0.06c0.17,0.08,0.26,0.28,0.37,0.34c0.11,0.06,0.59,0.2,0.62,0.23
	c0.03,0.03,0.34,0.14,0.4,0.14c0.06,0,0.23-0.11,0.23-0.11s0.2,0.06,0.37,0c0.17-0.06,0.28-0.23,0.4-0.23
	c0.11,0,0.14,0.06,0.26,0.06c0.11,0,0.28-0.06,0.28-0.06s0.25-0.06,0.45,0.06c0.2,0.11,0.65,0.65,0.65,0.88
	c0,0.23-0.03,0.34-0.03,0.34s0.23-0.03,0.31,0.03c0.08,0.06,0.08-0.05,0.71,0.06c-0.04-0.16-0.65-0.59-0.08-1.21
	c0.57-0.62,0.6-0.37,0.74-0.48c0.13-0.11,0.65-0.44,1.53-0.14c0.85-0.14,0.23-0.26,0.71-0.28c0.09-0.04,0.25,0.01,0.43,0.06
	c0.06-0.11,0.18-0.21,0.37-0.17c0.03-0.1,0.27-0.23,0.51-0.25c0.04-0.19,0.64-0.43,0.99-0.45c0.14-0.13,0.3-0.69,1.07-0.42
	c0.03-0.18,0.15-0.48,0.37-0.54c0.04-0.38-0.1-1.15,0.28-1.42c0.38-0.35,0.74-0.27,1.39-0.25c0.44,0.09,0.65,0.42,0.79,0.45
	c0.14,0.03,0.2,0.03,0.37-0.09c0.17-0.11-0.03-0.34,0.11-0.34c0.14,0,0.08,0.03,0.31,0c0.23-0.03,0.2-0.11,0.34-0.14
	c0.23,0.11,0.48,0.03,0.59,0.11c0.11,0.09,0.13,0.08,0.37,0.11c0.08,0.14,0.31,0.14,0.31,0.14s-0.17-0.06-0.11-0.14
	c0.06-0.08,0-0.34-0.11-0.45c-0.11-0.11-0.17-0.14-0.26-0.25c-0.08-0.11,0.03-0.11-0.11-0.25c-0.14-0.14-0.45-0.28-0.54-0.45
	c-0.08-0.17-0.06-0.28-0.2-0.42c-0.14-0.14-0.71-0.62-0.74-1.13c-0.03-0.51,0.03-1,0.37-1.16c-0.01-0.3,0.06-0.34,0.37-0.51
	c0.31-0.17,0.34-0.06,0.54-0.06s0.31,0.03,0.51-0.11c0.2-0.14,0.03-0.45,0.54-0.91c0.51-0.45,0.71-0.68,0.88-0.71
	c0.17-0.03,0.79-0.46,1.05-0.42c0.18-0.22,0.37-0.48,0.59-0.65c0.23-0.17,0.48-0.17,0.6-0.31c0.11-0.14,0.08-0.4,0.42-0.62
	c0.34-0.23,0.62-0.37,0.76-0.48s0.45-0.03,0.57-0.14c0.11-0.11,0.11-0.54,0.23-0.62c0.11-0.08-0.37,0.2-0.62,0.31
	c-0.26,0.11-0.62,0.31-0.93,0.28c-0.31-0.03-0.14,0.17-0.31,0.23c-0.17,0.06-0.45,0.03-0.57,0.14c-0.11,0.11-0.31,0.4-0.48,0.51
	c-0.17,0.11-0.26,0.09-0.42,0.17c-0.17,0.09-0.31,0.17-0.45,0.23c-0.14,0.06-0.57,0.03-0.57,0.03s-0.37,0.48-0.54,0.65
	c-0.17,0.17-0.37,0.14-0.54,0.23c-0.17,0.08-1.61,1.02-2.6,1.16c-0.99,0.14-0.54-0.08-0.85,0c-0.31,0.09-0.76,0.68-1.13,0.71
	c-0.37,0.03-0.48,0-0.57,0c-0.08,0-0.54,0.28-0.82,0.23c-0.42,0.13-0.73,0.1-0.85,0.09c-0.12-0.02-0.34,0.14-0.65,0
	c-0.24-0.08-0.24,0.09-0.71-0.06c-0.47-0.15-0.79,0.06-1.02-0.06c-0.23-0.11-0.2-0.2-0.37-0.2c-0.17,0-0.17,0.11-0.37,0.11
	c-0.2,0-0.23-0.11-0.4-0.11c-0.17,0-0.37,0.11-0.62,0.09c-0.25-0.03-0.34-0.14-0.51-0.14C26.13,10.84,25.2,10.45,25.2,10.45"/>
<path style="fill:#2C6752;" d="M28.09,27.72c0.49-0.35,0.92-0.47,1.59-0.59c0.67-0.12,1.38-0.31,1.75-0.41
	c0.37-0.1-1.26,0.47-1.67,0.59C29.35,27.43,28.09,27.72,28.09,27.72"/>
<path style="fill:#2C6752;" d="M30.78,26.68c-0.14-0.84,0.2-1.73,0.96-2.08C31.92,25.21,31.37,26.25,30.78,26.68"/>
<path style="fill:#2C6752;" d="M32.08,26.24c-0.41-0.7,0.28-1.6,0.79-2.04C33.1,24.62,32.69,25.88,32.08,26.24"/>
<path style="fill:#2C6752;" d="M33.28,25.7c-0.44-0.6,0.08-1.65,0.63-2.06C34.12,24.23,33.91,25.29,33.28,25.7"/>
<path style="fill:#2C6752;" d="M34.48,24.95c-0.4-0.56-0.12-1.45,0.45-2.02C35.34,23.4,34.99,24.42,34.48,24.95"/>
<path style="fill:#2C6752;" d="M35.44,24.19c-0.33-0.53,0.08-1.81,0.61-2.16C36.28,22.5,36.11,23.83,35.44,24.19"/>
<path style="fill:#2C6752;" d="M36.21,23.99c-0.1-0.77,1.24-1.61,1.79-1.59C37.93,23.03,37.36,23.72,36.21,23.99"/>
<path style="fill:#2C6752;" d="M35.46,24.85c0.63-0.65,1.85-0.65,2.28-0.51C37.62,24.72,36.19,25.54,35.46,24.85"/>
<path style="fill:#2C6752;" d="M34.59,25.5c0.88-0.24,1.45-0.43,1.98,0.12C36.21,26.09,34.77,25.95,34.59,25.5"/>
<path style="fill:#2C6752;" d="M33.34,26.07c0.84-0.45,1.86,0.22,2.02,0.61C34.42,27.07,33.32,26.17,33.34,26.07"/>
<path style="fill:#2C6752;" d="M32.18,26.72c0.77-0.29,1.65,0.1,2,0.53C33.77,27.45,32.69,27.66,32.18,26.72"/>
<path style="fill:#2C6752;" d="M31.12,27.05c0.88-0.1,1.73,0.57,1.92,0.95C31.9,28.12,31.47,27.78,31.12,27.05"/>
<path style="fill:#2C6752;" d="M30.83,27.72c-0.49-0.35-0.92-0.47-1.59-0.59c-0.67-0.12-1.38-0.31-1.75-0.41
	c-0.37-0.1,1.26,0.47,1.67,0.59C29.58,27.43,30.83,27.72,30.83,27.72"/>
<path style="fill:#2C6752;" d="M28.14,26.68c0.14-0.84-0.2-1.73-0.96-2.08C27,25.21,27.55,26.25,28.14,26.68"/>
<path style="fill:#2C6752;" d="M26.85,26.24c0.41-0.7-0.28-1.6-0.79-2.04C25.83,24.62,26.24,25.88,26.85,26.24"/>
<path style="fill:#2C6752;" d="M25.65,25.7c0.44-0.6-0.08-1.65-0.63-2.06C24.8,24.23,25.02,25.29,25.65,25.7"/>
<path style="fill:#2C6752;" d="M24.45,24.95c0.4-0.56,0.12-1.45-0.45-2.02C23.59,23.4,23.94,24.42,24.45,24.95"/>
<path style="fill:#2C6752;" d="M23.49,24.19c0.33-0.53-0.08-1.81-0.61-2.16C22.64,22.5,22.82,23.83,23.49,24.19"/>
<path style="fill:#2C6752;" d="M22.72,23.99c0.1-0.77-1.24-1.61-1.79-1.59C20.99,23.03,21.56,23.72,22.72,23.99"/>
<path style="fill:#2C6752;" d="M23.47,24.85c-0.63-0.65-1.85-0.65-2.28-0.51C21.31,24.72,22.74,25.54,23.47,24.85"/>
<path style="fill:#2C6752;" d="M24.33,25.5c-0.89-0.24-1.45-0.43-1.98,0.12C22.72,26.09,24.15,25.95,24.33,25.5"/>
<path style="fill:#2C6752;" d="M25.59,26.07c-0.84-0.45-1.87,0.22-2.02,0.61C24.51,27.07,25.61,26.17,25.59,26.07"/>
<path style="fill:#2C6752;" d="M26.75,26.72c-0.77-0.29-1.65,0.1-2,0.53C25.16,27.45,26.24,27.66,26.75,26.72"/>
<path style="fill:#2C6752;" d="M27.81,27.05c-0.88-0.1-1.73,0.57-1.92,0.95C27.02,28.12,27.46,27.78,27.81,27.05"/>
</svg>
