<svg version="1.1" xmlns="http://www.w3.org/2000/svg" xmlns:xlink="http://www.w3.org/1999/xlink" x="0px" y="0px"
	 viewBox="0 0 58.92 34.37" style="enable-background:new 0 0 58.92 34.37;" xml:space="preserve">
<rect x="0" width="58.92" height="11.46"/>
<rect x="0" y="11.46" style="fill:#E1001F;" width="58.92" height="11.46"/>
<rect x="0" y="22.91" style="fill:#F6D928;" width="58.92" height="11.46"/>
<path style="fill:#F6D728;" d="M21.31,8.14v13.76c0,5.15,6.92,4.53,8.16,6.59c1.24-2.06,8.16-1.44,8.16-6.59V8.14H21.31z"/>
<path d="M29.46,28.59l-0.04-0.07c-0.44-0.73-1.6-1.11-2.94-1.56c-2.33-0.77-5.22-1.73-5.22-5.06V8.09h16.42v13.81
	c0,3.33-2.89,4.29-5.22,5.06c-1.35,0.45-2.51,0.83-2.94,1.56L29.46,28.59z M21.36,8.19v13.71c0,3.25,2.73,4.16,5.15,4.96
	c1.32,0.44,2.47,0.82,2.96,1.53c0.49-0.71,1.63-1.1,2.96-1.53c2.41-0.8,5.15-1.71,5.15-4.96V8.19H21.36z"/>
<path d="M28.93,10.12c0.08,0.41-0.08,1.4-0.29,1.73c-0.21,0.33-0.74,0.95-0.78,1.57c-0.21,3.09,0.95,7.58,1.61,10.79
	c0.66-3.21,1.81-7.7,1.61-10.79S30.45,9.5,30.45,9.5L28.93,10.12z"/>
<path style="fill:#CA001C;" d="M29.09,10.57c-0.77-0.06-1.41-0.21-1.94-0.45c0.22,0.27,0.71,0.49,1.48,0.66L29.09,10.57z"/>
<path d="M28.64,10.75c-0.78-0.11-1.29-0.34-1.51-0.62c0.55,0.2,1.19,0.35,1.96,0.41l0,0.05c-0.77-0.06-1.42-0.21-1.94-0.46
	C27.39,10.37,27.88,10.59,28.64,10.75"/>
<path style="fill:#CA001C;" d="M28.84,8.88c-1.24-0.62-1.98,0.08-1.15,1.19c0.08-0.21,0.86-0.49,1.24,0.5
	c-0.19,0.11-0.64,0.12-1.36,0.04c0.37,0.29,1.48,0.33,1.69,0.21c0.21-0.12-0.37-1.15-0.37-1.15L28.84,8.88z"/>
<path d="M28.79,10.9c-0.42,0-0.99-0.08-1.23-0.27c0.73,0.03,1.18,0.02,1.36-0.08c-0.23-0.56-0.58-0.65-0.77-0.65h-0.01
	c-0.22,0-0.39,0.11-0.42,0.19c-0.42-0.5-0.5-0.96-0.27-1.24c0.25-0.3,0.79-0.29,1.41,0.01L28.83,8.9c-0.59-0.3-1.11-0.3-1.35-0.03
	c-0.22,0.26-0.13,0.7,0.23,1.18c0-0.1,0.21-0.21,0.43-0.21c0.2,0,0.58,0.1,0.81,0.72c-0.21,0.15-0.66,0.16-1.39,0.08
	c0.38,0.23,1.48,0.28,1.68,0.16c0.13-0.08-0.16-0.73-0.38-1.12c0.14,0.15,0.62,1.03,0.41,1.16C29.2,10.88,29.01,10.9,28.79,10.9"/>
<path d="M30.37,9.74c0.21-0.04,0.54-0.17,0.78-0.41c-0.45,0-1.28-0.25-1.61-0.41c-0.33-0.17-0.9-0.53-0.9,0.16
	c0,0.7,0.74,1.24,0.62,1.81L30.37,9.74z"/>
<path style="fill:#F0F7FF;" d="M29.34,9.29c0,0-0.41-0.21-0.49-0.29c-0.08-0.08-0.21,0.45,0.16,0.62
	C29.07,9.48,29.17,9.37,29.34,9.29"/>
<path d="M29.05,9.04c-0.19,0.06-0.23,0.21-0.12,0.45c0.03-0.19,0.16-0.32,0.41-0.37L29.05,9.04z"/>
<path d="M31.28,14.64v4.86l5.52,4.53V11.97c0-0.93-0.19-1.56-0.58-1.89v2.51L31.28,14.64z"/>
<rect x="32.23" y="13.2" style="fill:#F6D728;" width="0.15" height="10.3"/>
<rect x="33.38" y="13.2" style="fill:#F6D728;" width="0.15" height="10.3"/>
<rect x="34.53" y="13.2" style="fill:#F6D728;" width="0.15" height="10.3"/>
<rect x="35.69" y="13.2" style="fill:#F6D728;" width="0.15" height="10.3"/>
<path d="M30.2,15.55c3.71,0,5.27-1.19,6.06-2.1v-3.34c0.41-0.11,0.63-0.41,0.66-0.91c-1.15,0.95-2.97-1.28-4.04,1.03
	c0.58,1.15,1.73,1.03,2.14,0.37c0.82,0.7,0.16,3.34-4.82,3.3V15.55z"/>
<path style="fill:#CA001C;" d="M31.56,23.63c-0.29,0.37-0.04,0.7,0.21,0.82c-0.08-0.25-0.04-0.48,0.12-0.7L31.56,23.63z"/>
<path d="M31.79,24.44c-0.17-0.03-0.33-0.18-0.38-0.37c-0.03-0.15,0.01-0.31,0.12-0.46l0.04,0.03c-0.11,0.14-0.14,0.28-0.11,0.41
	c0.04,0.18,0.19,0.31,0.31,0.37c-0.12-0.22-0.08-0.46,0.09-0.69C31.75,23.98,31.71,24.2,31.79,24.44"/>
<path style="fill:#CA001C;" d="M33.01,25.03c0.03,0.17-0.06,0.37-0.25,0.62c0.49-0.12,0.7-0.29,0.54-0.58L33.01,25.03z"/>
<path d="M32.76,25.67c0.16-0.28,0.24-0.48,0.21-0.64l0.05-0.01c0.03,0.17-0.06,0.39-0.25,0.64c0.3-0.12,0.48-0.22,0.53-0.34
	c0.03-0.07,0.02-0.15-0.04-0.24c0.11,0.08,0.12,0.18,0.08,0.26C33.3,25.48,33.11,25.58,32.76,25.67"/>
<path style="fill:#CA001C;" d="M34.65,24.41c0.08,0.19,0.09,0.41,0.04,0.66c0.37-0.33,0.49-0.78,0.21-0.87L34.65,24.41z"/>
<path d="M34.71,25.09c0.01-0.27,0-0.48-0.08-0.67l0.05-0.02c0.08,0.19,0.1,0.42,0.04,0.67c0.2-0.24,0.35-0.53,0.31-0.71
	c-0.02-0.07-0.06-0.12-0.13-0.14c0.11-0.02,0.16,0.04,0.18,0.13C35.12,24.55,34.97,24.85,34.71,25.09"/>
<path style="fill:#CA001C;" d="M34.61,22.93c0.14,0.03,0.27,0.16,0.41,0.41c0.04-0.45-0.04-0.7-0.45-0.78L34.61,22.93z"/>
<path d="M35.05,23.34c-0.18-0.23-0.31-0.36-0.44-0.39l0.01-0.05c0.14,0.03,0.29,0.17,0.43,0.42c0-0.47-0.12-0.67-0.48-0.74
	C35.02,22.62,35.09,22.91,35.05,23.34"/>
<path style="fill:#CA001C;" d="M30.99,21.57l1.94,1.77c0,0-0.74,0.16-1.03,0.16c-0.29,0-0.54,0.08-0.45,0.16
	c0.08,0.08,0.25,0.08,0.33,0.21c0.08,0.12,0.21,0.29,0.37,0.12c0.16-0.16,0.74-0.33,0.74-0.33s0,0.95-0.04,1.07
	c-0.04,0.12-0.17,0.37-0.08,0.37s0.08-0.04,0.41,0c0.33,0.04,0.29,0.13,0.21-0.37c-0.08-0.49-0.04-1.03-0.04-1.03
	s0.74,0.49,0.99,0.82c0.25,0.33,0.21,0.08,0.33-0.04c0.12-0.12,0.29-0.16,0.41-0.2c0.12-0.04-0.33-0.17-0.45-0.25
	c-0.12-0.08-1.07-0.62-1.07-0.62s0.54-0.16,0.87-0.21c0.33-0.04,0.33-0.04,0.29-0.21c-0.04-0.16,0-0.33,0-0.41s-0.04-0.16-0.25,0
	c-0.21,0.16-1.15,0.58-1.15,0.58l-1.61-2.14L30.99,21.57z"/>
<path d="M33.39,25.17c-0.02,0-0.05-0.01-0.09-0.01l-0.13-0.02c-0.23-0.03-0.3-0.02-0.35-0.01l-0.11-0.01
	c-0.03-0.04,0-0.13,0.06-0.28l0.04-0.1c0.03-0.1,0.04-0.79,0.04-1.06c-0.03,0.04-0.55,0.19-0.7,0.35c-0.06,0.05-0.11,0.08-0.17,0.07
	c-0.1-0.01-0.17-0.1-0.24-0.2c-0.04-0.07-0.11-0.09-0.18-0.12c-0.06-0.02-0.11-0.04-0.14-0.08l-0.01-0.01l-0.01-0.06
	c0.04-0.09,0.28-0.13,0.49-0.13c0.28,0,1.02-0.16,1.03-0.16l-1.95-1.73L31,21.55l1.94,1.77c-0.04,0.05-0.76,0.21-1.05,0.21
	c-0.25,0-0.42,0.06-0.44,0.1c0.04,0.05,0.09,0.07,0.14,0.09c0.07,0.03,0.15,0.06,0.2,0.14c0.06,0.09,0.13,0.17,0.2,0.18
	c0.04,0,0.08-0.02,0.13-0.06c0.17-0.17,0.73-0.33,0.75-0.34c0.03,0.06,0.03,0.98-0.01,1.1l-0.04,0.11
	c-0.03,0.07-0.08,0.21-0.07,0.23c0.11-0.02,0.17-0.03,0.42,0l0.13,0.02c0.04,0.01,0.09,0.02,0.1,0.01c0.01-0.01,0-0.09-0.02-0.18
	l-0.03-0.19c-0.08-0.49-0.04-1.03-0.04-1.04c0.07,0,0.79,0.48,1.04,0.81c0.1,0.13,0.12,0.14,0.16,0.15c0.02,0,0.03-0.04,0.05-0.07
	c0.02-0.04,0.04-0.09,0.08-0.13c0.11-0.11,0.26-0.16,0.37-0.2c0.04-0.02-0.09-0.08-0.17-0.11c-0.09-0.04-0.19-0.07-0.24-0.11
	c-0.12-0.08-1.07-0.62-1.07-0.62c0.01-0.05,0.55-0.21,0.87-0.26c0.17-0.02,0.26-0.03,0.28-0.06c0.01-0.02,0-0.06-0.01-0.11
	c-0.03-0.12-0.02-0.24-0.01-0.33c0-0.03,0.01-0.06,0.01-0.08c-0.04-0.07-0.08-0.08-0.21,0.02c-0.21,0.17-1.12,0.56-1.16,0.58
	l-1.64-2.15l1.65,2.11c0-0.02,0.92-0.42,1.12-0.58c0.11-0.09,0.19-0.12,0.24-0.09c0.02,0.01,0.05,0.04,0.05,0.11
	c0,0.02,0,0.05-0.01,0.09c-0.01,0.09-0.02,0.2,0.01,0.32c0.02,0.07,0.03,0.12,0.01,0.16c-0.03,0.05-0.11,0.06-0.32,0.08
	c-0.3,0.04-0.78,0.18-0.85,0.2c0.1,0.01,0.95,0.5,1.07,0.58c0.04,0.03,0.14,0.07,0.23,0.1c0.19,0.07,0.26,0.11,0.26,0.15l-0.09,0.06
	c-0.12,0.04-0.25,0.08-0.35,0.18c-0.03,0.03-0.05,0.08-0.07,0.11c-0.03,0.05-0.05,0.1-0.09,0.1c-0.05,0-0.11-0.05-0.21-0.17
	c-0.23-0.31-0.9-0.76-0.97-0.81c0.03,0.05,0,0.55,0.07,1l0.03,0.18c0.03,0.14,0.04,0.2,0.01,0.23
	C33.43,25.16,33.41,25.17,33.39,25.17"/>
<path d="M29.46,26.92l0.86-1.03c0.99,0.6,1.72,0.44,2.18-0.49c-1.48,0.25-2.18-1.1-2.1-4.04l1.11,1.73v-1.6l1.36,0.16l-3.58-3.83
	L29.46,26.92z"/>
<path d="M27.65,14.64v4.86l-5.52,4.53V11.97c0-0.93,0.19-1.56,0.58-1.89v2.51L27.65,14.64z"/>
<rect x="26.54" y="13.2" style="fill:#F6D728;" width="0.15" height="10.3"/>
<rect x="25.39" y="13.2" style="fill:#F6D728;" width="0.15" height="10.3"/>
<rect x="24.24" y="13.2" style="fill:#F6D728;" width="0.15" height="10.3"/>
<rect x="23.08" y="13.2" style="fill:#F6D728;" width="0.15" height="10.3"/>
<path d="M28.72,15.55c-3.71,0-5.27-1.19-6.06-2.1v-3.34C22.25,10,22.03,9.7,22.01,9.21c1.15,0.95,2.97-1.28,4.04,1.03
	c-0.58,1.15-1.73,1.03-2.14,0.37c-0.82,0.7-0.16,3.34,4.82,3.3V15.55z"/>
<path style="fill:#CA001C;" d="M27.36,23.63c0.29,0.37,0.04,0.7-0.21,0.82c0.08-0.25,0.04-0.48-0.12-0.7L27.36,23.63z"/>
<path d="M27.17,24.47c0.04-0.27,0-0.49-0.16-0.71c0.21,0.19,0.25,0.44,0.17,0.69c0.09-0.09,0.24-0.22,0.28-0.4
	c0.03-0.14-0.01-0.28-0.11-0.41l0.04-0.03c0.12,0.15,0.16,0.31,0.12,0.46C27.46,24.26,27.3,24.41,27.17,24.47"/>
<path style="fill:#CA001C;" d="M25.92,25.03c-0.03,0.17,0.05,0.37,0.25,0.62c-0.49-0.12-0.7-0.29-0.54-0.58L25.92,25.03z"/>
<path d="M26.19,25.63c-0.37-0.04-0.56-0.15-0.62-0.28c-0.04-0.09-0.02-0.18,0.04-0.29c-0.01,0.12-0.02,0.2,0.01,0.27
	c0.05,0.12,0.23,0.21,0.56,0.3c-0.22-0.21-0.31-0.43-0.28-0.6l0.05,0.01C25.92,25.19,26,25.39,26.19,25.63"/>
<path style="fill:#CA001C;" d="M24.27,24.41c-0.08,0.19-0.1,0.41-0.04,0.66c-0.37-0.33-0.5-0.78-0.21-0.87L24.27,24.41z"/>
<path d="M24.26,25.06c-0.3-0.21-0.45-0.51-0.41-0.71c0.02-0.09,0.08-0.15,0.17-0.18c-0.06,0.07-0.1,0.12-0.12,0.19
	c-0.04,0.18,0.11,0.47,0.35,0.68c-0.1-0.23-0.08-0.45,0-0.65l0.05,0.02C24.22,24.61,24.2,24.82,24.26,25.06"/>
<path style="fill:#CA001C;" d="M24.31,22.93c-0.14,0.03-0.28,0.16-0.41,0.41c-0.04-0.45,0.04-0.7,0.45-0.78L24.31,22.93z"/>
<path d="M23.92,23.35c-0.09-0.44-0.02-0.73,0.42-0.82c-0.35,0.12-0.47,0.32-0.42,0.8c0.1-0.26,0.24-0.4,0.38-0.43l0.01,0.05
	C24.19,22.98,24.06,23.11,23.92,23.35"/>
<path style="fill:#CA001C;" d="M27.94,21.57L26,23.34c0,0,0.74,0.16,1.03,0.16c0.29,0,0.54,0.08,0.45,0.16
	c-0.08,0.08-0.25,0.08-0.33,0.21C27.07,24,26.95,24.16,26.79,24c-0.16-0.16-0.74-0.33-0.74-0.33s0,0.95,0.04,1.07
	c0.04,0.12,0.17,0.37,0.08,0.37c-0.08,0-0.08-0.04-0.41,0c-0.33,0.04-0.29,0.13-0.21-0.37c0.08-0.49,0.04-1.03,0.04-1.03
	s-0.74,0.49-0.99,0.82c-0.25,0.33-0.21,0.08-0.33-0.04c-0.12-0.12-0.29-0.16-0.41-0.2c-0.12-0.04,0.33-0.17,0.45-0.25
	c0.12-0.08,1.07-0.62,1.07-0.62s-0.54-0.16-0.87-0.21c-0.33-0.04-0.33-0.04-0.29-0.21c0.04-0.16,0-0.33,0-0.41s0.04-0.16,0.25,0
	c0.21,0.16,1.15,0.58,1.15,0.58l1.61-2.14L27.94,21.57z"/>
<path d="M25.54,25.17c-0.02,0-0.04-0.01-0.05-0.02c-0.03-0.03-0.02-0.09,0.01-0.23l0.03-0.18c0.08-0.46,0.04-0.96,0.04-1.02
	c-0.03,0.06-0.71,0.52-0.94,0.83c-0.1,0.13-0.16,0.18-0.21,0.17c-0.04,0-0.07-0.05-0.09-0.1c-0.02-0.04-0.04-0.08-0.07-0.11
	c-0.1-0.11-0.24-0.15-0.35-0.19l-0.09-0.06c0-0.04,0.07-0.07,0.26-0.15c0.09-0.03,0.18-0.07,0.23-0.1c0.11-0.08,0.94-0.55,1.06-0.61
	c-0.09,0-0.55-0.13-0.84-0.17c-0.21-0.02-0.28-0.03-0.32-0.08c-0.02-0.04-0.01-0.08,0.01-0.16c0.03-0.11,0.02-0.23,0.01-0.32
	c0-0.04-0.01-0.07-0.01-0.09c0-0.07,0.03-0.1,0.05-0.11c0.05-0.03,0.13,0.01,0.24,0.09c0.2,0.16,1.14,0.57,1.15,0.57l1.58-2.13
	l-1.57,2.17c-0.07-0.01-0.98-0.41-1.19-0.57c-0.12-0.1-0.17-0.09-0.18-0.09c-0.02,0.09-0.02,0.12-0.02,0.15
	c0.01,0.09,0.02,0.21-0.01,0.33c-0.01,0.06-0.02,0.1-0.01,0.11c0.02,0.03,0.11,0.04,0.28,0.06c0.33,0.04,0.86,0.21,0.87,0.21
	c0,0.05-0.94,0.58-1.06,0.66c-0.05,0.03-0.14,0.07-0.24,0.11c-0.08,0.03-0.21,0.08-0.23,0.11c0.17,0.04,0.32,0.09,0.43,0.2
	c0.04,0.04,0.06,0.09,0.08,0.13c0.02,0.04,0.03,0.07,0.05,0.07c0.03-0.01,0.06-0.03,0.16-0.15c0.25-0.33,0.96-0.81,1-0.83
	c0.04,0.02,0.08,0.56,0,1.05l-0.03,0.19c-0.02,0.09-0.03,0.17-0.02,0.18c0.01,0.01,0.06,0,0.1-0.01l0.13-0.02
	c0.24-0.03,0.31-0.02,0.36-0.01c0.07-0.02,0.01-0.16-0.01-0.23l-0.04-0.1c-0.04-0.13-0.04-1.04-0.04-1.08
	c0.06-0.02,0.62,0.15,0.79,0.31c0.04,0.04,0.09,0.06,0.13,0.06c0.08-0.01,0.14-0.09,0.2-0.18c0.05-0.08,0.13-0.11,0.2-0.14
	c0.05-0.02,0.1-0.04,0.13-0.07c-0.01-0.06-0.19-0.12-0.43-0.12c-0.29,0-1.01-0.16-1.04-0.16l1.92-1.82l0.04,0.04l-1.93,1.77
	c0.06-0.02,0.74,0.13,1.01,0.13c0.21,0,0.45,0.05,0.49,0.13l0.01,0.02l-0.03,0.06c-0.04,0.04-0.09,0.06-0.14,0.08
	c-0.07,0.03-0.14,0.06-0.18,0.12c-0.07,0.1-0.14,0.19-0.24,0.2c-0.06,0.01-0.11-0.02-0.17-0.07c-0.16-0.16-0.72-0.32-0.73-0.33
	c0.03,0.24,0.04,0.94,0.07,1.04l0.04,0.1c0.06,0.15,0.09,0.24,0.06,0.28l-0.11,0.01c-0.05-0.01-0.11-0.02-0.34,0.01l-0.13,0.02
	C25.59,25.16,25.56,25.17,25.54,25.17"/>
<path d="M29.46,26.92l-0.87-1.03c-0.99,0.6-1.72,0.44-2.18-0.49c1.48,0.25,2.18-1.1,2.1-4.04l-1.11,1.73v-1.6l-1.36,0.16l3.58-3.83
	L29.46,26.92z"/>
</svg>
