<svg version="1.1" xmlns="http://www.w3.org/2000/svg" xmlns:xlink="http://www.w3.org/1999/xlink" x="0px" y="0px"
	 viewBox="0 0 58.93 34.37" style="enable-background:new 0 0 58.93 34.37;" xml:space="preserve">
<rect style="fill:#2D6C41;" width="58.92" height="34.37"/>
<rect y="18.62" style="fill:#FFFFFF;" width="58.92" height="2.86"/>
<rect y="15.76" width="58.92" height="2.86"/>
<rect y="12.89" style="fill:#F3D02F;" width="58.92" height="2.86"/>
<rect x="25.16" style="fill:#F3D02F;" width="2.87" height="34.37"/>
<rect x="28.03" width="2.87" height="34.37"/>
<rect x="30.9" style="fill:#FFFFFF;" width="2.86" height="34.37"/>
<path style="fill:#C20038;" d="M38.06,17.19c0,4.74-3.85,8.59-8.59,8.59c-4.75,0-8.59-3.85-8.59-8.59c0-4.75,3.85-8.59,8.59-8.59
	C34.21,8.59,38.06,12.44,38.06,17.19"/>
<path style="fill:#2D6C41;" d="M29.19,10.4c0-0.01,0.27-0.78,0.27-0.78l0.25,0.77c0,0,0.84,0.03,0.84,0.01
	c0-0.01-0.66,0.51-0.66,0.51s0.31,0.89,0.3,0.86c-0.01-0.03-0.73-0.53-0.73-0.53s-0.73,0.51-0.71,0.51c0.01,0,0.27-0.84,0.27-0.84
	l-0.65-0.49L29.19,10.4z"/>
<path d="M30.19,11.83l-0.02-0.04c-0.04-0.04-0.46-0.34-0.72-0.52c-0.15,0.13-0.64,0.47-0.68,0.5C28.74,11.7,28.9,11.22,29,10.9
	l-0.64-0.46l0.82-0.06c0-0.03,0.05-0.17,0.26-0.77l0.3,0.77c0.01-0.02,0.51,0,0.72,0c0.04,0,0.06,0,0.08,0l0.01,0l-0.01,0
	c0,0-0.01,0.01-0.01,0.02c0,0,0,0.01,0,0.01l0.01,0l-0.01,0c0,0.02-0.01,0.03-0.03,0.03c-0.12,0.13-0.46,0.39-0.6,0.5
	c0.22,0.58,0.29,0.76,0.31,0.82c0,0,0,0.01,0,0.01h0c0,0.02,0,0.03,0,0.03L30.19,11.83z M29.44,9.65c0,0.12-0.22,0.73-0.23,0.76
	l-0.84,0.04l0.67,0.44c-0.01,0.1-0.21,0.72-0.26,0.85c0.08-0.11,0.64-0.5,0.66-0.52c0.4,0.27,0.6,0.41,0.69,0.47
	c-0.08-0.22-0.27-0.77-0.27-0.77c0.06-0.07,0.43-0.36,0.6-0.48c-0.22,0-0.74-0.02-0.74-0.02L29.44,9.65z"/>
<path style="fill:#2D6C41;" d="M29.74,23.99c0,0.01-0.28,0.79-0.28,0.79L29.21,24c0,0-0.84-0.03-0.84-0.01
	c0,0.01,0.67-0.51,0.67-0.51s-0.31-0.89-0.3-0.86c0.01,0.03,0.73,0.53,0.73,0.53s0.73-0.51,0.71-0.51s-0.27,0.84-0.27,0.84
	l0.65,0.49L29.74,23.99z"/>
<path d="M29.46,24.86l-0.28-0.85c-0.01,0.02-0.52,0-0.73,0c-0.04,0-0.07,0-0.08,0c0,0,0-0.01,0.01-0.02c0-0.03,0.01-0.04,0.03-0.04
	c0.11-0.12,0.4-0.34,0.6-0.5c-0.22-0.58-0.29-0.76-0.3-0.82c0,0,0,0,0,0h0c-0.01-0.02,0-0.03,0-0.03c0.07,0.03,0.5,0.34,0.77,0.53
	c0.15-0.13,0.62-0.46,0.67-0.5l0.02-0.01l-0.02,0.01l0.02,0.02l-0.02-0.02c0,0.01,0,0.01,0,0.02l-0.01,0l0.01,0
	c0,0.13-0.14,0.55-0.23,0.84l0.64,0.46l-0.82,0.06c0,0.02-0.05,0.17-0.26,0.77L29.46,24.86z M28.47,23.96
	c0.22,0,0.74,0.02,0.74,0.02l0.25,0.71c0.07-0.19,0.24-0.67,0.25-0.7l0.84-0.04l-0.67-0.44c0.01-0.1,0.21-0.72,0.26-0.85
	c-0.08,0.11-0.63,0.5-0.66,0.52c-0.55-0.37-0.7-0.49-0.75-0.52c0.09,0.13,0.33,0.82,0.33,0.82C29.01,23.54,28.64,23.83,28.47,23.96"
	/>
<path style="fill:#2D6C41;" d="M33.46,12.34c0,0.01-0.28,0.79-0.28,0.79l-0.25-0.77c0,0-0.84-0.03-0.84-0.01
	c0,0.01,0.67-0.51,0.67-0.51s-0.31-0.89-0.3-0.86c0.01,0.02,0.73,0.53,0.73,0.53S33.91,11,33.89,11s-0.27,0.84-0.27,0.84l0.65,0.49
	L33.46,12.34z"/>
<path d="M33.18,13.22l-0.28-0.85c-0.01,0.02-0.52,0-0.72,0c-0.04,0-0.07,0-0.08,0c0-0.01,0-0.01,0.01-0.02
	c0-0.02,0.01-0.03,0.03-0.04c0.11-0.12,0.4-0.34,0.6-0.5c-0.22-0.58-0.29-0.76-0.3-0.82c0,0,0,0,0-0.01c0,0,0,0,0,0
	c-0.01-0.02,0-0.03,0-0.03c0.07,0.03,0.5,0.34,0.77,0.53c0.15-0.13,0.62-0.45,0.67-0.5l0.02-0.01l-0.02,0.01L33.89,11l-0.02-0.02
	c0,0.01,0,0.01,0,0.02l-0.01,0l0.01,0c0,0.13-0.14,0.55-0.23,0.84l0.64,0.46l-0.82,0.06c0,0.03-0.05,0.17-0.26,0.77L33.18,13.22z
	 M32.19,12.31c0.22,0,0.74,0.02,0.74,0.02l0.25,0.72c0.07-0.19,0.24-0.68,0.25-0.7l0.84-0.04l-0.67-0.44
	c0.01-0.11,0.21-0.72,0.26-0.85c-0.08,0.11-0.64,0.5-0.66,0.52c-0.55-0.37-0.7-0.49-0.75-0.53c0.09,0.13,0.33,0.82,0.33,0.82
	C32.72,11.89,32.35,12.19,32.19,12.31"/>
<path style="fill:#2D6C41;" d="M35.87,19.39c0,0.01-0.28,0.79-0.28,0.79l-0.25-0.77c0,0-0.84-0.03-0.84-0.01
	c0,0.01,0.66-0.51,0.66-0.51s-0.31-0.89-0.3-0.86c0.01,0.02,0.73,0.53,0.73,0.53s0.73-0.51,0.71-0.51s-0.27,0.84-0.27,0.84
	l0.65,0.49L35.87,19.39z"/>
<path d="M35.59,20.27l-0.27-0.85c-0.01,0.02-0.53,0-0.73,0c-0.04,0-0.07,0-0.08,0c0-0.01,0-0.01,0.01-0.02
	c0-0.03,0.01-0.04,0.03-0.04c0.11-0.11,0.4-0.34,0.6-0.5c-0.22-0.58-0.29-0.76-0.3-0.82c0,0,0,0,0-0.01c0,0,0,0,0,0
	c-0.01-0.02,0-0.03,0-0.03c0.07,0.03,0.5,0.34,0.77,0.53c0.15-0.13,0.62-0.46,0.67-0.5l0.02-0.01l-0.02,0.01l0.02,0.02h0l-0.02-0.02
	l0,0c0,0.01,0,0.01,0,0.02l-0.01,0l0.01,0c0,0.13-0.14,0.56-0.23,0.84l0.64,0.46l-0.82,0.06c0,0.03-0.05,0.17-0.26,0.77L35.59,20.27
	z M34.6,19.36c0.22,0,0.74,0.02,0.74,0.02l0.25,0.71c0.07-0.19,0.24-0.67,0.25-0.7l0.84-0.04l-0.67-0.44
	c0.01-0.1,0.21-0.72,0.26-0.85c-0.08,0.11-0.63,0.5-0.66,0.52c-0.55-0.37-0.7-0.49-0.75-0.53c0.09,0.13,0.33,0.82,0.33,0.82
	C35.14,18.94,34.77,19.23,34.6,19.36"/>
<path style="fill:#2D6C41;" d="M23.61,19.59c0,0.01-0.28,0.79-0.28,0.79l-0.25-0.77c0,0-0.84-0.02-0.84-0.01
	c0,0.01,0.66-0.51,0.66-0.51s-0.31-0.89-0.3-0.86c0.01,0.02,0.73,0.53,0.73,0.53s0.73-0.51,0.71-0.51s-0.28,0.84-0.28,0.84
	l0.65,0.49L23.61,19.59z"/>
<path d="M23.33,20.47l-0.28-0.85c-0.01,0.02-0.52,0-0.73,0c-0.04,0-0.07,0-0.08,0c0-0.01,0-0.01,0.01-0.02
	c0-0.02,0.01-0.03,0.03-0.04c0.11-0.11,0.4-0.34,0.6-0.5c-0.22-0.58-0.29-0.76-0.3-0.82c0,0,0,0,0-0.01c0,0,0,0,0,0
	c-0.01-0.02,0-0.03,0-0.03c0.07,0.03,0.5,0.34,0.77,0.53c0.15-0.13,0.62-0.46,0.67-0.5l0.02-0.01l-0.02,0.01l0.02,0.02h0l-0.02-0.02
	l0,0c0,0.01,0,0.01,0,0.02l-0.01,0l0.01,0c0,0.13-0.14,0.56-0.23,0.84l0.64,0.46l-0.82,0.06c0,0.03-0.05,0.17-0.26,0.77L23.33,20.47
	z M22.34,19.56c0.22,0,0.74,0.02,0.74,0.02l0.25,0.72c0.07-0.19,0.24-0.67,0.25-0.71l0.84-0.04l-0.67-0.44
	c0.01-0.1,0.21-0.72,0.26-0.85c-0.08,0.11-0.64,0.5-0.66,0.52c-0.55-0.37-0.7-0.49-0.75-0.52c0.09,0.13,0.33,0.82,0.33,0.82
	C22.88,19.14,22.51,19.44,22.34,19.56"/>
<path style="fill:#2D6C41;" d="M25.83,12.43c0,0.01-0.28,0.79-0.28,0.79l-0.25-0.77c0,0-0.84-0.02-0.84-0.01
	c0,0.01,0.66-0.51,0.66-0.51s-0.31-0.89-0.3-0.86c0.01,0.02,0.73,0.53,0.73,0.53s0.73-0.51,0.71-0.51c-0.01,0-0.27,0.84-0.27,0.84
	l0.65,0.5L25.83,12.43z"/>
<path d="M25.56,13.3l-0.28-0.85c-0.01,0.02-0.52,0-0.72,0h-0.08c0,0,0-0.01,0.01-0.02c0-0.02,0.01-0.03,0.03-0.04
	c0.11-0.11,0.4-0.34,0.6-0.5c-0.22-0.58-0.29-0.76-0.3-0.82c0,0,0-0.01,0-0.01c0,0,0,0,0,0c-0.01-0.02,0-0.03,0-0.03
	c0.07,0.03,0.5,0.34,0.77,0.53c0.15-0.13,0.62-0.46,0.67-0.5l0.02-0.01l-0.02,0.01l0.02,0.02l-0.02-0.02c0,0.01,0,0.01,0,0.02
	l-0.01,0l0.01,0c0,0.12-0.14,0.55-0.23,0.84l0.64,0.46l-0.82,0.06c0,0.03-0.05,0.17-0.26,0.77L25.56,13.3z M24.56,12.39
	c0.22,0,0.74,0.02,0.74,0.02l0.25,0.71c0.07-0.19,0.24-0.67,0.25-0.7l0.84-0.04l-0.67-0.44c0.01-0.1,0.21-0.72,0.26-0.85
	c-0.08,0.11-0.64,0.5-0.66,0.52c-0.55-0.37-0.7-0.48-0.75-0.52c0.09,0.13,0.33,0.82,0.33,0.82C25.1,11.98,24.73,12.27,24.56,12.39"
	/>
<path style="fill:#2D6C41;" d="M23.01,15c0-0.01,0.27-0.78,0.27-0.78l0.25,0.77c0,0,0.84,0.02,0.84,0.01c0-0.01-0.66,0.51-0.66,0.51
	s0.31,0.89,0.3,0.86c-0.01-0.02-0.73-0.53-0.73-0.53s-0.73,0.51-0.71,0.51c0.01,0,0.27-0.84,0.27-0.84l-0.65-0.49L23.01,15z"/>
<path d="M24,16.43l-0.02-0.04c-0.04-0.04-0.46-0.34-0.72-0.53c-0.15,0.13-0.64,0.47-0.68,0.5c-0.03-0.07,0.13-0.55,0.23-0.86
	l-0.64-0.46l0.82-0.06c0-0.03,0.05-0.17,0.26-0.77l0.3,0.77c0.01-0.02,0.52,0,0.72,0c0.04,0,0.06,0,0.07,0l0.01,0l-0.01,0l0,0.03
	l-0.01,0c0,0.02-0.01,0.02-0.03,0.03c-0.11,0.11-0.4,0.34-0.6,0.5c0.22,0.58,0.29,0.76,0.3,0.82c0,0,0,0,0,0.01l0,0
	c0.01,0.02,0,0.03,0,0.03L24,16.43z M23.26,14.25c0,0.12-0.22,0.73-0.23,0.76l-0.84,0.04l0.67,0.44c-0.01,0.1-0.21,0.72-0.26,0.85
	c0.08-0.11,0.64-0.5,0.66-0.52c0.4,0.28,0.6,0.41,0.69,0.47c-0.08-0.22-0.27-0.77-0.27-0.77c0.06-0.06,0.43-0.36,0.6-0.48
	c-0.22,0-0.74-0.02-0.74-0.02L23.26,14.25z"/>
<path style="fill:#2D6C41;" d="M25.4,22.04c0-0.01,0.28-0.78,0.28-0.78l0.25,0.77c0,0,0.84,0.03,0.84,0.01
	c0-0.01-0.66,0.51-0.66,0.51s0.31,0.89,0.3,0.86c-0.01-0.02-0.73-0.53-0.73-0.53s-0.73,0.51-0.71,0.51c0.01,0,0.27-0.84,0.27-0.84
	l-0.65-0.49L25.4,22.04z"/>
<path d="M26.4,23.46l-0.02-0.04c-0.04-0.04-0.46-0.34-0.72-0.53c-0.15,0.13-0.64,0.47-0.68,0.5c-0.03-0.07,0.13-0.55,0.23-0.87
	l-0.64-0.46l0.82-0.06c0-0.03,0.05-0.17,0.26-0.77l0.3,0.77c0.01-0.02,0.51,0,0.72,0h0.08l0.01,0l-0.01,0c0,0,0,0.01-0.01,0.02
	c0,0,0,0.01,0,0.01h0.01h-0.01c0,0.02-0.01,0.03-0.03,0.03c-0.12,0.13-0.46,0.39-0.6,0.5c0.22,0.58,0.29,0.76,0.3,0.82
	c0,0.01,0,0.01,0,0.01l0,0c0.01,0.02,0,0.03,0,0.03L26.4,23.46z M25.66,21.28c0,0.12-0.22,0.73-0.23,0.76l-0.84,0.04l0.67,0.44
	c-0.01,0.1-0.21,0.72-0.26,0.85c0.08-0.11,0.64-0.5,0.66-0.52c0.4,0.28,0.6,0.41,0.69,0.47c-0.08-0.22-0.27-0.77-0.27-0.77
	c0.06-0.07,0.43-0.36,0.59-0.48c-0.22,0-0.74-0.02-0.74-0.02L25.66,21.28z"/>
<path style="fill:#2D6C41;" d="M35.27,14.81c0-0.01,0.28-0.79,0.28-0.79l0.25,0.77c0,0,0.84,0.03,0.84,0.01
	c0-0.01-0.66,0.51-0.66,0.51s0.31,0.89,0.3,0.86c-0.01-0.03-0.73-0.53-0.73-0.53s-0.73,0.51-0.71,0.51c0.01,0,0.28-0.84,0.28-0.84
	l-0.65-0.49L35.27,14.81z"/>
<path d="M36.27,16.24l-0.02-0.04c-0.04-0.04-0.46-0.34-0.72-0.53c-0.15,0.13-0.64,0.47-0.68,0.5c-0.03-0.07,0.13-0.55,0.23-0.86
	l-0.64-0.46l0.82-0.06c0-0.03,0.05-0.17,0.26-0.77l0.3,0.77c0.01-0.02,0.51,0,0.72,0c0.04,0,0.06,0,0.08,0l0.01,0l-0.01,0
	c0,0,0,0.01-0.01,0.02c0,0,0,0.01,0,0.01h0.01h-0.01c0,0.02-0.01,0.03-0.03,0.03c-0.12,0.13-0.46,0.39-0.6,0.5
	c0.22,0.58,0.29,0.76,0.3,0.82c0,0,0,0,0,0.01h0c0.01,0.02,0,0.02,0,0.03L36.27,16.24z M35.53,14.06c0,0.12-0.22,0.73-0.23,0.76
	l-0.84,0.04l0.67,0.44c-0.01,0.1-0.21,0.72-0.26,0.85c0.08-0.11,0.64-0.5,0.66-0.52c0.4,0.27,0.6,0.41,0.69,0.47
	c-0.08-0.22-0.27-0.77-0.27-0.77c0.06-0.06,0.43-0.36,0.59-0.48c-0.22,0-0.74-0.02-0.74-0.02L35.53,14.06z"/>
<path style="fill:#2D6C41;" d="M33.04,21.97c0-0.01,0.28-0.79,0.28-0.79l0.25,0.77c0,0,0.84,0.03,0.84,0.01
	c0-0.01-0.66,0.51-0.66,0.51s0.31,0.89,0.3,0.86c-0.01-0.02-0.73-0.53-0.73-0.53s-0.73,0.51-0.71,0.51s0.27-0.84,0.27-0.84
	l-0.65-0.49L33.04,21.97z"/>
<path d="M34.04,23.4l-0.02-0.04c-0.04-0.04-0.46-0.34-0.72-0.53c-0.15,0.13-0.64,0.47-0.68,0.5c-0.03-0.07,0.13-0.55,0.23-0.86
	l-0.64-0.47l0.82-0.06c0-0.03,0.05-0.17,0.26-0.77l0.3,0.77c0.01-0.02,0.52,0,0.73,0h0.07l0.01,0l-0.01,0l0,0.03h-0.01
	c0,0.02-0.01,0.03-0.03,0.03c-0.11,0.12-0.4,0.34-0.6,0.5c0.22,0.58,0.29,0.76,0.31,0.82c0,0,0,0,0,0.01l0,0
	c0.01,0.02,0,0.02,0,0.03L34.04,23.4z M33.3,21.22c0,0.12-0.22,0.73-0.23,0.76l-0.84,0.04l0.67,0.44c-0.01,0.1-0.21,0.72-0.26,0.85
	c0.08-0.11,0.64-0.5,0.66-0.52c0.4,0.28,0.6,0.41,0.69,0.47c-0.08-0.22-0.27-0.77-0.27-0.77c0.06-0.06,0.43-0.36,0.59-0.48
	c-0.22,0-0.74-0.02-0.74-0.02L33.3,21.22z"/>
<path style="fill:#3D9546;" d="M23.68,15.31h0.04H23.68z"/>
<path style="fill:#3D9546;" d="M31.08,20.52h0.04H31.08z"/>
<path style="fill:#3D9546;" d="M28.92,28.79h0.04H28.92z"/>
<path style="fill:#3D9546;" d="M18.58,28.79h0.04H18.58z"/>
<path style="fill:#3D9546;" d="M16.69,20.31h0.04H16.69z"/>
<path style="fill:#3D9546;" d="M39.35,4.93h-0.04H39.35z"/>
<path style="fill:#3D9546;" d="M42.32,13.01h-0.04H42.32z"/>
<path style="fill:#3D9546;" d="M34.95,18.92h-0.04H34.95z"/>
<path style="fill:#3D9546;" d="M28.04,13.01h-0.04H28.04z"/>
<path style="fill:#3D9546;" d="M30.59,5.05h-0.04H30.59z"/>
<path style="fill:#2D6C41;" d="M30.46,16.93c0.28-0.03,0.59,1.08,0.69,2.47c0.1,1.39-0.05,2.55-0.33,2.58
	c-0.28,0.03-0.59-1.08-0.69-2.47C30.03,18.12,30.18,16.96,30.46,16.93"/>
<path d="M30.81,22.02c-0.35,0-0.62-1.29-0.71-2.5c-0.09-1.26,0.02-2.58,0.36-2.61c0.36,0,0.64,1.29,0.72,2.5
	c0.09,1.26-0.02,2.58-0.36,2.61L30.81,22.02z M30.47,16.96c-0.24,0.02-0.42,1.06-0.31,2.55c0.1,1.46,0.42,2.44,0.65,2.44v0.03
	l0.01-0.03c0.23-0.02,0.41-1.05,0.31-2.55C31.02,17.95,30.7,16.96,30.47,16.96"/>
<path style="fill:#2D6C41;" d="M30.96,16.93c0.3-0.03,0.62,1.07,0.72,2.47c0.1,1.4-0.06,2.55-0.36,2.58
	c-0.3,0.03-0.62-1.07-0.72-2.47C30.5,18.12,30.66,16.96,30.96,16.93"/>
<path d="M31.31,22.01c-0.36,0-0.65-1.29-0.74-2.5c-0.09-1.25,0.03-2.58,0.38-2.61c0.38,0,0.67,1.29,0.75,2.5
	c0.09,1.25-0.03,2.57-0.38,2.61L31.31,22.01z M30.98,16.96c-0.26,0.03-0.45,1.06-0.34,2.55c0.1,1.46,0.44,2.44,0.68,2.44v0.03
	l0.01-0.03c0.25-0.02,0.44-1.05,0.33-2.55C31.55,17.94,31.22,16.96,30.98,16.96"/>
<path style="fill:#2D6C41;" d="M30.71,16.8c0.24-0.02,0.52,1.21,0.63,2.75c0.11,1.54,0,2.81-0.24,2.84
	c-0.24,0.02-0.52-1.21-0.63-2.75C30.37,18.09,30.47,16.82,30.71,16.8"/>
<path d="M31.09,22.41c-0.3,0-0.56-1.43-0.65-2.77c-0.1-1.37-0.04-2.84,0.26-2.87c0.31,0,0.57,1.43,0.66,2.77
	C31.46,20.91,31.4,22.38,31.09,22.41L31.09,22.41z M30.72,16.83c-0.2,0.02-0.33,1.18-0.22,2.81c0.11,1.63,0.4,2.72,0.59,2.72v0.03
	l0-0.03c0.19-0.02,0.33-1.18,0.21-2.81C31.2,17.92,30.91,16.83,30.72,16.83"/>
<path style="fill:#904A15;" d="M26.93,20.77c0.44-0.02,0.25-0.25,0.47-0.38c0.22-0.13,0.54-0.04,0.63,0.11
	c0.09,0.16,0.02,0.31,0.14,0.31c0.12,0,3.43-0.14,3.55-0.01c0.12,0.13,0.14,0.39,0.01,0.49c-0.12,0.1-4.31,0.15-4.45,0.04
	C27.14,21.24,26.93,20.8,26.93,20.77"/>
<path d="M28.86,21.43c-0.69,0-1.52-0.01-1.6-0.07c-0.15-0.11-0.37-0.55-0.37-0.6c0.28-0.04,0.3-0.11,0.34-0.21
	c0.02-0.07,0.05-0.14,0.15-0.19c0.21-0.12,0.57-0.05,0.67,0.13c0.04,0.07,0.05,0.14,0.06,0.2c0.01,0.08,0.01,0.09,0.06,0.1
	c0.03,0,0.15,0,0.32-0.01c0.53-0.02,1.58-0.05,2.34-0.05c0.85,0,0.89,0.04,0.91,0.07c0.07,0.08,0.11,0.21,0.1,0.33
	c-0.01,0.09-0.04,0.16-0.09,0.2C31.66,21.4,29.73,21.43,28.86,21.43 M27.64,20.36c-0.08,0-0.16,0.02-0.23,0.06
	c-0.08,0.04-0.1,0.1-0.12,0.16c-0.04,0.1-0.08,0.21-0.36,0.22c0.04,0.01,0.24,0.43,0.37,0.52c0.04,0.03,0.48,0.06,1.56,0.06
	c1.38,0,2.77-0.05,2.86-0.1c0.04-0.03,0.07-0.09,0.07-0.16c0.01-0.11-0.03-0.21-0.09-0.28c-0.02-0.01-0.14-0.05-0.87-0.05
	c-0.76,0-1.81,0.04-2.34,0.05c-0.18,0.01-0.29,0.01-0.32,0.01c-0.1,0-0.11-0.07-0.11-0.15c-0.01-0.06-0.01-0.12-0.05-0.18
	C27.95,20.43,27.8,20.36,27.64,20.36"/>
<path style="fill:#F3D02F;" d="M29.27,21.09c-0.01,0.33,0.48,0.24,0.49,0.51c-0.01,0.29-0.82,0.02-0.83-0.52
	c0.03-0.53,0.82-0.8,0.83-0.49C29.77,20.85,29.28,20.76,29.27,21.09"/>
<path d="M29.59,21.76c-0.24,0-0.69-0.25-0.69-0.67c0.04-0.58,0.88-0.81,0.89-0.5c0,0.14-0.12,0.19-0.24,0.24
	c-0.13,0.06-0.25,0.11-0.26,0.26c0,0.15,0.11,0.2,0.24,0.26c0.12,0.05,0.25,0.11,0.25,0.25C29.78,21.7,29.71,21.76,29.59,21.76
	 M29.59,20.49c-0.21,0-0.61,0.23-0.64,0.6c0.01,0.37,0.42,0.6,0.64,0.6c0.06,0,0.13-0.02,0.13-0.09c0-0.11-0.1-0.15-0.21-0.2
	c-0.13-0.06-0.28-0.12-0.28-0.31c0-0.19,0.16-0.26,0.29-0.31c0.13-0.05,0.2-0.09,0.2-0.18C29.73,20.51,29.66,20.49,29.59,20.49"/>
<path style="fill:#F3D02F;" d="M29.56,21.1c-0.01,0.33,0.48,0.24,0.49,0.51c-0.02,0.29-0.82,0.02-0.83-0.52
	c0.03-0.54,0.82-0.8,0.83-0.49C30.06,20.85,29.57,20.77,29.56,21.1"/>
<path d="M29.88,21.76c-0.24,0-0.69-0.25-0.69-0.66c0.04-0.58,0.88-0.81,0.89-0.5c0,0.14-0.12,0.19-0.24,0.24
	c-0.13,0.06-0.25,0.11-0.26,0.26c0,0.15,0.11,0.2,0.24,0.26c0.12,0.05,0.25,0.11,0.25,0.25C30.07,21.7,30,21.76,29.88,21.76
	 M29.88,20.5c-0.21,0-0.61,0.23-0.64,0.6c0.01,0.37,0.42,0.6,0.64,0.6c0.06,0,0.13-0.02,0.13-0.09c0-0.11-0.1-0.15-0.21-0.2
	c-0.13-0.06-0.28-0.12-0.27-0.31c0-0.19,0.16-0.26,0.29-0.31c0.13-0.05,0.2-0.09,0.2-0.18C30.02,20.52,29.94,20.5,29.88,20.5"/>
<path style="fill:#F3D02F;" d="M29.87,21.09c-0.01,0.33,0.48,0.24,0.49,0.51c-0.01,0.29-0.82,0.02-0.83-0.52
	c0.03-0.54,0.82-0.8,0.83-0.49C30.37,20.84,29.88,20.75,29.87,21.09"/>
<path d="M30.19,21.75c-0.24,0-0.69-0.25-0.69-0.66c0.04-0.57,0.88-0.81,0.89-0.5c0,0.14-0.12,0.19-0.24,0.24
	c-0.13,0.05-0.25,0.11-0.26,0.26c0,0.15,0.11,0.2,0.24,0.26c0.12,0.05,0.25,0.1,0.25,0.25C30.38,21.69,30.31,21.75,30.19,21.75
	 M30.19,20.49c-0.21,0-0.61,0.23-0.64,0.6c0.01,0.37,0.42,0.61,0.64,0.61c0.06,0,0.13-0.02,0.13-0.09c0-0.11-0.1-0.15-0.21-0.2
	c-0.13-0.05-0.28-0.12-0.27-0.31c0-0.19,0.16-0.26,0.29-0.31c0.13-0.05,0.2-0.09,0.2-0.18C30.33,20.5,30.25,20.49,30.19,20.49"/>
<path style="fill:#F3D02F;" d="M30.16,21.09c-0.01,0.33,0.48,0.24,0.49,0.51c-0.01,0.29-0.82,0.02-0.83-0.52
	c0.03-0.53,0.82-0.8,0.83-0.49C30.66,20.84,30.16,20.76,30.16,21.09"/>
<path d="M30.48,21.75c-0.24,0-0.69-0.25-0.7-0.66c0.04-0.58,0.88-0.81,0.89-0.5c0,0.14-0.12,0.19-0.24,0.24
	c-0.13,0.06-0.25,0.11-0.26,0.26c0,0.15,0.11,0.2,0.24,0.26c0.12,0.05,0.25,0.1,0.25,0.25C30.67,21.7,30.6,21.75,30.48,21.75
	 M30.48,20.49c-0.21,0-0.61,0.23-0.64,0.6c0.01,0.37,0.42,0.61,0.64,0.61c0.06,0,0.13-0.02,0.13-0.09c0-0.11-0.1-0.15-0.21-0.2
	c-0.13-0.05-0.28-0.12-0.27-0.31c0.01-0.19,0.16-0.26,0.29-0.31c0.13-0.05,0.2-0.09,0.2-0.18C30.62,20.51,30.54,20.49,30.48,20.49"
	/>
<path style="fill:#904A15;" d="M31.54,20.76c0.15,0,0.28,0.13,0.27,0.29c0,0.16-0.13,0.28-0.29,0.28c-0.15,0-0.28-0.13-0.27-0.29
	C31.26,20.89,31.39,20.76,31.54,20.76"/>
<path d="M31.53,21.36L31.53,21.36c-0.09,0-0.16-0.04-0.22-0.09c-0.06-0.06-0.09-0.14-0.09-0.22c0-0.17,0.14-0.31,0.31-0.31
	c0.09,0,0.16,0.03,0.22,0.09c0.06,0.06,0.09,0.14,0.09,0.23C31.84,21.22,31.7,21.36,31.53,21.36 M31.54,20.79
	c-0.14,0-0.25,0.11-0.26,0.25c0,0.07,0.02,0.13,0.07,0.18c0.05,0.05,0.11,0.07,0.17,0.07l0,0.03V21.3c0.14,0,0.25-0.11,0.25-0.25
	c0-0.07-0.02-0.14-0.07-0.18C31.67,20.82,31.6,20.79,31.54,20.79"/>
<path style="fill:#2D6C41;" d="M29.8,19.55c0.14-0.02,0.27,0.21,0.31,0.51c0.03,0.3-0.05,0.56-0.19,0.58
	c-0.14,0.02-0.27-0.21-0.31-0.51C29.58,19.83,29.66,19.57,29.8,19.55"/>
<path d="M29.9,20.67c-0.15,0-0.29-0.23-0.32-0.54c-0.04-0.32,0.06-0.59,0.21-0.62h0c0.17,0,0.3,0.23,0.34,0.54
	c0.03,0.32-0.06,0.59-0.21,0.62H29.9z M29.81,19.58c-0.12,0.02-0.21,0.24-0.18,0.56c0.03,0.3,0.16,0.48,0.26,0.48v0.03l0.01-0.03
	c0.11-0.02,0.2-0.24,0.16-0.56C30.04,19.76,29.91,19.58,29.81,19.58"/>
<path style="fill:#2D6C41;" d="M29.38,19.52c0.14-0.02,0.27,0.21,0.31,0.51c0.03,0.3-0.05,0.56-0.19,0.58
	c-0.14,0.02-0.27-0.21-0.31-0.51C29.15,19.8,29.24,19.54,29.38,19.52"/>
<path d="M29.48,20.64c-0.15,0-0.29-0.23-0.32-0.54c-0.04-0.32,0.06-0.59,0.21-0.62h0c0.17,0,0.3,0.23,0.34,0.54
	c0.03,0.32-0.06,0.59-0.21,0.62H29.48z M29.39,19.55c-0.12,0.02-0.21,0.24-0.18,0.56c0.03,0.3,0.16,0.48,0.26,0.48v0.03l0.01-0.03
	c0.11-0.02,0.2-0.24,0.16-0.56C29.62,19.73,29.49,19.55,29.39,19.55"/>
<path style="fill:#2D6C41;" d="M29.07,18.98c0.14-0.02,0.27,0.21,0.31,0.51c0.03,0.3-0.05,0.56-0.19,0.58
	c-0.14,0.02-0.27-0.21-0.31-0.51C28.85,19.26,28.94,19,29.07,18.98"/>
<path d="M29.17,20.1c-0.15,0-0.29-0.23-0.32-0.54c-0.03-0.32,0.06-0.59,0.21-0.61h0c0.17,0,0.3,0.23,0.34,0.53
	c0.04,0.32-0.06,0.59-0.21,0.62L29.17,20.1z M29.09,19.01c-0.12,0.02-0.21,0.24-0.18,0.55c0.03,0.3,0.16,0.48,0.26,0.48v0.03
	l0.01-0.03c0.11-0.02,0.2-0.24,0.17-0.55C29.32,19.19,29.19,19.01,29.09,19.01"/>
<path style="fill:#2D6C41;" d="M29.5,18.9c0.13-0.02,0.27,0.23,0.3,0.56c0.04,0.33-0.04,0.62-0.17,0.64
	c-0.13,0.02-0.27-0.23-0.3-0.56C29.29,19.21,29.36,18.92,29.5,18.9"/>
<path d="M29.61,20.13c-0.14,0-0.28-0.25-0.32-0.59c-0.04-0.35,0.05-0.65,0.2-0.67h0c0.16,0,0.3,0.25,0.33,0.59
	c0.04,0.35-0.05,0.65-0.2,0.67H29.61z M29.51,18.93c-0.11,0.02-0.2,0.27-0.16,0.61c0.03,0.33,0.16,0.54,0.26,0.54v0.03l0.01-0.03
	c0.1-0.02,0.19-0.27,0.15-0.61C29.73,19.14,29.61,18.93,29.51,18.93"/>
<path style="fill:#3D9546;" d="M30.09,18.94c0.13-0.02,0.26,0.22,0.3,0.53c0.03,0.31-0.05,0.58-0.18,0.6
	c-0.13,0.02-0.26-0.22-0.3-0.53C29.88,19.23,29.96,18.96,30.09,18.94"/>
<path d="M30.19,20.1c-0.14,0-0.28-0.24-0.31-0.56c-0.04-0.33,0.05-0.61,0.2-0.63h0c0.16,0,0.3,0.24,0.33,0.55
	c0.04,0.33-0.05,0.61-0.2,0.63L30.19,20.1z M30.1,18.97c-0.11,0.02-0.2,0.25-0.16,0.57c0.03,0.31,0.16,0.5,0.25,0.5v0.03l0.01-0.03
	c0.1-0.02,0.19-0.25,0.15-0.57C30.32,19.16,30.2,18.97,30.1,18.97"/>
<path style="fill:#3D9546;" d="M29.76,18.75c0.13-0.02,0.26,0.22,0.3,0.53c0.03,0.31-0.05,0.58-0.18,0.6
	c-0.13,0.02-0.26-0.22-0.3-0.53C29.55,19.04,29.63,18.77,29.76,18.75"/>
<path d="M29.87,19.91c-0.14,0-0.28-0.24-0.31-0.56c-0.04-0.33,0.05-0.61,0.2-0.63h0c0.16,0,0.3,0.24,0.33,0.55
	c0.04,0.33-0.05,0.61-0.2,0.63L29.87,19.91z M29.78,18.77c-0.11,0.02-0.2,0.25-0.17,0.57c0.03,0.31,0.16,0.5,0.26,0.5v0.03
	l0.01-0.03c0.1-0.01,0.19-0.25,0.15-0.57C30,18.97,29.88,18.77,29.78,18.77"/>
<path style="fill:#3D9546;" d="M29.36,18.47c0.13-0.02,0.26,0.22,0.3,0.53c0.03,0.31-0.04,0.58-0.18,0.6
	c-0.13,0.02-0.27-0.22-0.3-0.53C29.15,18.75,29.23,18.49,29.36,18.47"/>
<path d="M29.46,19.63c-0.14,0-0.28-0.24-0.31-0.56c-0.04-0.33,0.05-0.61,0.2-0.63h0c0.16,0,0.3,0.24,0.33,0.55
	c0.04,0.33-0.05,0.61-0.2,0.64H29.46z M29.37,18.49c-0.11,0.02-0.2,0.25-0.17,0.57c0.03,0.31,0.16,0.51,0.25,0.51v0.03l0.01-0.03
	c0.1-0.02,0.19-0.25,0.15-0.57C29.59,18.69,29.47,18.49,29.37,18.49"/>
<path style="fill:#2D6C41;" d="M28.98,18.3c0.13-0.02,0.27,0.22,0.3,0.53c0.03,0.31-0.05,0.58-0.18,0.6
	c-0.13,0.02-0.26-0.22-0.3-0.53C28.77,18.58,28.85,18.32,28.98,18.3"/>
<path d="M29.08,19.46c-0.14,0-0.28-0.24-0.31-0.56c-0.04-0.33,0.05-0.61,0.2-0.63h0c0.16,0,0.3,0.24,0.33,0.55
	c0.04,0.33-0.05,0.61-0.2,0.63L29.08,19.46z M28.99,18.32c-0.11,0.02-0.2,0.25-0.17,0.57c0.03,0.31,0.16,0.5,0.25,0.5v0.03
	l0.01-0.03c0.1-0.02,0.19-0.25,0.15-0.57C29.21,18.52,29.09,18.32,28.99,18.32"/>
<path style="fill:#8D5BC5;" d="M28.62,14.17c0,0-0.84,0.73-0.75,2.7c0.11,1.98,1.85,2.92,1.85,2.92s0.45-0.56,0.4-2.16
	c-0.13-2.33-0.95-3.36-0.95-3.36L28.62,14.17z"/>
<path d="M29.74,19.82l-0.02-0.01c-0.02-0.01-1.76-0.96-1.87-2.94c-0.09-1.96,0.75-2.72,0.76-2.72l0.58,0.09
	c0.03,0.02,0.85,1.07,0.98,3.39c0.05,1.59-0.38,2.15-0.4,2.18L29.74,19.82z M28.61,14.2c0.01,0-0.8,0.74-0.71,2.67
	c0.1,1.82,1.62,2.76,1.82,2.88c0.07-0.11,0.42-0.72,0.37-2.12c-0.12-2.29-0.94-3.33-0.94-3.34L28.61,14.2z"/>
<path style="fill:#2D6C41;" d="M30.55,19.61c0.14,0,0.23,0.25,0.21,0.56c-0.02,0.3-0.15,0.55-0.29,0.54c-0.14,0-0.23-0.25-0.21-0.56
	C30.28,19.85,30.41,19.61,30.55,19.61"/>
<path d="M30.47,20.74L30.47,20.74c-0.05,0-0.09-0.02-0.13-0.06c-0.09-0.1-0.13-0.3-0.12-0.52c0.02-0.32,0.16-0.57,0.31-0.57
	c0.05,0,0.09,0.02,0.13,0.06c0.09,0.1,0.13,0.3,0.12,0.52C30.76,20.49,30.63,20.74,30.47,20.74 M30.55,19.64
	c-0.11,0-0.24,0.21-0.26,0.51c-0.01,0.21,0.03,0.39,0.1,0.48c0.03,0.03,0.05,0.04,0.08,0.04l0,0.03v-0.03
	c0.11,0,0.24-0.21,0.26-0.51c0.01-0.21-0.03-0.39-0.1-0.48C30.6,19.66,30.58,19.64,30.55,19.64"/>
<path style="fill:#2D6C41;" d="M30.14,19.51c0.14,0,0.23,0.25,0.21,0.56c-0.02,0.3-0.15,0.55-0.29,0.54c-0.14,0-0.23-0.25-0.21-0.56
	C29.87,19.74,30,19.5,30.14,19.51"/>
<path d="M30.06,20.63L30.06,20.63c-0.05,0-0.09-0.02-0.13-0.06c-0.09-0.1-0.13-0.3-0.12-0.53c0.02-0.32,0.16-0.57,0.31-0.57
	c0.05,0,0.09,0.02,0.13,0.06c0.09,0.1,0.13,0.3,0.12,0.52C30.36,20.38,30.22,20.63,30.06,20.63 M30.14,19.54
	c-0.11,0-0.24,0.21-0.26,0.51c-0.01,0.21,0.03,0.4,0.1,0.48c0.03,0.03,0.05,0.04,0.08,0.04l0,0.03v-0.03c0.11,0,0.24-0.21,0.26-0.51
	c0.01-0.21-0.03-0.4-0.1-0.48C30.19,19.55,30.17,19.54,30.14,19.54"/>
<path style="fill:#2D6C41;" d="M29.94,18.92c0.14,0,0.23,0.25,0.21,0.56c-0.02,0.3-0.15,0.55-0.29,0.54c-0.14,0-0.23-0.25-0.21-0.56
	C29.67,19.16,29.8,18.92,29.94,18.92"/>
<path d="M29.86,20.05L29.86,20.05c-0.05,0-0.09-0.02-0.13-0.06c-0.09-0.1-0.13-0.3-0.12-0.53c0.02-0.32,0.16-0.57,0.31-0.57
	c0.05,0,0.09,0.02,0.13,0.06c0.09,0.1,0.13,0.3,0.12,0.53C30.16,19.8,30.02,20.05,29.86,20.05 M29.94,18.95
	c-0.11,0-0.24,0.21-0.26,0.51c-0.01,0.21,0.03,0.4,0.1,0.48c0.03,0.03,0.05,0.04,0.08,0.04l0,0.03v-0.03c0.11,0,0.24-0.21,0.26-0.52
	c0.01-0.2-0.03-0.39-0.1-0.48C29.99,18.97,29.97,18.95,29.94,18.95"/>
<path style="fill:#2D6C41;" d="M30.37,18.92c0.13,0,0.22,0.28,0.2,0.61c-0.02,0.33-0.15,0.6-0.29,0.6c-0.13,0-0.22-0.28-0.2-0.61
	C30.11,19.18,30.24,18.91,30.37,18.92"/>
<path d="M30.28,20.16L30.28,20.16c-0.04,0-0.08-0.02-0.11-0.06c-0.09-0.1-0.14-0.33-0.12-0.59c0.03-0.45,0.27-0.73,0.42-0.57
	c0.09,0.1,0.14,0.33,0.12,0.59C30.57,19.88,30.43,20.16,30.28,20.16 M30.37,18.95c-0.1,0-0.23,0.23-0.26,0.57
	c-0.02,0.24,0.02,0.46,0.1,0.55c0.02,0.02,0.04,0.03,0.07,0.03l0,0.03V20.1c0.1,0,0.23-0.23,0.25-0.57c0.02-0.24-0.02-0.46-0.1-0.54
	C30.41,18.96,30.39,18.95,30.37,18.95"/>
<path style="fill:#2D6C41;" d="M30.94,19.06c0.13,0,0.22,0.26,0.2,0.57c-0.02,0.31-0.15,0.56-0.28,0.56c-0.13,0-0.22-0.26-0.2-0.57
	C30.69,19.31,30.81,19.06,30.94,19.06"/>
<path d="M30.86,20.23L30.86,20.23c-0.04,0-0.08-0.02-0.11-0.06c-0.09-0.1-0.13-0.31-0.12-0.55c0.02-0.33,0.16-0.59,0.31-0.59
	c0.04,0,0.08,0.02,0.12,0.06c0.09,0.1,0.13,0.31,0.12,0.55C31.15,19.97,31.01,20.23,30.86,20.23 M30.94,19.09
	c-0.1,0-0.23,0.22-0.25,0.54c-0.02,0.22,0.02,0.42,0.1,0.5c0.02,0.02,0.05,0.04,0.07,0.04l0,0.03v-0.03c0.1,0,0.23-0.21,0.25-0.54
	c0.02-0.22-0.02-0.42-0.1-0.5C30.99,19.11,30.97,19.09,30.94,19.09"/>
<path style="fill:#2D6C41;" d="M30.66,18.81c0.13,0,0.22,0.26,0.2,0.57c-0.02,0.31-0.15,0.56-0.28,0.56c-0.13,0-0.22-0.26-0.2-0.57
	C30.4,19.06,30.53,18.81,30.66,18.81"/>
<path d="M30.58,19.98L30.58,19.98c-0.04,0-0.08-0.02-0.11-0.06c-0.09-0.1-0.13-0.31-0.12-0.55c0.02-0.33,0.16-0.59,0.31-0.59
	c0.04,0,0.08,0.02,0.12,0.06c0.09,0.1,0.13,0.31,0.12,0.55C30.86,19.72,30.73,19.98,30.58,19.98 M30.66,18.84
	c-0.1,0-0.23,0.22-0.25,0.54c-0.02,0.22,0.02,0.42,0.1,0.5c0.02,0.02,0.05,0.04,0.07,0.04l0,0.03v-0.03c0.1,0,0.23-0.21,0.25-0.53
	c0.02-0.22-0.02-0.42-0.1-0.51C30.71,18.86,30.68,18.85,30.66,18.84"/>
<path style="fill:#2D6C41;" d="M30.31,18.47c0.13,0,0.22,0.26,0.2,0.57c-0.02,0.31-0.15,0.56-0.28,0.56c-0.13,0-0.22-0.26-0.2-0.57
	C30.05,18.71,30.18,18.46,30.31,18.47"/>
<path d="M30.23,19.63L30.23,19.63c-0.04,0-0.08-0.02-0.11-0.06c-0.09-0.1-0.13-0.31-0.12-0.55c0.02-0.33,0.16-0.59,0.31-0.59
	c0.04,0,0.08,0.02,0.12,0.06c0.09,0.1,0.13,0.31,0.12,0.55C30.51,19.37,30.38,19.63,30.23,19.63 M30.31,18.49
	c-0.1,0-0.23,0.22-0.25,0.53c-0.02,0.22,0.02,0.42,0.1,0.51c0.02,0.03,0.05,0.04,0.07,0.04l0,0.03v-0.03c0.1,0,0.23-0.21,0.25-0.53
	c0.02-0.22-0.02-0.42-0.1-0.51C30.36,18.51,30.33,18.5,30.31,18.49"/>
<path style="fill:#2D6C41;" d="M29.97,18.23c0.13,0,0.22,0.26,0.2,0.57c-0.02,0.32-0.15,0.57-0.28,0.56s-0.22-0.26-0.2-0.57
	C29.71,18.48,29.83,18.23,29.97,18.23"/>
<path d="M29.89,19.39L29.89,19.39c-0.04,0-0.08-0.02-0.11-0.06c-0.09-0.1-0.13-0.31-0.12-0.55c0.02-0.34,0.16-0.59,0.31-0.59
	c0.04,0,0.08,0.02,0.12,0.06c0.09,0.1,0.13,0.31,0.12,0.55C30.17,19.14,30.04,19.39,29.89,19.39 M29.97,18.26
	c-0.1,0-0.23,0.22-0.25,0.54c-0.02,0.22,0.02,0.42,0.1,0.5c0.02,0.03,0.05,0.04,0.07,0.04l0,0.03v-0.03c0.1,0,0.23-0.21,0.25-0.53
	c0.02-0.22-0.02-0.42-0.1-0.5C30.01,18.27,29.99,18.26,29.97,18.26"/>
<path style="fill:#C20038;" d="M29.54,15.56c0.36-0.14,1.04,0.64,1.52,1.74c0.47,1.11,0.56,2.11,0.2,2.25
	c-0.36,0.14-1.04-0.64-1.52-1.74C29.26,16.71,29.18,15.7,29.54,15.56"/>
<path d="M31.17,19.6c-0.4,0-1.01-0.75-1.45-1.78c-0.38-0.88-0.52-1.72-0.36-2.1c0.04-0.1,0.1-0.16,0.18-0.19
	c0.38-0.15,1.07,0.64,1.55,1.76c0.38,0.87,0.52,1.72,0.36,2.1c-0.04,0.1-0.1,0.16-0.18,0.19C31.24,19.59,31.2,19.6,31.17,19.6
	 M29.63,15.57c-0.03,0-0.06,0-0.08,0.01c-0.06,0.03-0.11,0.08-0.15,0.16c-0.15,0.37-0.01,1.19,0.36,2.06
	c0.46,1.07,1.14,1.86,1.48,1.73c0.06-0.03,0.11-0.08,0.15-0.16c0.15-0.37,0.01-1.19-0.36-2.06C30.61,16.32,30.01,15.57,29.63,15.57"
	/>
<path style="fill:#3D9546;" d="M29.86,15.24c0.17,0,0.31,0.13,0.3,0.28c0,0.15-0.14,0.27-0.31,0.27c-0.17,0-0.31-0.13-0.3-0.28
	C29.55,15.36,29.69,15.24,29.86,15.24"/>
<path d="M29.85,15.82L29.85,15.82c-0.19-0.01-0.34-0.14-0.34-0.31c0-0.16,0.15-0.3,0.34-0.3c0.19,0,0.34,0.14,0.34,0.31
	C30.19,15.68,30.04,15.82,29.85,15.82 M29.86,15.27c-0.16,0-0.28,0.11-0.28,0.24c0,0.14,0.12,0.25,0.28,0.25l0.01,0.03v-0.03
	c0.15,0,0.28-0.11,0.28-0.24C30.14,15.39,30.01,15.27,29.86,15.27"/>
<path style="fill:#3D9546;" d="M30.09,14.86c0.15,0,0.27,0.13,0.27,0.28c0,0.15-0.13,0.27-0.28,0.27c-0.15,0-0.27-0.13-0.27-0.28
	C29.81,14.97,29.94,14.85,30.09,14.86"/>
<path d="M30.09,15.43L30.09,15.43c-0.09,0-0.16-0.04-0.22-0.09c-0.06-0.06-0.09-0.13-0.09-0.21c0-0.16,0.14-0.3,0.31-0.3
	c0.09,0,0.16,0.04,0.22,0.09c0.06,0.06,0.09,0.13,0.09,0.21C30.39,15.3,30.25,15.43,30.09,15.43 M30.09,14.89
	c-0.14,0-0.25,0.11-0.25,0.24c0,0.07,0.02,0.13,0.07,0.17c0.05,0.05,0.11,0.07,0.18,0.07l0,0.03v-0.03c0.14,0,0.25-0.11,0.25-0.24
	c0-0.07-0.02-0.13-0.07-0.18C30.22,14.91,30.16,14.89,30.09,14.89"/>
<path style="fill:#3D9546;" d="M29.72,14.85c0.15,0,0.27,0.13,0.27,0.28c0,0.15-0.13,0.27-0.28,0.27c-0.15,0-0.27-0.13-0.27-0.28
	C29.44,14.97,29.57,14.85,29.72,14.85"/>
<path d="M29.71,15.42L29.71,15.42c-0.17,0-0.31-0.14-0.31-0.31c0-0.16,0.14-0.3,0.31-0.3c0.09,0,0.16,0.04,0.22,0.09
	c0.06,0.06,0.09,0.14,0.09,0.21C30.02,15.29,29.88,15.42,29.71,15.42 M29.72,14.88c-0.14,0-0.25,0.11-0.25,0.24
	c0,0.13,0.11,0.25,0.24,0.25l0,0.03v-0.03c0.14,0,0.25-0.11,0.25-0.24c0-0.06-0.02-0.13-0.07-0.17
	C29.85,14.9,29.78,14.88,29.72,14.88z"/>
<path style="fill:#2D6C41;" d="M29.8,14.58c0.16,0,0.29,0.12,0.28,0.26c0,0.14-0.13,0.25-0.29,0.25c-0.16,0-0.29-0.12-0.29-0.26
	C29.51,14.69,29.64,14.58,29.8,14.58"/>
<path d="M29.8,15.12L29.8,15.12c-0.1,0-0.18-0.04-0.24-0.1c-0.05-0.05-0.08-0.12-0.08-0.19c0-0.16,0.14-0.28,0.32-0.28
	c0.1,0,0.18,0.04,0.24,0.1c0.05,0.05,0.08,0.12,0.08,0.19C30.11,15,29.97,15.12,29.8,15.12 M29.8,14.61c-0.15,0-0.26,0.1-0.27,0.22
	c0,0.05,0.02,0.11,0.06,0.15c0.05,0.05,0.12,0.08,0.19,0.08l0.01,0.03v-0.03c0.14,0,0.26-0.1,0.26-0.22c0-0.06-0.02-0.11-0.06-0.15
	C29.95,14.64,29.88,14.61,29.8,14.61"/>
<path style="fill:#2D6C41;" d="M29.77,14.26c0.16,0,0.29,0.12,0.28,0.26c0,0.14-0.13,0.25-0.29,0.25c-0.16,0-0.29-0.12-0.29-0.26
	C29.48,14.37,29.61,14.26,29.77,14.26"/>
<path d="M29.76,14.8L29.76,14.8c-0.18-0.01-0.32-0.14-0.32-0.29c0-0.16,0.14-0.28,0.32-0.28c0.18,0,0.32,0.13,0.32,0.29
	C30.08,14.68,29.94,14.8,29.76,14.8 M29.77,14.29c-0.15,0-0.26,0.1-0.27,0.23c0,0.12,0.11,0.23,0.26,0.23l0.01,0.03v-0.03
	c0.14,0,0.26-0.1,0.26-0.22C30.03,14.39,29.91,14.29,29.77,14.29z"/>
<path style="fill:#2D6C41;" d="M29.36,14.63c0.15,0,0.27,0.13,0.27,0.28c0,0.15-0.13,0.27-0.28,0.27c-0.15,0-0.27-0.13-0.27-0.28
	C29.08,14.75,29.21,14.63,29.36,14.63"/>
<path d="M29.36,15.21L29.36,15.21c-0.09,0-0.16-0.04-0.22-0.09c-0.06-0.06-0.09-0.14-0.09-0.22c0-0.16,0.14-0.29,0.31-0.29
	c0.09,0,0.16,0.03,0.22,0.09c0.06,0.06,0.09,0.14,0.09,0.21C29.66,15.07,29.52,15.21,29.36,15.21 M29.36,14.66
	c-0.14,0-0.25,0.11-0.25,0.24c0,0.06,0.02,0.13,0.07,0.17c0.05,0.05,0.11,0.07,0.18,0.07l0,0.03v-0.03c0.13,0,0.25-0.11,0.25-0.24
	c0-0.06-0.02-0.13-0.07-0.17C29.49,14.69,29.43,14.66,29.36,14.66"/>
<path style="fill:#2D6C41;" d="M29.44,14.29c0.15,0,0.27,0.13,0.27,0.27c0,0.15-0.13,0.27-0.28,0.26c-0.15,0-0.28-0.13-0.27-0.27
	C29.17,14.4,29.29,14.28,29.44,14.29"/>
<path d="M29.44,14.85L29.44,14.85c-0.17,0-0.31-0.14-0.31-0.3c0-0.16,0.14-0.29,0.31-0.29c0.17,0,0.31,0.14,0.31,0.3
	C29.74,14.72,29.61,14.85,29.44,14.85 M29.44,14.32c-0.14,0-0.25,0.1-0.25,0.23c0,0.13,0.11,0.24,0.24,0.24l0,0.03v-0.03
	c0.13,0,0.25-0.1,0.25-0.23C29.69,14.43,29.58,14.32,29.44,14.32"/>
<path style="fill:#2D6C41;" d="M28.99,14.29c0.17,0,0.31,0.13,0.3,0.28c0,0.15-0.14,0.27-0.31,0.27c-0.17,0-0.31-0.13-0.3-0.28
	C28.68,14.41,28.82,14.29,28.99,14.29"/>
<path d="M28.98,14.86L28.98,14.86c-0.1,0-0.19-0.04-0.26-0.11c-0.05-0.05-0.08-0.13-0.08-0.2c0-0.16,0.15-0.3,0.34-0.3
	c0.19,0,0.34,0.14,0.34,0.31C29.32,14.73,29.17,14.86,28.98,14.86 M28.99,14.32c-0.16,0-0.28,0.11-0.29,0.24
	c0,0.06,0.02,0.11,0.07,0.16c0.05,0.05,0.13,0.09,0.21,0.09l0.01,0.03V14.8c0.15,0,0.28-0.1,0.28-0.24
	C29.27,14.43,29.14,14.32,28.99,14.32"/>
<path style="fill:#2D6C41;" d="M29.56,13.85c0.16,0,0.29,0.12,0.28,0.26c0,0.14-0.13,0.25-0.29,0.25c-0.16,0-0.29-0.12-0.28-0.26
	C29.26,13.96,29.39,13.85,29.56,13.85"/>
<path d="M29.55,14.4L29.55,14.4c-0.1,0-0.18-0.04-0.24-0.1c-0.05-0.05-0.08-0.12-0.08-0.19c0-0.16,0.14-0.28,0.32-0.28
	c0.18,0,0.32,0.14,0.32,0.29C29.87,14.27,29.72,14.4,29.55,14.4 M29.56,13.88c-0.15,0-0.26,0.1-0.27,0.22
	c0,0.05,0.02,0.11,0.06,0.15c0.05,0.05,0.12,0.08,0.2,0.08l0.01,0.03v-0.03c0.14,0,0.26-0.1,0.26-0.22
	C29.81,13.99,29.7,13.89,29.56,13.88"/>
<path style="fill:#2D6C41;" d="M29.17,13.89c0.15,0,0.27,0.13,0.27,0.27c0,0.15-0.13,0.27-0.28,0.26c-0.15,0-0.27-0.12-0.27-0.27
	C28.89,14.01,29.02,13.89,29.17,13.89"/>
<path d="M29.16,14.46L29.16,14.46c-0.09,0-0.16-0.04-0.22-0.09c-0.06-0.06-0.09-0.13-0.09-0.21c0-0.16,0.14-0.29,0.31-0.29
	c0.17,0,0.31,0.14,0.31,0.3C29.47,14.32,29.33,14.46,29.16,14.46 M29.17,13.92c-0.14,0-0.25,0.1-0.25,0.23
	c0,0.06,0.02,0.13,0.07,0.17c0.05,0.04,0.11,0.07,0.18,0.07l0,0.03V14.4c0.14,0,0.25-0.1,0.25-0.23
	C29.41,14.03,29.3,13.92,29.17,13.92"/>
<path style="fill:#2D6C41;" d="M28.58,14.31c0.15,0,0.27,0.13,0.27,0.28c0,0.15-0.13,0.27-0.28,0.27c-0.15,0-0.27-0.13-0.27-0.28
	C28.3,14.42,28.43,14.3,28.58,14.31"/>
<path d="M28.58,14.88L28.58,14.88c-0.09,0-0.16-0.04-0.22-0.09c-0.06-0.06-0.09-0.13-0.09-0.21c0-0.16,0.14-0.3,0.31-0.3
	c0.09,0,0.16,0.04,0.22,0.09c0.06,0.06,0.09,0.13,0.09,0.21C28.88,14.75,28.74,14.88,28.58,14.88 M28.58,14.33
	c-0.14,0-0.25,0.11-0.25,0.24c0,0.07,0.02,0.13,0.07,0.17c0.05,0.05,0.11,0.07,0.18,0.07l0,0.03v-0.03c0.13,0,0.25-0.1,0.25-0.24
	c0-0.07-0.02-0.13-0.07-0.17C28.71,14.36,28.65,14.33,28.58,14.33"/>
<path style="fill:#2D6C41;" d="M28.68,14.11c0.15,0,0.27,0.12,0.27,0.27c0,0.15-0.13,0.27-0.28,0.26c-0.15,0-0.27-0.13-0.27-0.27
	C28.4,14.22,28.52,14.1,28.68,14.11"/>
<path d="M28.67,14.67L28.67,14.67c-0.09,0-0.16-0.03-0.22-0.09c-0.06-0.06-0.09-0.13-0.09-0.21c0-0.16,0.14-0.29,0.31-0.29
	c0.09,0,0.16,0.03,0.22,0.09c0.06,0.06,0.09,0.13,0.09,0.21C28.98,14.54,28.84,14.67,28.67,14.67 M28.68,14.14
	c-0.14,0-0.25,0.1-0.25,0.23c0,0.06,0.02,0.12,0.07,0.17c0.05,0.05,0.11,0.07,0.18,0.07l0,0.03v-0.03c0.14,0,0.25-0.1,0.25-0.23
	c0-0.06-0.02-0.13-0.07-0.17C28.81,14.16,28.74,14.14,28.68,14.14"/>
<path style="fill:#2D6C41;" d="M28.8,13.88c0.15,0,0.27,0.13,0.27,0.27c0,0.15-0.13,0.27-0.28,0.26c-0.15,0-0.27-0.12-0.27-0.27
	C28.52,14,28.64,13.88,28.8,13.88"/>
<path d="M28.79,14.45L28.79,14.45c-0.09,0-0.16-0.03-0.22-0.09c-0.06-0.06-0.09-0.13-0.09-0.21c0-0.16,0.14-0.29,0.31-0.29
	c0.09,0,0.16,0.04,0.22,0.09c0.06,0.06,0.09,0.13,0.09,0.21C29.09,14.31,28.96,14.45,28.79,14.45 M28.79,13.91
	c-0.14,0-0.25,0.11-0.25,0.23c0,0.06,0.02,0.13,0.07,0.17c0.05,0.05,0.11,0.07,0.18,0.07l0,0.03v-0.03c0.13,0,0.25-0.1,0.25-0.23
	c0-0.06-0.02-0.12-0.07-0.17C28.92,13.94,28.86,13.91,28.79,13.91"/>
<path style="fill:#2D6C41;" d="M29.58,14.84c0.47-0.17,1.3,0.77,1.87,2.08c0.56,1.31,0.64,2.51,0.18,2.68
	c-0.47,0.16-1.3-0.77-1.87-2.08C29.19,16.2,29.11,15,29.58,14.84"/>
<path d="M31.51,19.65c-0.5,0-1.26-0.91-1.78-2.12c-0.44-1.02-0.6-2.01-0.4-2.47c0.05-0.13,0.14-0.21,0.24-0.24
	c0.48-0.17,1.34,0.78,1.91,2.1c0.44,1.02,0.6,2.02,0.4,2.47c-0.05,0.13-0.13,0.21-0.24,0.24C31.6,19.64,31.56,19.65,31.51,19.65
	 M29.7,14.85c-0.04,0-0.07,0.01-0.11,0.02c-0.09,0.03-0.16,0.1-0.21,0.21c-0.19,0.45-0.03,1.42,0.4,2.43
	c0.55,1.28,1.39,2.22,1.84,2.06c0.09-0.03,0.16-0.1,0.2-0.21c0.2-0.45,0.04-1.42-0.4-2.43C30.92,15.74,30.17,14.85,29.7,14.85"/>
<path style="fill:#2D6C41;" d="M31.12,17.14c0.09-0.04,0.26,0.15,0.38,0.42c0.12,0.27,0.15,0.53,0.07,0.57
	c-0.09,0.04-0.26-0.15-0.38-0.42C31.06,17.43,31.04,17.18,31.12,17.14"/>
<path d="M31.54,18.16c-0.12,0-0.28-0.23-0.38-0.44c-0.12-0.26-0.17-0.55-0.05-0.61c0.17,0,0.32,0.22,0.42,0.44
	c0.11,0.25,0.17,0.55,0.05,0.61L31.54,18.16z M31.15,17.16c-0.07,0.03-0.06,0.24,0.06,0.54c0.11,0.25,0.26,0.41,0.33,0.41v0.03
	l0.01-0.03c0.06-0.03,0.05-0.24-0.08-0.53C31.36,17.32,31.22,17.16,31.15,17.16"/>
<path style="fill:#2D6C41;" d="M31.26,17.63c0.73,0.9,0.64,1.46,0.56,1.94c-0.23-0.55-0.36-0.9-1.09-1.79
	c-0.73-0.89-0.37-1.52-0.32-1.85C30.53,16.21,30.53,16.74,31.26,17.63"/>
<path d="M31.84,19.68l-0.07-0.17c-0.21-0.5-0.36-0.86-1.05-1.71c-0.62-0.76-0.46-1.34-0.37-1.69c0.02-0.07,0.04-0.14,0.04-0.19
	c0.08,0.05,0.1,0.13,0.12,0.21c0.08,0.31,0.2,0.78,0.77,1.48c0.74,0.9,0.65,1.49,0.57,1.96L31.84,19.68z M30.42,16.03
	c0,0.03-0.01,0.06-0.02,0.1c-0.1,0.36-0.24,0.9,0.36,1.63c0.69,0.85,0.85,1.21,1.06,1.71c0.07-0.46,0.1-0.99-0.57-1.82
	c-0.58-0.71-0.7-1.19-0.78-1.5C30.45,16.11,30.44,16.07,30.42,16.03"/>
<path style="fill:#2D6C41;" d="M31.33,18.35c0.73,0.9,0.64,1.46,0.56,1.94c-0.23-0.55-0.36-0.9-1.09-1.8
	c-0.73-0.89-0.37-1.52-0.32-1.85C30.6,16.94,30.6,17.46,31.33,18.35"/>
<path d="M31.91,20.4l-0.07-0.17c-0.21-0.5-0.36-0.86-1.05-1.71c-0.62-0.76-0.46-1.34-0.37-1.69c0.02-0.07,0.04-0.13,0.04-0.19
	c0.08,0.05,0.1,0.13,0.12,0.21c0.08,0.31,0.2,0.78,0.77,1.48c0.74,0.9,0.65,1.49,0.57,1.96L31.91,20.4z M30.49,16.75
	c0,0.03-0.01,0.06-0.02,0.1c-0.1,0.36-0.24,0.9,0.36,1.64c0.69,0.84,0.85,1.21,1.06,1.71c0.07-0.46,0.1-0.99-0.58-1.82
	c-0.58-0.71-0.7-1.19-0.78-1.5C30.51,16.83,30.5,16.79,30.49,16.75"/>
<path style="fill:#2D6C41;" d="M31.35,18.94c0.75,0.88,0.67,1.45,0.6,1.93c-0.24-0.55-0.38-0.9-1.13-1.77
	c-0.75-0.88-0.4-1.51-0.35-1.84C30.59,17.53,30.6,18.06,31.35,18.94"/>
<path d="M31.97,20.97l-0.08-0.17c-0.22-0.49-0.38-0.85-1.09-1.68c-0.64-0.74-0.49-1.33-0.4-1.68c0.02-0.07,0.03-0.14,0.04-0.19
	c0.08,0.05,0.1,0.13,0.12,0.21c0.09,0.31,0.22,0.78,0.8,1.46c0.76,0.88,0.68,1.47,0.61,1.95L31.97,20.97z M30.48,17.35
	c0,0.03-0.01,0.06-0.02,0.1c-0.09,0.36-0.23,0.91,0.39,1.63c0.71,0.83,0.87,1.19,1.09,1.68c0.06-0.46,0.08-1-0.61-1.8
	c-0.6-0.7-0.73-1.17-0.82-1.48C30.5,17.43,30.49,17.39,30.48,17.35"/>
<path style="fill:#2D6C41;" d="M30.44,15.91c0.17-0.04,0.48,0.31,0.7,0.81c0.22,0.49,0.25,0.92,0.08,0.96
	c-0.17,0.04-0.49-0.32-0.7-0.81C30.3,16.38,30.27,15.95,30.44,15.91"/>
<path d="M31.19,17.71c-0.19,0-0.49-0.35-0.7-0.82c-0.17-0.39-0.23-0.76-0.16-0.92c0.02-0.05,0.06-0.08,0.1-0.09h0
	c0.23,0,0.52,0.35,0.73,0.82c0.17,0.39,0.24,0.76,0.16,0.92c-0.02,0.05-0.05,0.07-0.1,0.09L31.19,17.71z M30.47,15.93
	c-0.05,0.01-0.07,0.03-0.08,0.06c-0.07,0.14-0.01,0.5,0.16,0.87c0.22,0.49,0.5,0.79,0.64,0.79v0.03l0.02-0.03
	c0.03-0.01,0.04-0.03,0.06-0.06c0.07-0.14,0.01-0.5-0.16-0.87C30.9,16.24,30.61,15.93,30.47,15.93"/>
<path style="fill:#2D6C41;" d="M30.24,16.56c0.15-0.03,0.42,0.28,0.58,0.68c0.17,0.4,0.18,0.75,0.02,0.78
	c-0.15,0.03-0.41-0.28-0.58-0.68C30.09,16.93,30.08,16.58,30.24,16.56"/>
<path d="M30.82,18.05c-0.17,0-0.42-0.3-0.59-0.7c-0.13-0.32-0.17-0.61-0.1-0.75c0.02-0.04,0.06-0.07,0.1-0.07h0
	c0.2,0,0.45,0.3,0.61,0.7c0.13,0.32,0.17,0.61,0.1,0.74c-0.02,0.04-0.06,0.07-0.1,0.07L30.82,18.05z M30.26,16.58
	c-0.04,0-0.06,0.02-0.07,0.05c-0.06,0.11-0.02,0.4,0.1,0.7c0.17,0.41,0.41,0.67,0.54,0.67v0.03l0.01-0.03
	c0.02,0,0.04-0.02,0.06-0.04c0.06-0.11,0.02-0.4-0.1-0.7C30.62,16.84,30.38,16.58,30.26,16.58"/>
<path style="fill:#2D6C41;" d="M29.9,16.89c0.15-0.02,0.41,0.29,0.57,0.7c0.16,0.41,0.16,0.76,0.01,0.78
	c-0.15,0.02-0.41-0.29-0.57-0.7C29.75,17.26,29.75,16.91,29.9,16.89"/>
<path d="M30.46,18.39c-0.17,0-0.42-0.31-0.58-0.71c-0.13-0.32-0.16-0.62-0.08-0.75c0.02-0.04,0.06-0.06,0.1-0.07h0
	c0.19,0,0.44,0.31,0.6,0.71c0.13,0.32,0.16,0.62,0.08,0.75c-0.02,0.04-0.06,0.06-0.1,0.07H30.46z M29.92,16.92
	c-0.04,0-0.06,0.02-0.07,0.04c-0.07,0.11-0.03,0.4,0.09,0.7c0.16,0.42,0.4,0.68,0.53,0.68v0.03l0.01-0.03
	c0.02,0,0.04-0.02,0.06-0.05c0.07-0.11,0.03-0.4-0.09-0.7C30.28,17.17,30.05,16.92,29.92,16.92"/>
<path style="fill:#2D6C41;" d="M30.22,15.86c0.13-0.02,0.34,0.21,0.49,0.5c0.14,0.3,0.16,0.56,0.03,0.59
	c-0.13,0.02-0.34-0.2-0.49-0.5C30.11,16.14,30.09,15.88,30.22,15.86"/>
<path d="M30.72,16.98c-0.14,0-0.35-0.22-0.49-0.52c-0.11-0.24-0.15-0.46-0.1-0.56c0.02-0.04,0.05-0.06,0.08-0.07h0
	c0.16,0,0.38,0.22,0.52,0.52c0.11,0.23,0.15,0.46,0.1,0.56c-0.02,0.04-0.05,0.06-0.08,0.07L30.72,16.98z M30.24,15.89
	c-0.09,0.11-0.08,0.3,0.04,0.55c0.15,0.3,0.34,0.49,0.44,0.49v0.03l0.01-0.03c0.08-0.1,0.06-0.3-0.06-0.55
	C30.54,16.07,30.34,15.89,30.24,15.89"/>
<path style="fill:#2D6C41;" d="M29.96,16.07c0.13-0.02,0.33,0.22,0.45,0.53c0.13,0.31,0.12,0.57,0,0.59
	c-0.13,0.02-0.33-0.22-0.46-0.53C29.83,16.35,29.83,16.09,29.96,16.07"/>
<path d="M30.4,17.22c-0.14,0-0.34-0.23-0.47-0.55c-0.1-0.24-0.12-0.46-0.06-0.56c0.02-0.04,0.05-0.06,0.09-0.06h0
	c0.16,0,0.36,0.23,0.48,0.54c0.1,0.24,0.12,0.46,0.06,0.57c-0.02,0.04-0.05,0.06-0.09,0.06L30.4,17.22z M29.97,16.1
	c-0.1,0.11-0.09,0.29,0.01,0.55c0.13,0.32,0.32,0.51,0.42,0.51v0.03l0.01-0.03c0.1-0.12,0.07-0.33-0.02-0.55
	C30.26,16.3,30.07,16.1,29.97,16.1"/>
<path style="fill:#2D6C41;" d="M29.96,16.28c0.22,0.53,0.3,1.01,0.2,1.06c-0.11,0.06-0.37-0.33-0.59-0.86L29.96,16.28z"/>
<path d="M30.15,17.38l-0.06,0c-0.14-0.05-0.37-0.41-0.56-0.87c0.26,0.47,0.48,0.78,0.58,0.82c0.1-0.04,0.06-0.45-0.18-1.03
	l0.05-0.02c0.2,0.49,0.33,1.03,0.18,1.1L30.15,17.38z"/>
<path style="fill:#2D6C41;" d="M29.92,15.45c0.13-0.02,0.33,0.22,0.45,0.53c0.13,0.31,0.12,0.57,0,0.59
	c-0.13,0.02-0.33-0.22-0.45-0.53C29.8,15.73,29.8,15.47,29.92,15.45"/>
<path d="M30.36,16.59c-0.14,0-0.34-0.23-0.47-0.55c-0.1-0.24-0.12-0.46-0.06-0.56c0.02-0.04,0.05-0.06,0.09-0.06h0
	c0.16,0,0.36,0.23,0.49,0.55c0.1,0.24,0.12,0.46,0.06,0.56c-0.02,0.04-0.05,0.06-0.09,0.06H30.36z M29.94,15.48
	c-0.1,0.12-0.08,0.33,0.01,0.55c0.12,0.31,0.32,0.51,0.42,0.51v0.03l0.01-0.03c0.09-0.11,0.08-0.29-0.02-0.55
	C30.22,15.67,30.04,15.48,29.94,15.48"/>
<path style="fill:#2D6C41;" d="M29.57,15.62c0.13-0.01,0.32,0.23,0.44,0.54c0.12,0.31,0.11,0.57-0.01,0.59
	c-0.13,0.01-0.32-0.23-0.44-0.54C29.44,15.9,29.45,15.63,29.57,15.62"/>
<path d="M29.99,16.77c-0.14,0-0.34-0.24-0.46-0.56c-0.09-0.24-0.11-0.47-0.05-0.57c0.02-0.04,0.05-0.06,0.09-0.06h0
	c0.16,0,0.35,0.24,0.47,0.56c0.09,0.24,0.11,0.47,0.05,0.57c-0.02,0.04-0.05,0.06-0.09,0.06H29.99z M29.58,15.65
	c-0.11,0.12-0.08,0.33,0,0.55c0.12,0.31,0.31,0.52,0.4,0.52v0.03L30,16.71c0.1-0.11,0.08-0.33-0.01-0.55
	C29.87,15.86,29.68,15.65,29.58,15.65"/>
<path style="fill:#2D6C41;" d="M29.58,15.56c0.21,0.36,0.32,0.69,0.25,0.74c-0.07,0.06-0.3-0.19-0.51-0.55L29.58,15.56z"/>
<path d="M29.85,16.33c-0.18-0.01-0.4-0.29-0.55-0.56c0.24,0.3,0.43,0.5,0.5,0.51c0.05-0.03-0.01-0.3-0.25-0.71l0.05-0.03
	C29.76,15.82,29.96,16.25,29.85,16.33"/>
<path style="fill:#2D6C41;" d="M29.72,15.33c0.21,0.36,0.32,0.69,0.25,0.75c-0.07,0.05-0.3-0.19-0.51-0.55L29.72,15.33z"/>
<path d="M29.99,16.1c-0.18-0.01-0.4-0.29-0.55-0.56c0.24,0.3,0.43,0.5,0.5,0.52c0.05-0.03-0.01-0.3-0.25-0.71l0.05-0.03
	C29.91,15.58,30.1,16.01,29.99,16.1"/>
<path style="fill:#2D6C41;" d="M30.38,15.38c0.29,0.49,0.45,0.95,0.35,1.02c-0.1,0.07-0.42-0.26-0.71-0.75L30.38,15.38z"/>
<path d="M30.68,16.43c-0.14-0.03-0.42-0.35-0.68-0.77c0.32,0.43,0.59,0.7,0.69,0.72c0.09-0.05-0.01-0.45-0.33-0.98l0.05-0.03
	c0.27,0.45,0.48,0.96,0.34,1.06L30.68,16.43z"/>
<path style="fill:#2D6C41;" d="M29.95,15.12c0.21,0.4,0.33,0.77,0.25,0.82c-0.07,0.06-0.3-0.21-0.51-0.61L29.95,15.12z"/>
<path d="M30.22,15.97c-0.18-0.01-0.4-0.32-0.56-0.62c0.24,0.33,0.43,0.56,0.51,0.57c0.05-0.03-0.01-0.33-0.25-0.79l0.05-0.03
	C30.13,15.4,30.33,15.88,30.22,15.97"/>
<path style="fill:#8D5BC5;" d="M29.93,14.55c-0.14,0.14,0,0.41,0.13,0.5c0.14,0.13,0.96,0.99,1.53,0.27
	C31.13,15.31,30.27,14.23,29.93,14.55"/>
<path d="M31.05,15.63L31.05,15.63c-0.42,0-0.83-0.39-0.98-0.53c-0.12-0.09-0.22-0.24-0.23-0.38c-0.01-0.08,0.02-0.15,0.07-0.2
	c0.19-0.18,0.56,0.07,0.95,0.35c0.27,0.2,0.54,0.41,0.73,0.41C31.45,15.53,31.27,15.63,31.05,15.63 M30.08,14.52
	c-0.05,0-0.1,0.02-0.13,0.05c-0.04,0.04-0.06,0.09-0.05,0.15c0.01,0.12,0.1,0.25,0.17,0.31c0.18,0.18,0.58,0.55,0.98,0.55
	c0.2,0,0.37-0.09,0.51-0.28c-0.19,0.05-0.46-0.16-0.74-0.37C30.55,14.73,30.27,14.52,30.08,14.52"/>
<path style="fill:#8D5BC5;" d="M29.83,14.12c-0.14,0.14,0,0.41,0.13,0.51c0.15,0.13,0.96,0.99,1.53,0.27
	C31.03,14.89,30.17,13.81,29.83,14.12"/>
<path d="M30.95,15.21L30.95,15.21c-0.42,0-0.83-0.39-0.98-0.53c-0.12-0.1-0.22-0.24-0.23-0.38c-0.01-0.08,0.02-0.15,0.07-0.2
	c0.2-0.19,0.56,0.07,0.95,0.35c0.27,0.2,0.54,0.41,0.73,0.41C31.35,15.11,31.16,15.21,30.95,15.21 M29.98,14.09
	c-0.05,0-0.1,0.02-0.13,0.05c-0.04,0.04-0.05,0.09-0.05,0.15c0.01,0.12,0.1,0.25,0.17,0.31c0.18,0.18,0.58,0.55,0.98,0.55
	c0.2,0,0.37-0.09,0.51-0.27c-0.19,0.05-0.46-0.16-0.74-0.38C30.45,14.3,30.17,14.09,29.98,14.09"/>
<path style="fill:#8D5BC5;" d="M29.7,13.72c-0.14,0.14,0,0.41,0.13,0.5c0.14,0.13,0.96,0.99,1.53,0.27
	C30.9,14.48,30.04,13.4,29.7,13.72"/>
<path d="M30.82,14.8L30.82,14.8c-0.42,0-0.83-0.39-0.98-0.53c-0.12-0.09-0.22-0.24-0.23-0.38c-0.01-0.08,0.02-0.15,0.07-0.2
	c0.2-0.18,0.57,0.07,0.95,0.35c0.27,0.2,0.54,0.41,0.73,0.41C31.22,14.7,31.04,14.8,30.82,14.8 M29.85,13.69
	c-0.05,0-0.1,0.02-0.13,0.05c-0.04,0.04-0.05,0.09-0.05,0.15c0.01,0.12,0.1,0.25,0.17,0.31c0.18,0.17,0.58,0.55,0.98,0.55
	c0.2,0,0.37-0.09,0.51-0.28c-0.19,0.05-0.46-0.16-0.74-0.37C30.32,13.9,30.04,13.69,29.85,13.69"/>
<path style="fill:#8D5BC5;" d="M29.42,13.25c-0.14,0.14,0,0.41,0.13,0.5c0.15,0.13,0.96,0.99,1.53,0.27
	C30.62,14.02,29.76,12.94,29.42,13.25"/>
<path d="M30.54,14.34L30.54,14.34c-0.42,0-0.83-0.38-0.98-0.53c-0.12-0.1-0.22-0.24-0.23-0.38c-0.01-0.08,0.02-0.15,0.07-0.2
	c0.19-0.18,0.57,0.07,0.95,0.35c0.27,0.2,0.54,0.41,0.73,0.41C30.95,14.24,30.76,14.34,30.54,14.34 M29.57,13.22
	c-0.05,0-0.1,0.02-0.13,0.05c-0.04,0.04-0.05,0.09-0.05,0.15c0.01,0.12,0.1,0.25,0.17,0.31c0.19,0.18,0.58,0.55,0.98,0.55
	c0.2,0,0.37-0.09,0.51-0.27c-0.18,0.04-0.46-0.16-0.74-0.37C30.04,13.43,29.76,13.22,29.57,13.22"/>
<path style="fill:#8D5BC5;" d="M28.42,12.81c0.29-0.22,0.83-0.28,1.24-0.07c0.35,0.17,0.92,0.87,1.36,1.03
	c-0.31,0.05-0.49,0.01-0.69-0.09c-0.39,0.28-0.52,0.32-0.92,0.38c-0.55,0.08-1-0.06-1.16-0.35C28.09,13.44,28.16,13.01,28.42,12.81"
	/>
<path d="M29.12,14.11c-0.43,0-0.76-0.14-0.89-0.39c-0.17-0.29-0.09-0.73,0.17-0.94c0.31-0.23,0.88-0.27,1.27-0.07
	c0.16,0.08,0.36,0.26,0.57,0.45c0.26,0.23,0.55,0.49,0.79,0.58c-0.1,0.07-0.18,0.08-0.25,0.08c-0.16,0-0.29-0.03-0.46-0.11
	c-0.36,0.28-0.5,0.32-0.9,0.38C29.32,14.1,29.22,14.11,29.12,14.11 M29.09,12.64c-0.25,0-0.49,0.07-0.66,0.19
	c-0.24,0.19-0.32,0.6-0.16,0.86c0.15,0.28,0.6,0.41,1.13,0.34c0.39-0.06,0.52-0.1,0.9-0.37c0.27,0.11,0.42,0.13,0.7,0.08
	c-0.25-0.04-0.54-0.29-0.81-0.54c-0.21-0.19-0.4-0.36-0.55-0.44C29.48,12.68,29.29,12.64,29.09,12.64"/>
<path style="fill:#C20038;" d="M29.04,13.09c0.14,0,0.25,0.07,0.25,0.15c0,0.08-0.11,0.14-0.25,0.14c-0.14,0-0.25-0.07-0.25-0.15
	C28.78,13.15,28.9,13.09,29.04,13.09"/>
<path d="M29.04,13.41L29.04,13.41c-0.16,0-0.29-0.08-0.28-0.18c0-0.09,0.12-0.17,0.27-0.17c0.16,0,0.29,0.08,0.28,0.18
	C29.31,13.34,29.19,13.41,29.04,13.41 M29.03,13.12c-0.12,0-0.22,0.05-0.22,0.11c0,0.06,0.1,0.12,0.22,0.12l0.01,0.03v-0.03
	c0.12,0,0.22-0.05,0.22-0.11C29.26,13.18,29.16,13.13,29.03,13.12"/>
<path style="fill:#F3D02F;" d="M28.19,13.63c0.18-0.07,0.36-0.03,0.4,0.08c0.04,0.11-0.07,0.25-0.25,0.32
	c-0.18,0.07-0.36,0.03-0.4-0.08C27.9,13.84,28.01,13.7,28.19,13.63"/>
<path d="M28.16,14.09c-0.13,0-0.22-0.05-0.25-0.13c-0.05-0.13,0.07-0.28,0.27-0.36c0.19-0.07,0.39-0.03,0.44,0.09
	c0.05,0.13-0.07,0.29-0.27,0.36C28.29,14.08,28.22,14.09,28.16,14.09 M28.37,13.62c-0.06,0-0.11,0.01-0.17,0.03
	c-0.16,0.06-0.27,0.19-0.24,0.28c0.03,0.09,0.21,0.12,0.37,0.06c0.16-0.06,0.27-0.19,0.24-0.29C28.55,13.66,28.47,13.62,28.37,13.62
	"/>
<path d="M29.02,13.15c0.05,0,0.09,0.04,0.09,0.08c0,0.04-0.04,0.08-0.09,0.08c-0.05,0-0.09-0.04-0.09-0.08
	C28.93,13.18,28.97,13.15,29.02,13.15"/>
<path style="fill:#F3D02F;" d="M28.48,13.43c0.02,0.11-0.06,0.26-0.24,0.32c-0.18,0.08-0.32,0.25-0.4,0.53
	c-0.28-0.64-0.1-0.91,0.19-0.98C28.29,13.22,28.44,13.23,28.48,13.43"/>
<path d="M27.85,14.36l-0.03-0.07c-0.15-0.35-0.18-0.62-0.09-0.8c0.06-0.11,0.16-0.19,0.3-0.22c0.31-0.1,0.44-0.05,0.48,0.16
	c0.02,0.13-0.07,0.29-0.26,0.35c-0.18,0.07-0.31,0.24-0.38,0.51L27.85,14.36z M28.27,13.28c-0.06,0-0.13,0.02-0.23,0.05
	c-0.13,0.03-0.22,0.09-0.27,0.19c-0.08,0.15-0.06,0.38,0.06,0.68c0.08-0.24,0.22-0.4,0.4-0.47c0.16-0.05,0.24-0.18,0.22-0.28
	C28.43,13.33,28.38,13.28,28.27,13.28"/>
<path d="M28.21,13.42c0.03,0,0.06,0.03,0.07,0.06c0,0.04-0.02,0.07-0.06,0.07c-0.04,0-0.07-0.03-0.07-0.06
	C28.15,13.45,28.17,13.42,28.21,13.42"/>
</svg>
