<svg version="1.1" xmlns="http://www.w3.org/2000/svg" xmlns:xlink="http://www.w3.org/1999/xlink" x="0px" y="0px"
	 viewBox="0 0 58.93 34.37" style="enable-background:new 0 0 58.93 34.37;" xml:space="preserve">
<rect style="fill:#FFFFFF;" width="58.93" height="34.37"/>
<rect y="0" style="fill:#223E84;" width="25.25" height="13.2"/>
<rect y="21.11" style="fill:#BC0030;" width="25.25" height="13.26"/>
<rect x="33.67" y="21.11" style="fill:#223E84;" width="25.25" height="13.26"/>
<rect x="33.67" y="0" style="fill:#BC0030;" width="25.25" height="13.2"/>
<path d="M33.51,14.63c-0.01-0.28-0.17-0.36-0.18-0.37c0.04-0.05,0.23,0.05,0.24,0.36L33.51,14.63z"/>
<path d="M33.42,14.65c-0.01-0.27-0.17-0.36-0.18-0.37c0.04-0.05,0.22,0.05,0.24,0.37L33.42,14.65z"/>
<path d="M33.32,14.65c-0.01-0.28-0.17-0.36-0.18-0.37c0.04-0.05,0.22,0.05,0.24,0.36L33.32,14.65z"/>
<path d="M33.23,14.69c-0.01-0.27-0.17-0.36-0.18-0.37c0.04-0.05,0.22,0.05,0.24,0.36L33.23,14.69z"/>
<path d="M33.13,14.73c-0.01-0.28-0.17-0.36-0.18-0.37c0.04-0.05,0.22,0.05,0.24,0.37L33.13,14.73z"/>
<path d="M33.04,14.77c-0.01-0.28-0.17-0.36-0.18-0.37c0.04-0.05,0.23,0.05,0.24,0.36L33.04,14.77z"/>
<path style="fill:#223E84;" d="M33.41,14.24c-0.34-0.9-0.47-1.03-0.53-1.09c-0.06-0.07-0.66-0.26-0.66-0.26l-0.17,0.38
	c0,0,0.51,0.25,0.62,0.48c0.11,0.23,0.19,0.65,0.19,0.65s0.23-0.09,0.31-0.13C33.24,14.24,33.41,14.26,33.41,14.24"/>
<path d="M32.83,14.44l-0.01-0.04c0-0.01-0.08-0.42-0.18-0.65c-0.1-0.22-0.6-0.46-0.61-0.46l0.15-0.41c0.14,0.01,0.65,0.18,0.71,0.25
	c0.08,0.08,0.22,0.24,0.54,1.1c0,0.05-0.04,0.05-0.11,0.05c-0.05,0-0.12,0-0.16,0.02c-0.08,0.03-0.3,0.13-0.3,0.13L32.83,14.44z
	 M32.08,13.27c0.05,0,0.51,0.23,0.62,0.46c0.09,0.19,0.16,0.51,0.18,0.62c0.07-0.03,0.21-0.09,0.27-0.11
	c0.05-0.02,0.12-0.02,0.18-0.02c-0.26-0.83-0.4-0.98-0.46-1.05c-0.04-0.05-0.37-0.17-0.66-0.26L32.08,13.27
	C32.08,13.27,32.08,13.27,32.08,13.27"/>
<path style="fill:#223E84;" d="M33.14,13.6c-0.53-0.22-0.7-0.1-0.89-0.15c-0.19-0.05-0.59-0.15-0.63-0.25
	c-0.04-0.1,0.34-0.57,0.34-0.57l0.27,0.28c0.17,0.18,0.59,0.02,0.74,0.33L33.14,13.6z"/>
<path d="M33.14,13.64c-0.01,0-0.01,0-0.02,0c-0.3-0.12-0.48-0.14-0.61-0.14l-0.07,0c-0.1,0-0.15,0-0.2-0.02
	c-0.43-0.11-0.62-0.19-0.66-0.27c-0.04-0.1,0.23-0.46,0.35-0.6l0.32,0.28c0.06,0.07,0.17,0.08,0.29,0.1
	c0.17,0.02,0.36,0.05,0.46,0.25l0.16,0.35c0,0.01,0,0.03-0.01,0.04C33.16,13.63,33.15,13.64,33.14,13.64 M32.52,13.42
	c0.13,0,0.29,0.01,0.55,0.11l-0.12-0.27c-0.08-0.17-0.23-0.19-0.4-0.21c-0.12-0.02-0.25-0.03-0.33-0.12l-0.27-0.28
	c-0.12,0.21-0.3,0.47-0.28,0.53c0.01,0.03,0.11,0.1,0.61,0.23c0.04,0.01,0.08,0.01,0.12,0.01L32.52,13.42z"/>
<path d="M32.51,13.45c-0.1,0-0.27-0.07-0.48-0.17c-0.09-0.05-0.18-0.09-0.22-0.1c-0.13-0.04-0.17,0.02-0.18,0.03
	c-0.05-0.04,0.02-0.13,0.19-0.08c0.05,0.01,0.13,0.05,0.23,0.1c0.15,0.07,0.45,0.21,0.49,0.16l0.05,0.03
	C32.58,13.44,32.55,13.45,32.51,13.45"/>
<path style="fill:#223E84;" d="M30.18,12.31c0.04,0,0.79-0.08,1.46,0.05c0.68,0.12,1.08,0.36,1.08,0.52
	c0.01,0.3-0.14,0.54-0.16,0.53c-0.02-0.01,0-0.14-0.17-0.18c-0.17-0.05-0.95-0.3-1.15-0.31c-0.21-0.01-0.81,0.02-0.9,0.01
	c-0.09-0.01-0.32-0.06-0.32-0.16C30.03,12.66,30.17,12.33,30.18,12.31"/>
<path d="M32.55,13.43l-0.03-0.05c-0.01-0.04-0.03-0.1-0.14-0.14l-0.16-0.05c-0.29-0.09-0.82-0.25-0.98-0.26l-0.11,0
	c-0.12,0-0.27,0-0.41,0.01c-0.12,0-0.23,0.01-0.3,0.01l-0.07,0c-0.01,0-0.34-0.04-0.34-0.19c0-0.12,0.15-0.46,0.15-0.46
	c0.15-0.03,0.35-0.04,0.61-0.04c0.33,0,0.63,0.02,0.88,0.07c0.68,0.12,1.1,0.37,1.11,0.55c0.01,0.26-0.11,0.49-0.15,0.54
	L32.55,13.43z M31.13,12.89l0.11,0c0.17,0.01,0.71,0.17,1,0.26l0.16,0.05c0.12,0.03,0.16,0.1,0.17,0.15
	c0.04-0.07,0.12-0.25,0.12-0.47c0-0.13-0.38-0.37-1.06-0.49c-0.25-0.05-0.54-0.07-0.87-0.07c-0.25,0-0.46,0.02-0.54,0.02
	c-0.03,0.01-0.16,0.33-0.16,0.43c0,0.07,0.17,0.12,0.29,0.13c0.14,0,0.25,0,0.37,0C30.86,12.89,31.01,12.89,31.13,12.89"/>
<path d="M30.53,12.84c-0.01,0-0.02,0-0.03,0c-0.06-0.01-0.11-0.03-0.16-0.05c-0.05-0.02-0.09-0.04-0.15-0.04
	c-0.09,0.01-0.1,0.06-0.1,0.06c-0.06-0.02-0.04-0.11,0.1-0.12c0.07-0.01,0.13,0.02,0.18,0.04c0.04,0.02,0.08,0.04,0.14,0.04
	l0.08,0.02l-0.01-0.06l0.04-0.01l0.01,0.01l-0.03,0.08C30.59,12.84,30.57,12.84,30.53,12.84"/>
<path d="M25.42,14.61l-0.06,0c0.02-0.31,0.2-0.41,0.21-0.42C25.6,14.25,25.44,14.34,25.42,14.61"/>
<path d="M25.51,14.63l-0.06,0c0.02-0.31,0.2-0.41,0.21-0.42C25.69,14.27,25.53,14.35,25.51,14.63"/>
<path d="M25.61,14.64l-0.06,0c0.02-0.31,0.2-0.41,0.21-0.42C25.78,14.27,25.62,14.36,25.61,14.64"/>
<path d="M25.7,14.67l-0.06,0c0.02-0.31,0.2-0.42,0.21-0.42C25.87,14.31,25.71,14.4,25.7,14.67"/>
<path d="M25.8,14.71l-0.06,0c0.02-0.31,0.2-0.42,0.21-0.42C25.97,14.35,25.81,14.44,25.8,14.71"/>
<path d="M25.89,14.76l-0.06,0c0.02-0.31,0.2-0.41,0.21-0.42C26.06,14.4,25.9,14.48,25.89,14.76"/>
<path style="fill:#223E84;" d="M25.53,14.23c0.33-0.9,0.47-1.03,0.53-1.09c0.06-0.07,0.66-0.26,0.66-0.26l0.17,0.38
	c0,0-0.51,0.25-0.62,0.48c-0.11,0.23-0.19,0.65-0.19,0.65s-0.23-0.09-0.3-0.13C25.69,14.23,25.53,14.25,25.53,14.23"/>
<path d="M26.1,14.42l-0.03-0.01c0,0-0.23-0.1-0.3-0.13c-0.04-0.01-0.11-0.02-0.16-0.02c-0.07,0-0.11,0-0.11-0.04
	c0.32-0.88,0.46-1.03,0.53-1.1c0.07-0.08,0.58-0.25,0.68-0.28l0.2,0.39c-0.02,0.04-0.52,0.29-0.62,0.5
	c-0.11,0.22-0.18,0.64-0.18,0.65L26.1,14.42z M25.7,14.22c0.03,0,0.06,0,0.08,0.01c0.06,0.02,0.21,0.08,0.27,0.11
	c0.02-0.11,0.09-0.43,0.18-0.62c0.11-0.24,0.61-0.48,0.63-0.49l-0.18-0.34c-0.25,0.11-0.58,0.23-0.61,0.27
	c-0.07,0.08-0.21,0.23-0.52,1.08C25.61,14.23,25.66,14.22,25.7,14.22"/>
<path style="fill:#223E84;" d="M25.79,13.59c0.53-0.22,0.7-0.1,0.88-0.15c0.19-0.05,0.59-0.15,0.63-0.25
	c0.04-0.09-0.34-0.57-0.34-0.57l-0.27,0.28c-0.17,0.18-0.59,0.02-0.74,0.33L25.79,13.59z"/>
<path d="M25.79,13.62c-0.01,0-0.02,0-0.03-0.01c-0.01-0.01-0.01-0.03-0.01-0.04l0.16-0.35c0.1-0.21,0.29-0.23,0.46-0.25
	c0.12-0.01,0.23-0.03,0.29-0.1l0.27-0.28c0.18,0.15,0.45,0.5,0.41,0.61c-0.03,0.08-0.22,0.16-0.66,0.27
	c-0.05,0.01-0.1,0.01-0.14,0.01l-0.13,0c-0.14,0-0.31,0.02-0.61,0.14C25.8,13.62,25.8,13.62,25.79,13.62 M26.94,12.64l-0.21,0.28
	c-0.08,0.09-0.21,0.1-0.33,0.12c-0.17,0.02-0.32,0.04-0.4,0.21l-0.12,0.27c0.26-0.1,0.43-0.11,0.55-0.11l0.08,0
	c0.09,0,0.13,0,0.18-0.01c0.47-0.12,0.59-0.19,0.61-0.23C27.29,13.12,27.11,12.85,26.94,12.64"/>
<path d="M26.42,13.43c-0.04,0-0.06-0.01-0.08-0.03l0.05-0.03c0.04,0.05,0.34-0.09,0.48-0.16c0.1-0.05,0.19-0.09,0.23-0.1
	c0.17-0.05,0.23,0.05,0.24,0.05c-0.04,0.03-0.07,0-0.14-0.01c-0.02,0-0.05,0-0.08,0.01c-0.04,0.01-0.13,0.05-0.22,0.09
	C26.69,13.36,26.52,13.43,26.42,13.43"/>
<path style="fill:#223E84;" d="M28.76,12.3c-0.04,0-0.8-0.08-1.46,0.05c-0.68,0.12-1.08,0.36-1.08,0.52
	c-0.01,0.3,0.14,0.54,0.16,0.53c0.02-0.01,0-0.14,0.17-0.18c0.17-0.05,0.95-0.3,1.15-0.31c0.21-0.01,0.81,0.02,0.9,0.01
	c0.09-0.01,0.32-0.06,0.32-0.16C28.9,12.65,28.77,12.32,28.76,12.3"/>
<path d="M26.37,13.42l-0.03-0.02c-0.05-0.05-0.16-0.28-0.15-0.54c0.01-0.18,0.42-0.43,1.11-0.55c0.25-0.05,0.55-0.07,0.88-0.07
	c0.26,0,0.46,0.01,0.55,0.02c0.07,0.04,0.21,0.37,0.21,0.48c0,0.15-0.33,0.19-0.34,0.19l-0.07,0c-0.07,0-0.18,0-0.3,0
	c-0.14-0.01-0.29-0.01-0.41-0.01l-0.11,0c-0.17,0.01-0.73,0.18-1,0.26l-0.15,0.04c-0.11,0.03-0.13,0.09-0.14,0.14L26.37,13.42z
	 M28.17,12.31c-0.33,0-0.62,0.02-0.87,0.07c-0.68,0.12-1.06,0.36-1.06,0.49c-0.01,0.22,0.07,0.4,0.12,0.47
	c0.02-0.06,0.06-0.13,0.17-0.16l0.14-0.04c0.29-0.09,0.84-0.26,1.01-0.27h0.12c0.12,0,0.27,0,0.41,0.01c0.12,0,0.23,0.01,0.3,0.01
	c0.19-0.01,0.35-0.07,0.35-0.14c0-0.09-0.13-0.41-0.14-0.44C28.63,12.32,28.43,12.31,28.17,12.31"/>
<path d="M28.4,12.83c-0.1,0-0.11-0.06-0.11-0.1l0.05-0.04l0.01,0.03c0.01,0.03,0.01,0.05,0.08,0.04c0.06,0,0.1-0.02,0.14-0.04
	c0.05-0.03,0.11-0.05,0.18-0.04c0.13,0.02,0.15,0.11,0.15,0.11c-0.05,0.02-0.07-0.04-0.16-0.05c-0.06,0-0.1,0.01-0.15,0.04
	c-0.04,0.02-0.09,0.04-0.16,0.05C28.42,12.83,28.41,12.83,28.4,12.83"/>
<path style="fill:#223E84;" d="M29.44,11.85c-0.94,0.01-1.19,0.15-1.23,0.31c-0.04,0.15,0.11,0.58,0.11,0.58s0.16-0.3,1.13-0.29
	c0.97,0.01,1.17,0.27,1.17,0.27s0.13-0.42,0.11-0.57C30.73,12,30.33,11.85,29.44,11.85"/>
<path d="M28.32,12.8l-0.02-0.06c-0.01-0.02-0.15-0.44-0.11-0.59c0.04-0.15,0.21-0.32,1.26-0.33c0.8,0,1.31,0.13,1.32,0.32
	c0.01,0.15-0.11,0.56-0.12,0.58h0c-0.06,0-0.26-0.24-1.19-0.25c-0.94,0-1.11,0.27-1.11,0.27L28.32,12.8z M29.41,12.41
	c0.91,0.01,1.17,0.22,1.22,0.27c-0.02-0.07,0.08-0.41,0.07-0.54c-0.01-0.11-0.34-0.27-1.24-0.27c-0.79,0.01-1.18,0.1-1.23,0.28
	c-0.03,0.1,0.05,0.37,0.09,0.51C28.42,12.59,28.68,12.41,29.41,12.41"/>
<polygon style="fill:#F5CD28;" points="30.74,12.78 30.78,12.39 30.82,12.39 30.79,12.74 30.93,12.75 30.92,12.79 "/>
<rect x="30.82" y="12.59" transform="matrix(-0.0921 0.9957 -0.9957 -0.0921 46.4219 -17.1117)" style="fill:#F5CD28;" width="0.39" height="0.04"/>
<polygon style="fill:#F5CD28;" points="31.34,12.82 31.4,12.44 31.61,12.47 31.6,12.52 31.43,12.49 31.41,12.61 31.57,12.63 
	31.56,12.68 31.4,12.65 31.38,12.78 31.56,12.81 31.55,12.86 "/>
<polygon style="fill:#F5CD28;" points="31.94,12.97 32.06,12.64 31.97,12.61 31.98,12.57 32.2,12.64 32.18,12.69 32.09,12.66 
	31.97,12.98 "/>
<path style="fill:#F5CD28;" d="M31.12,12.77l0.07,0.01c0.01,0,0.02,0,0.03,0c0.01,0,0.02,0,0.02-0.01c0.01,0,0.01-0.01,0.02-0.02
	c0-0.01,0.01-0.02,0.01-0.03c0-0.01,0-0.03,0-0.04c0-0.01-0.01-0.02-0.02-0.03c-0.01-0.01-0.02-0.01-0.04-0.01l-0.07,0L31.12,12.77z
	 M31.14,12.59l0.06,0.01c0.02,0,0.03,0,0.04,0c0.01,0,0.02-0.01,0.02-0.01c0.01-0.01,0.01-0.02,0.01-0.03c0-0.01,0-0.03,0-0.04
	c0-0.01-0.01-0.02-0.02-0.02c-0.01,0-0.02-0.01-0.05-0.01l-0.06-0.01L31.14,12.59z M31.08,12.81l0.04-0.39l0.11,0.01
	c0.02,0,0.04,0.01,0.05,0.02c0.01,0.01,0.02,0.02,0.03,0.04c0.01,0.02,0.01,0.04,0.01,0.05c0,0.02-0.01,0.03-0.02,0.05
	c-0.01,0.01-0.02,0.03-0.03,0.03c0.02,0.01,0.03,0.02,0.04,0.04c0.01,0.02,0.01,0.04,0.01,0.06c0,0.02-0.01,0.04-0.01,0.05
	c-0.01,0.01-0.02,0.03-0.03,0.03c-0.01,0.01-0.02,0.01-0.03,0.02c-0.01,0-0.03,0-0.05,0L31.08,12.81z"/>
<path style="fill:#F5CD28;" d="M31.7,12.67l0.08,0.02c0.02,0,0.03,0.01,0.04,0c0.01,0,0.02-0.01,0.03-0.02
	c0.01-0.01,0.01-0.02,0.02-0.03c0.01-0.02,0.01-0.03,0-0.05c-0.01-0.02-0.02-0.03-0.04-0.03l-0.09-0.02L31.7,12.67z M31.6,12.87
	l0.11-0.38l0.12,0.04c0.02,0.01,0.04,0.02,0.05,0.03c0.01,0.01,0.02,0.03,0.02,0.04c0,0.02,0,0.04-0.01,0.06
	c-0.01,0.03-0.02,0.05-0.04,0.06c-0.02,0.02-0.04,0.02-0.07,0.02c0.01,0.01,0.01,0.02,0.02,0.03c0.01,0.02,0.01,0.04,0.02,0.06
	l0.02,0.12l-0.05-0.01l-0.01-0.09c0-0.03-0.01-0.04-0.01-0.06c0-0.01-0.01-0.03-0.01-0.03c0-0.01-0.01-0.01-0.01-0.02
	c0,0-0.01,0-0.02-0.01l-0.04-0.01l-0.05,0.17L31.6,12.87z"/>
<path style="fill:#F5CD28;" d="M32.39,13.1l0.06,0.02c0.02,0,0.03,0.01,0.04,0.01c0.01,0,0.02-0.01,0.03-0.01
	c0.01-0.01,0.02-0.02,0.04-0.04c0.01-0.02,0.02-0.04,0.03-0.07c0.01-0.04,0.02-0.07,0.02-0.09c0-0.02-0.01-0.04-0.02-0.05
	c-0.01-0.01-0.02-0.02-0.04-0.02l-0.06-0.02L32.39,13.1z M32.33,13.13l0.13-0.37l0.1,0.03c0.02,0.01,0.04,0.01,0.05,0.02
	c0.01,0.01,0.02,0.02,0.03,0.04c0.01,0.02,0.01,0.04,0.01,0.07c0,0.03-0.01,0.06-0.02,0.09c-0.01,0.03-0.02,0.05-0.03,0.07
	c-0.01,0.02-0.02,0.03-0.04,0.05c-0.01,0.01-0.02,0.02-0.04,0.03c-0.01,0-0.02,0.01-0.04,0.01c-0.01,0-0.03,0-0.05-0.01L32.33,13.13
	z"/>
<path style="fill:#F5CD28;" d="M32.18,12.89l0.09,0.03l0.01-0.11c0-0.04,0.01-0.06,0.01-0.08c-0.01,0.02-0.02,0.05-0.04,0.07
	L32.18,12.89z M32.05,13.01l0.24-0.33l0.04,0.01l-0.02,0.41l-0.04-0.01l0.01-0.12l-0.11-0.04l-0.07,0.1L32.05,13.01z"/>
<polygon style="fill:#F5CD28;" points="29.34,12.37 29.34,12.02 29.24,12.02 29.24,11.98 29.49,11.98 29.49,12.02 29.39,12.02 
	29.39,12.37 "/>
<rect x="29.71" y="12.15" transform="matrix(-0.0434 0.9991 -0.9991 -0.0434 43.371 -17.1799)" style="fill:#F5CD28;" width="0.39" height="0.04"/>
<path style="fill:#F5CD28;" d="M28.69,12.22l0.08-0.01c0.03-0.01,0.04-0.02,0.05-0.03c0.01-0.01,0.01-0.03,0.01-0.05
	c0-0.02-0.01-0.03-0.02-0.04c-0.01-0.01-0.02-0.02-0.03-0.02c-0.01,0-0.02,0-0.04,0l-0.08,0.02L28.69,12.22z M28.69,12.42
	l-0.07-0.38l0.12-0.02c0.02,0,0.04-0.01,0.05,0c0.02,0,0.03,0,0.04,0.01c0.01,0.01,0.02,0.02,0.03,0.03
	c0.01,0.01,0.02,0.03,0.02,0.05c0.01,0.03,0,0.06-0.01,0.09c-0.01,0.03-0.04,0.04-0.09,0.05l-0.08,0.02l0.03,0.15L28.69,12.42z"/>
<path style="fill:#F5CD28;" d="M29.01,12.2l0.11-0.01l-0.04-0.1c-0.01-0.03-0.02-0.06-0.03-0.08c0,0.03-0.01,0.05-0.01,0.08
	L29.01,12.2z M28.93,12.37l0.09-0.4l0.05,0l0.16,0.38l-0.05,0l-0.05-0.11L29,12.24l-0.03,0.12L28.93,12.37z"/>
<path style="fill:#F5CD28;" d="M29.58,12.15h0.09c0.02,0,0.04,0,0.05-0.01c0.01-0.01,0.02-0.01,0.02-0.02
	c0.01-0.01,0.01-0.02,0.01-0.04c0-0.02-0.01-0.04-0.02-0.04c-0.01-0.01-0.03-0.02-0.05-0.02h-0.1V12.15z M29.54,12.37v-0.39h0.14
	c0.03,0,0.05,0,0.07,0.01c0.02,0.01,0.03,0.02,0.04,0.04c0.01,0.02,0.01,0.04,0.01,0.06c0,0.03-0.01,0.05-0.02,0.07
	c-0.02,0.02-0.04,0.03-0.07,0.04c0.01,0.01,0.02,0.01,0.03,0.02c0.01,0.01,0.02,0.03,0.04,0.05l0.06,0.1h-0.06l-0.04-0.08
	c-0.01-0.02-0.02-0.04-0.03-0.05c-0.01-0.01-0.01-0.02-0.02-0.03c-0.01,0-0.01-0.01-0.02-0.01h-0.03h-0.05v0.17H29.54z"/>
<path style="fill:#F5CD28;" d="M30.13,12.24l0.11,0.02l-0.01-0.11c-0.01-0.03-0.01-0.06-0.01-0.08c-0.01,0.03-0.02,0.05-0.03,0.07
	L30.13,12.24z M30.01,12.38l0.19-0.36l0.05,0.01l0.06,0.41l-0.05-0.01l-0.02-0.12l-0.13-0.02l-0.06,0.11L30.01,12.38z"/>
<rect x="26.93" y="12.69" transform="matrix(0.1483 0.9889 -0.9889 0.1483 35.6733 -15.9919)" style="fill:#F5CD28;" width="0.39" height="0.04"/>
<path style="fill:#F5CD28;" d="M27.58,12.7l0.04-0.01c0,0.02,0.01,0.03,0.02,0.05c0.01,0.01,0.02,0.02,0.04,0.03
	c0.01,0.01,0.03,0.01,0.05,0.01c0.02,0,0.03-0.01,0.04-0.01c0.01-0.01,0.02-0.01,0.02-0.03c0.01-0.01,0.01-0.02,0.01-0.03
	c0-0.01-0.01-0.02-0.01-0.03c-0.01-0.01-0.02-0.02-0.03-0.02c-0.01,0-0.03-0.01-0.06-0.01c-0.03-0.01-0.05-0.01-0.07-0.02
	c-0.02-0.01-0.03-0.02-0.04-0.03c-0.01-0.01-0.01-0.03-0.01-0.05c0-0.02,0-0.04,0.01-0.06c0.01-0.02,0.02-0.03,0.04-0.04
	c0.02-0.01,0.04-0.02,0.06-0.02c0.02,0,0.05,0,0.07,0.01c0.02,0.01,0.04,0.02,0.05,0.04c0.01,0.01,0.02,0.04,0.02,0.06l-0.04,0.01
	c0-0.02-0.01-0.04-0.03-0.05c-0.01-0.01-0.03-0.02-0.06-0.01c-0.03,0-0.05,0.01-0.05,0.02c-0.01,0.01-0.02,0.03-0.02,0.04
	c0,0.01,0.01,0.03,0.02,0.03c0.01,0.01,0.03,0.02,0.07,0.02c0.04,0.01,0.06,0.01,0.07,0.02c0.02,0.01,0.04,0.02,0.05,0.04
	c0.01,0.02,0.02,0.03,0.02,0.05c0,0.02,0,0.04-0.01,0.06c-0.01,0.02-0.02,0.03-0.04,0.05c-0.02,0.01-0.04,0.02-0.06,0.02
	c-0.03,0-0.05,0-0.07-0.01c-0.02-0.01-0.04-0.02-0.05-0.04C27.59,12.75,27.58,12.72,27.58,12.7"/>
<path style="fill:#F5CD28;" d="M27.21,12.68c-0.01-0.07,0-0.12,0.02-0.16c0.02-0.04,0.06-0.07,0.1-0.07c0.03,0,0.06,0,0.08,0.02
	c0.03,0.01,0.05,0.03,0.07,0.06c0.02,0.03,0.03,0.06,0.03,0.1c0.01,0.04,0.01,0.07,0,0.11c-0.01,0.03-0.02,0.06-0.05,0.08
	c-0.02,0.02-0.05,0.03-0.08,0.04c-0.03,0-0.06,0-0.08-0.02c-0.03-0.01-0.05-0.04-0.07-0.06C27.22,12.74,27.21,12.71,27.21,12.68
	 M27.25,12.67c0.01,0.05,0.02,0.08,0.05,0.11c0.02,0.02,0.05,0.03,0.09,0.03c0.03-0.01,0.06-0.02,0.07-0.05
	c0.02-0.03,0.02-0.07,0.01-0.12c0-0.03-0.01-0.06-0.03-0.08c-0.01-0.02-0.03-0.04-0.05-0.05c-0.02-0.01-0.04-0.01-0.06-0.01
	c-0.03,0-0.05,0.02-0.07,0.05C27.25,12.57,27.24,12.62,27.25,12.67"/>
<path style="fill:#F5CD28;" d="M26.85,12.95l0.07-0.02c0.02-0.01,0.04-0.02,0.05-0.02c0.01-0.01,0.02-0.02,0.02-0.03
	c0.01-0.02,0.01-0.03,0.01-0.05c0-0.02-0.01-0.05-0.01-0.07c-0.01-0.04-0.03-0.07-0.05-0.08c-0.02-0.02-0.03-0.03-0.05-0.03
	c-0.01,0-0.03,0-0.05,0.01l-0.07,0.02L26.85,12.95z M26.82,13.01l-0.12-0.37l0.11-0.03c0.02-0.01,0.04-0.01,0.06-0.01
	c0.02,0,0.04,0,0.05,0.01c0.02,0.01,0.04,0.03,0.06,0.05c0.02,0.02,0.03,0.05,0.04,0.08c0.01,0.03,0.01,0.05,0.02,0.08
	c0,0.03,0,0.04,0,0.06c0,0.02-0.01,0.03-0.02,0.04c-0.01,0.01-0.02,0.02-0.03,0.03c-0.01,0.01-0.03,0.02-0.05,0.02L26.82,13.01z"/>
<path style="fill:#FFFFFF;" d="M26.76,13.67l0.49,0.48v3.86c0,0.3,0.33,0.64,0.66,0.64h0.82c0.5,0,0.74,0.4,0.74,0.4
	s0.25-0.41,0.74-0.4l0.89,0.01c0.26,0,0.59-0.33,0.59-0.66v-3.86l0.49-0.48H26.76z"/>
<path d="M29.48,19.11l-0.02-0.04c0,0-0.25-0.39-0.72-0.39h-0.83c-0.33,0-0.69-0.35-0.69-0.67v-3.86l-0.49-0.46l5.46-0.05l-0.48,0.53
	l0.01,3.84c0,0.16-0.08,0.33-0.2,0.47c-0.13,0.14-0.28,0.22-0.41,0.22l-0.9-0.01c-0.48,0-0.71,0.39-0.72,0.39L29.48,19.11z
	 M32.18,13.65l-5.42,0.05l0.51,0.43l0.01,3.88c0,0.3,0.32,0.62,0.63,0.62h0.83c0.42,0,0.67,0.28,0.74,0.38
	c0.08-0.1,0.32-0.38,0.73-0.38l0.91,0.01c0.12,0,0.26-0.07,0.37-0.2c0.12-0.13,0.19-0.29,0.19-0.43v-3.86L32.18,13.65z"/>
<polygon style="fill:#BC0030;" points="29.89,13.67 29.89,15.92 31.71,15.92 31.71,14.15 32.2,13.67 "/>
<path d="M31.73,15.94h-1.83l-0.02-2.27l2.33-0.02l-0.48,0.51L31.73,15.94z M32.19,13.66l-2.3,0.03l0.02,2.23l1.78-0.02v-1.75
	L32.19,13.66z"/>
<polygon style="fill:#223E84;" points="26.76,13.67 29.07,13.67 29.07,15.92 27.25,15.92 27.25,14.15 "/>
<path d="M29.09,15.94h-1.83l-0.02-1.79l-0.49-0.47l2.32-0.03L29.09,15.94z M29.05,13.67l-2.29,0.02l0.51,0.45l0.01,1.78l1.78-0.02
	V13.67z"/>
<path style="fill:#BC0030;" d="M27.25,16.73h1.81v2.01l-0.17-0.08h-0.99c-0.33,0-0.66-0.32-0.66-0.65V16.73z"/>
<path d="M29.09,18.77l-0.19-0.09l-0.98,0c-0.34,0-0.68-0.33-0.68-0.66v-1.29l1.83-0.02L29.09,18.77z M29.05,16.73l-1.8,0.02
	l0.02,1.27c0,0.31,0.32,0.63,0.64,0.63h0.99l0.15,0.07V16.73z"/>
<path style="fill:#223E84;" d="M31.71,16.73h-1.81v2.01l0.17-0.08h0.99c0.33,0,0.66-0.32,0.66-0.65V16.73z"/>
<path d="M29.87,18.77v-2.04l1.83-0.02l0.02,1.3c0,0.34-0.34,0.66-0.68,0.66h-0.99L29.87,18.77z M31.69,16.73l-1.8,0.02l0.02,1.96
	l0.14-0.07h1c0.32,0,0.64-0.32,0.64-0.63V16.73z"/>
<path d="M29.48,19.11l-0.02-0.04c0,0-0.25-0.39-0.72-0.39h-0.83c-0.33,0-0.69-0.35-0.69-0.67v-3.86l-0.49-0.46l5.46-0.05l-0.48,0.53
	l0.01,3.84c0,0.16-0.08,0.33-0.2,0.47c-0.13,0.14-0.28,0.22-0.41,0.22l-0.9-0.01c-0.48,0-0.71,0.39-0.72,0.39L29.48,19.11z
	 M32.18,13.65l-5.42,0.05l0.51,0.43l0.01,3.88c0,0.3,0.32,0.62,0.63,0.62h0.83c0.42,0,0.67,0.28,0.74,0.38
	c0.08-0.1,0.32-0.38,0.73-0.38l0.91,0.01c0.12,0,0.26-0.07,0.37-0.2c0.12-0.13,0.19-0.29,0.19-0.43v-3.86L32.18,13.65z"/>
<polygon style="fill:#F5CD28;" points="29.4,14.96 29.4,15.6 29.56,15.6 29.56,14.96 29.73,14.96 29.73,14.8 29.56,14.8 
	29.56,14.64 29.4,14.64 29.4,14.8 29.23,14.8 29.23,14.96 "/>
<path d="M29.59,15.63H29.4l-0.03-0.67l-0.13,0.03L29.2,14.8l0.19-0.03l-0.03-0.13l0.2-0.03l0.03,0.19l0.14-0.03l0.03,0.19
	l-0.19,0.03L29.59,15.63z M29.4,14.93l0.03,0.67l0.1-0.02v-0.62l0.19-0.03L29.7,14.8l-0.13,0.03l-0.03-0.19l-0.13,0.03l0.03,0.13
	l-0.2,0.03l0.03,0.13L29.4,14.93z"/>
<rect x="27.84" y="14.84" transform="matrix(0.6032 0.7976 -0.7976 0.6032 23.3512 -17.1603)" style="fill:#272015;" width="2.18" height="0.11"/>
<polygon style="fill:#F5CD28;" points="28.21,14.06 28.07,13.76 28.34,13.98 "/>
<path style="fill:#BC0030;" d="M28.95,15.31c-0.01,0.02-0.17,0.66-0.17,0.66s0.52,0.08,0.51,0.05c-0.01-0.03-0.07-0.44-0.1-0.47
	C29.17,15.53,28.96,15.35,28.95,15.31"/>
<path style="fill:#FFFFFF;" d="M28.52,14.87l-0.09,0.88c0,0,0.59,0.52,0.58,0.45c-0.01-0.07-0.05-0.89-0.05-0.89L28.52,14.87z"/>
<path style="fill:#223E84;" d="M28.03,14.35L28,15.31c0,0,0.52,0.42,0.52,0.38c0-0.04,0.05-0.78,0.05-0.78L28.03,14.35z"/>
<polygon points="28.02,15.15 27.99,14.33 28.05,14.34 "/>
<rect x="27.64" y="14.98" transform="matrix(0.7073 0.7069 -0.7069 0.7073 19.0386 -15.9097)" style="fill:#272015;" width="2.18" height="0.11"/>
<polygon style="fill:#F5CD28;" points="27.91,14.31 27.73,14.04 28.03,14.22 "/>
<path style="fill:#FFFFFF;" d="M27.75,14.64v2.41c0,0.48,0.49,0.83,0.83,0.8c0.33-0.03,0.82-0.16,0.82-0.16v-1.77L27.75,14.64z"/>
<path d="M28.54,17.88c-0.33,0-0.82-0.33-0.82-0.83v-2.41l1.7,1.26l0.01,1.79c-0.03,0.03-0.52,0.17-0.85,0.19L28.54,17.88z
	 M27.73,14.66l0.05,2.39c0,0.46,0.46,0.77,0.76,0.77v0.03l0.03-0.03c0.33-0.02,0.81-0.16,0.82-0.16l-0.02-1.74L27.73,14.66z"/>
<path style="fill:#BC0030;" d="M27.75,16.56v0.48c0,0.48,0.49,0.83,0.83,0.8c0.33-0.03,0.82-0.16,0.82-0.16
	c-0.33-0.16-1.15,0.32-1.15-0.96C28.08,16.73,27.91,16.73,27.75,16.56"/>
<path style="fill:#223E84;" d="M28.26,15.01l-0.02,1.39c-0.17-0.02-0.33-0.09-0.49-0.16v-1.61L28.26,15.01z"/>
<path style="fill:#BC0030;" d="M28.72,15.41v1.07c0,0,0.12-0.02,0.31,0.06c0.2,0.08,0.38,0.15,0.38,0.15v-0.78L28.72,15.41z"/>
<path style="fill:#223E84;" d="M29.36,17.05c0,0-0.36-0.18-0.45-0.19c-0.09-0.01-0.21,0.01-0.21,0.01s-0.02,0.16-0.01,0.26
	c0.01,0.1,0.16,0.14,0.21,0.14c0.05,0,0.46-0.05,0.46-0.05V17.05z"/>
<path d="M28.54,17.88c-0.33,0-0.82-0.33-0.82-0.83v-2.41l1.7,1.26l0.01,1.79c-0.03,0.03-0.52,0.17-0.85,0.19L28.54,17.88z
	 M27.73,14.66l0.05,2.39c0,0.46,0.46,0.77,0.76,0.77v0.03l0.03-0.03c0.33-0.02,0.81-0.16,0.82-0.16l-0.02-1.74L27.73,14.66z"/>
<rect x="27.46" y="15.18" transform="matrix(0.7825 0.6226 -0.6226 0.7825 15.6971 -14.4673)" style="fill:#272015;" width="2.19" height="0.11"/>
<polygon style="fill:#F5CD28;" points="27.66,14.6 27.45,14.35 27.76,14.5 "/>
<rect x="30.01" y="13.77" transform="matrix(0.7971 0.6039 -0.6039 0.7971 15.0749 -15.1372)" style="fill:#272015;" width="0.11" height="2.18"/>
<polygon style="fill:#F5CD28;" points="30.77,14.03 30.91,13.73 30.65,13.95 "/>
<path style="fill:#BC0030;" d="M30.03,15.29c0.01,0.02,0.17,0.66,0.17,0.66s-0.52,0.08-0.51,0.05c0.01-0.03,0.07-0.44,0.1-0.47
	C29.81,15.5,30.02,15.32,30.03,15.29"/>
<path style="fill:#FFFFFF;" d="M30.47,14.84l0.09,0.87c0,0-0.59,0.52-0.58,0.45c0.01-0.07,0.05-0.88,0.05-0.88L30.47,14.84z"/>
<path style="fill:#223E84;" d="M30.96,14.32l0.03,0.96c0,0-0.52,0.42-0.52,0.38c0-0.04-0.05-0.78-0.05-0.78L30.96,14.32z"/>
<polygon points="31.03,15.12 30.94,14.31 31,14.31 "/>
<rect x="30.2" y="13.92" transform="matrix(0.7122 0.702 -0.702 0.7122 19.2436 -16.9164)" style="fill:#272015;" width="0.11" height="2.18"/>
<polygon style="fill:#F5CD28;" points="31.07,14.28 31.25,14.01 30.96,14.19 "/>
<path style="fill:#FFFFFF;" d="M31.24,14.61v2.41c0,0.48-0.49,0.83-0.82,0.8c-0.33-0.02-0.83-0.16-0.83-0.16v-1.77L31.24,14.61z"/>
<path d="M30.45,17.85l-0.04,0c-0.33-0.02-0.83-0.16-0.83-0.16l-0.02-1.8l1.66-1.31l0.05,2.44C31.27,17.52,30.77,17.85,30.45,17.85
	 M29.62,17.66c0.06,0,0.49,0.11,0.79,0.14l0.03,0.03V17.8c0.3,0,0.76-0.31,0.76-0.78v-2.41l-1.6,1.31L29.62,17.66
	C29.62,17.66,29.62,17.66,29.62,17.66"/>
<path style="fill:#BC0030;" d="M31.24,16.54v0.48c0,0.48-0.49,0.83-0.82,0.8c-0.33-0.02-0.83-0.16-0.83-0.16
	c0.33-0.16,1.15,0.32,1.15-0.96C30.91,16.7,31.07,16.7,31.24,16.54"/>
<path style="fill:#223E84;" d="M30.72,14.98l0.02,1.39c0.17-0.02,0.33-0.09,0.49-0.16v-1.61L30.72,14.98z"/>
<path style="fill:#BC0030;" d="M30.27,15.38v1.07c0,0-0.12-0.02-0.32,0.06c-0.2,0.08-0.38,0.15-0.38,0.15v-0.78L30.27,15.38z"/>
<path style="fill:#223E84;" d="M29.63,17.02c0,0,0.36-0.18,0.45-0.19c0.09-0.01,0.21,0.01,0.21,0.01S30.31,17,30.3,17.1
	c-0.01,0.1-0.16,0.15-0.21,0.15s-0.46-0.05-0.46-0.05V17.02z"/>
<path d="M30.45,17.85l-0.04,0c-0.33-0.02-0.83-0.16-0.83-0.16l-0.02-1.8l1.66-1.31l0.05,2.44C31.27,17.52,30.77,17.85,30.45,17.85
	 M29.62,17.66c0.06,0,0.49,0.11,0.79,0.14l0.03,0.03V17.8c0.3,0,0.76-0.31,0.76-0.78v-2.41l-1.6,1.31L29.62,17.66
	C29.62,17.66,29.62,17.66,29.62,17.66"/>
<rect x="30.37" y="14.11" transform="matrix(0.6206 0.7841 -0.7841 0.6206 23.4671 -18.0871)" style="fill:#272015;" width="0.11" height="2.19"/>
<polygon style="fill:#F5CD28;" points="31.33,14.57 31.54,14.32 31.22,14.47 "/>
<path style="fill:#BC0030;" d="M29.77,17.6c0.04,0.04,0.18,0.22,0.21,0.18c0.04-0.04-0.09-0.37-0.13-0.55
	c-0.05-0.17-0.15-0.36-0.15-0.63c-0.01-0.27-0.17,0.03-0.17,0.03L29.77,17.6z"/>
<path d="M29.97,17.82c-0.05,0-0.12-0.07-0.21-0.18l-0.26-1c0.03-0.07,0.09-0.18,0.16-0.18c0.07,0,0.07,0.11,0.07,0.14
	c0,0.18,0.05,0.33,0.1,0.47c0.02,0.06,0.04,0.11,0.05,0.16c0.01,0.05,0.03,0.12,0.06,0.19c0.08,0.24,0.1,0.35,0.07,0.38L29.97,17.82
	z M29.65,16.52c-0.02,0-0.07,0.06-0.1,0.13l0.25,0.94c0.1,0.13,0.15,0.16,0.16,0.16c0-0.04-0.05-0.21-0.08-0.32
	c-0.02-0.07-0.04-0.14-0.06-0.19c-0.01-0.05-0.03-0.1-0.05-0.16c-0.05-0.14-0.1-0.29-0.11-0.48C29.66,16.54,29.65,16.52,29.65,16.52
	"/>
<path style="fill:#BC0030;" d="M29.63,18.13l0.31,0.02c0,0-0.1-0.42-0.13-0.66c-0.03-0.24-0.3-0.98-0.3-0.98L29.63,18.13z"/>
<path d="M29.98,18.17l-0.35-0.01l-0.14-1.65c0.07,0.02,0.32,0.73,0.35,0.97c0.03,0.24,0.13,0.65,0.13,0.66L29.98,18.17z
	 M29.49,16.51l0.17,1.61l0.25-0.01c-0.02-0.1-0.1-0.43-0.13-0.63C29.75,17.25,29.49,16.52,29.49,16.51"/>
<path style="fill:#FFFFFF;" d="M29.4,16.43c-0.01,0.01-0.45,0.7-0.45,1.06c0,0.36,0.21,0.57,0.28,0.69
	c0.07,0.11,0.25,0.48,0.25,0.48s0.21-0.4,0.24-0.56c0.02-0.16-0.08-0.82-0.05-1.08c0.03-0.26,0.23-0.87,0.23-0.87L29.4,16.43z"/>
<path d="M29.48,18.73l-0.03-0.05c0,0-0.17-0.36-0.25-0.48l-0.04-0.06c-0.09-0.12-0.24-0.33-0.24-0.64c0-0.29,0.28-0.79,0.44-1.06
	l0.51-0.31c0.04,0.04-0.15,0.64-0.18,0.9c-0.02,0.14,0.01,0.4,0.03,0.64c0.02,0.2,0.03,0.37,0.02,0.44
	c-0.02,0.16-0.23,0.55-0.24,0.57L29.48,18.73z M29.86,16.15l-0.45,0.31c-0.27,0.46-0.43,0.83-0.43,1.04c0,0.29,0.14,0.48,0.23,0.61
	l0.05,0.06c0.06,0.09,0.17,0.32,0.22,0.43c0.06-0.11,0.19-0.38,0.21-0.5c0.01-0.07-0.01-0.24-0.02-0.43
	c-0.02-0.24-0.04-0.51-0.03-0.65C29.66,16.76,29.86,16.17,29.86,16.15"/>
<path style="fill:#223E84;" d="M29.4,16.43c-0.01,0.01-0.45,0.7-0.45,1.06c0,0.36,0.21,0.57,0.28,0.69
	c-0.02-0.23-0.04-0.44-0.02-0.73c0.03-0.76,0.53-1.21,0.53-1.21L29.4,16.43z"/>
<path style="fill:#BC0030;" d="M29.58,16.23c0,0.13-0.18,0.52-0.18,0.88c0,0.18,0.07,0.6,0.09,0.94c0.02,0.34-0.01,0.61-0.01,0.61
	s0.21-0.4,0.24-0.56c0.02-0.16-0.08-0.82-0.05-1.08c0.03-0.26,0.23-0.87,0.23-0.87L29.58,16.23z"/>
<path d="M29.48,18.73l-0.03-0.05c0,0-0.17-0.36-0.25-0.48l-0.04-0.06c-0.09-0.12-0.24-0.33-0.24-0.64c0-0.29,0.28-0.79,0.44-1.06
	l0.51-0.31c0.04,0.04-0.15,0.64-0.18,0.9c-0.02,0.14,0.01,0.4,0.03,0.64c0.02,0.2,0.03,0.37,0.02,0.44
	c-0.02,0.16-0.23,0.55-0.24,0.57L29.48,18.73z M29.86,16.15l-0.45,0.31c-0.27,0.46-0.43,0.83-0.43,1.04c0,0.29,0.14,0.48,0.23,0.61
	l0.05,0.06c0.06,0.09,0.17,0.32,0.22,0.43c0.06-0.11,0.19-0.38,0.21-0.5c0.01-0.07-0.01-0.24-0.02-0.43
	c-0.02-0.24-0.04-0.51-0.03-0.65C29.66,16.76,29.86,16.17,29.86,16.15"/>
<path style="fill:#BC0030;" d="M29.33,16.28c-0.1,0.09-0.03,0.29-0.03,0.29s0.07-0.09,0.21-0.08c0.14,0.01,0.23,0.21,0.23,0.21
	s0.09-0.06,0.1-0.2C29.86,16.36,29.57,16.21,29.33,16.28"/>
<path d="M29.73,16.74l-0.01-0.03c0,0-0.08-0.19-0.2-0.2h0c-0.13,0-0.19,0.07-0.19,0.07c-0.05-0.02-0.13-0.23-0.01-0.33
	c0.22-0.07,0.41,0.01,0.51,0.13c0.04,0.04,0.05,0.08,0.05,0.13c-0.01,0.15-0.11,0.22-0.11,0.22L29.73,16.74z M29.5,16.45
	c0.13,0.01,0.22,0.13,0.25,0.2c0.02-0.03,0.06-0.08,0.07-0.16c0-0.03-0.02-0.06-0.03-0.08c-0.07-0.08-0.28-0.16-0.45-0.11
	c-0.05,0.05-0.03,0.16-0.02,0.22C29.34,16.49,29.41,16.45,29.5,16.45"/>
<path d="M29.02,15.73l0.29,0.74c0,0,0.13-0.05,0.21-0.08c0.08-0.03,0.18-0.01,0.18-0.01s0.13-0.07,0.2-0.1
	c0.07-0.02,0.21-0.03,0.21-0.03l0.02-0.03c0,0-1-0.57-1.09-0.54L29.02,15.73z"/>
<path d="M29.29,16.51l-0.3-0.77l0.03-0.09h0c0.15,0,1.02,0.49,1.11,0.54l0.03,0.02l-0.04,0.05c-0.02,0.01-0.15,0.01-0.22,0.04
	c-0.06,0.02-0.19,0.09-0.19,0.09h-0.09c-0.04,0-0.07,0-0.1,0.02c-0.08,0.03-0.21,0.08-0.21,0.08L29.29,16.51z M29.04,15.71
	l0.28,0.72c0.04-0.02,0.12-0.05,0.18-0.07c0.06-0.02,0.18-0.02,0.19-0.01c0-0.01,0.12-0.07,0.18-0.1c0.08-0.02,0.21-0.03,0.22-0.03
	C29.74,16.04,29.13,15.71,29.04,15.71"/>
<path style="fill:#FFFFFF;" d="M29.04,15.66l0.29,0.74c0,0,0.13-0.05,0.21-0.08c0.08-0.03,0.18-0.01,0.18-0.01s0.13-0.07,0.2-0.1
	c0.07-0.02,0.21-0.03,0.21-0.03l-0.29-0.81c0,0-0.11,0.01-0.2,0.04c-0.07,0.02-0.17,0.12-0.17,0.12c-0.05,0-0.14-0.01-0.23,0.01
	C29.15,15.59,29.07,15.63,29.04,15.66"/>
<path d="M29.31,16.44l-0.3-0.77c0.05-0.08,0.15-0.12,0.21-0.15c0.04-0.01,0.09-0.02,0.15-0.02l0.08,0c0,0,0.1-0.09,0.18-0.12
	c0.09-0.03,0.21-0.05,0.21-0.05l0.32,0.83c-0.03,0.04-0.16,0.04-0.22,0.07c-0.06,0.02-0.19,0.09-0.19,0.09l-0.09,0
	c-0.04,0-0.07,0.01-0.1,0.02c-0.08,0.03-0.21,0.08-0.21,0.08L29.31,16.44z M29.81,15.4c-0.01,0.01-0.1,0.03-0.17,0.05
	c-0.06,0.02-0.16,0.11-0.16,0.11l-0.11,0c-0.05,0-0.09,0.01-0.13,0.02c-0.08,0.03-0.15,0.07-0.18,0.1l0.28,0.68
	c0.04-0.02,0.12-0.05,0.18-0.07c0.06-0.02,0.18-0.02,0.19-0.01c0-0.01,0.12-0.07,0.18-0.1c0.08-0.03,0.21-0.03,0.22-0.03L29.81,15.4
	z"/>
<polygon style="fill:#999396;" points="29.75,16.3 29.44,15.55 29.48,15.54 "/>
<path style="fill:#999396;" d="M29.1,15.73l-0.02-0.03c0.1-0.08,0.27-0.13,0.41-0.11C29.35,15.61,29.19,15.65,29.1,15.73"/>
<path style="fill:#999396;" d="M29.13,15.82l-0.02-0.03c0.1-0.08,0.27-0.13,0.41-0.11C29.38,15.7,29.22,15.74,29.13,15.82"/>
<path style="fill:#999396;" d="M29.16,15.92l-0.02-0.03c0.1-0.08,0.27-0.13,0.41-0.11C29.41,15.8,29.25,15.84,29.16,15.92"/>
<path style="fill:#999396;" d="M29.18,16.02l-0.02-0.03c0.1-0.08,0.27-0.13,0.41-0.11C29.44,15.9,29.28,15.94,29.18,16.02"/>
<path style="fill:#999396;" d="M29.24,16.12l-0.02-0.03c0.1-0.08,0.27-0.13,0.41-0.11C29.49,16,29.33,16.05,29.24,16.12"/>
<path style="fill:#999396;" d="M29.27,16.22l-0.02-0.03c0.1-0.08,0.27-0.13,0.41-0.11C29.52,16.1,29.36,16.15,29.27,16.22"/>
<path style="fill:#999396;" d="M29.31,16.32l-0.02-0.03c0.1-0.08,0.27-0.13,0.41-0.11C29.56,16.2,29.4,16.24,29.31,16.32"/>
<path style="fill:#999396;" d="M29.51,15.62l-0.03-0.02c0.09-0.09,0.24-0.16,0.38-0.16C29.73,15.47,29.59,15.53,29.51,15.62"/>
<path style="fill:#999396;" d="M29.53,15.73l-0.03-0.02c0.09-0.09,0.24-0.16,0.38-0.16C29.75,15.59,29.61,15.65,29.53,15.73"/>
<path style="fill:#999396;" d="M29.56,15.81l-0.03-0.02c0.09-0.09,0.24-0.16,0.38-0.16C29.78,15.67,29.64,15.73,29.56,15.81"/>
<path style="fill:#999396;" d="M29.6,15.92l-0.03-0.02c0.09-0.09,0.24-0.16,0.38-0.16C29.83,15.77,29.69,15.83,29.6,15.92"/>
<path style="fill:#999396;" d="M29.63,16.02L29.6,16c0.09-0.1,0.24-0.16,0.38-0.16C29.85,15.88,29.71,15.93,29.63,16.02"/>
<path style="fill:#999396;" d="M29.67,16.11l-0.03-0.02c0.09-0.1,0.24-0.16,0.38-0.16C29.9,15.96,29.75,16.02,29.67,16.11"/>
<path style="fill:#999396;" d="M29.71,16.21l-0.03-0.02c0.09-0.09,0.24-0.16,0.38-0.16C29.93,16.06,29.79,16.12,29.71,16.21"/>
<path d="M29.31,16.44l-0.3-0.77c0.05-0.08,0.15-0.12,0.21-0.15c0.04-0.01,0.09-0.02,0.15-0.02l0.08,0c0,0,0.1-0.09,0.18-0.12
	c0.09-0.03,0.21-0.05,0.21-0.05l0.32,0.83c-0.03,0.04-0.16,0.04-0.22,0.07c-0.06,0.02-0.19,0.09-0.19,0.09l-0.09,0
	c-0.04,0-0.07,0.01-0.1,0.02c-0.08,0.03-0.21,0.08-0.21,0.08L29.31,16.44z M29.81,15.4c-0.01,0.01-0.1,0.03-0.17,0.05
	c-0.06,0.02-0.16,0.11-0.16,0.11l-0.11,0c-0.05,0-0.09,0.01-0.13,0.02c-0.08,0.03-0.15,0.07-0.18,0.1l0.28,0.68
	c0.04-0.02,0.12-0.05,0.18-0.07c0.06-0.02,0.18-0.02,0.19-0.01c0-0.01,0.12-0.07,0.18-0.1c0.08-0.03,0.21-0.03,0.22-0.03L29.81,15.4
	z"/>
<path style="fill:#347C63;" d="M28.52,20.77c0.04-0.02,0.45-0.27,0.67-0.46c0.22-0.19,0.41-0.44,0.65-0.67
	c0.24-0.23,0.35-0.17,0.47-0.44c0.12-0.27,0.06-0.38,0.06-0.65c0.08,0,0.11,0.09,0.16,0.18c0.02,0.04,0.13-0.32,0.12-0.22
	c0,0.12-0.01,0.4,0,0.39c0.04-0.06,0.21-0.43,0.21-0.43s-0.08,0.52-0.06,0.46c0.02-0.06,0.21-0.33,0.21-0.33v0.33
	c0,0,0.14-0.23,0.18-0.4c0.04-0.02,0.12,0.23,0.16,0.17c0.04-0.06,0.08-0.4,0.14-0.36c0.06,0.04,0.1,0.21,0.1,0.21
	s-0.04-1.11,0.02-1.09c0.06,0.02,0.2,0.06,0.2,0.06v-0.42c0,0,0.16,0.5,0.18,0.56c0.02,0.06-0.02-0.4-0.06-0.52
	c-0.04-0.12-0.08-0.35-0.08-0.35s0.2,0.29,0.24,0.35c0-0.06-0.16-0.56-0.2-0.56c-0.04,0-0.22,0.21-0.18,0.19
	c0.04-0.02,0.14-0.44,0.2-0.44c0.06,0,0.18,0.3,0.16,0.27l-0.12-0.66l0.16,0.29c0,0,0.04-0.17,0-0.27c-0.04-0.1-0.06-0.25-0.06-0.25
	s0.12,0.15,0.1,0.12c-0.02-0.04,0-0.34,0-0.34s0.08,0.18,0.1,0.22c0.02,0.04,0.09,0.15,0.09,0.15V15.7l0.1,0.09
	c0,0-0.22-0.47-0.32-0.49c-0.1-0.02-0.23,0.16-0.23,0.16s0.18-0.31,0.23-0.31h0.08l-0.06-0.33c0,0,0.39,0.54,0.37,0.46
	c-0.02-0.08-0.18-0.44-0.2-0.57c-0.02-0.14-0.08-0.37-0.08-0.37s0.14,0.19,0.18,0.25c0.04,0.06,0.16,0.29,0.16,0.25
	c0-0.04-0.02-0.48-0.02-0.48l0.2,0.42l0.18-0.5l0.1,0.48c0,0,0.08-0.23,0.1-0.33c0.02-0.09,0.08-0.09,0.08-0.09s-0.02,0.4-0.02,0.44
	c0,0.04-0.04,0.25-0.04,0.25s0.18-0.36,0.22-0.44c0.04-0.08,0.2-0.13,0.2-0.13s-0.08,0.17-0.1,0.23c-0.02,0.06-0.24,0.5-0.2,0.5
	s0.2-0.23,0.3-0.23s0.28,0.25,0.24,0.27c-0.04,0.02-0.2-0.07-0.26-0.07c-0.06,0-0.53,0.52-0.45,0.5c0.08-0.02,0.35-0.31,0.35-0.31
	s-0.1,0.24-0.06,0.22c0.04-0.02,0.33-0.19,0.33-0.19s-0.43,0.39-0.37,0.39c0.06,0,0.3-0.12,0.3-0.12l-0.3,0.37
	c0,0,0.24-0.16,0.32-0.16c0.08,0,0.25,0.06,0.25,0.06s-0.3,0.02-0.33,0.04c-0.04,0.02-0.33,0.44-0.26,0.4
	c0.08-0.04,0.24-0.21,0.24-0.21l-0.1,0.25l0.41-0.25l-0.57,0.6c0,0,0.39-0.31,0.45-0.29c0.06,0.02,0.33,0.33,0.33,0.33
	s-0.35-0.17-0.39-0.17c-0.04,0-0.57,0.67-0.49,0.64c0.08-0.04,0.36-0.19,0.43-0.19c0.08,0,0.21,0.35,0.18,0.35
	c-0.04,0-0.22-0.1-0.26-0.1c-0.04,0-0.49,0.27-0.49,0.27s0.33-0.06,0.43-0.08c0.1-0.02,0.3,0,0.37-0.04c0.08-0.04,0.3-0.11,0.3-0.11
	s-0.23,0.14-0.34,0.24c-0.12,0.1-0.33,0.13-0.33,0.13l0.37,0.04c0,0-0.51,0.16-0.64,0.21c-0.12,0.05-0.2,0.1-0.28,0.14
	c0.06,0,0.35-0.01,0.43-0.01c0.08,0,0.45,0.06,0.45,0.06s-0.49,0.08-0.55,0.08c-0.06,0-0.14,0.06-0.14,0.06l0.53,0.06l-0.35,0.06
	c0,0,0.26,0.09,0.32,0.11c0.06,0.02,0.24,0.14,0.24,0.14s-0.45-0.1-0.55-0.1c-0.1,0-0.25,0.02-0.25,0.02s0.17,0.01,0.26,0.06
	c0.07,0.03,0.09,0.07,0.09,0.07l-0.26-0.02c0,0,0.18,0.14,0.24,0.15c0.06,0.02,0.12,0.08,0.12,0.08l-0.39-0.04l0.34,0.25
	c0,0-0.35-0.08-0.41-0.08h-0.06c0,0,0.18,0.14,0.22,0.19c0.04,0.06,0.08,0.14,0.08,0.14s-0.16-0.04-0.24-0.08
	c-0.08-0.04-0.22-0.06-0.22-0.06l0.18,0.19l-0.3-0.06l0.16,0.23l-0.3-0.1c0,0,0.14,0.08,0.14,0.13c0,0.06-0.06,0.33-0.1,0.29
	c-0.04-0.04-0.06-0.19-0.1-0.25c-0.04-0.06-0.1-0.1-0.1-0.1s-0.11-0.05-0.2-0.06c0.02,0.04,0.23,0.17,0.26,0.22l-0.38-0.04
	c0,0,0.36,0.17,0.3,0.17c-0.06,0-1.95-0.15-2.07-0.15c-0.12,0-0.69,0.65-0.81,0.71c-0.12,0.06-0.39,0.38-0.51,0.4
	c-0.12,0.02-0.27,0.1-0.27,0.1L28.52,20.77z"/>
<path style="fill:#1A4104;" d="M28.74,20.92l-0.23-0.12c0.05-0.08,0.46-0.33,0.66-0.51c0.12-0.11,0.24-0.23,0.36-0.36
	c0.09-0.1,0.19-0.21,0.29-0.31c0.1-0.09,0.18-0.14,0.24-0.18c0.1-0.06,0.16-0.1,0.23-0.25c0.08-0.19,0.08-0.29,0.06-0.44
	c0-0.06-0.01-0.12-0.01-0.2c0.12-0.03,0.16,0.05,0.2,0.14c0-0.02,0.02-0.06,0.03-0.09c0.04-0.1,0.05-0.12,0.07-0.12
	c0.03,0.21,0.03,0.4,0.04,0.43c-0.01-0.06,0.15-0.44,0.15-0.44c0,0,0,0.01,0,0.01c0.01,0.01,0.01,0.02,0.01,0.04
	c0.01,0.12,0,0.27-0.01,0.35c0.03-0.1,0.15-0.25,0.16-0.28l0.05,0.29c0.02-0.08,0.1-0.23,0.13-0.36c0.07-0.02,0.09,0.02,0.13,0.08
	c0.01,0.03,0.04,0.07,0.05,0.08c0-0.01,0.01-0.09,0.03-0.14c0.03-0.15,0.06-0.23,0.11-0.23c0.09,0.05,0.13,0.21,0.14,0.24
	c-0.07-0.39-0.09-1.05-0.04-1.11l0.23,0.05l-0.04-0.39c0.03-0.03,0.13,0.24,0.19,0.4c-0.02-0.12-0.04-0.29-0.07-0.35
	c-0.04-0.12-0.08-0.35-0.08-0.35c0.04-0.02,0.18,0.17,0.26,0.27c-0.07-0.13-0.17-0.43-0.2-0.46c0,0.01-0.06,0.07-0.11,0.13
	c-0.04-0.06-0.02-0.11-0.01-0.15c0.07-0.2,0.1-0.28,0.15-0.28c0.08,0,0.17,0.26,0.18,0.28l0,0c-0.09-0.08-0.16-0.21-0.18-0.22
	c-0.01,0.01-0.06,0.16-0.09,0.24c0,0,0,0,0,0c0.02-0.03,0.05-0.05,0.07-0.05c0.09,0,0.23,0.58,0.23,0.59
	c-0.06-0.03-0.16-0.16-0.23-0.24c0.02,0.07,0.05,0.17,0.07,0.23c0.03,0.08,0.08,0.51,0.06,0.55c-0.07-0.07-0.23-0.57-0.23-0.57
	l0.06,0.41l-0.24-0.03c0,0.05,0,0.58,0.02,1.07c-0.07-0.06-0.11-0.16-0.14-0.19c0,0.01-0.03,0.12-0.05,0.19
	c-0.02,0.09-0.03,0.14-0.05,0.17c-0.07,0.02-0.1-0.02-0.14-0.09c-0.02-0.03-0.04-0.07-0.05-0.07c-0.01,0.15-0.14,0.38-0.15,0.39
	l0-0.02c0-0.01,0-0.01,0-0.03l-0.05-0.3c-0.02,0.12-0.14,0.3-0.16,0.34c-0.05,0-0.07,0-0.02-0.31c-0.04,0.12-0.11,0.25-0.13,0.28
	c-0.05,0-0.06-0.01-0.06-0.29c-0.04,0.11-0.06,0.13-0.09,0.13c-0.08-0.13-0.11-0.18-0.17-0.18c0.03,0.04,0.04,0.1,0.04,0.16
	c0.01,0.15,0.02,0.27-0.07,0.47c-0.08,0.17-0.15,0.22-0.25,0.28c-0.06,0.04-0.14,0.08-0.23,0.17c-0.1,0.1-0.2,0.21-0.29,0.31
	c-0.12,0.13-0.24,0.26-0.36,0.37c-0.22,0.19-0.64,0.44-0.67,0.46l0.2,0.06c0.04-0.02,0.17-0.08,0.27-0.09
	c0.06-0.01,0.18-0.13,0.28-0.22c0.09-0.08,0.17-0.16,0.22-0.18c0.04-0.02,0.18-0.16,0.31-0.29c0.26-0.27,0.43-0.43,0.51-0.43
	c0.07,0,0.73,0.05,1.31,0.1c0.31,0.02,0.58,0.04,0.7,0.05c-0.06-0.02-0.16-0.07-0.25-0.11l0.33-0.01c-0.03-0.01-0.06-0.03-0.09-0.05
	c-0.09-0.07-0.13-0.1-0.14-0.12c0.12-0.04,0.24,0.02,0.24,0.02c0.01,0,0.07,0.04,0.11,0.11c0.02,0.03,0.04,0.09,0.05,0.13
	c0.01,0.04,0.03,0.1,0.04,0.11c0-0.02,0.05-0.21,0.05-0.27c0-0.02-0.06-0.08-0.12-0.11l0.01,0c0.03-0.02,0.07-0.01,0.1,0.01
	l0.21,0.03l-0.19-0.19l0.33,0.01l-0.2-0.14c0.03-0.05,0.17-0.03,0.25,0.01c0.05,0.02,0.12,0.05,0.17,0.06
	c-0.02-0.02-0.03-0.05-0.05-0.07c-0.03-0.04-0.16-0.15-0.21-0.18l-0.07-0.05h0.14c0.06,0,0.38,0.07,0.42,0.08l-0.36-0.2l0.33-0.01
	c-0.02-0.01-0.03-0.02-0.05-0.02c-0.06-0.02-0.23-0.15-0.24-0.16l0.22-0.03c-0.01-0.01-0.03-0.02-0.04-0.02
	c-0.08-0.05-0.25-0.06-0.25-0.06c0-0.06,0.15-0.08,0.25-0.08c0.07,0,0.28,0.04,0.42,0.07c-0.05-0.02-0.09-0.05-0.12-0.05
	c-0.06-0.02-0.32-0.11-0.32-0.11l0.02-0.01c0.01-0.01,0.02-0.01,0.04-0.01l0.31-0.1h-0.53c-0.01-0.06,0.07-0.12,0.14-0.12
	c0.04,0,0.24-0.03,0.39-0.05c-0.11,0-0.25-0.02-0.29-0.02c-0.04,0-0.14,0.01-0.24,0.01c-0.08,0-0.16,0.01-0.19,0.01l0.01-0.03
	l-0.01-0.03h0.03L33,18c0.07-0.03,0.14-0.07,0.23-0.11c0.13-0.05,0.64-0.21,0.64-0.21l-0.25,0.01l0.26-0.01
	c0.01,0.06-0.51,0.21-0.63,0.26c-0.06,0.02-0.11,0.05-0.16,0.07c0.02,0,0.04,0,0.05,0c0.1,0,0.2-0.01,0.24-0.01
	c0.08,0,0.46,0.06,0.46,0.06c0,0.06-0.5,0.14-0.56,0.14c-0.04,0-0.1,0.04-0.12,0.05l0.52,0.01l-0.3,0.1
	c0.08,0.01,0.22,0.06,0.27,0.07c0.06,0.02,0.22,0.13,0.24,0.14c-0.18,0.02-0.49-0.04-0.57-0.04c-0.01,0-0.03,0-0.04,0
	c0.02,0.01,0.04,0.02,0.06,0.03c0.08,0.03,0.1,0.08,0.1,0.09l-0.29,0.02c0.09,0,0.21,0.08,0.25,0.1c0.06,0.02,0.13,0.08,0.13,0.08
	h-0.02c-0.01,0.02-0.04,0.02-0.06,0l-0.33,0.01l0.36,0.2c-0.15,0.02-0.34-0.02-0.41-0.02c0.04,0.03,0.13,0.1,0.16,0.14
	c0.04,0.06,0.08,0.14,0.08,0.14c-0.04,0.04-0.2,0-0.28-0.04c-0.07-0.04-0.2-0.06-0.21-0.06l0.2,0.14l-0.32-0.01l0.19,0.18
	l-0.21-0.03c0.04,0.02,0.06,0.06,0.06,0.09c0,0-0.04,0.32-0.12,0.32c-0.05-0.04-0.07-0.09-0.09-0.15c-0.01-0.05-0.03-0.1-0.04-0.12
	c-0.04-0.05-0.09-0.09-0.09-0.09c0,0-0.04-0.02-0.09-0.04c0.02,0.01,0.04,0.03,0.06,0.04c0.07,0.05,0.12,0.09,0.14,0.11l-0.4,0
	c0.35,0.1,0.34,0.12,0.33,0.15c-0.06,0.03-0.4,0-0.8-0.03c-0.55-0.04-1.23-0.09-1.3-0.09c-0.06,0-0.3,0.24-0.47,0.41
	c-0.17,0.17-0.28,0.27-0.33,0.3c-0.05,0.02-0.13,0.1-0.21,0.17c-0.12,0.11-0.24,0.22-0.31,0.23c-0.11,0.02-0.27,0.09-0.27,0.09
	L28.74,20.92z M33.5,17.7c0-0.06,0.2-0.09,0.31-0.18c0.04-0.03,0.09-0.07,0.13-0.1c-0.02,0.01-0.04,0.02-0.05,0.03
	c-0.05,0.02-0.14,0.03-0.23,0.03c-0.06,0-0.11,0-0.15,0.01c-0.1,0.02-0.43,0.08-0.43,0.08c0,0,0.01-0.01,0.01-0.01
	c0-0.01,0.01-0.02,0.04-0.03c0.18-0.16,0.41-0.29,0.44-0.29c0.02,0,0.07,0.02,0.14,0.05c0.04,0.02,0.1,0.05,0.12,0.05
	c-0.02-0.03-0.13-0.28-0.18-0.29c-0.06,0-0.26,0.11-0.36,0.15l-0.07,0.03c-0.05-0.07,0.41-0.69,0.48-0.69c0.04,0,0.3,0.12,0.41,0.18
	c-0.17-0.1-0.32-0.26-0.36-0.27c-0.04,0-0.25,0.15-0.43,0.28l0,0c0.02-0.04,0.06-0.09,0.11-0.14l0.42-0.5l-0.38,0.29l0.04-0.21
	c-0.04,0.06-0.13,0.15-0.18,0.17c-0.07-0.08,0.19-0.44,0.23-0.46c0.02-0.01,0.12-0.02,0.2-0.03c-0.04-0.01-0.07-0.01-0.1-0.01
	c-0.05,0-0.22,0.09-0.31,0.15L33.37,16c0-0.02,0.01-0.04,0.04-0.06l0.18-0.28c-0.06,0.06-0.19,0.11-0.24,0.11
	c-0.03-0.04-0.05-0.06,0.16-0.26c-0.05,0.03-0.09,0.06-0.11,0.06c-0.04-0.02-0.06-0.04-0.01-0.18c-0.07,0.11-0.23,0.26-0.29,0.28
	c-0.04-0.1,0.38-0.56,0.45-0.56c0.03,0,0.08,0.02,0.13,0.04c0.04,0.02,0.09,0.04,0.11,0.04c-0.01-0.03-0.15-0.21-0.22-0.21
	c-0.05,0-0.13,0.09-0.19,0.14c-0.06,0.06-0.08,0.09-0.11,0.09c-0.05-0.04-0.03-0.1,0.11-0.41c0.03-0.06,0.05-0.11,0.05-0.13
	c0.02-0.04,0.06-0.14,0.08-0.2c-0.03,0.04-0.1,0.08-0.13,0.13c-0.04,0.08-0.21,0.44-0.21,0.44c-0.06-0.02-0.02-0.22-0.02-0.26
	c0-0.03,0.01-0.28,0.02-0.39c-0.01,0.01-0.01,0.03-0.02,0.05c-0.02,0.1-0.1,0.33-0.1,0.33l-0.01-0.02
	c-0.01-0.01-0.01-0.02-0.01-0.04l-0.14-0.42l-0.12,0.5l-0.22-0.36c0.03,0.12,0.04,0.38,0.04,0.41c-0.06,0.03-0.06,0.03-0.15-0.13
	c-0.02-0.04-0.05-0.08-0.06-0.1l-0.1-0.14c0.02,0.07,0.04,0.17,0.05,0.24c0.01,0.08,0.08,0.27,0.13,0.4
	c0.03,0.08,0.05,0.15,0.06,0.18c-0.05,0.04-0.08,0.04-0.43-0.44l0.11,0.3l-0.11,0.03c-0.02,0.01-0.06,0.06-0.1,0.12
	c0.03-0.02,0.06-0.03,0.09-0.03c0.13,0.02,0.31,0.4,0.36,0.51l-0.15-0.05l0.01,0.01l-0.02-0.03l0.15,0.06
	c-0.15-0.18-0.29-0.43-0.34-0.44h0c-0.08,0-0.17,0.1-0.21,0.14c0,0,0,0,0-0.01c-0.01-0.02,0-0.06,0.03-0.09
	c0.05-0.14,0.13-0.26,0.18-0.26h0.08l-0.09-0.29c0.14,0.13,0.26,0.27,0.34,0.36c-0.01-0.02-0.02-0.04-0.02-0.06
	c-0.06-0.14-0.12-0.32-0.14-0.41c-0.02-0.14-0.08-0.36-0.08-0.36l0.01,0.01c0.02-0.01,0.03,0.02,0.05,0.05l0.17,0.17
	c0.01,0.02,0.04,0.06,0.06,0.1c0.02,0.04,0.05,0.1,0.07,0.13c-0.04-0.08-0.05-0.44-0.05-0.44l0.01,0.01c0.01,0,0.02,0.02,0.03,0.04
	l0.22,0.35l0.12-0.5l0.13,0.42c0.01-0.08,0.05-0.2,0.06-0.27c0.03-0.12,0.1-0.12,0.11-0.12c0.03,0.03,0.01,0.43,0.01,0.47
	c0,0.01-0.01,0.05-0.01,0.09c0.04-0.11,0.11-0.25,0.13-0.29c0.04-0.09,0.2-0.14,0.21-0.15c0.04,0.04-0.04,0.21-0.06,0.27
	c-0.01,0.02-0.03,0.07-0.06,0.13c-0.03,0.07-0.09,0.21-0.12,0.29c0.01-0.01,0.02-0.02,0.02-0.02c0.07-0.08,0.16-0.17,0.23-0.17
	c0.1,0,0.25,0.2,0.27,0.27l-0.05,0.06c-0.03,0-0.08-0.02-0.13-0.04c-0.04-0.02-0.09-0.04-0.11-0.04c-0.05,0.02-0.42,0.41-0.43,0.47
	c0.02-0.04,0.2-0.21,0.31-0.33c0.02,0.11-0.02,0.21-0.02,0.23c0.01-0.04,0.3-0.21,0.3-0.21c0,0,0,0,0,0.01
	c0.01,0.02-0.02,0.05-0.06,0.08c-0.13,0.16-0.26,0.3-0.27,0.32c0.01-0.03,0.17-0.1,0.26-0.14l-0.01,0.02c0,0.01-0.01,0.01-0.01,0.02
	l-0.19,0.29c0.07-0.06,0.19-0.13,0.25-0.13c0.09,0,0.25,0.06,0.26,0.07c-0.01,0-0.01,0-0.02,0.01c-0.01,0.01-0.02,0.02-0.04,0.02
	c-0.13,0.05-0.26,0.06-0.28,0.07c-0.04,0.03-0.25,0.33-0.25,0.38c0.03-0.05,0.15-0.18,0.2-0.23l0,0.01c0.01,0.01,0,0.03-0.01,0.06
	l-0.04,0.21l0.37-0.29l-0.42,0.5c0.11-0.1,0.26-0.2,0.31-0.2c0.08,0.02,0.3,0.26,0.36,0.34c-0.2-0.04-0.39-0.12-0.42-0.12
	c-0.04,0.03-0.32,0.38-0.43,0.54c0.15-0.08,0.31-0.16,0.37-0.16c0.1,0,0.21,0.3,0.21,0.36c-0.06,0.04-0.11,0.02-0.18-0.01
	c-0.04-0.02-0.1-0.05-0.12-0.05c-0.03,0.01-0.2,0.11-0.37,0.2c0.1-0.03,0.24-0.05,0.3-0.07c0.04-0.01,0.1-0.01,0.16-0.01
	c0.08,0,0.17,0,0.21-0.02c0.08-0.04,0.3-0.12,0.3-0.12c0.03,0.05-0.2,0.2-0.32,0.29C33.73,17.67,33.53,17.7,33.5,17.7L33.5,17.7z
	 M32.08,16.52l-0.16-0.59l0.18,0.23c-0.01-0.05,0-0.15-0.02-0.21c-0.04-0.1-0.06-0.25-0.06-0.26c0.03-0.01,0.08,0.03,0.11,0.06
	c-0.03-0.07-0.02-0.22-0.01-0.29c0.06,0,0.14,0.17,0.16,0.21c0.02,0.03,0.07,0.11,0.09,0.14l0.01,0.02
	c-0.06,0.02-0.13-0.09-0.15-0.13c-0.02-0.04-0.1-0.22-0.1-0.22c0.05,0.13,0.04,0.3,0.05,0.32c-0.03,0.03-0.04,0.05-0.08,0
	c0.01,0.04,0.03,0.1,0.04,0.14c0.04,0.1,0,0.28,0,0.29l-0.21-0.28L32.08,16.52z"/>
<path style="fill:#1A4104;" d="M30.37,19.36l-0.04-0.04c0.1-0.1,0.26-0.27,0.27-0.32c0.03-0.07,0.04-0.12,0.04-0.12
	c0.06,0.01,0.04,0.07,0.01,0.14C30.63,19.09,30.4,19.33,30.37,19.36"/>
<path style="fill:#1A4104;" d="M30.49,19.4l-0.03-0.05c0.2-0.13,0.33-0.46,0.33-0.47C30.84,18.92,30.71,19.26,30.49,19.4"/>
<path style="fill:#1A4104;" d="M30.86,19.26l-0.04-0.05c0.07-0.05,0.15-0.24,0.18-0.31C31.05,18.93,30.96,19.19,30.86,19.26"/>
<path style="fill:#1A4104;" d="M30.91,19.41l-0.03-0.05c0.36-0.25,0.36-0.73,0.36-0.73C31.3,18.65,31.3,19.14,30.91,19.41"/>
<path style="fill:#1A4104;" d="M31.15,19.42l-0.04-0.04c0.36-0.4,0.36-0.97,0.36-0.98C31.53,18.43,31.53,19,31.15,19.42"/>
<path style="fill:#1A4104;" d="M31.27,19.48l-0.03-0.05c0.29-0.16,0.3-0.88,0.3-0.96l0.06-0.05C31.61,18.61,31.59,19.31,31.27,19.48
	"/>
<path style="fill:#1A4104;" d="M31.75,18.96c-0.01-0.44-0.14-0.77-0.14-0.78c0.06,0.01,0.2,0.33,0.2,0.78L31.75,18.96z"/>
<path style="fill:#1A4104;" d="M31.91,18.8l-0.06,0c0.01-0.49-0.17-0.82-0.18-0.82C31.73,17.95,31.93,18.29,31.91,18.8"/>
<path style="fill:#1A4104;" d="M31.95,18.77l-0.06,0c0.11-1.1-0.12-1.22-0.12-1.23C31.82,17.5,32.07,17.63,31.95,18.77"/>
<path style="fill:#1A4104;" d="M32.12,18.28l-0.06-0.01c0.04-0.47-0.09-0.64-0.09-0.64C32.02,17.6,32.16,17.78,32.12,18.28"/>
<path style="fill:#1A4104;" d="M32.28,17.95l-0.06-0.01c0.05-0.35-0.17-0.81-0.17-0.81h0C32.12,17.14,32.33,17.59,32.28,17.95"/>
<path style="fill:#1A4104;" d="M32.29,18.61l-0.03-0.05c0.44-0.29,0.74-0.41,0.86-0.37C33.03,18.22,32.85,18.24,32.29,18.61"/>
<path style="fill:#1A4104;" d="M32.09,19.01l-0.03-0.05c0.89-0.61,1.07-0.48,1.09-0.46C33.1,18.55,32.93,18.44,32.09,19.01"/>
<path style="fill:#1A4104;" d="M33.13,18.82c-0.05,0-0.17-0.04-0.59-0.01l0-0.06c0.36-0.02,0.57,0,0.62,0.06
	C33.16,18.82,33.15,18.82,33.13,18.82"/>
<path style="fill:#1A4104;" d="M32.8,19.16c-0.04,0-0.13-0.06-0.47-0.04l0-0.06c0.26-0.02,0.43,0.01,0.5,0.08
	C32.82,19.15,32.81,19.16,32.8,19.16"/>
<path style="fill:#1A4104;" d="M32.58,17.5l-0.04-0.04c0.6-0.69,0.73-0.74,0.74-0.75C33.29,16.77,33.17,16.83,32.58,17.5"/>
<path style="fill:#1A4104;" d="M32.55,17.68l-0.03-0.05c0.61-0.4,0.68-0.46,0.69-0.46C33.24,17.21,33.18,17.27,32.55,17.68"/>
<path style="fill:#1A4104;" d="M32.5,18l-0.04-0.04c0.45-0.44,0.66-0.47,0.66-0.47C33.13,17.55,32.93,17.58,32.5,18"/>
<path style="fill:#1A4104;" d="M32.49,18.2l-0.04-0.04c0.78-0.61,1.12-0.5,1.14-0.49C33.57,17.71,33.24,17.61,32.49,18.2"/>
<path style="fill:#1A4104;" d="M32.38,18.38l-0.03-0.05c0.33-0.21,0.49-0.26,0.59-0.28l0.08,0.03
	C32.86,18.13,32.7,18.17,32.38,18.38"/>
<path style="fill:#1A4104;" d="M32.77,15.87c-0.15-0.71-0.24-1.02-0.24-1.02c0.08,0.01,0.15,0.29,0.29,1.01L32.77,15.87z"/>
<path style="fill:#1A4104;" d="M32.87,15.89c-0.06-0.02,0.03-0.33,0.03-0.4c0.01-0.06-0.04-0.47-0.19-0.7l0.05-0.03
	c0.16,0.24,0.21,0.67,0.2,0.74C32.96,15.57,32.87,15.89,32.87,15.89"/>
<path style="fill:#1A4104;" d="M33.01,15.09c-0.05,0-0.09-0.11-0.07-0.46l0.06,0c-0.03,0.36,0.02,0.46,0.02,0.46
	C33.02,15.09,33.02,15.09,33.01,15.09"/>
<path style="fill:#1A4104;" d="M32.99,15.51l-0.05-0.03c0.09-0.17,0.21-0.51,0.21-0.52C33.19,14.99,33.08,15.34,32.99,15.51"/>
<path style="fill:#1A4104;" d="M32.77,16.31c0.01-0.06,0.05-0.15,0.15-0.39c0.1-0.24,0.23-0.54,0.32-0.77l0.05,0.02
	c-0.09,0.22-0.22,0.54-0.32,0.77c-0.08,0.18-0.14,0.32-0.14,0.34L32.77,16.31z"/>
<path style="fill:#1A4104;" d="M32.78,16.73l-0.05-0.03c0.45-0.89,0.6-1.02,0.61-1.02C33.37,15.74,33.22,15.87,32.78,16.73"/>
<path style="fill:#1A4104;" d="M32.8,16.87l-0.05-0.03c0.51-0.71,0.59-0.89,0.59-0.89C33.39,15.98,33.32,16.15,32.8,16.87"/>
<path style="fill:#1A4104;" d="M32.71,17.2l-0.05-0.04c0.59-0.75,0.82-0.84,0.83-0.84C33.51,16.38,33.28,16.47,32.71,17.2"/>
<path style="fill:#1A4104;" d="M32.35,17.59c-0.07-0.65-0.33-1.01-0.33-1.01c0.07-0.02,0.32,0.34,0.39,1L32.35,17.59z"/>
<path style="fill:#1A4104;" d="M32.46,17.24c-0.06,0-0.1-0.56-0.39-1.01l0.05-0.03C32.42,16.66,32.46,17.23,32.46,17.24"/>
<path style="fill:#1A4104;" d="M32.52,16.98c-0.06-0.02,0.03-0.44-0.41-1.16l0.05-0.03C32.62,16.53,32.53,16.97,32.52,16.98"/>
<path style="fill:#1A4104;" d="M32.6,17.2c-0.06-0.02,0.11-0.6-0.29-1.36l0.05-0.03C32.77,16.6,32.61,17.18,32.6,17.2"/>
<path style="fill:#1A4104;" d="M32.71,16.65c-0.06-0.01-0.05-0.28-0.27-0.85l0.05-0.02C32.72,16.37,32.71,16.64,32.71,16.65"/>
<path style="fill:#1A4104;" d="M32.75,16.13c-0.05-0.03,0.07-0.36-0.58-0.97l0.04-0.04C32.9,15.75,32.76,16.11,32.75,16.13"/>
<path style="fill:#1A4104;" d="M32.15,18.83c-0.06-0.02,0.03-0.26,0.04-0.35c0-0.03,0.01-0.09,0.02-0.15
	c-0.04,0.09-0.09,0.22-0.17,0.4l-0.05-0.02c0.23-0.54,0.26-0.64,0.26-0.64c0.01,0,0.01,0.01,0.01,0.01
	c0.01,0.01,0.01,0.02,0.01,0.04c0.01,0.1-0.02,0.29-0.03,0.36C32.25,18.59,32.16,18.82,32.15,18.83"/>
<path style="fill:#1A4104;" d="M32.52,19.42c-0.09,0-0.55-0.25-0.97-0.17l-0.01-0.06c0.48-0.09,0.98,0.21,1,0.22
	C32.53,19.41,32.52,19.42,32.52,19.42"/>
<path style="fill:#1A4104;" d="M32.18,19.48c-0.11,0-0.35-0.04-0.7-0.07l0-0.06c0.49,0.04,0.77,0.11,0.77,0.11
	C32.25,19.47,32.22,19.48,32.18,19.48"/>
<path style="fill:#1A4104;" d="M32.69,19.3c-0.13,0-0.78-0.24-1.01-0.25l0-0.06c0.26,0.01,0.99,0.29,1.03,0.31
	C32.71,19.3,32.7,19.3,32.69,19.3"/>
<path style="fill:#1A4204;" d="M30.49,19.1c-0.05-0.04-0.03-0.07,0.01-0.15c0.04-0.09,0.03-0.26,0.03-0.26l0.06,0
	c0,0.01,0.01,0.18-0.03,0.28C30.52,19.07,30.5,19.1,30.49,19.1"/>
<path style="fill:#347C63;" d="M30.21,20.91c-0.65-0.32-1.34-1.21-1.49-1.25c-0.15-0.04-1.72,0.23-1.71,0.19
	c0.01-0.04,0.05-0.27,0.12-0.39c0.07-0.11,0.26-0.23,0.23-0.23s-0.43,0.02-0.43,0.02s-0.18,0.22-0.25,0.24
	c-0.07,0.03-0.4,0.06-0.47,0.1c-0.07,0.04-0.21,0.17-0.21,0.17s-0.03-0.16-0.03-0.2c0-0.04,0.06-0.13,0.06-0.13s-0.37,0.02-0.32,0
	c0.05-0.01,0.06-0.11,0.12-0.19c0.06-0.07,0.13-0.16,0.24-0.19c0.1-0.03,0.21-0.06,0.21-0.06l-0.18-0.08c0,0,0.18-0.09,0.22-0.09
	c0.04,0,0.22-0.04,0.22-0.04s-0.13-0.15-0.13-0.2c0-0.06-0.13,0.21-0.24,0.24c-0.1,0.03-0.31,0.06-0.41,0.06
	c-0.1,0-0.25,0.16-0.25,0.16s-0.04-0.16-0.03-0.21c0.02-0.06,0.07-0.09,0.07-0.09l-0.16,0.01c0,0,0.04-0.22,0.06-0.24
	c0.01-0.03,0.09-0.16,0.09-0.16s-0.12-0.09-0.15-0.14c-0.03-0.06-0.07-0.2-0.07-0.2h0.31c0.07,0,0.26,0.09,0.26,0.09
	s-0.07-0.11-0.07-0.16s-0.06-0.14-0.03-0.14c0.03,0,0.24,0.13,0.24,0.13s-0.06-0.27-0.15-0.33c-0.09-0.06-0.49-0.13-0.56-0.23
	c-0.07-0.1-0.18-0.46-0.21-0.55C25.09,16.73,25,16.69,25,16.69h0.24c0,0-0.03-0.14-0.05-0.23c-0.01-0.09,0.03-0.21,0.03-0.21
	s0.1,0.17,0.16,0.17c0.06,0,0.15,0.1,0.15,0.1l0.01-0.1l0.18,0.23c0,0,0.02-0.16,0.05-0.19c0.03-0.03,0.1-0.06,0.1-0.06
	s0.02,0.1,0.03,0.13c0.01,0.03,0.1,0.24,0.1,0.29s-0.03,0.52-0.03,0.56c0,0.04,0.18,0.37,0.18,0.37v-0.34c0-0.09-0.1-0.27-0.09-0.34
	c0.01-0.07,0.03-0.19,0.03-0.19s0.09,0.16,0.12,0.17c0.03,0.02,0.12,0.17,0.12,0.17l0.1-0.19c0,0-0.25-0.2-0.28-0.28
	c-0.03-0.09-0.06-0.27-0.06-0.27s-0.18-0.09-0.23-0.14c-0.06-0.06-0.29-0.46-0.29-0.46h0.09c0,0-0.09-0.19-0.09-0.27
	c0-0.09,0.01-0.26,0.01-0.26s0.09,0.07,0.1,0.1c0.01,0.03,0.13,0.04,0.13,0.04s-0.18-0.39-0.18-0.54c0-0.16,0.23-0.46,0.23-0.46
	l0.12,0.19l0.23-0.34c0,0,0.1,0.16,0.1,0.2v0.19c0,0,0.15,0.02,0.18,0.02c0.03,0,0.1,0.06,0.1,0.06s-0.12,0.04-0.16,0.09
	s-0.09,0.23-0.13,0.24c-0.04,0.02-0.23,0.15-0.28,0.19c-0.04,0.04-0.09,0.3-0.09,0.3s0.15,0.2,0.16,0.27
	c0.01,0.07,0.03,0.26,0.03,0.26s0.07,0.09,0.13,0.07c0.06-0.02,0.12-0.1,0.1-0.16c-0.01-0.06-0.18-0.2-0.19-0.27
	c-0.01-0.07,0.01-0.55,0.01-0.55l0.24,0.13c0,0,0.13-0.13,0.16-0.2c0.03-0.07,0.08-0.27,0.08-0.27l0.1,0.3c0,0,0.07-0.13,0.15-0.16
	c0.07-0.03,0.22-0.11,0.22-0.11s-0.06,0.17-0.06,0.2c0,0.03,0.01,0.53-0.01,0.59c-0.03,0.06-0.41,0.42-0.44,0.45
	c-0.03,0.03-0.03,0.24-0.03,0.24l0.28-0.24c0,0,0.03,0.13,0.05,0.2c0.01,0.07,0.01,0.14,0.01,0.14s0.15-0.04,0.19-0.07
	c0.04-0.03,0.13,0.03,0.13,0.03s-0.04,0.11-0.07,0.15c-0.03,0.03-0.13,0.3-0.18,0.34c-0.04,0.04-0.31,0.14-0.34,0.19
	c-0.03,0.04-0.25,0.29-0.31,0.37c-0.06,0.09-0.06,0.26-0.06,0.26s0.09-0.26,0.16-0.32c0.07-0.06,0.25-0.26,0.25-0.26l0.04,0.22
	c0,0,0.16-0.11,0.22-0.13c0.06-0.01,0.37-0.09,0.37-0.09s-0.21,0.17-0.21,0.22s-0.03,0.27-0.1,0.33c-0.07,0.06-0.43,0.27-0.46,0.29
	c-0.03,0.02-0.06,0.13-0.06,0.17c0,0.04,0.04,0.1,0.04,0.1s0.04-0.1,0.1-0.16c0.06-0.06,0.04-0.19,0.04-0.19s0.13,0.13,0.15,0.19
	c0.01,0.06,0.03,0.36,0.01,0.43c-0.01,0.07-0.03,0.24,0,0.29c0.03,0.04,0.16,0.19,0.19,0.19c0.03,0-0.18-0.37-0.15-0.55
	c0.03-0.17,0.15-0.29,0.18-0.37c0.03-0.09,0.04-0.17,0.04-0.17s0.13,0.15,0.15,0.22c0.04-0.06,0.08-0.1,0.14-0.13
	c0.03,0.04,0.13,0.3,0.15,0.38c0.05-0.08,0.11-0.16,0.17-0.22c0.06,0.08,0.14,0.29,0.12,0.4c-0.04,0.13-0.11,0.24-0.19,0.3
	c-0.09,0.06-0.16,0.09-0.16,0.09s0.21,0.07,0.26,0.07c0.06,0,0.15,0.04,0.15,0.04l-0.32,0.1c0,0,0.4,0.04,0.4,0.01
	c0-0.03,0-0.19-0.04-0.27c-0.04-0.09-0.06-0.19-0.06-0.19s0.13,0.04,0.19,0.04c0.06,0,0.16,0.01,0.16-0.02
	c0-0.03-0.12-0.26-0.09-0.26c0.03,0,0.41,0.34,0.41,0.29s0.17-0.36,0.17-0.36s0.14,0.26,0.15,0.31c0.01,0.04,0.02,0.15,0.02,0.25
	c0,0.1-0.1,0.24-0.1,0.24s0.21,0.32,0.34,0.43c0.13,0.11,0.49,0.6,0.87,0.83c0.2,0.12,0.21,0.11,0.37,0.2L30.21,20.91z"/>
<path style="fill:#1A4104;" d="M30.21,20.93l-0.01-0.01c-0.41-0.21-0.83-0.63-1.13-0.93c-0.16-0.16-0.3-0.3-0.35-0.31
	c-0.19,0-0.64,0.06-1.02,0.11c-0.31,0.04-0.58,0.08-0.65,0.08l-0.02-0.02l-0.01-0.07c0.02-0.09,0.05-0.24,0.11-0.33
	c0.05-0.07,0.14-0.14,0.19-0.19c0.03-0.01-0.37,0-0.37,0c0,0.01-0.17,0.21-0.24,0.24c-0.03,0.01-0.11,0.03-0.19,0.04
	c-0.11,0.02-0.24,0.04-0.27,0.06c-0.07,0.04-0.2,0.17-0.2,0.17c-0.03-0.01-0.06-0.17-0.06-0.21c0-0.04,0.04-0.1,0.05-0.13
	c-0.04,0.01-0.16,0.02-0.23,0.02l-0.05-0.01c0.15-0.03,0.31-0.03,0.31-0.03c-0.01,0.06-0.04,0.12-0.04,0.15
	c0,0.03,0.02,0.15,0.03,0.18c0.01-0.04,0.12-0.13,0.18-0.17c0.04-0.03,0.17-0.05,0.29-0.07c0.08-0.01,0.16-0.02,0.18-0.04
	c0.06-0.02,0.19-0.18,0.24-0.24c0.01-0.01,0.41-0.02,0.44-0.02l0,0.01l-0.04,0.07c-0.05,0.04-0.14,0.11-0.18,0.18
	c-0.05,0.08-0.09,0.23-0.1,0.32c0.07,0.04,0.34,0.01,0.64-0.04c0.39-0.06,0.82-0.11,0.98-0.11c0.12,0.02,0.24,0.14,0.42,0.33
	c0.3,0.3,0.71,0.72,1.11,0.92l0.15-0.2l-0.12-0.04c-0.07-0.03-0.12-0.06-0.25-0.14c-0.27-0.16-0.53-0.46-0.7-0.65
	c-0.07-0.08-0.13-0.15-0.17-0.18c-0.13-0.11-0.33-0.42-0.34-0.43c0-0.02,0.1-0.16,0.1-0.26c0-0.12-0.01-0.21-0.02-0.25
	c-0.02-0.04-0.15-0.3-0.15-0.3c-0.03,0.11-0.13,0.31-0.13,0.35c-0.06,0.03-0.13-0.03-0.29-0.16c-0.06-0.05-0.13-0.11-0.15-0.11
	c0.02,0.01,0.05,0.08,0.07,0.13c0.03,0.07,0.04,0.09,0.04,0.11v0.02l-0.08,0.02l-0.1,0c-0.05,0-0.14-0.03-0.18-0.04
	c0.02,0.02,0.03,0.09,0.06,0.15c0.04,0.08,0.05,0.21,0.05,0.28v0.02l-0.08,0.01c-0.11,0-0.34-0.02-0.34-0.02l0.01,0
	c0-0.01,0.01-0.01,0.03-0.02l0.25-0.1c-0.03,0-0.08-0.02-0.11-0.02c-0.06,0-0.26-0.07-0.27-0.07c0-0.03,0.07-0.06,0.16-0.12
	c0.08-0.05,0.15-0.15,0.19-0.29c0.02-0.09-0.06-0.29-0.11-0.38c-0.03,0.05-0.09,0.14-0.14,0.22c-0.06-0.1-0.15-0.34-0.18-0.37
	c-0.03,0.04-0.07,0.07-0.11,0.13c-0.04-0.05-0.13-0.15-0.16-0.19c0.01,0.03-0.01,0.08-0.02,0.14c-0.01,0.03-0.03,0.07-0.06,0.11
	c-0.04,0.07-0.1,0.15-0.12,0.26c-0.02,0.11,0.06,0.3,0.11,0.42c0.04,0.1,0.04,0.12,0.04,0.13c-0.07,0.02-0.21-0.16-0.22-0.18
	c-0.04-0.05-0.02-0.24,0-0.3c0.02-0.07,0-0.37-0.01-0.42c-0.01-0.04-0.08-0.11-0.12-0.15c0.01,0.04,0.01,0.12-0.04,0.16
	c-0.06,0.05-0.1,0.15-0.1,0.15c-0.04,0-0.08-0.06-0.08-0.11c0-0.04,0.03-0.17,0.07-0.19c0.03-0.01,0.38-0.23,0.45-0.28
	c0.07-0.05,0.1-0.27,0.1-0.31c0-0.05,0.15-0.18,0.21-0.23l-0.35,0.12c-0.05,0.01-0.17,0.09-0.22,0.13l-0.07-0.22
	c-0.01,0.04-0.16,0.21-0.22,0.26c-0.06,0.04-0.13,0.24-0.16,0.31c-0.04-0.01-0.04-0.18,0.02-0.27c0.04-0.05,0.13-0.16,0.2-0.24
	c0.05-0.06,0.1-0.11,0.11-0.13c0.02-0.03,0.08-0.06,0.19-0.11c0.06-0.03,0.13-0.06,0.15-0.08c0.02-0.02,0.07-0.11,0.1-0.19
	c0.04-0.09,0.06-0.14,0.08-0.15c0.02-0.02,0.06-0.1,0.07-0.14c-0.01,0.01-0.05-0.01-0.08-0.01c-0.07,0.03-0.21,0.08-0.22,0.08
	c-0.02-0.02-0.02-0.09-0.04-0.16c-0.01-0.07-0.05-0.2-0.05-0.2L26.6,16.4c-0.03-0.08-0.03-0.24,0.01-0.27
	c0.29-0.27,0.42-0.41,0.44-0.44c0.01-0.02,0.02-0.11,0.01-0.55c0-0.05,0.03-0.16,0.05-0.21c-0.03,0.03-0.13,0.09-0.19,0.11
	c-0.05,0.02-0.12,0.11-0.14,0.15l-0.12-0.28c0,0.06-0.03,0.19-0.05,0.24c-0.03,0.07-0.16,0.2-0.17,0.21l-0.26-0.13
	c0.02,0.12,0,0.47,0.01,0.52c0.01,0.04,0.06,0.09,0.1,0.15c0.04,0.05,0.08,0.09,0.09,0.13c0.01,0.03,0,0.07-0.02,0.1
	c-0.02,0.04-0.06,0.07-0.1,0.08c-0.08,0-0.14-0.07-0.15-0.08c-0.01-0.01-0.02-0.2-0.03-0.27c-0.01-0.06-0.12-0.21-0.16-0.26
	c0-0.04,0.04-0.28,0.09-0.32c0.04-0.05,0.24-0.18,0.29-0.19c0.02-0.01,0.04-0.07,0.06-0.12c0.02-0.05,0.04-0.1,0.06-0.12
	c0.05-0.05,0.16-0.09,0.17-0.09c-0.04,0-0.08-0.02-0.1-0.02c-0.03,0-0.18-0.01-0.18-0.01l-0.02-0.21c0-0.02-0.06-0.13-0.1-0.19
	L26,14.68l-0.15-0.19c0,0.03-0.2,0.31-0.2,0.45c0,0.15,0.17,0.53,0.18,0.54c-0.06,0.02-0.15,0.01-0.17-0.03
	c-0.01-0.02-0.05-0.05-0.09-0.08c0.01,0.04,0,0.16,0,0.23c0,0.08,0.09,0.26,0.09,0.27l-0.11,0.03c0.1,0.11,0.26,0.38,0.31,0.43
	c0.05,0.05,0.23,0.14,0.23,0.14c0.01,0.01,0.04,0.2,0.07,0.28c0.02,0.07,0.21,0.22,0.27,0.28l-0.1,0.21
	c-0.07-0.07-0.13-0.16-0.14-0.16c-0.02-0.01-0.07-0.09-0.11-0.15c0,0.04-0.01,0.1-0.02,0.15c-0.01,0.03,0.02,0.11,0.04,0.17
	c0.02,0.07,0.05,0.13,0.05,0.17v0.34c-0.08-0.07-0.21-0.33-0.21-0.37c0-0.02,0.01-0.15,0.02-0.28c0.01-0.13,0.01-0.26,0.01-0.28
	c0-0.04-0.08-0.24-0.1-0.28c-0.02-0.03-0.03-0.11-0.03-0.13c0,0.02-0.05,0.05-0.07,0.07c-0.02,0.02-0.03,0.1-0.04,0.18l-0.21-0.22
	l0.02,0.09c-0.07-0.03-0.13-0.08-0.17-0.08c-0.06,0-0.13-0.11-0.17-0.16c0,0.04-0.02,0.12-0.01,0.18l0.04,0.23l-0.21,0.02
	c0.03,0.01,0.07,0.05,0.09,0.11l0.03,0.09c0.04,0.13,0.12,0.38,0.18,0.45c0.04,0.06,0.21,0.11,0.35,0.15
	c0.09,0.03,0.17,0.05,0.21,0.08c0.09,0.06,0.15,0.33,0.15,0.34c-0.12-0.04-0.23-0.1-0.25-0.11c0.04,0.07,0.05,0.1,0.05,0.13
	c0,0.02,0.04,0.1,0.07,0.15c-0.08,0-0.22-0.06-0.28-0.06h-0.3c0.02,0.02,0.05,0.13,0.08,0.17c0.02,0.04,0.11,0.11,0.14,0.14
	c0.01,0.02-0.07,0.15-0.08,0.18c-0.01,0.02-0.04,0.16-0.06,0.24l0.14-0.04c0.01,0.04-0.04,0.06-0.05,0.11
	c-0.01,0.04,0.01,0.15,0.03,0.2c0.01-0.04,0.14-0.16,0.24-0.16c0.1,0,0.3-0.03,0.41-0.06c0.05-0.01,0.13-0.12,0.17-0.18
	c0.04-0.06,0.05-0.07,0.07-0.07c0.02,0.06,0.1,0.16,0.15,0.21c-0.03,0.04-0.19,0.08-0.23,0.08c-0.03,0-0.15,0.05-0.21,0.08
	l0.18,0.05l-0.21,0.09c-0.1,0.03-0.17,0.12-0.23,0.18c-0.02,0.03-0.04,0.07-0.06,0.1c-0.02,0.04-0.04,0.07-0.06,0.09l-0.03-0.01
	c0.03-0.03,0.05-0.06,0.06-0.1c0.02-0.03,0.03-0.07,0.06-0.11c0.06-0.07,0.13-0.16,0.24-0.19l0.21-0.06l-0.18-0.05
	c0.03-0.05,0.18-0.12,0.23-0.12c0.03,0,0.17-0.03,0.21-0.04c-0.03,0.01-0.12-0.09-0.14-0.16c0,0.01-0.02,0.03-0.03,0.04
	c-0.05,0.07-0.12,0.18-0.19,0.2c-0.11,0.03-0.31,0.06-0.42,0.06c-0.08,0-0.2,0.11-0.24,0.15c-0.04-0.03-0.08-0.17-0.06-0.23
	c0.02-0.07,0.08-0.1,0.08-0.1l-0.15,0.05c-0.01-0.06,0.03-0.24,0.04-0.27c0.01-0.03,0.08-0.14,0.09-0.15
	c-0.01,0.01-0.12-0.07-0.15-0.13c-0.03-0.06-0.07-0.21-0.07-0.21l0.33-0.02c0.06,0,0.18,0.05,0.24,0.07
	c-0.03-0.03-0.07-0.09-0.07-0.13l-0.03-0.15c0.06-0.01,0.2,0.08,0.27,0.12c-0.04-0.05-0.1-0.26-0.17-0.3
	c-0.03-0.02-0.11-0.04-0.2-0.07c-0.15-0.05-0.32-0.1-0.37-0.16c-0.06-0.08-0.14-0.32-0.18-0.47l-0.03-0.09
	c-0.03-0.08-0.11-0.12-0.11-0.12H25c0.01-0.01,0.02-0.01,0.03,0l0.2-0.03l-0.06-0.21c-0.01-0.09,0.03-0.22,0.03-0.22
	c0.07,0.07,0.14,0.16,0.18,0.16c0.06,0,0.15,0.09,0.16,0.11l-0.02-0.09l0.2,0.21c-0.02-0.03-0.01-0.15,0.02-0.18
	c0.03-0.03,0.11-0.06,0.11-0.06c0.03,0.05,0.04,0.12,0.05,0.14c0.01,0.02,0.11,0.24,0.11,0.29c0,0.02-0.01,0.15-0.02,0.28
	c-0.01,0.13-0.01,0.26-0.01,0.28c0,0.02,0.09,0.21,0.17,0.36l-0.03-0.33c0-0.04-0.02-0.1-0.04-0.16c-0.03-0.08-0.05-0.15-0.04-0.19
	c0.01-0.07,0.03-0.19,0.03-0.19c0.07,0.07,0.13,0.15,0.14,0.16c0.03,0.02,0.1,0.14,0.13,0.18l0.07-0.19c0,0-0.25-0.18-0.28-0.27
	c-0.03-0.08-0.06-0.27-0.06-0.27c0.01,0.01-0.17-0.08-0.23-0.13c-0.06-0.06-0.29-0.45-0.3-0.46l0.1-0.03c-0.03,0-0.1-0.17-0.1-0.26
	c0-0.09,0.01-0.26,0.01-0.26h0c0.05,0,0.12,0.06,0.14,0.09c0.01,0.01,0.06,0.03,0.12,0.03c-0.04-0.02-0.2-0.37-0.2-0.53
	c0-0.16,0.23-0.46,0.24-0.47L26,14.66l0.2-0.34c0.05,0.03,0.14,0.16,0.14,0.21v0.18c0.01-0.01,0.13,0,0.16,0
	c0.03,0,0.09,0.05,0.11,0.06c-0.01,0.03-0.12,0.07-0.16,0.11c-0.02,0.02-0.04,0.07-0.06,0.11c-0.03,0.08-0.05,0.13-0.08,0.14
	c-0.04,0.01-0.23,0.14-0.27,0.18c-0.03,0.03-0.07,0.19-0.08,0.29h0c0.01,0,0.15,0.19,0.16,0.26c0.01,0.07,0.03,0.26,0.03,0.26
	c0.01,0.01,0.06,0.06,0.1,0.06c0.04-0.01,0.06-0.03,0.08-0.06c0.02-0.03,0.02-0.05,0.02-0.07c-0.01-0.02-0.05-0.07-0.08-0.11
	c-0.05-0.06-0.1-0.12-0.11-0.16c-0.02-0.07,0.01-0.53,0.01-0.55l0.26,0.11c0-0.01,0.11-0.13,0.14-0.19
	c0.03-0.07,0.07-0.27,0.07-0.27l0,0.01c0,0,0.01,0.01,0.01,0.02l0.12,0.26c0-0.04,0.07-0.13,0.13-0.15
	c0.07-0.03,0.22-0.11,0.22-0.11c0,0.1-0.03,0.2-0.03,0.21c0.01,0.38,0,0.56-0.02,0.6c-0.02,0.05-0.23,0.25-0.41,0.42
	c-0.05,0.05-0.06,0.16-0.06,0.26l0.25-0.26c0.03,0.01,0.06,0.14,0.07,0.21c0.02,0.07,0.02,0.14,0.02,0.15
	c0.02-0.03,0.13-0.06,0.16-0.09c0.09-0.01,0.15,0.03,0.15,0.03c0,0.04-0.04,0.14-0.07,0.17c-0.01,0.01-0.04,0.08-0.07,0.14
	c-0.05,0.11-0.08,0.18-0.11,0.2c-0.02,0.02-0.09,0.05-0.16,0.09c-0.07,0.03-0.16,0.08-0.17,0.09c-0.01,0.02-0.06,0.07-0.11,0.13
	c-0.07,0.09-0.16,0.19-0.2,0.24c-0.03,0.04-0.04,0.1-0.05,0.15c0.02-0.08,0.08-0.2,0.12-0.23c0.07-0.05,0.25-0.26,0.25-0.26
	l0.07,0.22c0.01-0.03,0.14-0.12,0.2-0.14l0.37-0.09c-0.08,0.11-0.18,0.21-0.18,0.23c0,0.04-0.03,0.28-0.11,0.34
	c-0.05,0.04-0.21,0.14-0.33,0.21c0.05,0.03,0.14,0.12,0.16,0.17c0.01,0.05,0.02,0.26,0.02,0.38c0-0.01,0-0.01,0-0.02
	c0.02-0.11,0.08-0.2,0.12-0.27c0.02-0.04,0.05-0.07,0.06-0.1c0.03-0.08,0.04-0.17,0.04-0.17c0.04-0.01,0.17,0.14,0.19,0.21
	c0.01-0.07,0.06-0.11,0.12-0.14c0.06,0.05,0.16,0.33,0.17,0.38c0.02-0.08,0.08-0.17,0.14-0.22c0.08,0.08,0.17,0.3,0.15,0.41
	c-0.05,0.15-0.12,0.25-0.2,0.31c-0.09,0.06-0.16,0.09-0.17,0.09c0.06-0.02,0.21,0.04,0.26,0.04c0.06,0,0.15,0.04,0.15,0.05
	l-0.02,0.01c0,0-0.01,0.01-0.01,0.01l-0.25,0.1c0.07-0.01,0.21,0.01,0.29,0.01c0.04-0.11,0.03-0.2,0-0.26
	c-0.04-0.09-0.06-0.19-0.06-0.19c0.03-0.02,0.16,0.02,0.21,0.02l0.1,0c0.04-0.01,0.02-0.06,0-0.09c-0.05-0.12-0.06-0.15-0.05-0.17
	c0.03-0.01,0.06,0.01,0.19,0.11c0.08,0.06,0.21,0.17,0.24,0.17c-0.01-0.04,0.13-0.3,0.15-0.36c0.03,0,0.17,0.27,0.19,0.31
	c0.02,0.06,0.02,0.22,0.02,0.26c0,0.1-0.1,0.24-0.11,0.26c0.01,0,0.21,0.3,0.33,0.41c0.04,0.04,0.1,0.1,0.17,0.18
	c0.17,0.2,0.43,0.49,0.69,0.65c0.13,0.08,0.18,0.1,0.25,0.14l0.12,0.06L30.21,20.93z M26.89,18.51c0,0.02,0,0.04-0.01,0.05
	c-0.02,0.08-0.02,0.24,0,0.27c0.03,0.04,0.12,0.14,0.16,0.17c-0.01-0.02-0.03-0.05-0.04-0.08C26.96,18.81,26.89,18.63,26.89,18.51
	 M26.69,17.97c-0.06,0.03-0.1,0.06-0.11,0.06c-0.02,0.01-0.05,0.11-0.05,0.16c0,0.02,0.02,0.05,0.03,0.07c0-0.03,0.04-0.1,0.09-0.15
	C26.69,18.07,26.69,18,26.69,17.97"/>
<path style="fill:#1A4104;" d="M25.53,18.65l-0.03-0.02c0.07-0.08,0.15-0.09,0.22-0.1c0.04,0,0.07-0.01,0.1-0.02
	c0.09-0.04,0.25-0.13,0.25-0.13c0.02,0.03-0.14,0.12-0.23,0.16c-0.04,0.02-0.07,0.02-0.11,0.02C25.66,18.58,25.59,18.59,25.53,18.65
	"/>
<path style="fill:#1A4104;" d="M25.67,18.75c-0.01-0.04,0.18-0.08,0.25-0.12c0.03-0.02,0.07-0.07,0.12-0.13
	c0.08-0.1,0.17-0.23,0.28-0.3l0.02,0.03c-0.1,0.07-0.2,0.19-0.27,0.29c-0.05,0.07-0.09,0.12-0.13,0.14
	C25.86,18.7,25.68,18.74,25.67,18.75"/>
<path style="fill:#1A4104;" d="M25.71,18.82l0-0.04c0.07-0.01,0.25-0.02,0.3-0.07c0.06-0.06,0.17-0.13,0.17-0.13
	c0.02,0.03-0.08,0.1-0.14,0.16C25.97,18.8,25.73,18.81,25.71,18.82"/>
<path style="fill:#1A4104;" d="M25.97,19.33l0-0.03c0.24-0.03,0.55-0.1,0.57-0.11C26.57,19.24,26.05,19.32,25.97,19.33"/>
<path style="fill:#1A4104;" d="M26.23,19.49h-0.02l0-0.04c0.28,0.02,0.56-0.28,0.56-0.28C26.78,19.21,26.52,19.49,26.23,19.49"/>
<path style="fill:#1A4104;" d="M26.9,19.17c-0.22,0-0.45-0.03-0.6-0.11l0.02-0.03c0.34,0.2,1.16,0.07,1.16,0.07
	C27.47,19.12,27.19,19.17,26.9,19.17"/>
<path style="fill:#1A4104;" d="M27.21,18.96c-0.01-0.03,0.01-0.09,0.04-0.58h0.04C27.25,18.96,27.23,18.96,27.21,18.96"/>
<path style="fill:#1A4104;" d="M27.43,18.85l-0.03-0.02c0.07-0.14,0.07-0.26,0.07-0.26C27.51,18.58,27.51,18.71,27.43,18.85"/>
<path style="fill:#1A4104;" d="M28.39,19.13c-0.05,0-0.31-0.25-0.47-0.33l0.02-0.03C28.11,18.86,28.39,19.12,28.39,19.13
	C28.4,19.13,28.39,19.13,28.39,19.13"/>
<path style="fill:#1A4104;" d="M28.56,19.03c-0.04,0-0.16-0.17-0.3-0.25l0.02-0.03C28.43,18.84,28.56,19.02,28.56,19.03
	C28.56,19.03,28.56,19.03,28.56,19.03"/>
<path style="fill:#1A4104;" d="M28.62,19.28c-0.03-0.03,0.1-0.25-0.07-0.44l0.03-0.03C28.77,19.02,28.62,19.28,28.62,19.28"/>
<path style="fill:#1A4104;" d="M25.59,17.36c-0.04,0-0.12-0.08-0.17-0.14c-0.04-0.04-0.04-0.09-0.05-0.13
	c0-0.03-0.01-0.06-0.03-0.08c-0.06-0.1-0.12-0.19-0.28-0.24l0.01-0.04c0.18,0.05,0.24,0.15,0.28,0.22c0.05,0.06,0.05,0.1,0.06,0.14
	c0.01,0.04,0.01,0.08,0.04,0.11c0.06,0.07,0.16,0.16,0.16,0.16C25.6,17.36,25.59,17.36,25.59,17.36"/>
<path style="fill:#1A4104;" d="M25.91,17.59c-0.03,0-0.09-0.12-0.13-0.17h0l-0.11-0.05c-0.04-0.02-0.08-0.09-0.12-0.19
	c-0.02-0.03-0.03-0.06-0.04-0.07l-0.01-0.07c0-0.1,0.01-0.27-0.27-0.29l0-0.04c0.32,0.03,0.31,0.23,0.31,0.33
	c0.01,0.06,0.03,0.09,0.04,0.13c0.03,0.06,0.07,0.16,0.1,0.17c0.08,0.02,0.1,0.02,0.13,0.06C25.86,17.46,25.91,17.58,25.91,17.59
	C25.91,17.59,25.91,17.59,25.91,17.59"/>
<path style="fill:#1A4104;" d="M25.42,16.74c-0.03-0.01-0.01-0.09-0.09-0.18c-0.08-0.09-0.11-0.11-0.11-0.11l0.02-0.03
	c0,0,0.04,0.02,0.12,0.12C25.45,16.64,25.42,16.74,25.42,16.74"/>
<path style="fill:#1A4104;" d="M25.69,17.01c-0.04,0-0.16-0.22-0.09-0.43l0.03,0.01C25.57,16.79,25.69,17.01,25.69,17.01
	L25.69,17.01z"/>
<path style="fill:#1A4104;" d="M25.8,17.06c-0.03-0.02,0.09-0.26-0.07-0.38l0.02-0.03C25.94,16.79,25.8,17.06,25.8,17.06"/>
<path style="fill:#1A4104;" d="M26.46,17.74c-0.04-0.01-0.04-0.02,0.04-0.13c0.07-0.1,0.17-0.38,0.17-0.39l0.04,0.01
	c0,0.01-0.11,0.29-0.18,0.39C26.47,17.72,26.46,17.74,26.46,17.74"/>
<path style="fill:#1A4104;" d="M26.43,18.05l-0.04-0.01c0.1-0.35,0.28-0.41,0.29-0.41C26.7,17.66,26.53,17.72,26.43,18.05"/>
<path style="fill:#1A4104;" d="M26.6,17.79l-0.01-0.03c0.3-0.11,0.53-0.48,0.54-0.48C27.14,17.31,26.91,17.67,26.6,17.79"/>
<path style="fill:#1A4104;" d="M25.56,18.43l-0.02-0.03c0.22-0.13,0.29-0.12,0.36-0.12c0.03,0,0.06,0,0.11-0.01
	c0.14-0.04,0.21-0.13,0.21-0.14c0.03,0.03-0.05,0.13-0.2,0.17c-0.05,0.02-0.09,0.01-0.12,0.01C25.83,18.31,25.77,18.31,25.56,18.43"
	/>
<path style="fill:#1A4104;" d="M25.88,18.23c-0.06,0-0.33-0.13-0.51-0.1l-0.01-0.04c0.21-0.04,0.52,0.13,0.53,0.13
	C25.89,18.23,25.89,18.23,25.88,18.23"/>
<path style="fill:#1A4104;" d="M26.17,18.14c-0.04,0-0.09-0.19-0.34-0.22l0.01-0.04C26.1,17.91,26.17,18.13,26.17,18.14"/>
<path style="fill:#1A4104;" d="M26.71,19c-0.04,0-0.1-0.06-0.54-0.02l0-0.04C26.66,18.9,26.71,18.97,26.71,19L26.71,19z"/>
<path style="fill:#1A4104;" d="M26.44,17.36l-0.03-0.02c0.22-0.38,0.46-0.62,0.46-0.62C26.9,16.75,26.66,16.98,26.44,17.36"/>
<path style="fill:#1A4104;" d="M26.87,16.89l-0.02-0.03c0.11-0.08,0.35-0.42,0.35-0.43C27.21,16.47,26.98,16.81,26.87,16.89"/>
<path style="fill:#1A4104;" d="M26.5,16.87c-0.01-0.17-0.02-0.28-0.03-0.37c-0.02-0.18-0.03-0.24,0.04-0.35
	c0.05-0.09,0.12-0.16,0.19-0.22c0.06-0.05,0.11-0.1,0.12-0.13c0.05-0.15,0.1-0.26,0.1-0.4c0-0.18,0.15-0.32,0.15-0.33
	c0.02,0.03-0.11,0.17-0.11,0.33c0,0.14-0.05,0.26-0.08,0.35c-0.04,0.11-0.09,0.15-0.15,0.21c-0.06,0.06-0.14,0.13-0.18,0.21
	c-0.06,0.1-0.05,0.15-0.03,0.33c0.01,0.09,0.02,0.2,0.03,0.38L26.5,16.87z"/>
<path style="fill:#1A4104;" d="M26.51,16.56c-0.04,0-0.13-0.34-0.1-0.46c0.01-0.04,0.04-0.07,0.1-0.12
	c0.13-0.13,0.35-0.36,0.26-0.77l0.04-0.01c0.1,0.43-0.13,0.67-0.27,0.81c-0.04,0.04-0.08,0.08-0.09,0.11
	C26.42,16.22,26.5,16.56,26.51,16.56"/>
<path style="fill:#1A4104;" d="M26.05,16.28c-0.04,0-0.24-0.19-0.49-0.36l0.02-0.03C25.85,16.07,26.06,16.28,26.05,16.28
	C26.06,16.28,26.06,16.28,26.05,16.28"/>
<path style="fill:#1A4104;" d="M26.12,16.11c-0.04,0-0.13-0.04-0.2-0.06c-0.04-0.01-0.09-0.04-0.14-0.07
	c-0.04-0.02-0.09-0.05-0.11-0.05V15.9c0.03,0,0.07,0.02,0.13,0.05c0.04,0.02,0.09,0.05,0.13,0.06c0.09,0.03,0.21,0.09,0.21,0.09
	C26.14,16.11,26.13,16.11,26.12,16.11"/>
<path style="fill:#1A4104;" d="M25.98,15.97c-0.04-0.01-0.02-0.07-0.08-0.15c-0.02-0.03-0.05-0.05-0.09-0.09
	c-0.09-0.07-0.21-0.18-0.24-0.32l0.04-0.01c0.02,0.13,0.13,0.22,0.22,0.3c0.04,0.04,0.08,0.07,0.1,0.09
	C25.99,15.88,25.98,15.96,25.98,15.97"/>
<path style="fill:#1A4104;" d="M26.38,15.89c-0.01-0.23,0.03-0.53,0.03-0.53c0.04,0.01-0.01,0.31,0.01,0.53L26.38,15.89z"/>
<path style="fill:#1A4104;" d="M26.55,15.81c-0.03-0.02,0.08-0.26,0.08-0.54h0.04C26.67,15.56,26.55,15.8,26.55,15.81"/>
<path style="fill:#1A4104;" d="M26.38,15.8c-0.05-0.12-0.06-0.17-0.07-0.23c-0.01-0.03-0.01-0.05-0.02-0.09
	c-0.03-0.11-0.05-0.14-0.05-0.14c0.03-0.03,0.06,0.01,0.09,0.13c0.01,0.04,0.01,0.07,0.02,0.09c0.01,0.05,0.02,0.1,0.07,0.22
	L26.38,15.8z"/>
<path style="fill:#1A4104;" d="M25.95,15.49l-0.04,0c0.01-0.25,0.07-0.37,0.1-0.44c0.03-0.06,0.04-0.09,0.03-0.14
	c-0.03-0.13-0.06-0.2-0.06-0.2c0.04-0.02,0.06,0.06,0.1,0.19c0.01,0.06-0.01,0.1-0.03,0.16C26.01,15.14,25.96,15.25,25.95,15.49"/>
<path style="fill:#1A4104;" d="M26.08,14.98c-0.03-0.03,0.09-0.21,0.26-0.28l0.02,0.03C26.19,14.8,26.08,14.98,26.08,14.98"/>
<path style="fill:#1A4104;" d="M26.02,15.29l-0.04-0.01c0.09-0.2,0.18-0.33,0.27-0.41c0.1-0.08,0.22-0.05,0.22-0.05
	c-0.01,0.04-0.12,0.01-0.2,0.08C26.19,14.97,26.1,15.1,26.02,15.29"/>
<path style="fill:#1A4104;" d="M26.06,14.87l-0.03-0.02c0.11-0.18,0.14-0.46,0.14-0.47C26.21,14.4,26.18,14.68,26.06,14.87"/>
<path style="fill:#1A4104;" d="M26.68,16.88l-0.04,0c0.03-0.3,0.21-0.66,0.21-0.67C26.88,16.23,26.71,16.59,26.68,16.88"/>
<path style="fill:#C0003B;" d="M25.93,15.46c0-0.06-0.04-0.1-0.09-0.1s-0.09,0.05-0.09,0.1c0,0.06,0.04,0.11,0.09,0.11
	S25.93,15.52,25.93,15.46"/>
<path style="fill:#1A4104;" d="M25.84,15.58c-0.06,0-0.11-0.06-0.11-0.13c0-0.14,0.22-0.14,0.22,0
	C25.95,15.53,25.9,15.58,25.84,15.58"/>
<path style="fill:#C0003B;" d="M26.09,15.61c0-0.06-0.04-0.1-0.09-0.1s-0.09,0.05-0.09,0.1c0,0.06,0.04,0.11,0.09,0.11
	S26.09,15.67,26.09,15.61"/>
<path style="fill:#1A4104;" d="M25.99,15.73c-0.06,0-0.11-0.06-0.11-0.13c0-0.14,0.22-0.14,0.22,0
	C26.11,15.68,26.06,15.73,25.99,15.73"/>
<path style="fill:#C0003B;" d="M26.44,16.37c0-0.06-0.04-0.11-0.09-0.11c-0.05,0-0.09,0.05-0.09,0.11c0,0.06,0.04,0.11,0.09,0.11
	C26.4,16.47,26.44,16.43,26.44,16.37"/>
<path style="fill:#1A4104;" d="M26.35,16.49c-0.06,0-0.11-0.06-0.11-0.13c0-0.14,0.22-0.14,0.22,0
	C26.46,16.44,26.41,16.49,26.35,16.49"/>
<path style="fill:#C0003B;" d="M26.63,16.48c0-0.06-0.04-0.11-0.09-0.11c-0.05,0-0.09,0.05-0.09,0.11c0,0.06,0.04,0.11,0.09,0.11
	C26.59,16.59,26.63,16.54,26.63,16.48"/>
<path style="fill:#1A4104;" d="M26.54,16.61c-0.06,0-0.11-0.06-0.11-0.13c0-0.14,0.23-0.14,0.23,0
	C26.65,16.55,26.6,16.61,26.54,16.61"/>
<path style="fill:#C0003B;" d="M25.94,17.59c0-0.06-0.04-0.1-0.09-0.1c-0.05,0-0.09,0.05-0.09,0.1c0,0.06,0.04,0.11,0.09,0.11
	C25.9,17.7,25.94,17.66,25.94,17.59"/>
<path style="fill:#1A4104;" d="M25.85,17.72c-0.06,0-0.11-0.06-0.11-0.13c0-0.14,0.23-0.14,0.23,0
	C25.96,17.66,25.91,17.72,25.85,17.72"/>
<path style="fill:#C0003B;" d="M26.4,17.83c0-0.06-0.04-0.1-0.09-0.1c-0.05,0-0.09,0.05-0.09,0.1c0,0.06,0.04,0.11,0.09,0.11
	C26.36,17.94,26.4,17.89,26.4,17.83"/>
<path style="fill:#1A4104;" d="M26.31,17.95c-0.06,0-0.11-0.05-0.11-0.13c0-0.14,0.22-0.14,0.22,0
	C26.42,17.9,26.37,17.95,26.31,17.95"/>
<path style="fill:#C0003B;" d="M26.67,18.74c0-0.06-0.04-0.11-0.09-0.11c-0.05,0-0.09,0.05-0.09,0.11c0,0.06,0.04,0.11,0.09,0.11
	C26.63,18.85,26.67,18.8,26.67,18.74"/>
<path style="fill:#1A4104;" d="M26.58,18.87c-0.06,0-0.11-0.06-0.11-0.13c0-0.14,0.23-0.14,0.23,0
	C26.69,18.81,26.64,18.87,26.58,18.87"/>
<path style="fill:#C0003B;" d="M27.16,18.99c0-0.06-0.04-0.11-0.09-0.11c-0.05,0-0.09,0.05-0.09,0.11c0,0.06,0.04,0.11,0.09,0.11
	C27.12,19.1,27.16,19.05,27.16,18.99"/>
<path style="fill:#1A4104;" d="M27.07,19.12c-0.06,0-0.11-0.06-0.11-0.13c0-0.14,0.22-0.14,0.22,0
	C27.18,19.06,27.13,19.12,27.07,19.12"/>
<path style="fill:#C0003B;" d="M27.41,18.98c0-0.06-0.04-0.11-0.09-0.11c-0.05,0-0.09,0.05-0.09,0.11c0,0.06,0.04,0.11,0.09,0.11
	C27.37,19.09,27.41,19.04,27.41,18.98"/>
<path style="fill:#1A4104;" d="M27.32,19.11c-0.06,0-0.11-0.06-0.11-0.13c0-0.14,0.23-0.14,0.23,0
	C27.43,19.05,27.38,19.11,27.32,19.11"/>
<path style="fill:#C0003B;" d="M28.18,19.16c0-0.06-0.04-0.1-0.09-0.1c-0.05,0-0.09,0.05-0.09,0.1c0,0.06,0.04,0.11,0.09,0.11
	C28.14,19.26,28.18,19.22,28.18,19.16"/>
<path style="fill:#1A4104;" d="M28.09,19.28c-0.06,0-0.11-0.05-0.11-0.13c0-0.14,0.22-0.14,0.22,0
	C28.2,19.23,28.15,19.28,28.09,19.28"/>
<path style="fill:#BC0030;" d="M33.5,20.47c-0.29-0.28-0.64-0.18-0.8-0.2c-0.09-0.09-0.29-0.19-0.44-0.13
	c-0.15,0.06-0.23,0.38-0.23,0.42c0,0.09,0.16,0.15,0.29,0.16c0.13,0.01,0.42,0.01,0.52,0.02c0.1,0.01,0.24,0.17,0.24,0.17
	S33.37,20.55,33.5,20.47"/>
<path d="M33.08,20.96l-0.02-0.03c-0.04-0.04-0.15-0.15-0.22-0.16c-0.05-0.01-0.15-0.01-0.26-0.01c-0.1,0-0.2-0.01-0.27-0.01
	c-0.13-0.01-0.31-0.08-0.31-0.19c0-0.05,0.09-0.38,0.25-0.44c0.14-0.06,0.36,0.03,0.47,0.13l0.22-0.01c0.17,0,0.39,0.02,0.58,0.21
	c-0.14,0.12-0.42,0.48-0.42,0.48L33.08,20.96z M32.37,20.15c-0.03,0-0.06,0.01-0.09,0.02c-0.13,0.05-0.21,0.35-0.21,0.39
	c0,0.06,0.13,0.12,0.26,0.13c0.06,0.01,0.16,0.01,0.26,0.01c0.11,0,0.21,0,0.26,0.01c0.09,0.01,0.19,0.11,0.23,0.16
	c0.07-0.09,0.29-0.35,0.41-0.42c-0.18-0.13-0.39-0.15-0.55-0.15l-0.18,0l-0.08-0.01C32.61,20.22,32.48,20.15,32.37,20.15"/>
<path style="fill:#BC0030;" d="M32.67,20.45c0-0.14-0.1-0.22-0.19-0.2c-0.13,0.03-0.61,0.24-0.8,0.25
	c-0.17,0.01-0.45-0.16-0.45-0.27c0-0.1,0.41-0.25,0.41-0.25l0.29,0.09c0,0,0.36-0.17,0.58-0.17c0.22,0,0.35,0.14,0.33,0.24
	C32.84,20.24,32.67,20.47,32.67,20.45"/>
<path d="M31.68,20.53c-0.08,0-0.2-0.04-0.3-0.1c-0.05-0.03-0.17-0.11-0.17-0.2c0-0.12,0.33-0.24,0.44-0.28l0.3,0.09
	c-0.01-0.01,0.35-0.18,0.57-0.18c0.13,0,0.24,0.04,0.31,0.12c0.04,0.05,0.06,0.1,0.06,0.15c-0.01,0.09-0.16,0.34-0.21,0.34
	c-0.03-0.15-0.1-0.2-0.16-0.2c-0.07,0.01-0.16,0.04-0.27,0.09c-0.19,0.07-0.44,0.16-0.56,0.17L31.68,20.53z M31.64,20.01
	c-0.17,0.07-0.38,0.17-0.38,0.22c0,0.03,0.04,0.09,0.14,0.15c0.09,0.06,0.19,0.09,0.27,0.09v0.03l0.01-0.03
	c0.12-0.01,0.35-0.09,0.54-0.16c0.11-0.04,0.2-0.07,0.25-0.08c0.11-0.01,0.21,0.07,0.22,0.21c0.01-0.07,0.11-0.22,0.12-0.3
	c0.01-0.04-0.01-0.07-0.04-0.11c-0.06-0.07-0.15-0.1-0.26-0.1c-0.21,0-0.56,0.17-0.57,0.17L31.64,20.01z"/>
<path d="M32.5,20.56h-0.03c-0.09-0.01-0.19-0.03-0.26-0.04c-0.08-0.02-0.11,0-0.15,0.04c-0.03-0.05,0.02-0.12,0.08-0.12
	c0.02,0,0.05,0.01,0.09,0.02c0.07,0.01,0.15,0.04,0.25,0.04c0.18,0,0.19-0.09,0.2-0.12l0.06,0.01
	C32.72,20.46,32.68,20.56,32.5,20.56"/>
<path d="M25.34,20.65l-0.05-0.03c0.12-0.2,0.21-0.22,0.21-0.22C25.52,20.45,25.45,20.47,25.34,20.65"/>
<path d="M25.38,20.71l-0.05-0.03c0.12-0.2,0.21-0.22,0.21-0.22C25.56,20.52,25.49,20.54,25.38,20.71"/>
<path d="M25.44,20.77l-0.05-0.03c0.12-0.2,0.21-0.22,0.22-0.22C25.62,20.58,25.55,20.6,25.44,20.77"/>
<path d="M25.48,20.84l-0.05-0.03c0.12-0.2,0.21-0.22,0.21-0.22C25.66,20.64,25.59,20.66,25.48,20.84"/>
<path d="M25.54,20.89l-0.05-0.03c0.12-0.2,0.21-0.22,0.22-0.23C25.72,20.69,25.65,20.71,25.54,20.89"/>
<path d="M25.58,20.95l-0.05-0.03c0.12-0.2,0.21-0.22,0.21-0.23C25.76,20.75,25.69,20.78,25.58,20.95"/>
<path d="M25.64,21l-0.05-0.03c0.12-0.2,0.21-0.22,0.21-0.22C25.82,20.8,25.75,20.83,25.64,21"/>
<path d="M25.68,21.07l-0.05-0.03c0.12-0.2,0.21-0.22,0.21-0.22C25.86,20.87,25.79,20.89,25.68,21.07"/>
<path d="M25.73,21.12l-0.05-0.03c0.12-0.2,0.21-0.22,0.21-0.22C25.91,20.92,25.83,20.94,25.73,21.12"/>
<path style="fill:#BC0030;" d="M25.45,20.47c0.28-0.28,0.64-0.18,0.8-0.2c0.09-0.09,0.29-0.19,0.44-0.13
	c0.15,0.06,0.23,0.38,0.23,0.42c0,0.09-0.16,0.15-0.29,0.16c-0.13,0.01-0.42,0.01-0.52,0.02c-0.1,0.01-0.24,0.17-0.24,0.17
	S25.58,20.55,25.45,20.47"/>
<path d="M25.87,20.96l-0.02-0.03c0,0-0.29-0.36-0.42-0.43c0.19-0.23,0.41-0.26,0.58-0.26l0.18,0c0.16-0.09,0.36-0.19,0.51-0.13
	c0.16,0.07,0.25,0.39,0.25,0.44c0,0.11-0.18,0.18-0.31,0.19c-0.06,0-0.17,0.01-0.27,0.01c-0.1,0-0.21,0-0.26,0.01
	c-0.07,0.01-0.18,0.12-0.22,0.16L25.87,20.96z M26.01,20.3c-0.16,0-0.36,0.02-0.54,0.19c0.11,0.03,0.33,0.29,0.4,0.38
	c0.05-0.05,0.15-0.15,0.23-0.16c0.05-0.01,0.15-0.01,0.26-0.01c0.1,0,0.2,0,0.26-0.01c0.13-0.01,0.26-0.08,0.26-0.13
	c0-0.04-0.08-0.34-0.21-0.39c-0.12-0.05-0.31,0.04-0.41,0.12l-0.01,0.01l-0.07,0L26.01,20.3z"/>
<path style="fill:#BC0030;" d="M26.27,20.45c0-0.14,0.09-0.22,0.19-0.2c0.13,0.03,0.61,0.24,0.8,0.25c0.17,0.01,0.45-0.16,0.45-0.27
	c0-0.1-0.41-0.25-0.41-0.25l-0.29,0.09c0,0-0.36-0.17-0.58-0.17c-0.22,0-0.34,0.14-0.33,0.24C26.11,20.24,26.27,20.47,26.27,20.45"
	/>
<path d="M27.27,20.53l-0.02,0c-0.12-0.01-0.37-0.1-0.56-0.17c-0.11-0.04-0.2-0.07-0.24-0.08c-0.08,0-0.15,0.06-0.15,0.17
	c-0.07,0.03-0.23-0.23-0.24-0.31c0-0.05,0.02-0.11,0.06-0.15c0.07-0.08,0.18-0.12,0.3-0.12c0.22,0,0.58,0.17,0.59,0.18l0.26-0.09
	c0.12,0.04,0.45,0.16,0.45,0.28C27.74,20.36,27.45,20.53,27.27,20.53 M26.43,20.22c0.08,0.01,0.17,0.05,0.28,0.09
	c0.19,0.07,0.43,0.16,0.54,0.16l0.01,0.03v-0.03c0.16,0,0.41-0.16,0.41-0.24c0-0.05-0.2-0.16-0.39-0.22l-0.27,0.09
	c-0.02,0-0.38-0.17-0.59-0.17c-0.11,0-0.2,0.04-0.26,0.1c-0.03,0.04-0.05,0.07-0.04,0.11c0.01,0.09,0.14,0.28,0.16,0.3
	C26.24,20.3,26.34,20.22,26.43,20.22"/>
<path d="M26.45,20.56c-0.18,0-0.22-0.1-0.23-0.17l0.06-0.01c0.01,0.09,0.08,0.13,0.2,0.12c0.09-0.01,0.18-0.03,0.25-0.04
	c0.04-0.01,0.07-0.02,0.09-0.02c0.05,0,0.1,0.06,0.12,0.08c-0.07,0.01-0.11-0.02-0.12-0.02c-0.01,0-0.04,0.01-0.08,0.01
	c-0.07,0.02-0.16,0.04-0.26,0.04H26.45z"/>
<path style="fill:#BC0030;" d="M29.51,19.26c-1.93-0.04-2.72,0.32-2.73,0.59c-0.01,0.27,0.24,0.48,0.36,0.48s0.45-0.16,0.44-0.23
	c-0.05-0.03-0.06-0.07-0.02-0.08c0.04-0.02,0.74-0.16,1.96-0.16c1.22,0,1.91,0.12,1.92,0.16c0.01,0.05-0.09,0.08-0.15,0.15
	c0.27-0.03,0.34,0.14,0.47,0.15c0.13,0.01,0.37-0.17,0.38-0.44C32.15,19.59,31.34,19.3,29.51,19.26"/>
<path d="M27.15,20.36c-0.07,0-0.16-0.05-0.24-0.13c-0.1-0.11-0.16-0.25-0.16-0.38c0.01-0.3,0.78-0.63,2.45-0.63l0.31,0
	c1.36,0.03,2.33,0.21,2.59,0.49c0.05,0.05,0.07,0.1,0.07,0.16c-0.01,0.27-0.25,0.47-0.4,0.47c-0.07,0-0.11-0.03-0.16-0.06
	c-0.06-0.04-0.14-0.09-0.26-0.09h-0.07l-0.01-0.05c0.03-0.03,0.06-0.05,0.09-0.07c0.02-0.01,0.06-0.04,0.05-0.05
	c-0.04-0.03-0.71-0.14-1.89-0.14c-1.17,0-1.89,0.13-1.94,0.16l0.03,0.02l-0.01,0.1C27.52,20.24,27.26,20.36,27.15,20.36
	 M29.21,19.28c-1.73,0-2.38,0.35-2.39,0.57c0,0.12,0.05,0.24,0.14,0.34c0.07,0.07,0.14,0.11,0.2,0.11c0.13,0,0.4-0.15,0.41-0.2
	c-0.02,0-0.05-0.03-0.05-0.06c0.09-0.08,0.79-0.22,2.01-0.22c1.08,0,1.93,0.1,1.95,0.19c0.01,0.05-0.03,0.08-0.08,0.11
	c-0.03,0.02-0.06,0.04-0.08,0.06c0.18-0.05,0.26,0,0.33,0.05c0.04,0.03,0.08,0.05,0.12,0.06c0.13,0,0.34-0.17,0.35-0.41
	c0-0.04-0.02-0.08-0.05-0.11c-0.09-0.1-0.55-0.43-2.55-0.47L29.21,19.28z"/>
<polygon style="fill:#F5CD28;" points="27.42,19.91 27.32,19.61 27.5,19.55 27.51,19.58 27.36,19.63 27.4,19.72 27.53,19.68 
	27.54,19.71 27.41,19.76 27.44,19.86 27.59,19.81 27.61,19.85 "/>
<path style="fill:#F5CD28;" d="M28.04,19.46l0.04,0l0.02,0.19c0,0.03,0,0.06,0,0.08c-0.01,0.02-0.01,0.04-0.03,0.05
	c-0.02,0.01-0.04,0.02-0.06,0.02c-0.03,0-0.05,0-0.07-0.01c-0.02-0.01-0.03-0.02-0.04-0.04c-0.01-0.02-0.02-0.05-0.02-0.08
	l-0.02-0.19l0.04,0l0.02,0.19c0,0.03,0.01,0.05,0.01,0.06c0.01,0.01,0.02,0.02,0.03,0.03c0.01,0.01,0.03,0.01,0.04,0.01
	c0.03,0,0.05-0.01,0.06-0.03c0.01-0.01,0.01-0.04,0.01-0.09L28.04,19.46z"/>
<polygon style="fill:#F5CD28;" points="28.43,19.74 28.43,19.43 28.46,19.43 28.46,19.7 28.59,19.7 28.59,19.74 "/>
<rect x="28.66" y="19.41" style="fill:#F5CD28;" width="0.04" height="0.33"/>
<path style="fill:#F5CD28;" d="M28.95,19.63l0.03,0.01c-0.01,0.04-0.02,0.06-0.04,0.08c-0.02,0.02-0.04,0.03-0.06,0.03
	c-0.02,0-0.05-0.01-0.06-0.02c-0.01-0.01-0.03-0.04-0.04-0.06c-0.01-0.03-0.01-0.06-0.01-0.09c0-0.03,0-0.06,0.01-0.09
	c0.01-0.03,0.02-0.04,0.04-0.06c0.02-0.01,0.04-0.02,0.06-0.02c0.02,0,0.04,0.01,0.06,0.03c0.01,0.02,0.03,0.04,0.03,0.07
	l-0.03,0.01c-0.01-0.03-0.01-0.04-0.02-0.05c-0.01-0.01-0.02-0.02-0.04-0.02c-0.02,0-0.03,0.01-0.05,0.02
	c-0.01,0.01-0.02,0.03-0.02,0.05c-0.01,0.02-0.01,0.04-0.01,0.06c0,0.03,0,0.05,0.01,0.08c0.01,0.02,0.01,0.04,0.03,0.05
	c0.01,0.01,0.03,0.02,0.04,0.02c0.02,0,0.03-0.01,0.04-0.02C28.94,19.68,28.95,19.66,28.95,19.63"/>
<path style="fill:#F5CD28;" d="M30.02,19.73v-0.31h0.06l0.07,0.22c0.01,0.02,0.01,0.04,0.01,0.05c0-0.01,0.01-0.03,0.02-0.05
	l0.07-0.21h0.05v0.31h-0.04v-0.26l-0.08,0.26h-0.03l-0.08-0.26v0.26H30.02z"/>
<rect x="30.35" y="19.43" style="fill:#F5CD28;" width="0.04" height="0.32"/>
<polygon style="fill:#F5CD28;" points="30.46,19.75 30.46,19.44 30.49,19.44 30.62,19.69 30.62,19.44 30.65,19.44 30.65,19.75 
	30.61,19.75 30.49,19.51 30.49,19.75 "/>
<rect x="30.74" y="19.45" style="fill:#F5CD28;" width="0.04" height="0.3"/>
<path style="fill:#F5CD28;" d="M31.01,19.69l0.03,0.01c-0.01,0.04-0.03,0.06-0.05,0.08c-0.02,0.02-0.04,0.02-0.07,0.02
	c-0.03,0-0.05-0.01-0.06-0.03c-0.02-0.02-0.03-0.04-0.03-0.07c-0.01-0.03-0.01-0.06,0-0.09c0-0.04,0.01-0.07,0.02-0.09
	c0.01-0.02,0.03-0.04,0.05-0.05c0.02-0.01,0.04-0.02,0.07-0.01c0.03,0,0.05,0.01,0.06,0.03c0.02,0.02,0.03,0.05,0.03,0.08
	l-0.04,0.01c0-0.03-0.01-0.04-0.02-0.06c-0.01-0.01-0.02-0.02-0.04-0.02c-0.02,0-0.04,0-0.05,0.01c-0.01,0.01-0.02,0.03-0.03,0.05
	c-0.01,0.02-0.01,0.04-0.02,0.06c0,0.03,0,0.05,0,0.08c0,0.02,0.01,0.04,0.02,0.05c0.01,0.01,0.03,0.02,0.04,0.02
	c0.02,0,0.04,0,0.05-0.02C31,19.74,31.01,19.72,31.01,19.69"/>
<polygon style="fill:#F5CD28;" points="31.33,19.88 31.4,19.55 31.44,19.56 31.52,19.84 31.57,19.58 31.61,19.59 31.54,19.92 
	31.5,19.92 31.42,19.63 31.36,19.89 "/>
<path style="fill:#F5CD28;" d="M27.17,20.01l-0.13-0.31l0.11-0.04c0.02-0.01,0.04-0.01,0.05-0.01c0.01,0,0.03,0.01,0.04,0.02
	c0.01,0.01,0.02,0.03,0.03,0.04c0.01,0.02,0.01,0.04,0.01,0.06c-0.01,0.02-0.02,0.04-0.04,0.05c0.01,0,0.02,0,0.02,0.01
	c0.02,0.01,0.03,0.02,0.05,0.03l0.08,0.07l-0.04,0.02l-0.06-0.05c-0.02-0.01-0.03-0.03-0.04-0.03c-0.01-0.01-0.02-0.01-0.02-0.01
	c-0.01,0-0.01,0-0.02,0c-0.01,0-0.01,0-0.02,0.01l-0.04,0.02L27.21,20L27.17,20.01z M27.13,19.83l0.07-0.03
	c0.01-0.01,0.03-0.01,0.03-0.02c0.01-0.01,0.01-0.02,0.01-0.03c0-0.01,0-0.02-0.01-0.03c-0.01-0.02-0.02-0.03-0.03-0.03
	c-0.01-0.01-0.03,0-0.04,0l-0.08,0.03L27.13,19.83z"/>
<path style="fill:#F5CD28;" d="M27.67,19.83l-0.07-0.32l0.1-0.02c0.02,0,0.03,0,0.04,0c0.01,0,0.03,0,0.04,0.01
	c0.01,0.01,0.02,0.02,0.03,0.03c0.01,0.01,0.01,0.03,0.02,0.04c0.01,0.03,0,0.05-0.01,0.07c-0.01,0.02-0.03,0.04-0.07,0.04
	l-0.07,0.01l0.03,0.13L27.67,19.83z M27.67,19.66l0.07-0.01c0.02-0.01,0.04-0.01,0.05-0.02c0.01-0.01,0.01-0.03,0.01-0.05
	c0-0.01-0.01-0.02-0.02-0.03c-0.01-0.01-0.02-0.01-0.03-0.01c-0.01,0-0.02,0-0.03,0l-0.07,0.01L27.67,19.66z"/>
<path style="fill:#F5CD28;" d="M28.17,19.77l-0.02-0.32l0.1-0.01c0.02,0,0.04,0,0.05,0.01c0.01,0.01,0.02,0.01,0.03,0.03
	c0.01,0.02,0.01,0.03,0.01,0.04c0,0.01,0,0.03-0.01,0.04c-0.01,0.01-0.01,0.02-0.02,0.03c0.01,0,0.03,0.01,0.04,0.03
	c0.01,0.01,0.01,0.03,0.02,0.05c0,0.02,0,0.03-0.01,0.04c0,0.01-0.01,0.02-0.02,0.03c-0.01,0.01-0.02,0.01-0.03,0.02
	c-0.01,0-0.02,0.01-0.04,0.01L28.17,19.77z M28.19,19.58l0.05,0c0.02,0,0.03,0,0.03-0.01c0.01,0,0.01-0.01,0.02-0.02
	c0.01-0.01,0.01-0.02,0.01-0.03c0-0.01,0-0.02-0.01-0.03c0-0.01-0.01-0.01-0.02-0.02c-0.01,0-0.02,0-0.04,0l-0.05,0L28.19,19.58z
	 M28.2,19.73l0.06,0c0.01,0,0.02,0,0.02,0c0.01,0,0.01-0.01,0.02-0.01c0.01-0.01,0.01-0.01,0.01-0.02c0-0.01,0-0.02,0-0.03
	c0-0.01,0-0.02-0.01-0.03c-0.01-0.01-0.01-0.01-0.02-0.02c-0.01,0-0.02,0-0.04,0l-0.06,0L28.2,19.73z"/>
<path style="fill:#F5CD28;" d="M29.02,19.74l0.1-0.34h0.04l0.11,0.34h-0.04l-0.03-0.1h-0.11l-0.03,0.1H29.02z M29.09,19.6h0.09
	l-0.03-0.09c-0.01-0.03-0.01-0.05-0.02-0.07c0,0.02-0.01,0.04-0.01,0.06L29.09,19.6z"/>
<path style="fill:#F5CD28;" d="M29.47,19.74v-0.33h0.09c0.02,0,0.04,0,0.05,0c0.02,0,0.03,0.01,0.04,0.02
	c0.01,0.02,0.02,0.03,0.03,0.06c0.01,0.02,0.01,0.05,0.01,0.08c0,0.03,0,0.05-0.01,0.07c0,0.02-0.01,0.04-0.02,0.05
	c-0.01,0.01-0.02,0.02-0.02,0.03c-0.01,0.01-0.02,0.01-0.03,0.02c-0.01,0-0.03,0.01-0.04,0.01H29.47z M29.5,19.7h0.06
	c0.02,0,0.03,0,0.04-0.01c0.01,0,0.02-0.01,0.02-0.02c0.01-0.01,0.02-0.02,0.02-0.04c0.01-0.02,0.01-0.04,0.01-0.06
	c0-0.03,0-0.06-0.01-0.08c-0.01-0.02-0.02-0.03-0.03-0.04c-0.01-0.01-0.02-0.01-0.05-0.01H29.5V19.7z"/>
<path style="fill:#F5CD28;" d="M29.74,19.58c0-0.06,0.01-0.1,0.03-0.13c0.02-0.03,0.05-0.05,0.08-0.05c0.02,0,0.04,0.01,0.06,0.02
	c0.02,0.02,0.03,0.04,0.04,0.06c0.01,0.03,0.01,0.06,0.01,0.09c0,0.03,0,0.07-0.01,0.09c-0.01,0.03-0.02,0.05-0.04,0.06
	c-0.02,0.01-0.04,0.02-0.06,0.02c-0.02,0-0.04-0.01-0.06-0.02c-0.02-0.02-0.03-0.04-0.04-0.06C29.75,19.64,29.74,19.61,29.74,19.58
	 M29.77,19.58c0,0.04,0.01,0.07,0.02,0.1c0.01,0.02,0.03,0.04,0.06,0.04c0.02,0,0.04-0.01,0.06-0.04c0.01-0.02,0.02-0.06,0.02-0.1
	c0-0.03,0-0.05-0.01-0.07c-0.01-0.02-0.02-0.04-0.03-0.05c-0.01-0.01-0.03-0.02-0.04-0.02c-0.02,0-0.04,0.01-0.06,0.03
	C29.78,19.49,29.77,19.53,29.77,19.58"/>
<path style="fill:#F5CD28;" d="M31.05,19.81l0.17-0.31l0.04,0.01l0.04,0.36l-0.04-0.01l-0.01-0.11l-0.11-0.03l-0.05,0.1L31.05,19.81
	z M31.15,19.68l0.09,0.02l-0.01-0.1c0-0.03,0-0.06,0-0.08c-0.01,0.02-0.02,0.04-0.03,0.06L31.15,19.68z"/>
<path style="fill:#F5CD28;" d="M31.57,19.93l0.22-0.27l0.03,0.02l-0.04,0.36l-0.04-0.02l0.01-0.11l-0.1-0.05l-0.07,0.08L31.57,19.93
	z M31.69,19.83l0.08,0.04l0.01-0.1c0.01-0.03,0.01-0.05,0.01-0.07c-0.01,0.02-0.02,0.04-0.04,0.06L31.69,19.83z"/>
<path style="fill:#BC0030;" d="M30.39,20.2c-0.31-0.13-0.48-0.03-0.48-0.03l0.01,0.21c0,0,0.15,0,0.21,0.03
	c0.06,0.03,0.2,0.1,0.2,0.1L30.39,20.2z"/>
<path d="M30.35,20.55l-0.23-0.11c-0.04-0.02-0.15-0.03-0.19-0.03l-0.04-0.24c0.03-0.05,0.27-0.11,0.52,0L30.35,20.55z M30.01,20.37
	c0.04,0,0.1,0.01,0.13,0.02l0.16,0.08l0.06-0.27c-0.19-0.02-0.44,0-0.44,0l0.02,0.18C29.95,20.37,29.98,20.37,30.01,20.37"/>
<path style="fill:#BC0030;" d="M28.56,20.22c0.31-0.13,0.48-0.03,0.48-0.03l-0.01,0.21c0,0-0.15,0-0.21,0.03
	c-0.06,0.03-0.2,0.1-0.2,0.1L28.56,20.22z"/>
<path d="M28.61,20.57l-0.08-0.34c0.3-0.19,0.52-0.06,0.53-0.06l0.01,0.24c-0.07,0.03-0.18,0.03-0.23,0.05L28.61,20.57z M28.86,20.18
	c-0.09,0-0.19,0.02-0.29,0.07l0.08,0.24l0.17-0.08c0.06-0.03,0.21-0.03,0.22-0.03l-0.02-0.17C29,20.2,28.95,20.18,28.86,20.18"/>
<path style="fill:#BC0030;" d="M29.3,20.15v0.31c0.01,0.02,0.07,0.04,0.17,0.04s0.17-0.04,0.17-0.04v-0.32c0,0-0.11-0.04-0.19-0.03
	C29.37,20.11,29.32,20.13,29.3,20.15"/>
<path d="M29.46,20.53c-0.09,0-0.17-0.02-0.19-0.06l-0.01-0.32c0.04-0.05,0.09-0.06,0.17-0.07c0.1,0.01,0.2,0.03,0.2,0.03l0.02,0.35
	C29.64,20.48,29.57,20.53,29.46,20.53 M29.33,20.45c0.02,0,0.28-0.02,0.29-0.02l-0.01-0.29c-0.01,0.01-0.08-0.01-0.13-0.01
	c-0.12,0.01-0.15,0.03-0.15,0.04L29.33,20.45L29.33,20.45z"/>
<path style="fill:#BC0030;" d="M29.63,20.47c0.05,0.09,0.4,0.06,0.41-0.02c0.01-0.08,0.01-0.19,0.01-0.19h-0.41V20.47z"/>
<path d="M29.81,20.56L29.81,20.56c-0.06,0-0.17-0.01-0.2-0.07l0-0.22l0.44-0.03c0.03,0.03,0.03,0.14,0.02,0.22
	C30.06,20.53,29.9,20.56,29.81,20.56 M30.02,20.27l-0.38,0.03l0.03,0.18c0.01,0.01,0.34,0.01,0.35-0.02
	C30.02,20.38,30.02,20.27,30.02,20.27"/>
<path style="fill:#BC0030;" d="M29.63,20.13c0.05-0.02,0.18-0.07,0.27-0.06c0.1,0.01,0.15,0.07,0.15,0.07l-0.02,0.28
	c-0.02-0.03-0.1-0.07-0.15-0.07c-0.1,0-0.17,0.04-0.26,0.09V20.13z"/>
<path d="M29.6,20.49v-0.35c0.08-0.05,0.19-0.09,0.28-0.09c0.14,0.01,0.19,0.08,0.2,0.08l-0.01,0.3c-0.07-0.01-0.13-0.04-0.17-0.04
	c-0.1,0-0.16,0.04-0.25,0.08L29.6,20.49z M29.89,20.32c0.06,0,0.15,0.04,0.17,0.08l-0.03-0.26c0,0.01-0.04-0.03-0.12-0.04
	c-0.1,0-0.21,0.03-0.26,0.06l0.02,0.23C29.73,20.35,29.8,20.33,29.89,20.32z"/>
<path style="fill:#BC0030;" d="M29.3,20.48c-0.05,0.09-0.4,0.06-0.41-0.02c-0.01-0.08,0-0.19,0-0.19h0.41V20.48z"/>
<path d="M29.12,20.56c-0.08,0-0.25-0.02-0.26-0.1c-0.01-0.08-0.01-0.19-0.01-0.19l0.44-0.03l0.03,0.23
	C29.29,20.55,29.18,20.56,29.12,20.56 M28.9,20.3c0.01,0.02,0.01,0.1,0.02,0.16c0.01,0.03,0.33,0.05,0.36,0.01l0-0.19L28.9,20.3z"/>
<path style="fill:#BC0030;" d="M29.3,20.14c-0.05-0.02-0.18-0.07-0.28-0.06c-0.1,0.01-0.15,0.07-0.15,0.07l0.02,0.28
	c0.02-0.03,0.1-0.07,0.15-0.07c0.1,0,0.17,0.04,0.26,0.09V20.14z"/>
<path d="M29.33,20.49l-0.05-0.02c-0.08-0.04-0.15-0.08-0.24-0.08c-0.05,0-0.11,0.03-0.12,0.05l-0.07-0.29
	c0.01-0.02,0.07-0.09,0.17-0.1c0.14,0.01,0.25,0.05,0.29,0.06L29.33,20.49z M29.04,20.33c0.09,0,0.16,0.03,0.23,0.07v-0.26
	c-0.08-0.01-0.16-0.03-0.22-0.03c-0.11,0.01-0.15,0.06-0.15,0.06l0.02,0.22C28.93,20.35,28.99,20.33,29.04,20.33"/>
</svg>
