<svg version="1.1" xmlns="http://www.w3.org/2000/svg" xmlns:xlink="http://www.w3.org/1999/xlink" x="0px" y="0px"
	 viewBox="0 0 58.92 34.37" style="enable-background:new 0 0 58.92 34.37;" xml:space="preserve">
<rect style="fill:#FFFFFF;" width="58.92" height="34.37"/>
<path d="M0.09,0.09h58.75v34.19H0.09V0.09z M0,34.37h58.92V0H0V34.37z"/>
<rect style="fill:#2F742E;" width="29.46" height="34.37"/>
<path style="fill:#C0003B;" d="M35.83,22.55c-2.96,2.37-7.29,1.89-9.66-1.07c-2.37-2.96-1.89-7.29,1.07-9.66
	c2.96-2.37,7.29-1.89,9.66,1.07c-0.75-1.31-1.84-2.39-3.15-3.15c-4.11-2.37-9.36-0.96-11.74,3.15c-2.37,4.11-0.97,9.37,3.15,11.74
	c4.11,2.37,9.36,0.96,11.74-3.15C36.59,21.88,36.23,22.24,35.83,22.55"/>
<polygon style="fill:#C0003B;" points="32.43,18.75 34.27,21.27 34.27,18.15 37.24,17.19 34.27,16.22 34.27,13.1 32.43,15.62 
	29.46,14.66 31.3,17.19 29.46,19.71 "/>
</svg>
