<svg version="1.1" xmlns="http://www.w3.org/2000/svg" xmlns:xlink="http://www.w3.org/1999/xlink" x="0px" y="0px"
	 viewBox="0 0 59.04 34.49" style="enable-background:new 0 0 59.04 34.49;" xml:space="preserve">
<rect x="0.06" y="22.98" width="58.92" height="11.46"/>
<path d="M59.04,34.49H0V22.92h59.04V34.49z M0.12,34.37h58.8V23.04H0.12V34.37z"/>
<rect x="0.06" y="11.52" style="fill:#FFFFFF;" width="58.92" height="11.46"/>
<path style="fill:#FFFFFF;" d="M59.04,23.04H0V11.46h59.04V23.04z M0.12,22.92h58.8V11.58H0.12V22.92z"/>
<rect x="0.06" y="0.06" style="fill:#BC0030;" width="58.92" height="11.46"/>
<path style="fill:#BC0030;" d="M59.04,11.58H0V0h59.04V11.58z M0.12,11.46h58.8V0.12H0.12V11.46z"/>
<path style="fill:#FFFFFF;" d="M29.2,22.68c1.13,0,2.2-0.09,2.84-0.27c0.27-0.05,0.27-0.19,0.27-0.36c0.27-0.09,0.13-0.41,0.32-0.41
	c-0.19,0.05-0.23-0.32-0.45-0.27c0-0.31-0.32-0.35-0.58-0.27c-0.53,0.18-1.48,0.22-2.38,0.22c-0.9-0.04-1.84-0.04-2.38-0.22
	c-0.27-0.09-0.58-0.05-0.58,0.27c-0.23-0.05-0.27,0.32-0.45,0.27c0.19,0,0.05,0.32,0.32,0.41c0,0.18,0,0.32,0.28,0.36
	C26.99,22.59,28.07,22.68,29.2,22.68"/>
<path style="fill:#F0C727;" d="M29.2,22.79c-1.21,0-2.25-0.1-2.86-0.27c-0.31-0.05-0.35-0.23-0.36-0.4
	c-0.14-0.08-0.17-0.21-0.19-0.3c-0.01-0.02-0.01-0.05-0.02-0.07c-0.01,0-0.02,0-0.02,0c-0.05-0.02-0.09-0.07-0.08-0.12
	c0.01-0.06,0.05-0.1,0.11-0.1c0.01,0,0.01,0,0.02,0.01c0,0,0.01,0,0.01,0c0.02,0,0.06-0.05,0.09-0.08c0.05-0.07,0.13-0.16,0.24-0.19
	c0.06-0.27,0.38-0.38,0.72-0.26c0.43,0.14,1.13,0.17,1.87,0.19l0.49,0.02c1.14,0,1.91-0.07,2.34-0.21c0.35-0.12,0.67,0,0.72,0.28
	c0.12,0.03,0.19,0.11,0.24,0.17c0.02,0.03,0.06,0.08,0.08,0.08c0.02,0,0.03,0,0.04,0c0.06,0,0.1,0.04,0.11,0.1
	c0.01,0.05-0.03,0.11-0.08,0.12c-0.01,0-0.01,0-0.02,0c0,0-0.01,0-0.01,0h0c0,0,0,0.04-0.01,0.07c-0.02,0.09-0.05,0.22-0.19,0.3
	c-0.01,0.17-0.05,0.34-0.36,0.4C31.45,22.69,30.4,22.79,29.2,22.79 M25.99,21.68c0.01,0.03,0.02,0.06,0.02,0.08
	c0.02,0.1,0.04,0.15,0.12,0.17c0.04,0.02,0.08,0.06,0.08,0.11c0,0.18,0,0.22,0.18,0.25c0.59,0.17,1.64,0.27,2.81,0.27
	c1.17,0,2.22-0.1,2.81-0.26c0.18-0.03,0.18-0.08,0.18-0.26c0-0.05,0.03-0.09,0.08-0.11c0.08-0.03,0.1-0.08,0.12-0.17
	c0.01-0.03,0.01-0.06,0.02-0.08c-0.03-0.03-0.06-0.06-0.08-0.1c-0.05-0.06-0.09-0.1-0.12-0.1c-0.03,0-0.08,0-0.1-0.02
	c-0.03-0.02-0.05-0.05-0.05-0.09c0-0.05,0-0.19-0.23-0.19c-0.06,0-0.14,0.01-0.2,0.03c-0.45,0.15-1.25,0.23-2.42,0.23l-0.49-0.02
	c-0.75-0.03-1.47-0.05-1.93-0.21c-0.07-0.02-0.14-0.03-0.2-0.03c-0.23,0-0.23,0.15-0.23,0.19c0,0.04-0.01,0.07-0.04,0.09
	c-0.02,0.02-0.06,0.03-0.09,0.02c-0.06,0-0.09,0.04-0.14,0.1C26.05,21.62,26.02,21.65,25.99,21.68"/>
<path style="fill:#F4D134;" d="M26.64,21.55c-0.09,0-0.09,0.05,0,0.05C26.68,21.6,26.68,21.55,26.64,21.55"/>
<path style="fill:#F0C727;" d="M26.64,21.66c-0.12,0-0.13-0.07-0.13-0.09c0-0.05,0.08-0.09,0.13-0.09c0.03,0,0.09,0.05,0.09,0.09
	S26.67,21.66,26.64,21.66"/>
<path style="fill:#F4D134;" d="M26.64,21.37c-0.05,0-0.05,0.09,0,0.09C26.72,21.46,26.72,21.37,26.64,21.37"/>
<path style="fill:#F0C727;" d="M26.64,21.53c-0.03,0-0.1-0.07-0.1-0.1c0-0.03,0.07-0.1,0.1-0.1c0.08,0,0.13,0.05,0.13,0.1
	C26.76,21.47,26.72,21.53,26.64,21.53"/>
<path style="fill:#F4D134;" d="M26.64,22.05c-0.05,0-0.05,0.09,0,0.09C26.68,22.14,26.68,22.05,26.64,22.05"/>
<path style="fill:#F0C727;" d="M26.64,22.2c-0.03,0-0.1-0.07-0.1-0.1c0-0.03,0.07-0.1,0.1-0.1c0.03,0,0.09,0.07,0.09,0.1
	C26.73,22.13,26.67,22.2,26.64,22.2"/>
<path style="fill:#F4D134;" d="M26.81,22.1c-0.09,0-0.09,0.09,0,0.09C26.86,22.19,26.86,22.1,26.81,22.1"/>
<path style="fill:#F0C727;" d="M26.81,22.25c-0.08,0-0.13-0.05-0.13-0.1c0-0.05,0.07-0.1,0.13-0.1c0.03,0,0.1,0.07,0.1,0.1
	C26.91,22.19,26.86,22.25,26.81,22.25"/>
<path style="fill:#F4D134;" d="M26.99,22.14c-0.04,0-0.04,0.09,0,0.09C27.08,22.23,27.08,22.14,26.99,22.14"/>
<path style="fill:#F0C727;" d="M26.99,22.29c-0.03,0-0.09-0.07-0.09-0.1c0-0.03,0.06-0.11,0.09-0.11c0.08,0,0.13,0.05,0.13,0.11
	C27.12,22.23,27.08,22.29,26.99,22.29"/>
<path style="fill:#F4D134;" d="M29.78,21.69c-0.04,0-0.04,0.09,0,0.09C29.83,21.78,29.83,21.69,29.78,21.69"/>
<path style="fill:#F0C727;" d="M29.78,21.84c-0.03,0-0.09-0.07-0.09-0.1c0-0.03,0.06-0.11,0.09-0.11c0.03,0,0.1,0.07,0.1,0.11
	C29.88,21.77,29.81,21.84,29.78,21.84"/>
<path style="fill:#F4D134;" d="M29.83,21.87c-0.09,0-0.09,0.04,0,0.04C29.87,21.91,29.87,21.87,29.83,21.87"/>
<path style="fill:#F4D134;" d="M29.96,22.31c-0.04,0-0.04,0.1,0,0.1C30.01,22.41,30.01,22.31,29.96,22.31"/>
<path style="fill:#F0C727;" d="M29.96,22.47c-0.03,0-0.09-0.08-0.09-0.11c0-0.03,0.06-0.11,0.09-0.11c0.03,0,0.1,0.08,0.1,0.11
	C30.05,22.4,29.99,22.47,29.96,22.47"/>
<path style="fill:#F4D134;" d="M30.14,22.31c-0.1,0-0.1,0.1,0,0.1C30.18,22.41,30.18,22.31,30.14,22.31"/>
<path style="fill:#F0C727;" d="M30.14,22.47c-0.09,0-0.13-0.05-0.13-0.11c0-0.06,0.05-0.11,0.13-0.11c0.03,0,0.09,0.08,0.09,0.11
	C30.23,22.41,30.19,22.47,30.14,22.47"/>
<path style="fill:#F4D134;" d="M31.98,21.96c-0.09,0-0.09,0.05,0,0.05C32.03,22.01,32.03,21.96,31.98,21.96"/>
<path style="fill:#F0C727;" d="M31.98,22.07c-0.12,0-0.13-0.07-0.13-0.08c0-0.05,0.08-0.08,0.13-0.08c0.03,0,0.1,0.05,0.1,0.08
	C32.08,22.02,32.02,22.07,31.98,22.07"/>
<path style="fill:#F0C727;" d="M27.12,22.12c-0.04,0-0.07-0.01-0.1-0.02c-0.05-0.01-0.1-0.03-0.13-0.06c-0.04,0-0.08-0.01-0.14-0.03
	c-0.04,0-0.13-0.07-0.13-0.2c0.04-0.09,0.07-0.22,0.11-0.35l0.03-0.11c0.01-0.03,0.04-0.05,0.07-0.04c0.03,0.01,0.05,0.04,0.04,0.07
	l-0.03,0.11c-0.04,0.15-0.07,0.27-0.11,0.35c0.01,0.02,0.03,0.05,0.04,0.05c0.04,0.01,0.07,0.02,0.09,0.03
	c0.01-0.03,0.02-0.05,0.03-0.09c0.01-0.09,0.03-0.13,0.06-0.14c0.01,0.01,0.03,0.03,0.04,0.06l0.03,0.02c0,0,0,0.02-0.01,0.04
	c0,0.01,0,0.01,0,0.02c-0.01,0.05-0.02,0.09-0.03,0.12c0.01,0,0.02,0.01,0.08,0.03c0.03,0.01,0.07,0.02,0.09,0.01
	c0.02-0.01,0.04-0.06,0.06-0.15l0.02,0.01l-0.06-0.07c0.01-0.02,0.07-0.05,0.09-0.04c0.03,0.01,0.07,0.08,0.07,0.11
	c-0.02,0.11-0.05,0.2-0.12,0.24C27.17,22.12,27.15,22.12,27.12,22.12"/>
<path style="fill:#F0C727;" d="M26.76,22.02c-0.01,0-0.01,0-0.02,0c-0.13-0.04-0.22-0.11-0.22-0.19c0-0.05,0.03-0.12,0.18-0.15
	c0.03,0,0.07,0.01,0.07,0.05c0.01,0.03-0.01,0.06-0.05,0.07c-0.08,0.02-0.09,0.04-0.09,0.04c0,0.01,0.04,0.05,0.13,0.07
	c0.03,0.01,0.05,0.04,0.04,0.07C26.81,22,26.79,22.02,26.76,22.02"/>
<path style="fill:#F0C727;" d="M28.06,22.38c-0.03,0-0.07-0.01-0.08-0.03c-0.01,0.02-0.1,0-0.1-0.17c-0.02,0-0.07-0.01-0.1-0.04
	c-0.11,0.05-0.25,0.06-0.33,0.03c-0.03,0.04-0.07,0.08-0.12,0.1c-0.03,0.01-0.07,0-0.08-0.03c-0.01-0.03,0-0.07,0.03-0.08
	s0.06-0.04,0.08-0.07c-0.02-0.03-0.02-0.06-0.02-0.1c-0.01-0.02-0.03-0.08,0-0.12c0.1-0.02,0.14,0.02,0.16,0.1
	c0,0.03,0,0.06-0.01,0.08c0.03,0.02,0.1,0.02,0.18-0.01c-0.05-0.06-0.06-0.14-0.03-0.2c0.04-0.08,0.13-0.12,0.22-0.1
	c0.07,0.04,0.11,0.11,0.11,0.18c0,0.06-0.03,0.11-0.08,0.15c0.02,0.01,0.04,0.03,0.07,0.04c0.03,0.12,0.04,0.12,0.06,0.12
	c0.03,0,0.07-0.08,0.07-0.16v-0.4c0-0.07,0.12-0.07,0.12,0v0.4c0,0.11-0.06,0.26-0.14,0.29C28.07,22.38,28.07,22.38,28.06,22.38"/>
<path style="fill:#F0C727;" d="M28.3,22.25c-0.03,0-0.06-0.03-0.06-0.06c0-0.07,0.01-0.17,0.03-0.26c0.01-0.09,0.02-0.17,0.02-0.23
	c0-0.07,0.12-0.07,0.12,0c0,0.07-0.01,0.16-0.02,0.25c-0.01,0.09-0.02,0.18-0.02,0.25C28.36,22.22,28.33,22.25,28.3,22.25"/>
<path style="fill:#F0C727;" d="M28.43,22.51c-0.02,0-0.04-0.01-0.05-0.02c-0.02-0.03-0.02-0.06,0.01-0.08
	c0.09-0.07,0.13-0.12,0.14-0.17c-0.03-0.02-0.05-0.04-0.06-0.06c-0.03-0.06-0.04-0.11-0.01-0.14c0.01-0.02,0.06-0.04,0.08-0.04
	c0.05,0,0.09,0.05,0.12,0.12c0,0.02,0,0.03,0,0.05c0.01,0,0.02,0,0.03,0c0,0,0.02-0.01,0.03-0.09c-0.02-0.01-0.04-0.04-0.04-0.07
	c0-0.03,0.05-0.1,0.08-0.1c0.03,0,0.06,0.04,0.08,0.08c0.02,0,0.05,0,0.08,0c0.1,0.05,0.28,0.04,0.31,0.02
	c0.11-0.02,0.15,0.05,0.15,0.18c0,0.01-0.03,0.09-0.03,0.09c-0.03,0.08-0.06,0.14-0.11,0.15c-0.06,0.01-0.1-0.04-0.14-0.07
	c-0.02-0.06-0.02-0.07-0.09-0.07H28.7c-0.02,0-0.03,0-0.05,0c-0.02,0.07-0.07,0.14-0.18,0.22C28.46,22.51,28.45,22.51,28.43,22.51
	 M28.83,22.17h0.18c0.16,0,0.19,0.09,0.19,0.15c0,0,0.05-0.09,0.05-0.09c0.01-0.04,0.01-0.07,0.01-0.1
	c-0.11,0.04-0.29,0.02-0.37-0.03c-0.01,0-0.03,0.01-0.05,0C28.84,22.13,28.84,22.15,28.83,22.17"/>
<path style="fill:#F0C727;" d="M29.51,22.29c-0.01,0-0.03,0-0.04-0.01c-0.04-0.01-0.07,0-0.08,0c-0.03,0-0.09-0.02-0.09-0.05
	c0-0.03,0-0.06,0.03-0.06v0.06l0.03-0.07c0.02,0,0.04-0.01,0.07-0.01c-0.01-0.06,0.02-0.1,0.04-0.12c0.04-0.04,0.1-0.05,0.15-0.03
	c0.05,0.02,0.09,0.08,0.09,0.14C29.71,22.23,29.57,22.29,29.51,22.29L29.51,22.29z"/>
<path style="fill:#F0C727;" d="M29.87,22.28c-0.02,0-0.04,0-0.05-0.01c-0.02-0.01-0.05-0.06-0.05-0.08
	c0.05-0.08,0.11-0.11,0.16-0.12c0.01-0.1,0.01-0.23-0.03-0.36c-0.01-0.03,0.01-0.06,0.04-0.07c0.04-0.01,0.07,0.01,0.08,0.04
	c0.03,0.12,0.05,0.29,0.03,0.42c0.01,0,0.09,0.03,0.1,0.03c0.04,0,0.06-0.02,0.07-0.1c-0.03-0.04-0.06-0.1-0.05-0.11
	c0.01-0.03,0.06-0.05,0.09-0.04c0.03,0.01,0.08,0.06,0.08,0.09c0,0.01,0,0.03,0,0.04c0,0.01,0,0.01,0,0.02
	c-0.01,0.18-0.05,0.23-0.19,0.23c-0.06,0.03-0.11,0.01-0.15,0c0,0-0.01-0.01-0.01-0.01C29.95,22.26,29.91,22.28,29.87,22.28"/>
<path style="fill:#F0C727;" d="M30.41,22.42c-0.02,0-0.03-0.01-0.04-0.02c-0.02-0.02-0.02-0.06,0-0.08c0.04-0.04,0.08-0.1,0.1-0.15
	c-0.1-0.06-0.12-0.13-0.12-0.16c0-0.03,0-0.1,0.06-0.13c0.06-0.02,0.12,0.03,0.17,0.09c0.07,0.13-0.03,0.34-0.13,0.44
	C30.44,22.42,30.43,22.42,30.41,22.42"/>
<path style="fill:#F0C727;" d="M30.73,22.34c-0.02,0-0.05-0.02-0.06-0.04c-0.01-0.03,0-0.07,0.03-0.08
	c0.04-0.02,0.07-0.04,0.08-0.06c-0.1,0.01-0.13-0.04-0.14-0.08c-0.02-0.06,0.02-0.13,0.09-0.17c0.02-0.01,0.09-0.03,0.1-0.02
	c0.05,0.02,0.07,0.07,0.08,0.15c0.16-0.02,0.38-0.08,0.54-0.17c0.03-0.02,0.07-0.01,0.08,0.02c0.02,0.03,0.01,0.06-0.02,0.08
	c-0.19,0.11-0.43,0.17-0.61,0.19c-0.01,0.07-0.05,0.14-0.16,0.18C30.74,22.33,30.73,22.34,30.73,22.34"/>
<path style="fill:#F0C727;" d="M31.27,22.17c-0.02,0-0.05,0-0.07-0.01c-0.03-0.05-0.06-0.11-0.08-0.17
	c-0.01,0.02-0.01,0.05-0.01,0.07c0,0.07-0.12,0.07-0.12,0c0-0.1,0.04-0.17,0.1-0.21c0-0.01-0.01-0.02-0.01-0.04l-0.05-0.18
	c-0.01-0.03,0.01-0.06,0.04-0.07c0.04-0.01,0.07,0.01,0.07,0.04l0.05,0.18c0,0.01,0,0.01,0.01,0.02c0.02-0.01,0.07,0,0.11,0.01
	c0.07,0.03,0.11,0.09,0.11,0.15c0.03,0.03,0.02,0.11-0.03,0.16C31.35,22.15,31.31,22.17,31.27,22.17"/>
<path style="fill:#F0C727;" d="M31.6,22.04c-0.08,0-0.14-0.04-0.17-0.11c-0.01-0.02,0-0.09,0.01-0.1c0.07-0.12,0.28-0.13,0.36-0.05
	c0.03,0.07,0.03,0.12-0.01,0.17C31.75,22,31.67,22.04,31.6,22.04"/>
<path style="fill:#F0C727;" d="M31.97,21.89c-0.03,0-0.05-0.01-0.07-0.02c-0.1-0.05-0.16-0.19-0.16-0.4c0-0.04-0.01-0.07-0.04-0.08
	c-0.04-0.02-0.09,0-0.13,0.03c-0.02,0.02-0.06,0.02-0.09,0c-0.02-0.02-0.02-0.06,0-0.08c0.07-0.07,0.18-0.1,0.26-0.06
	c0.07,0.03,0.11,0.1,0.11,0.19c0,0.19,0.05,0.28,0.09,0.3c0.02,0.01,0.04,0.01,0.06,0c0,0,0-0.01,0.01-0.02
	c0.01-0.02,0.08-0.09,0.11-0.08c0.03,0.01,0.05,0.08,0.05,0.11C32.09,21.86,32.02,21.89,31.97,21.89"/>
<path style="fill:#FFFFFF;" d="M29.24,17.52l3.87,3.59l-0.27-6.52c-0.04-0.99-0.9-0.76-1.52-0.41c-0.63,0.41-1.35,0.41-2.11,0.14
	c-0.76,0.27-1.48,0.27-2.11-0.14c-0.62-0.35-1.48-0.58-1.52,0.41l-0.28,6.52L29.24,17.52z"/>
<path style="fill:#F0C727;" d="M25.28,21.17c-0.01,0-0.02,0-0.03-0.01c-0.02-0.01-0.03-0.03-0.03-0.06l0.28-6.52
	c0.02-0.63,0.38-0.77,0.66-0.77c0.35,0,0.74,0.19,0.95,0.31c0.58,0.37,1.27,0.41,2.06,0.13c0.89,0.28,1.53,0.24,2.1-0.13
	c0.21-0.12,0.6-0.31,0.95-0.31c0.29,0,0.64,0.13,0.67,0.77l0.27,6.52c0,0.02-0.01,0.05-0.04,0.06c-0.02,0.01-0.05,0.01-0.07-0.01
	l-3.83-3.55l-3.92,3.55C25.31,21.16,25.3,21.17,25.28,21.17 M26.16,13.94c-0.35,0-0.53,0.22-0.54,0.65l-0.27,6.38l3.85-3.49
	c0.02-0.02,0.06-0.02,0.08,0l3.76,3.49l-0.27-6.38c-0.03-0.74-0.61-0.82-1.43-0.35c-0.6,0.38-1.33,0.43-2.17,0.14
	c-0.74,0.29-1.52,0.24-2.13-0.14C26.72,14.04,26.4,13.94,26.16,13.94"/>
<path style="fill:#FFFFFF;" d="M29.83,14.55c0.22,0.13,0.45,0.13,0.58,0.13c-0.45-0.31-0.58-1.17-0.54-1.52
	c0.09-0.72-0.09-1.13-0.53-1.21c-0.09,0-0.14-0.05-0.32-0.05c-0.14-0.04-0.24,0.09-0.29,0.18c-0.14-0.09-0.25-0.04-0.38-0.13
	c-0.14-0.05-0.36,0-0.36,0.32l0.09-0.04c0.04,0.01,0.12,0.05,0.21,0.1c0.12,0.09,0.29,0.15,0.34,0.47c0.09,0.67,0,1.3-0.63,1.89
	c0.14,0,0.36,0,0.58-0.13c-0.09,0.13-0.13,0.18-0.22,0.27c0.27-0.05,0.49-0.14,0.62-0.36c0.05,0.09,0.18,0.22,0.23,0.31
	c0.05-0.09,0.18-0.22,0.23-0.31c0.13,0.22,0.36,0.31,0.62,0.36C29.96,14.72,29.92,14.68,29.83,14.55"/>
<path style="fill:#F0C727;" d="M28.18,14.9l0.13-0.13c0.04-0.03,0.06-0.06,0.09-0.09c-0.16,0.05-0.31,0.05-0.41,0.05h-0.14l0.1-0.1
	c0.54-0.49,0.72-1.04,0.61-1.84c-0.04-0.24-0.15-0.32-0.25-0.39l-0.06-0.05c-0.09-0.05-0.15-0.09-0.18-0.09l-0.14,0.07v-0.09
	c0-0.36,0.26-0.43,0.44-0.37c0.07,0.04,0.12,0.05,0.18,0.06c0.05,0.01,0.11,0.02,0.16,0.04c0.05-0.07,0.14-0.17,0.26-0.17
	c0.16,0.01,0.23,0.03,0.28,0.04c0.03,0.01,0.06,0.01,0.09,0.01c0.49,0.1,0.68,0.53,0.59,1.28c-0.04,0.37,0.1,1.18,0.52,1.47
	l0.15,0.1h-0.18c-0.1,0-0.25,0-0.41-0.05c0.02,0.03,0.05,0.06,0.09,0.09l0.13,0.13l-0.18-0.03c-0.2-0.04-0.45-0.11-0.61-0.31
	c-0.02,0.03-0.05,0.06-0.07,0.09c-0.04,0.05-0.09,0.1-0.11,0.15l-0.05,0.09l-0.05-0.09c-0.02-0.04-0.07-0.09-0.11-0.15
	c-0.02-0.03-0.05-0.06-0.07-0.09c-0.16,0.21-0.41,0.28-0.61,0.31L28.18,14.9z M29.42,14.34l0.05,0.09c0.08,0.14,0.21,0.23,0.41,0.29
	c-0.03-0.04-0.06-0.08-0.1-0.14l0.08-0.08c0.14,0.08,0.28,0.11,0.4,0.12c-0.38-0.38-0.48-1.13-0.44-1.47
	c0.09-0.7-0.07-1.07-0.49-1.16c-0.03,0.02-0.07-0.01-0.11-0.02c-0.05-0.01-0.11-0.02-0.21-0.03c-0.14,0-0.21,0.11-0.23,0.15
	l-0.03,0.05l-0.05-0.03c-0.06-0.04-0.11-0.05-0.17-0.06c-0.06-0.01-0.14-0.02-0.21-0.07c-0.03-0.01-0.22-0.07-0.27,0.18h0
	c0.08,0,0.14,0.04,0.22,0.08l0.1,0.07c0.11,0.08,0.26,0.18,0.3,0.47c0.07,0.52,0.07,1.2-0.55,1.83c0.12-0.01,0.27-0.04,0.41-0.12
	l0.08,0.08c-0.04,0.06-0.07,0.1-0.1,0.14c0.2-0.06,0.33-0.15,0.41-0.29l0.05-0.09l0.05,0.09c0.02,0.04,0.07,0.09,0.11,0.15
	c0.02,0.03,0.05,0.06,0.07,0.09c0.02-0.03,0.05-0.06,0.07-0.09c0.04-0.05,0.09-0.1,0.11-0.15L29.42,14.34z"/>
<path style="fill:#F0C727;" d="M29.86,14.65c-0.02,0-0.04-0.01-0.05-0.03c-0.13-0.26-0.26-0.54-0.26-0.92c0-0.07,0.12-0.07,0.12,0
	c0,0.35,0.12,0.61,0.25,0.87c0.02,0.03,0,0.06-0.03,0.08C29.87,14.65,29.86,14.65,29.86,14.65"/>
<path style="fill:#F0C727;" d="M29.42,14.52c-0.02,0-0.04-0.01-0.05-0.03c-0.1-0.15-0.15-0.43-0.15-0.8c0-0.07,0.12-0.07,0.12,0
	c0,0.35,0.05,0.61,0.13,0.73c0.02,0.03,0.01,0.07-0.02,0.08C29.44,14.51,29.43,14.52,29.42,14.52"/>
<path style="fill:#F0C727;" d="M28.54,14.65c-0.01,0-0.02,0-0.03-0.01c-0.03-0.02-0.04-0.05-0.03-0.08
	c0.13-0.24,0.25-0.51,0.25-0.87c0-0.07,0.12-0.07,0.12,0c0,0.39-0.13,0.67-0.26,0.93C28.58,14.64,28.56,14.65,28.54,14.65"/>
<path style="fill:#F0C727;" d="M28.97,14.52c-0.01,0-0.02,0-0.03-0.01c-0.03-0.02-0.04-0.05-0.02-0.08
	c0.08-0.13,0.13-0.39,0.13-0.73c0-0.07,0.12-0.07,0.12,0c0,0.37-0.05,0.65-0.15,0.8C29.01,14.51,28.99,14.52,28.97,14.52"/>
<path style="fill:#F0C727;" d="M28.01,12.21c0.09,0.01,0.14,0.04,0.26,0.11c0.09,0.05,0.29,0.15,0.34,0.43
	c-0.05-0.14,0.04-0.28,0.14-0.23C28.61,12.2,28.19,12.12,28.01,12.21"/>
<path style="fill:#F0C727;" d="M28.61,12.78c-0.01,0-0.02-0.01-0.03-0.02c0,0,0,0,0,0c0-0.01-0.01-0.04-0.01-0.05v0
	c-0.06-0.22-0.23-0.31-0.31-0.35l-0.05-0.06l-0.01,0.02c-0.08-0.04-0.12-0.07-0.19-0.07c0.04-0.08,0.1-0.09,0.17-0.09
	c0.21,0,0.49,0.11,0.6,0.36c0,0.01-0.02,0.01-0.02,0.02c0,0.01-0.03,0.01-0.04,0.01c-0.07,0.06-0.09,0.1-0.08,0.15
	c0,0.01,0,0.01-0.01,0.02c0.01,0.01,0.01,0.03,0.02,0.04C28.64,12.76,28.63,12.77,28.61,12.78C28.62,12.77,28.61,12.78,28.61,12.78
	 M28.11,12.21c0.03,0,0.07,0.02,0.12,0.05l0.07,0.03c0.07,0.04,0.21,0.12,0.3,0.29c0.01-0.02,0.02-0.04,0.03-0.05
	c0.02-0.03,0.06-0.04,0.09-0.04C28.62,12.28,28.3,12.18,28.11,12.21"/>
<polygon style="fill:#F0C727;" points="29.37,18.23 29.92,20.7 29.74,20.88 29.55,20.74 29.24,18.54 29.37,20.74 29.19,20.97 
	29.02,20.74 29.15,18.54 28.84,20.74 28.65,20.88 28.47,20.7 29.02,18.23 "/>
<path style="fill:#F0C727;" d="M29.2,21.05l-0.22-0.28l0.06-1.06l-0.15,1.04l-0.2,0.17l-0.24-0.19l0.53-2.52l0.41-0.04l0.59,2.51
	l-0.19,0.23l-0.25-0.13l-0.16-1.08l0.06,1.04L29.2,21.05z M29.2,18.58l-0.13,2.17l0.13,0.14l0.14-0.18L29.2,18.58z M29.32,18.24
	l-0.31,0.04l-0.49,2.43l0.16,0.13l0.12-0.14l0.29-2.17l0.1,0.01l0.1-0.01l0.31,2.2l0.17,0.1l0.11-0.17L29.32,18.24z"/>
<path style="fill:#F0C727;" d="M26,14.36l-0.27,6.34l-0.45,0.41l0.28-6.52C25.69,14.5,25.91,14.36,26,14.36"/>
<path style="fill:#F0C727;" d="M26.55,14.81l-0.23,5.31l-0.45,0.46l0.28-6.13C26.23,14.55,26.5,14.77,26.55,14.81"/>
<path style="fill:#F0C727;" d="M27.04,15.22l-0.18,4.43L26.5,20l0.23-5.05C26.81,15.04,26.99,15.17,27.04,15.22"/>
<path style="fill:#F0C727;" d="M27.58,15.45l-0.18,3.77l-0.36,0.29l0.18-4.2C27.31,15.35,27.49,15.45,27.58,15.45"/>
<path style="fill:#F0C727;" d="M28.07,15.45l-0.13,3.15l-0.36,0.35l0.14-3.46C27.8,15.49,28.03,15.49,28.07,15.45"/>
<path style="fill:#F0C727;" d="M32.39,14.36l0.27,6.34l0.45,0.41l-0.28-6.52C32.7,14.5,32.48,14.36,32.39,14.36"/>
<path style="fill:#F0C727;" d="M31.84,14.81l0.23,5.31l0.45,0.4l-0.28-6.06C32.16,14.55,31.89,14.77,31.84,14.81"/>
<path style="fill:#F0C727;" d="M31.35,15.22l0.19,4.43l0.36,0.29l-0.23-4.98C31.58,15.04,31.4,15.17,31.35,15.22"/>
<path style="fill:#F0C727;" d="M30.82,15.45l0.18,3.71l0.36,0.29l-0.18-4.13C31.08,15.35,30.91,15.45,30.82,15.45"/>
<path style="fill:#F0C727;" d="M30.32,15.45l0.13,3.15l0.36,0.35l-0.14-3.46C30.59,15.49,30.36,15.49,30.32,15.45"/>
<polygon style="fill:#FFFFFF;" points="27.98,17.15 26.9,20.97 28.39,21.2 29.02,18.32 "/>
<path style="fill:#F0C727;" d="M28.39,21.25C28.38,21.25,28.38,21.25,28.39,21.25l-1.49-0.23c-0.02,0-0.03-0.01-0.04-0.03
	c-0.01-0.01-0.01-0.03-0.01-0.05l1.08-3.82c0.01-0.02,0.02-0.04,0.04-0.04c0.02,0,0.04,0,0.05,0.02l1.04,1.18l-0.62,2.92
	C28.43,21.24,28.41,21.25,28.39,21.25 M26.97,20.92l1.37,0.21l0.62-2.82l-0.96-1.05L26.97,20.92z"/>
<polygon style="fill:#FFFFFF;" points="30.41,17.15 31.49,20.97 30.01,21.2 29.37,18.32 "/>
<path style="fill:#F0C727;" d="M30.01,21.25c-0.03,0-0.05-0.02-0.05-0.05l-0.63-2.88l1.05-1.22c0.01-0.01,0.04-0.02,0.05-0.02
	c0.02,0.01,0.04,0.02,0.04,0.04l1.08,3.82c0,0.02,0,0.03-0.01,0.04c-0.01,0.01-0.02,0.02-0.04,0.03L30.01,21.25
	C30.01,21.25,30.01,21.25,30.01,21.25 M30.38,17.26l-0.97,1.1l0.63,2.78l1.37-0.21L30.38,17.26z"/>
<path style="fill:#F0C727;" d="M27.75,18.83h-0.01c-0.02,0-0.04-0.02-0.04-0.04l-0.13-0.31c-0.01-0.03,0-0.06,0.03-0.08
	c0.03-0.02,0.07,0,0.08,0.03l0.09,0.23l0.34-0.38c0.02-0.03,0.06-0.03,0.08,0c0.03,0.02,0.03,0.06,0,0.08l-0.41,0.45
	C27.79,18.82,27.77,18.83,27.75,18.83"/>
<path style="fill:#F0C727;" d="M28.26,19.1c-0.01,0-0.01,0-0.02,0c-0.02-0.01-0.04-0.03-0.04-0.05l-0.14-1.26
	c0-0.03,0.02-0.06,0.05-0.06c0.03,0,0.06,0.02,0.07,0.05l0.12,1.1l0.35-0.46c0.02-0.02,0.06-0.03,0.09-0.01
	c0.03,0.02,0.03,0.06,0.01,0.08l-0.45,0.58C28.29,19.09,28.27,19.1,28.26,19.1"/>
<path style="fill:#F0C727;" d="M28.79,19.41c-0.02,0-0.05-0.01-0.06-0.04l-0.27-0.67c-0.01-0.03,0-0.06,0.03-0.08
	c0.03-0.02,0.06,0,0.08,0.03l0.27,0.67c0.01,0.03,0,0.07-0.03,0.08C28.8,19.41,28.8,19.41,28.79,19.41"/>
<path style="fill:#F0C727;" d="M28.39,19.95c-0.01,0-0.01,0-0.02,0c-0.02,0-0.04-0.02-0.04-0.04l-0.18-0.59l-0.15,0.28
	c-0.01,0.02-0.03,0.04-0.05,0.03c-0.03,0-0.04-0.02-0.05-0.04l-0.15-0.37l-0.33,0.3c-0.03,0.02-0.06,0.02-0.08,0
	c-0.02-0.03-0.02-0.06,0-0.09l0.4-0.36c0.02-0.01,0.03-0.02,0.05-0.01c0.02,0,0.03,0.02,0.04,0.03l0.14,0.33l0.16-0.3
	c0.01-0.02,0.04-0.03,0.06-0.03c0.03,0,0.05,0.02,0.05,0.04l0.2,0.63l0.29-0.29c0.02-0.02,0.06-0.02,0.08,0
	c0.02,0.02,0.02,0.06,0,0.09l-0.36,0.36C28.42,19.95,28.4,19.95,28.39,19.95"/>
<path style="fill:#F0C727;" d="M28.52,20.76c-0.03,0-0.05-0.02-0.06-0.05l-0.11-0.55l-0.28,0.35c-0.01,0.02-0.03,0.03-0.06,0.02
	c-0.02,0-0.04-0.02-0.05-0.04l-0.14-0.44l-0.25,0.32c-0.01,0.02-0.04,0.02-0.06,0.02c-0.02,0-0.04-0.02-0.05-0.04l-0.28-0.67
	c-0.01-0.03,0-0.07,0.03-0.08c0.03-0.02,0.07,0,0.08,0.03l0.24,0.58l0.25-0.32c0.01-0.02,0.04-0.02,0.06-0.02
	c0.02,0,0.04,0.02,0.05,0.04l0.14,0.44l0.29-0.37c0.02-0.02,0.04-0.03,0.06-0.02c0.02,0.01,0.04,0.02,0.05,0.05l0.14,0.68
	c0,0.03-0.02,0.06-0.05,0.07C28.53,20.76,28.53,20.76,28.52,20.76"/>
<path style="fill:#F0C727;" d="M28.16,21.26c-0.01,0-0.01,0-0.02,0c-0.02-0.01-0.03-0.02-0.04-0.04l-0.14-0.42l-0.2,0.34
	c-0.01,0.02-0.03,0.04-0.06,0.03c-0.02,0-0.04-0.02-0.05-0.04l-0.19-0.49l-0.2,0.28c-0.02,0.03-0.06,0.03-0.08,0.01
	c-0.03-0.02-0.03-0.06-0.01-0.08l0.27-0.36c0.01-0.02,0.04-0.03,0.06-0.02c0.02,0,0.04,0.02,0.05,0.04l0.18,0.47l0.21-0.35
	c0.01-0.02,0.03-0.03,0.06-0.03c0.02,0,0.04,0.02,0.05,0.04l0.15,0.46l0.21-0.17c0.03-0.02,0.06-0.02,0.08,0.01
	c0.02,0.02,0.02,0.06-0.01,0.08l-0.28,0.23C28.18,21.25,28.17,21.26,28.16,21.26"/>
<path style="fill:#F0C727;" d="M30.64,18.83c-0.02,0-0.03-0.01-0.04-0.02l-0.4-0.45c-0.02-0.02-0.02-0.06,0-0.08
	c0.02-0.02,0.06-0.02,0.09,0l0.34,0.38l0.09-0.23c0.01-0.03,0.05-0.05,0.08-0.03c0.03,0.01,0.05,0.05,0.03,0.08l-0.13,0.31
	c-0.01,0.02-0.03,0.03-0.04,0.04H30.64z"/>
<path style="fill:#F0C727;" d="M30.14,19.1c-0.02,0-0.04-0.01-0.05-0.02l-0.45-0.58c-0.02-0.03-0.02-0.07,0.01-0.08
	c0.03-0.02,0.06-0.02,0.08,0.01l0.36,0.47l0.11-1.11c0-0.03,0.03-0.06,0.07-0.05c0.03,0,0.06,0.03,0.05,0.06l-0.13,1.26
	c0,0.02-0.02,0.05-0.04,0.05C30.15,19.09,30.15,19.1,30.14,19.1"/>
<path style="fill:#F0C727;" d="M29.6,19.41c-0.01,0-0.02,0-0.02,0c-0.03-0.01-0.04-0.05-0.03-0.08l0.27-0.67
	c0.01-0.03,0.05-0.05,0.08-0.03c0.03,0.01,0.05,0.05,0.03,0.08l-0.27,0.67C29.65,19.4,29.62,19.41,29.6,19.41"/>
<path style="fill:#F0C727;" d="M30.01,19.95c-0.02,0-0.03-0.01-0.04-0.02l-0.36-0.36c-0.02-0.02-0.02-0.06,0-0.09
	c0.02-0.02,0.06-0.02,0.09,0l0.28,0.29l0.15-0.62c0.01-0.02,0.02-0.04,0.05-0.05s0.05,0.01,0.06,0.03l0.21,0.31l0.14-0.34
	c0.01-0.02,0.02-0.03,0.04-0.03c0.02-0.01,0.04,0,0.05,0.01l0.41,0.36c0.02,0.02,0.03,0.06,0.01,0.08
	c-0.02,0.03-0.06,0.03-0.08,0.01l-0.34-0.3l-0.15,0.37c-0.01,0.02-0.03,0.04-0.05,0.04c-0.02,0-0.04-0.01-0.05-0.03l-0.19-0.29
	l-0.15,0.59c-0.01,0.02-0.02,0.04-0.04,0.04C30.02,19.95,30.01,19.95,30.01,19.95"/>
<path style="fill:#F0C727;" d="M29.87,20.76c0,0-0.01,0-0.01,0c-0.03-0.01-0.05-0.04-0.05-0.07l0.14-0.68
	c0.01-0.02,0.02-0.04,0.05-0.05c0.02-0.01,0.05,0,0.06,0.02l0.29,0.36l0.14-0.44c0.01-0.02,0.03-0.03,0.05-0.04
	c0.02,0,0.04,0,0.06,0.02l0.25,0.32l0.24-0.58c0.01-0.03,0.05-0.05,0.08-0.03c0.03,0.01,0.04,0.05,0.03,0.08l-0.27,0.67
	c-0.01,0.02-0.03,0.04-0.05,0.04c-0.02,0-0.04-0.01-0.06-0.02l-0.25-0.32l-0.14,0.44c-0.01,0.02-0.03,0.04-0.05,0.04
	c-0.02,0.01-0.04,0-0.06-0.02l-0.27-0.35l-0.11,0.55C29.92,20.74,29.9,20.76,29.87,20.76"/>
<path style="fill:#F0C727;" d="M30.23,21.26c-0.01,0-0.03-0.01-0.04-0.01l-0.27-0.23c-0.03-0.02-0.03-0.06-0.01-0.08
	c0.02-0.03,0.06-0.03,0.08-0.01l0.21,0.17l0.15-0.46c0.01-0.02,0.03-0.04,0.05-0.04c0.02,0,0.05,0.01,0.06,0.03l0.21,0.35l0.18-0.47
	c0.01-0.02,0.03-0.04,0.05-0.04c0.02,0,0.04,0,0.06,0.02l0.27,0.36c0.02,0.03,0.01,0.06-0.01,0.08c-0.03,0.02-0.07,0.01-0.08-0.01
	l-0.2-0.28l-0.19,0.49c-0.01,0.02-0.03,0.04-0.05,0.04c-0.02,0.01-0.05-0.01-0.06-0.03l-0.2-0.34l-0.14,0.42
	c-0.01,0.02-0.02,0.03-0.04,0.04C30.24,21.26,30.24,21.26,30.23,21.26"/>
<path style="fill:#FFFFFF;" d="M29.2,14.95c0.45,0.36,1.04,0.54,1.71,0.49c-0.05,1.57-0.49,2.65-1.71,3.46
	c-1.22-0.81-1.66-1.89-1.71-3.46C28.16,15.49,28.75,15.31,29.2,14.95"/>
<path style="fill:#F0C727;" d="M29.2,18.95c-0.01,0-0.02,0-0.02-0.01c-1.16-0.77-1.67-1.82-1.73-3.49c0.11-0.04,0.17-0.04,0.23-0.04
	c0.58,0,1.1-0.17,1.5-0.49c0.51,0.35,1.08,0.53,1.73,0.49c-0.01,1.72-0.52,2.76-1.68,3.54C29.21,18.95,29.2,18.95,29.2,18.95
	 M27.48,15.49c0.1,1.59,0.6,2.61,1.71,3.37c1.12-0.76,1.62-1.78,1.67-3.41c-0.02,0.05-0.08,0.05-0.14,0.05
	c-0.59,0-1.13-0.18-1.55-0.51c-0.36,0.33-0.9,0.51-1.5,0.51C27.61,15.49,27.55,15.49,27.48,15.49"/>
<path style="fill:#F0C727;" d="M29.2,18.73c0.95-0.63,1.48-1.71,1.53-3.15c-0.58,0-1.17-0.13-1.53-0.45
	c-0.41,0.32-0.94,0.45-1.57,0.45C27.71,17.02,28.26,18.1,29.2,18.73"/>
<path style="fill:#F0C727;" d="M29.2,18.78c-0.01,0-0.02,0-0.03-0.01c-0.96-0.64-1.51-1.75-1.6-3.2c0-0.02,0.01-0.03,0.02-0.04
	c0.01-0.01,0.03-0.02,0.04-0.02c0.66,0,1.16-0.14,1.54-0.43c0.02-0.02,0.05-0.02,0.07,0c0.31,0.28,0.85,0.43,1.49,0.43
	c0.02,0,0.03,0.01,0.04,0.02c0.01,0.01,0.02,0.03,0.02,0.04c-0.05,1.44-0.59,2.55-1.56,3.2C29.22,18.78,29.21,18.78,29.2,18.78
	 M27.68,15.63c0.1,1.37,0.62,2.41,1.51,3.03c0.91-0.62,1.41-1.67,1.47-3.03c-0.39-0.01-1.04-0.07-1.47-0.43
	C28.81,15.48,28.32,15.62,27.68,15.63"/>
<path style="fill:#FFFFFF;" d="M27.66,20.97c0.36,0.05,0.77,0.09,1.09,0.05c0.18,0,0.31,0.31-0.05,0.35c-0.32,0.04-0.81,0-1.08-0.05
	c-0.23-0.04-0.72-0.13-1.04-0.22c-0.32-0.14-0.09-0.41,0.09-0.37C26.95,20.83,27.31,20.92,27.66,20.97"/>
<path style="fill:#F0C727;" d="M28.39,21.45c-0.29,0-0.6-0.03-0.78-0.06c-0.22-0.04-0.72-0.13-1.04-0.22
	c-0.21-0.09-0.21-0.23-0.2-0.28c0.02-0.11,0.14-0.21,0.26-0.21c0.24,0.07,0.61,0.17,1.03,0.23c0.28,0.04,0.74,0.09,1.07,0.05h0
	c0.13,0,0.23,0.1,0.24,0.22c0.01,0.1-0.06,0.22-0.28,0.25C28.62,21.45,28.51,21.45,28.39,21.45 M26.65,20.8
	c-0.08,0-0.15,0.05-0.16,0.11c-0.02,0.07,0.07,0.12,0.12,0.14c0.31,0.09,0.81,0.18,1.02,0.22c0.24,0.04,0.74,0.09,1.06,0.05
	c0.11-0.02,0.18-0.06,0.17-0.13c0-0.05-0.05-0.11-0.12-0.11c-0.32,0.04-0.8-0.01-1.09-0.05C27.22,20.97,26.84,20.86,26.65,20.8
	L26.65,20.8z"/>
<path style="fill:#FFFFFF;" d="M30.73,20.97c-0.37,0.05-0.77,0.09-1.08,0.05c-0.19,0-0.32,0.31,0.04,0.35
	c0.32,0.04,0.81,0,1.08-0.05c0.23-0.04,0.72-0.13,1.04-0.22c0.32-0.14,0.09-0.41-0.09-0.37C31.44,20.83,31.08,20.92,30.73,20.97"/>
<path style="fill:#F0C727;" d="M30,21.45c-0.11,0-0.22,0-0.31-0.02c-0.22-0.03-0.28-0.15-0.28-0.25c0.01-0.12,0.12-0.23,0.24-0.23
	c0.35,0.05,0.79-0.01,1.07-0.05c0.43-0.06,0.79-0.16,0.98-0.22c0.17-0.02,0.3,0.08,0.32,0.2c0.01,0.05,0.02,0.19-0.19,0.28
	c-0.33,0.09-0.84,0.19-1.05,0.22C30.6,21.42,30.29,21.45,30,21.45 M29.64,21.08c-0.06,0-0.11,0.06-0.12,0.11
	c0,0.06,0.06,0.11,0.17,0.12c0.32,0.04,0.82,0,1.06-0.05c0.21-0.04,0.71-0.13,1.03-0.22c0.04-0.02,0.13-0.07,0.11-0.14
	c-0.01-0.06-0.08-0.11-0.15-0.11c-0.21,0.06-0.58,0.17-1.02,0.23C30.42,21.07,29.97,21.12,29.64,21.08"/>
<path style="fill:#FFFFFF;" d="M26.55,20.79c-0.28-0.05-0.41,0.27-0.32,0.45c0.04-0.09,0.23-0.09,0.27-0.18
	C26.55,20.92,26.46,20.92,26.55,20.79"/>
<path style="fill:#F0C727;" d="M26.23,21.3c-0.02,0-0.04-0.01-0.05-0.03c-0.05-0.11-0.04-0.26,0.03-0.37
	c0.06-0.1,0.17-0.16,0.29-0.16c0.02,0,0.07,0.02,0.08,0.04c0.01,0.02,0.04,0.04,0.03,0.06c-0.04,0.05-0.03,0.07-0.03,0.1
	c0.01,0.03,0.01,0.08-0.01,0.16c-0.03,0.07-0.1,0.1-0.17,0.13c-0.04,0.02-0.09,0.04-0.1,0.06C26.28,21.29,26.26,21.3,26.23,21.3
	 M26.45,20.86c-0.09,0.02-0.12,0.07-0.14,0.1c-0.03,0.05-0.05,0.11-0.04,0.17c0.03-0.01,0.05-0.02,0.08-0.03
	c0.04-0.02,0.09-0.04,0.1-0.06c0.02-0.04,0.01-0.07,0.01-0.09C26.44,20.92,26.44,20.89,26.45,20.86"/>
<path style="fill:#FFFFFF;" d="M27.62,21.62c0-0.18,0.18-0.16,0.18-0.33c0-0.09-0.05-0.23-0.14-0.23c-0.09,0-0.18,0.09-0.18,0.18
	C27.44,21.42,27.62,21.44,27.62,21.62"/>
<path style="fill:#F0C727;" d="M27.62,21.68c-0.03,0-0.06-0.03-0.06-0.06c0-0.06-0.03-0.1-0.06-0.15c-0.05-0.06-0.1-0.13-0.07-0.25
	c0-0.11,0.11-0.22,0.24-0.22c0.13,0,0.2,0.17,0.2,0.29c0,0.11-0.06,0.17-0.11,0.21c-0.04,0.04-0.07,0.06-0.07,0.12
	C27.68,21.65,27.66,21.68,27.62,21.68 M27.66,21.12c-0.06,0-0.12,0.06-0.12,0.12c-0.02,0.08,0.01,0.11,0.05,0.16
	c0.01,0.02,0.02,0.03,0.03,0.05c0.01-0.02,0.03-0.03,0.04-0.04c0.04-0.04,0.07-0.06,0.07-0.12C27.74,21.21,27.7,21.12,27.66,21.12"
	/>
<path style="fill:#FFFFFF;" d="M28.91,21.11c0.27,0,0.24,0.36,0.11,0.53c0-0.13-0.23-0.18-0.23-0.27
	C28.79,21.24,28.99,21.24,28.91,21.11"/>
<path style="fill:#F0C727;" d="M29.02,21.7c-0.01,0-0.01,0-0.02,0c-0.03-0.01-0.04-0.03-0.04-0.06c0-0.04-0.05-0.07-0.1-0.11
	c-0.06-0.04-0.12-0.09-0.12-0.16c0-0.09,0.06-0.14,0.1-0.17c-0.01-0.02,0-0.07,0.01-0.09c0.01-0.02,0.04-0.06,0.07-0.06
	c0.1,0,0.19,0.05,0.23,0.14c0.08,0.15,0.02,0.37-0.07,0.5C29.05,21.69,29.04,21.7,29.02,21.7 M28.99,21.19
	c-0.01,0.05-0.05,0.09-0.08,0.11c-0.04,0.03-0.06,0.05-0.06,0.08c0.01,0.01,0.05,0.04,0.07,0.06c0.03,0.02,0.07,0.05,0.1,0.08
	c0.04-0.1,0.04-0.21,0.01-0.28C29.02,21.21,29.01,21.2,28.99,21.19"/>
<path style="fill:#FFFFFF;" d="M31.84,20.79c0.27-0.05,0.4,0.27,0.31,0.45c-0.04-0.09-0.23-0.09-0.27-0.18
	C31.84,20.92,31.93,20.92,31.84,20.79"/>
<path style="fill:#F0C727;" d="M32.16,21.3c-0.03-0.01-0.04-0.01-0.05-0.03c-0.01-0.02-0.06-0.04-0.1-0.06
	c-0.06-0.03-0.14-0.05-0.17-0.12c-0.03-0.08-0.02-0.13-0.01-0.16c0-0.03,0.01-0.04-0.03-0.1c-0.01-0.02-0.01-0.04-0.01-0.06
	c0.01-0.02,0.02-0.03,0.04-0.04c0.19-0.01,0.29,0.06,0.35,0.16c0.07,0.11,0.08,0.26,0.03,0.37C32.2,21.29,32.18,21.3,32.16,21.3
	 M31.94,20.85c0.01,0.04,0.01,0.06,0,0.09c-0.01,0.03-0.01,0.05,0.01,0.09c0.01,0.02,0.05,0.04,0.1,0.06
	c0.03,0.01,0.05,0.02,0.08,0.03c0-0.06-0.01-0.12-0.04-0.17C32.06,20.92,32.02,20.87,31.94,20.85"/>
<path style="fill:#FFFFFF;" d="M30.77,21.62c0-0.18-0.18-0.16-0.18-0.33c0-0.09,0.05-0.23,0.14-0.23c0.09,0,0.18,0.09,0.18,0.18
	C30.95,21.42,30.77,21.44,30.77,21.62"/>
<path style="fill:#F0C727;" d="M30.77,21.68c-0.03,0-0.06-0.03-0.06-0.06c0-0.06-0.03-0.09-0.07-0.12c-0.05-0.04-0.11-0.1-0.11-0.21
	c0-0.12,0.06-0.29,0.2-0.29c0.12,0,0.24,0.11,0.24,0.24c0.03,0.11-0.03,0.18-0.08,0.24c-0.04,0.05-0.06,0.08-0.06,0.15
	C30.83,21.65,30.8,21.68,30.77,21.68 M30.73,21.12c-0.04,0-0.08,0.09-0.08,0.17c0,0.06,0.03,0.09,0.07,0.12
	c0.01,0.01,0.03,0.03,0.04,0.04c0.01-0.02,0.02-0.03,0.03-0.05c0.04-0.05,0.07-0.08,0.05-0.15C30.84,21.18,30.78,21.12,30.73,21.12"
	/>
<path style="fill:#FFFFFF;" d="M29.48,21.11c-0.27,0-0.24,0.36-0.11,0.53c0-0.13,0.23-0.18,0.23-0.27
	C29.6,21.24,29.4,21.24,29.48,21.11"/>
<path style="fill:#F0C727;" d="M29.37,21.7c-0.02,0-0.04-0.01-0.05-0.03c-0.09-0.13-0.15-0.35-0.07-0.5
	c0.04-0.09,0.13-0.14,0.23-0.14c0.02,0,0.04,0.01,0.05,0.03c0.01,0.02,0.01,0.04,0,0.06c0.07,0.09,0.13,0.14,0.13,0.23
	c0,0.07-0.06,0.12-0.12,0.16c-0.05,0.04-0.1,0.07-0.1,0.11c0,0.03-0.02,0.05-0.04,0.06C29.39,21.7,29.38,21.7,29.37,21.7
	 M29.4,21.19c-0.02,0.01-0.03,0.03-0.04,0.05c-0.03,0.07-0.03,0.18,0.01,0.28c0.03-0.03,0.07-0.06,0.1-0.08
	c0.03-0.02,0.07-0.05,0.07-0.06c0-0.03-0.02-0.05-0.06-0.08C29.46,21.27,29.41,21.24,29.4,21.19"/>
<path style="fill:#FFFFFF;" d="M26.64,20.88c0.09,0,0.23,0.04,0.27,0.09L26.64,20.88z"/>
<path style="fill:#F0C727;" d="M26.9,21.01c0,0-0.01,0-0.01,0l-0.27-0.09c-0.02-0.01-0.03-0.03-0.03-0.05
	c0-0.02,0.02-0.04,0.04-0.04c0.09,0,0.25,0.04,0.3,0.1c0.01,0.01,0.01,0.04,0,0.05C26.93,21.01,26.92,21.01,26.9,21.01"/>
<path style="fill:#FFFFFF;" d="M27.08,21.02c0.05,0,0.23,0.04,0.31,0.09L27.08,21.02z"/>
<path style="fill:#F0C727;" d="M27.4,21.15c0,0-0.01,0-0.01,0l-0.32-0.09c-0.02-0.01-0.03-0.03-0.03-0.05
	c0.01-0.08,0.25-0.01,0.38,0.06c0.02,0.01,0.03,0.03,0.02,0.05C27.43,21.14,27.41,21.15,27.4,21.15"/>
<path style="fill:#FFFFFF;" d="M28.7,21.2c-0.09,0-0.27,0-0.32,0.04L28.7,21.2z"/>
<path style="fill:#F0C727;" d="M28.39,21.28c-0.02,0-0.03-0.01-0.04-0.02c-0.01-0.02,0-0.04,0.01-0.05
	c0.05-0.04,0.17-0.05,0.34-0.05c0.02,0,0.04,0.02,0.04,0.04c0,0.02-0.01,0.04-0.04,0.05L28.39,21.28L28.39,21.28z"/>
<path style="fill:#FFFFFF;" d="M28.21,21.2c-0.05-0.05-0.23-0.05-0.32,0H28.21z"/>
<path style="fill:#F0C727;" d="M28.21,21.24h-0.32c-0.02,0-0.04-0.01-0.04-0.03c-0.01-0.02,0-0.04,0.02-0.05
	c0.08-0.04,0.26-0.1,0.37,0.01c0.01,0.01,0.02,0.03,0.01,0.04C28.24,21.23,28.22,21.24,28.21,21.24"/>
<path style="fill:#FFFFFF;" d="M31.76,20.88c-0.09,0-0.22,0.04-0.27,0.09L31.76,20.88z"/>
<path style="fill:#F0C727;" d="M31.49,21.01c-0.02,0-0.03-0.01-0.04-0.02c-0.01-0.02-0.01-0.04,0.01-0.05c0.06-0.06,0.2-0.1,0.3-0.1
	c0.02,0,0.04,0.02,0.04,0.04c0,0.02-0.01,0.04-0.03,0.05l-0.27,0.09C31.5,21.01,31.49,21.01,31.49,21.01"/>
<path style="fill:#FFFFFF;" d="M31.31,21.02c-0.05,0-0.23,0.04-0.32,0.09L31.31,21.02z"/>
<path style="fill:#F0C727;" d="M30.99,21.15c-0.02,0-0.03-0.01-0.04-0.03c-0.01-0.02,0-0.04,0.02-0.05
	c0.14-0.07,0.37-0.13,0.38-0.06c0,0.02-0.01,0.04-0.03,0.05l-0.32,0.09C31,21.15,31,21.15,30.99,21.15"/>
<path style="fill:#FFFFFF;" d="M29.69,21.2c0.09,0,0.27,0,0.32,0.04L29.69,21.2z"/>
<path style="fill:#F0C727;" d="M30.01,21.28L30.01,21.28l-0.32-0.04c-0.02,0-0.04-0.02-0.04-0.05c0-0.02,0.02-0.04,0.04-0.04
	c0.17,0,0.29,0.01,0.34,0.05c0.02,0.01,0.02,0.03,0.01,0.05C30.04,21.27,30.02,21.28,30.01,21.28"/>
<path style="fill:#FFFFFF;" d="M30.18,21.2c0.05-0.05,0.23-0.05,0.32,0H30.18z"/>
<path style="fill:#F0C727;" d="M30.5,21.24h-0.32c-0.02,0-0.03-0.01-0.04-0.03c-0.01-0.02,0-0.03,0.01-0.05
	c0.11-0.11,0.29-0.05,0.37-0.01c0.02,0.01,0.03,0.03,0.02,0.05C30.54,21.23,30.52,21.24,30.5,21.24"/>
<path style="fill:#F0C727;" d="M29.83,12.34c-0.09-0.23-0.25-0.41-0.47-0.45c-0.11-0.03-0.23-0.03-0.36-0.03
	c-0.14-0.04-0.25,0.11-0.3,0.2c0.14,0.1,0.17,0.19,0.24,0.23c0.14,0.05,0.21,0,0.34-0.13C29.42,12.03,29.74,12.07,29.83,12.34"/>
<path style="fill:#F0C727;" d="M29.04,12.34c-0.03,0-0.07-0.01-0.1-0.02c-0.04-0.02-0.07-0.05-0.1-0.09
	c-0.03-0.04-0.08-0.09-0.15-0.14c0.02-0.09,0.12-0.25,0.27-0.25l0.12,0.01c0.14-0.01,0.22,0,0.3,0.03c0.18,0.03,0.35,0.17,0.45,0.38
	c-0.18-0.12-0.4-0.18-0.51-0.07C29.2,12.28,29.13,12.34,29.04,12.34 M28.99,11.9c-0.13,0-0.21,0.09-0.26,0.18
	c0.07,0.02,0.11,0.07,0.15,0.11c0.03,0.03,0.05,0.06,0.08,0.07c0.12,0.04,0.17,0.01,0.31-0.13c0.1-0.1,0.3-0.11,0.43-0.02
	c-0.11-0.1-0.22-0.18-0.34-0.2c-0.07-0.02-0.15-0.02-0.22-0.02H29H28.99z"/>
<path style="fill:#FFFFFF;" d="M28.97,12c-0.09,0-0.09,0.14,0,0.14C29.06,12.13,29.06,12,28.97,12"/>
<path style="fill:#FFFFFF;" d="M28.97,12.19c-0.07,0-0.13-0.06-0.13-0.13c0-0.15,0.25-0.15,0.25,0
	C29.09,12.14,29.04,12.19,28.97,12.19"/>
<path style="fill:#FFFFFF;" d="M29.75,15.43v2.83c-0.16,0.18-0.35,0.33-0.55,0.47c-0.2-0.14-0.39-0.29-0.55-0.47v-2.84
	c0.2-0.07,0.39-0.17,0.55-0.29C29.35,15.26,29.53,15.36,29.75,15.43"/>
</svg>
