<svg version="1.1" xmlns="http://www.w3.org/2000/svg" xmlns:xlink="http://www.w3.org/1999/xlink" x="0px" y="0px"
	 viewBox="0 0 58.93 34.37" style="enable-background:new 0 0 58.93 34.37;" xml:space="preserve">
<rect width="58.93" height="11.46"/>
<rect y="22.92" style="fill:#348110;" width="58.93" height="11.46"/>
<rect y="11.46" style="fill:#FFFFFF;" width="58.93" height="11.46"/>
<polygon style="fill:#BA0019;" points="0,0 0,0.18 0,34.37 22.92,17.23 "/>
<path style="fill:#BA0019;" d="M34.37,12.62c2.52,0,4.57,2.05,4.57,4.57c0,2.53-2.05,4.57-4.57,4.57c-2.52,0-4.57-2.04-4.57-4.57
	C29.8,14.66,31.85,12.62,34.37,12.62"/>
<path style="fill:#FFFFFF;" d="M36.12,12.62c2.52,0,4.57,2.05,4.57,4.57c0,2.53-2.05,4.57-4.57,4.57c-2.52,0-4.57-2.04-4.57-4.57
	C31.55,14.66,33.59,12.62,36.12,12.62"/>
<polygon style="fill:#BA0019;" points="33.14,19.96 35.1,18.57 37.04,19.98 36.31,17.69 38.26,16.29 35.86,16.27 35.12,13.98 
	34.36,16.26 31.96,16.25 33.89,17.68 "/>
</svg>
