<svg version="1.1" xmlns="http://www.w3.org/2000/svg" xmlns:xlink="http://www.w3.org/1999/xlink" x="0px" y="0px"
	 viewBox="0 0 58.93 34.37" style="enable-background:new 0 0 58.93 34.37;" xml:space="preserve">
<rect x="0" style="fill:#D6003F;" width="58.93" height="34.37"/>
<path style="fill:#F4C638;" d="M13.4,25.38c-0.74,0.21-1.17,0.78-1.16,1.33l3.66-0.01c0.03-0.58-0.45-1.13-1.18-1.34
	c3.58-0.08,6.69-1.42,7.26-2.28c-0.56-0.24-1.21,0.15-1.67,0.06c1.09-0.5,4.38-2.63,3.84-4.9c-0.41,1.27-1.67,2.31-2.21,2.59
	c1.23-1.86,2.9-3.8,1.45-5.3c0.07,0.87-0.55,1.83-0.83,1.9c0.71-1.97,1.39-4.43-0.15-6.06c0.2,0.59,0.12,2.25-0.16,2.32
	c-0.09-1.34-0.31-4.15-1.72-4.11c0.45,0.4,0.64,1.48,0.65,2.58c-0.32-0.75-0.68-1.32-1.47-1.87c-0.63-1.21-1.75-2.21-2.88-2.93
	c0.13,0.88,0.23,1.57,1.46,2.49c-0.64-0.04-1.28-1.26-1.97-1.29c-0.54-0.03-0.97,0.49-1.86,0.2c0.1,0.29,0.51,0.42,0.6,0.64
	c-0.19,0.13-0.64-0.02-1.02-0.22c0.52,0.7,1.32,1.12,2,0.98c0.81-0.16,1.68-0.07,2.51,0.4c-0.21,0.11-1.04,0.11-1.56,0.04
	c0.48,0.49,0.8,0.81,1.64,0.8c0.75-0.01,1.14-0.4,1.33-0.16c0.47,0.56,0.78,1.11,1.18,1.76c-0.86,0.1-0.6-0.98-1.57-1.53
	c-0.54,1.12,0.62,2.45,1.41,3c0.01,0.84,0.13,1.55,0.49,2.19c0.24,0.45,0.55,0.91,0.43,1.93c-0.47-0.34-0.94-1.51-0.77-2.43
	c-0.59,0.16-0.83,1.21-0.55,1.73c0.21,0.4,0.35,1.17,0.11,1.51c-0.24,0.32-0.26,0.28-0.26,0.97c0.01,0.41-0.22,0.9-0.59,1.23
	c0.08-0.29,0.17-0.78,0.08-1.1c-0.29,0.5-1.03,1.02-1.27,1.55c-0.23,0.54-0.29,1.47-1.39,1.69c-1.42,0.28-1.91,0.53-2.83,0.9
	c-0.1-0.69,0.2-2.15,0.78-2.06c0.57,0.1,2.29-0.59,1.67-2.04c-0.12,0.46-0.53,0.9-0.97,0.92c0.47-0.62,1.32-1.25,0.91-2.28
	c-0.23,0.44-0.59,0.96-1.13,1.26c0.59-1.12,0.07-1.46-0.63-0.53c-0.26,0.36-0.42,1.07-0.59,1.97c-0.27-0.74-0.25-1.71-0.58-2.5
	c-0.34-0.85,0.45-1.08,0.82-1.01c0.91,0.24,2.42,0.24,2.31-1.26c-0.39,0.51-1.08,0.66-1.82,0.48c0.83-0.61,1.49-1.75,0.56-2.35
	c-0.03,0.63-0.52,1.34-1.17,1.67c-0.15-0.53-0.15-1.1-0.02-1.72c-0.36,0.39-0.63,1.18-0.84,2.09c-0.01-0.9,0.15-1.55,0.28-2.03
	c0.19-0.71,0.67-0.25,1.39-0.2c0.7,0.04,1.66-0.35,1.48-1.3c-0.24,0.38-0.73,0.52-1.23,0.48c0.6-0.36,1.66-1.02,1.08-2.01
	c-0.24,0.38-0.32,0.7-1.02,0.82c0.18-0.42,0.21-1.02,0.76-1.26c-0.97-0.19-1.53,0.45-1.81,1.44c-0.12-0.69-0.25-0.94-0.28-1.45
	c0.52-0.58,0.58-1.72-0.56-1.98c-0.07,0.59-0.05,0.73,0.08,1.21c-0.53-0.32-1.28-0.49-1.79-0.04c0.34,0.36,0.86,0.69,1.67,0.29
	c-0.19,0.63-0.69,0.52-1.37,0.28c0.42,0.78,0.94,0.92,1.53,0.83c0.3,0.8,0.32,1.41-0.57,2.58c0.04-0.73-0.01-1.27-0.59-1.85
	c-0.49-0.48-0.9,0.02-0.12,1.1c-0.47-0.35-1-1.05-1.16-1.75c-0.15,0.86-0.01,1.89,0.46,2.46c-0.23,0.24-0.48-0.03-0.87-0.62
	c0.15,1.89,0.95,2.26,2.04,1.84c0.03,1.04,0.03,2.01,0.09,3.26c-0.63-0.91-1.44-1.59-1.88-1.76c-0.14,0.51,0.39,1.17,0.68,1.55
	c-0.45-0.09-1.42-0.84-1.42-0.84c-0.1,0.85,0.99,1.63,1.7,1.98c-0.83-0.04-1.2-0.35-1.73-0.86c0.01,2.34,2.54,1.94,3.01,1.58
	c0.06,1.15,0.15,2.49,0.21,3.64c-0.72-0.13-0.66-0.34-1.27-0.4c-1.7-0.07-3.04-2.04-3.49-3.49c-0.13,0.24-0.03,0.49-0.14,0.78
	c-0.28-0.71-0.63-1.63-1.1-2.06c0.12,0.42,0.13,0.84,0.09,1.61c-0.16-0.5-0.31-0.66-0.32-1.25c0.01-0.45,0.44-0.79,0.41-1.43
	c-0.02-0.46-0.44-1.47-0.5-2.25C7.3,17,7.17,17.85,6.85,18.35c0.16-0.86,0.11-1.45,0.37-2.03c0.31-0.61,0.57-1.15,0.36-1.76
	c-0.2,0.24-0.13,0.45-0.62,1.03c-0.11-0.63,0.63-1.63,1.35-2.03c0.51-0.27,1.15-1.22,0.73-1.88c-0.48,0.34-0.69,0.8-1.36,1.6
	c0.48-1.88,1.73-2.37,3.22-2.38c0.33,0,1-0.12,1.18-0.56c-0.42,0.16-0.92,0.18-1.36,0.09c0.32-0.47,1-0.41,1.63-0.41
	c0.5,0,1.27-0.07,1.58-0.78c-0.61,0.26-1.55,0.32-2.15,0.13c0.95-0.49,2.43-0.54,3.19-1.19c-0.87-0.65-3.03,0.15-4.4,1.09
	c0.38-0.35,0.99-0.97,1.32-1.47c-0.75-0.36-2.64,1.74-3.29,2.98c-0.62,0.35-0.87,0.9-1.11,1.28c0.33-1.11,0.36-1.92,0.64-2.84
	c-2.12,0.73-1.24,4.65-1.7,5.59c0.05-1.04,0.01-2.37-0.42-3.05c-0.65,0.5-0.71,3.43-0.09,5.88c-0.22-0.65-0.64-1.26-0.77-2.06
	c-0.97,1.76,0.57,3.85,1.85,5.49c-0.97-0.5-1.92-1.59-2.55-2.49c0.17,3.16,3.47,3.81,3.98,4.59c-0.69-0.32-2.02-0.97-2.59-0.3
	c0.92,0.21,1.65,0.46,2.24,0.85C8.96,24.79,10.58,25.26,13.4,25.38"/>
<polygon style="fill:#5784D9;" points="0,34.37 58.92,34.35 58.92,17.19 "/>
<polygon style="fill:#49AE32;" points="0,0 58.92,0.02 58.92,17.19 "/>
</svg>
