<svg version="1.1" xmlns="http://www.w3.org/2000/svg" xmlns:xlink="http://www.w3.org/1999/xlink" x="0px" y="0px"
	 viewBox="0 0 58.92 34.37" style="enable-background:new 0 0 58.92 34.37;" xml:space="preserve">
<rect style="fill:#D03633;" width="58.92" height="34.37"/>
<rect y="0" style="fill:#F2DD30;" width="58.92" height="22.92"/>
<rect y="0" style="fill:#2D6C41;" width="58.92" height="11.46"/>
<path style="fill:#4BA2D7;" d="M38.06,17.19c0,4.75-3.85,8.59-8.59,8.59c-4.75,0-8.59-3.85-8.59-8.59c0-4.75,3.85-8.59,8.59-8.59
	C34.21,8.59,38.06,12.44,38.06,17.19"/>
<path style="fill:#F2DD30;" d="M22.92,15.04h4.99l1.13-3.48l0.3,0.93l-1.64,5.05l-0.49-0.36l0.51-1.57h-4.02L22.92,15.04z
	 M25.42,22.72l1.54-4.75l-2.96-2.15h0.98l4.29,3.12l-0.49,0.36l-1.34-0.98l-1.24,3.82L25.42,22.72z M33.5,22.72l-4.04-2.94
	l-2.96,2.15l0.3-0.93l4.3-3.12l0.18,0.57l-1.34,0.97l3.25,2.36L33.5,22.72z M36,15.04l-4.04,2.93l1.13,3.48l-0.79-0.57l-1.64-5.05
	h0.6l0.51,1.58l3.25-2.36H36z M29.46,10.29L31,15.04h3.65l-0.79,0.57h-5.31l0.19-0.57h1.66l-1.24-3.82L29.46,10.29z"/>
<path d="M29.46,20.34v3.72V20.34z M26.47,18.16l-3.54,1.15L26.47,18.16z M27.61,14.64l-2.19-3.01L27.61,14.64z M31.31,14.64
	l2.19-3.01L31.31,14.64z M32.46,18.16L36,19.31L32.46,18.16z"/>
<path style="fill:#F2DD30;" d="M29.6,24.06h-0.29v-3.72h0.29V24.06z M35.95,19.45l-3.54-1.15l0.09-0.27l3.54,1.15L35.95,19.45z
	 M22.97,19.45l-0.09-0.27l3.54-1.15l0.09,0.27L22.97,19.45z M31.43,14.72l-0.23-0.17l2.19-3.01l0.23,0.17L31.43,14.72z M27.49,14.72
	l-2.19-3.01l0.23-0.17l2.19,3.01L27.49,14.72z"/>
</svg>
