<svg version="1.1" xmlns="http://www.w3.org/2000/svg" xmlns:xlink="http://www.w3.org/1999/xlink" x="0px" y="0px"
	 viewBox="0 0 58.92 34.37" style="enable-background:new 0 0 58.92 34.37;" xml:space="preserve">
<rect x="0" style="fill:#6CB2DD;" width="58.92" height="34.37"/>
<path style="fill:#FFFFFF;" d="M38.77,10.93v7.32c0.15,4.51,2.41,6.13,5.58,7.45c3.62-1.6,5.46-3.57,5.46-7.45v-7.32H38.77z"/>
<path d="M44.34,25.76l-0.02-0.01c-3.36-1.41-5.47-3.16-5.61-7.51v-7.38h11.16v7.38c0,3.65-1.54,5.76-5.5,7.51L44.34,25.76z
	 M38.83,10.99v7.26c0.14,4.3,2.13,5.96,5.52,7.39c3.89-1.72,5.41-3.8,5.41-7.39v-7.26H38.83z"/>
<path style="fill:#C0003B;" d="M38.77,18.12c0,0,0.01,0.94,0.26,2.13l10.55-0.01c0.24-1.05,0.26-2.12,0.26-2.12H38.77z"/>
<path style="fill:#C0003B;" d="M43.22,14.45l0,10.7c0.52,0.26,1.19,0.56,1.19,0.56s0.44-0.29,0.93-0.53l0-10.72H43.22z"/>
<rect x="0" y="0" style="fill:#192967;" width="29.53" height="14.76"/>
<polygon style="fill:#FFFFFF;" points="0,0 0,1.65 26.22,14.76 29.52,14.76 29.52,13.11 3.3,0 "/>
<polygon style="fill:#FFFFFF;" points="29.52,0 29.52,1.65 3.3,14.76 0,14.76 0,13.11 26.22,0 "/>
<rect x="12.3" y="0" style="fill:#FFFFFF;" width="4.92" height="14.76"/>
<rect x="0" y="4.92" style="fill:#FFFFFF;" width="29.53" height="4.92"/>
<rect x="0" y="5.9" style="fill:#BC0030;" width="29.53" height="2.95"/>
<rect x="13.29" y="0" style="fill:#BC0030;" width="2.95" height="14.76"/>
<polygon style="fill:#C0003B;" points="0,14.76 9.84,9.84 12.04,9.84 2.2,14.76 "/>
<polygon style="fill:#C0003B;" points="0,0 9.84,4.92 7.64,4.92 0,1.1 "/>
<polygon style="fill:#C0003B;" points="17.48,4.92 27.32,0 29.52,0 19.68,4.92 "/>
<polygon style="fill:#C0003B;" points="29.52,14.76 19.68,9.84 21.88,9.84 29.52,13.66 "/>
<rect x="38.75" y="10.9" style="fill:#C0003B;" width="11.07" height="3.94"/>
<path style="fill:#F3EDEB;" d="M39.35,12.75L39.35,12.75c0.2,0,0.36,0.21,0.36,0.46v0.01c0,0.25-0.16,0.46-0.35,0.46h-0.01
	c-0.19,0-0.35-0.21-0.35-0.46V13.2C39,12.95,39.16,12.75,39.35,12.75"/>
<path d="M39.36,13.67L39.36,13.67c-0.2,0-0.36-0.21-0.36-0.46c0-0.26,0.16-0.47,0.36-0.47c0.2,0,0.36,0.21,0.36,0.46
	C39.72,13.47,39.56,13.67,39.36,13.67 M39.36,12.75c-0.2,0-0.35,0.2-0.35,0.45c0,0.26,0.15,0.46,0.34,0.46h0.01
	c0.19,0,0.34-0.2,0.34-0.45C39.7,12.96,39.55,12.75,39.36,12.75"/>
<path style="fill:#F5D028;" d="M47.46,12.5c0,0,0.64-0.04,0.86-0.26c0.22-0.22-0.15-0.62,0.09-0.66c0.1-0.01,0.23,0.02,0.33,0.13
	c-0.02-0.08-0.08-0.13-0.1-0.18c-0.09-0.07-0.18-0.06-0.3-0.06c-0.09,0.01-0.1-0.01-0.25-0.16c-0.07-0.07-0.07-0.24-0.01-0.35
	c-0.17,0.11-0.14,0.26-0.12,0.29c0.04,0.15,0.08,0.19,0.08,0.26c-0.05-0.02-0.14-0.2-0.59-0.23c-0.45-0.03-1.6,0.27-2.12,0.27
	c-0.52,0-1.27-0.18-1.27-0.18s0.19-0.13-0.04-0.19c-0.23-0.05-0.74,0.19-0.88,0.05c-0.1-0.13-0.06-0.1-0.08-0.16
	c-0.04,0.02-0.06,0.1-0.01,0.21c0.06,0.11,0.09,0.07,0.08,0.07c-0.01,0-0.18,0-0.2,0.05c-0.02,0.04-0.04,0.09,0.05,0.24
	c0.03-0.15-0.09-0.17,0.18-0.19c0.26-0.01,0.45,0.09,0.67,0.12c0.22,0.03,0.22-0.08,0.23-0.08c0.01,0.01,0.68,0.17,1.31,0.13
	c0.62-0.03,1.63-0.33,2.09-0.27c0.46,0.06,0.76,0.35,0.77,0.61c-0.01,0.16-0.21,0.25-0.37,0.27c-0.19,0.03-0.64,0.07-0.64,0.07
	L47.46,12.5z"/>
<path d="M47.46,12.51L47.46,12.51l-0.25-0.15c0-0.01,0.45-0.05,0.64-0.08c0.08-0.02,0.35-0.08,0.36-0.27
	c-0.01-0.25-0.3-0.55-0.77-0.61c-0.26-0.04-0.72,0.05-1.15,0.13c-0.33,0.06-0.67,0.12-0.93,0.14c-0.62,0.03-1.28-0.12-1.31-0.13
	c0.08,0.01,0.72,0.15,1.31,0.12c0.26-0.01,0.6-0.08,0.93-0.14c0.44-0.08,0.89-0.17,1.16-0.13c0.5,0.07,0.77,0.37,0.78,0.62
	c-0.01,0.2-0.29,0.26-0.37,0.28c-0.19,0.02-0.64,0.07-0.64,0.07l0.25,0.14c0.04,0,0.64-0.05,0.86-0.26c0.11-0.11,0.07-0.26,0.03-0.4
	c-0.02-0.09-0.05-0.17-0.02-0.22c0.01-0.02,0.04-0.03,0.07-0.04c0.08,0,0.23,0.01,0.34,0.13c-0.02-0.05-0.05-0.09-0.08-0.12
	c-0.11-0.11-0.18-0.11-0.27-0.11l-0.1,0v0.01c-0.05,0-0.09-0.03-0.18-0.12c-0.12-0.11-0.11-0.29-0.06-0.4
	c-0.15,0.11-0.13,0.25-0.11,0.29c0.02,0.07,0.04,0.12,0.05,0.15c0.02,0.04,0.03,0.07,0.03,0.11c-0.11-0.08-0.23-0.2-0.6-0.22
	c-0.29,0.03-0.7,0.07-1.09,0.13c-0.39,0.07-0.79,0.14-1.03,0.14c-0.51,0-1.26-0.18-1.27-0.18c0-0.01,0.08-0.07,0.07-0.12
	c-0.01-0.03-0.04-0.05-0.11-0.07c-0.09-0.02-0.26,0.01-0.41,0.04c-0.2,0.05-0.4,0.08-0.48,0.01c-0.08-0.1-0.08-0.11-0.08-0.13
	c-0.03-0.01-0.06,0.06,0,0.17c0.02,0.05,0.04,0.07,0.05,0.07c-0.1,0.01-0.17,0.03-0.17,0.06c-0.02,0.04-0.04,0.09,0.05,0.23
	c0-0.04-0.01-0.08-0.01-0.1c0.01-0.01,0.01-0.02,0.01-0.03c0,0.06,0,0.1-0.01,0.14c-0.1-0.15-0.08-0.2-0.06-0.24
	c0.01-0.05,0.12-0.06,0.18-0.06c-0.02,0-0.04-0.03-0.06-0.07c-0.06-0.12-0.03-0.2,0.01-0.22c0.01,0.06,0.01,0.07,0.09,0.16
	c0.07,0.07,0.27,0.03,0.47-0.01c0.15-0.03,0.32-0.07,0.42-0.05c0.07,0.02,0.11,0.05,0.12,0.08c0.01,0.06-0.07,0.11-0.08,0.12h0
	c0.04,0,0.76,0.17,1.26,0.17c0.25,0,0.65-0.07,1.03-0.14c0.38-0.07,0.78-0.14,1.02-0.14c0.43,0.02,0.56,0.15,0.62,0.2
	c0.03,0,0.01-0.03,0-0.07c-0.01-0.04-0.03-0.08-0.05-0.15c-0.02-0.04-0.04-0.19,0.12-0.3c-0.05,0.13-0.04,0.29,0.02,0.35
	c0.13,0.13,0.16,0.16,0.21,0.16l0.1,0c0.1,0,0.17,0,0.25,0.06c0.06,0.09,0.09,0.13,0.1,0.18c-0.12-0.11-0.26-0.13-0.31-0.13
	c-0.06,0.01-0.08,0.02-0.09,0.04c-0.03,0.05-0.01,0.12,0.02,0.21c0.04,0.13,0.08,0.3-0.04,0.41C48.1,12.47,47.46,12.51,47.46,12.51
	L47.46,12.51z M43.89,11.62c-0.02,0-0.05,0-0.08-0.01c-0.08-0.01-0.16-0.03-0.24-0.06c-0.12-0.03-0.24-0.07-0.38-0.07
	c-0.11,0-0.16,0.01-0.19,0.02c0.03-0.02,0.07-0.03,0.14-0.03c0.19-0.01,0.32,0.03,0.44,0.07c0.08,0.02,0.15,0.04,0.23,0.06
	c0.18,0.02,0.21-0.04,0.22-0.07h0.01C44.04,11.56,44.01,11.62,43.89,11.62"/>
<path style="fill:#F5D028;" d="M46.74,12.66c-0.01,0-0.43,0.01-0.55,0.23c-0.12,0.23-0.18,0.44-0.17,0.44
	c0.01,0,0.28-0.19,0.28-0.19s-0.2,0.37-0.09,0.7c0.11,0.33-0.29,0.31-0.51,0.32c-0.1-0.1-0.42-0.27-0.54-0.3
	c-0.07-0.04-0.21-0.04-0.36,0.17c-0.09,0.13,0.13-0.12,0.34-0.1c0.02,0.03,0.04,0.06,0.04,0.13c-0.11-0.01-0.23-0.18-0.37,0.17
	c0.14-0.12,0.16-0.11,0.23-0.12c0.09-0.01,0.08,0.06,0.08,0.06c-0.02,0-0.05,0.01-0.11,0.08c-0.03,0.05-0.11,0.16-0.09,0.16
	c0.02,0,0.06-0.06,0.13-0.11c0.05-0.04,0.09-0.04,0.23,0.01c0.75,0.22,1.15,0.06,1.2-0.03c0.02-0.04-0.43-1.14,0.78-1.44
	C47.24,12.84,46.74,12.67,46.74,12.66"/>
<path d="M45.96,14.43L45.96,14.43c-0.21,0-0.44-0.04-0.69-0.12c-0.14-0.05-0.17-0.05-0.22-0.01c-0.04,0.02-0.07,0.05-0.09,0.08
	c-0.01,0-0.01,0.01-0.02,0.01c0.05-0.04,0.07-0.07,0.11-0.09c0.05-0.04,0.09-0.04,0.23,0.01c0.61,0.18,1.14,0.07,1.19-0.03
	c-0.18-0.81,0.09-1.27,0.78-1.44c-0.01,0-0.1-0.03-0.19-0.06c-0.31-0.11-0.33-0.12-0.33-0.12c0,0-0.42,0.01-0.54,0.24
	c-0.12,0.21-0.17,0.42-0.17,0.44c0.01-0.01,0.17-0.11,0.27-0.19c0,0.01-0.19,0.38-0.09,0.71c0.03,0.09,0.02,0.16-0.01,0.21
	c-0.08,0.11-0.28,0.11-0.44,0.12c0,0-0.01-0.01-0.01-0.01c0.2-0.01,0.38-0.02,0.45-0.12c0.03-0.05,0.04-0.12,0.01-0.2
	c-0.11-0.33,0.09-0.71,0.09-0.71c-0.1,0.07-0.27,0.19-0.28,0.19c-0.01-0.01,0.05-0.23,0.17-0.45c0.13-0.23,0.55-0.24,0.55-0.24
	c0.01,0.01,0.19,0.07,0.32,0.12c0.11,0.04,0.18,0.06,0.19,0.07c-0.7,0.18-0.96,0.64-0.79,1.37c0.01,0.05,0.01,0.07,0.01,0.07
	C46.45,14.34,46.28,14.43,45.96,14.43 M44.82,14.25c0.08-0.22,0.19-0.24,0.29-0.2c0.03,0.01,0.05,0.02,0.08,0.02
	c-0.01-0.05-0.01-0.07-0.03-0.09c0.02,0.02,0.03,0.05,0.03,0.1c-0.03,0-0.06-0.01-0.08-0.02C45.03,14.03,44.95,13.92,44.82,14.25
	c0.13-0.12,0.15-0.12,0.22-0.13c0.05-0.01,0.09,0.02,0.09,0.04c0,0-0.01,0-0.01,0.01l-0.06-0.05
	C44.97,14.13,44.95,14.14,44.82,14.25 M44.82,14.07c0-0.01,0.01-0.02,0.02-0.03c0.07-0.04,0.17-0.09,0.28-0.09c0,0,0.01,0,0.01,0.01
	C44.99,13.96,44.88,14.03,44.82,14.07 M45.51,14.04c-0.14-0.07-0.29-0.14-0.35-0.15c-0.04-0.02-0.12-0.05-0.23,0.04
	c0.11-0.1,0.2-0.06,0.24-0.04C45.23,13.9,45.38,13.97,45.51,14.04"/>
<path style="fill:#F5D028;" d="M41.54,13.88c0.5,0.45,3.86-0.48,4.28-0.8c0.24-0.18,0.67-0.32,0.67,0.31
	c0.11-0.43,0.11-0.54,0.11-0.53c0.01,0.01,0.17,0.17,0.32,0.7c0.04-0.47-0.06-0.74-0.01-0.71c0.04-0.04,0.04,0.23,0.33,0.62
	c-0.06-0.31-0.08-0.44-0.08-0.44s0.54,0.57,0.85,0.65s0.75-0.16,0.89-0.02c0.14,0.14,0.37,0.38,0.36,0.58
	c-0.01,0.2-0.51,0.03-0.56,0.19c-0.05,0.16,0.04,0.16,0.04,0.16s0.05,0.12,0.08,0.21c0.03-0.07-0.03-0.21,0.07-0.22
	c0.07,0.01,0.07,0.14,0.09,0.21c0.02-0.08,0-0.24,0.06-0.24c0.07-0.01,0.08,0.13,0.14,0.22v-0.22c0.21-0.07,0.39-0.08,0.42-0.22
	c0.03-0.15-0.32-0.48-0.4-0.7c-0.08-0.21,0.06-0.3-0.09-0.42c-0.15-0.12-0.74,0.19-1.01,0.07c-0.27-0.11-0.16-0.96-1.19-1.15
	c-1.02-0.18-3.79,0.98-4.28,1.03c-0.49,0.05-1.09-0.17-1.09-0.17L41.54,13.88z"/>
<path d="M48.81,14.81l-0.04-0.1l0.04,0.07c0.01-0.02,0.01-0.05,0-0.08c0-0.06,0-0.13,0.07-0.14c0.06,0.01,0.07,0.08,0.09,0.15
	c0.01-0.11,0.02-0.18,0.07-0.18l0,0c0.05,0,0.07,0.05,0.09,0.11c0.01,0.03,0.02,0.07,0.04,0.1l-0.01-0.21l0.14-0.04
	c0.15-0.04,0.26-0.07,0.28-0.18c0.02-0.08-0.09-0.23-0.2-0.37c-0.08-0.11-0.16-0.23-0.2-0.32c-0.04-0.1-0.03-0.17-0.02-0.23
	c0.01-0.07,0.01-0.13-0.07-0.19c-0.06-0.05-0.24-0.02-0.43,0.03c-0.22,0.05-0.45,0.1-0.58,0.04c-0.09-0.04-0.14-0.15-0.2-0.3
	c-0.13-0.3-0.3-0.72-0.99-0.84c-0.7-0.12-2.2,0.37-3.26,0.72c-0.49,0.16-0.87,0.29-1.03,0.31c-0.49,0.05-1.08-0.17-1.09-0.17
	l0.02,0.89c0.09,0.08,0.27,0.12,0.54,0.12c1.12,0,3.4-0.67,3.73-0.92c0.06-0.05,0.22-0.16,0.38-0.16c0.13,0,0.3,0.08,0.3,0.47
	c0.08-0.38,0.1-0.51,0.1-0.53c0.05,0.04,0.2,0.22,0.33,0.69c0.01-0.27-0.01-0.47-0.03-0.59c-0.01-0.07-0.01-0.1,0-0.11
	c0.03,0,0.04,0.02,0.06,0.07c0.03,0.1,0.1,0.3,0.29,0.55c-0.07-0.3-0.09-0.44-0.09-0.44c0.01,0,0.56,0.56,0.86,0.64
	c0.13,0.03,0.32,0,0.48-0.03c0.18-0.04,0.34-0.05,0.4,0.01c0.12,0.12,0.37,0.38,0.37,0.58c-0.01,0.11-0.15,0.11-0.29,0.11
	c-0.12,0-0.25,0-0.27,0.07c-0.02,0.06-0.02,0.09-0.01,0.11c-0.02-0.03-0.01-0.07,0.01-0.11c0.03-0.08,0.15-0.08,0.28-0.08
	c0.14,0,0.28,0,0.28-0.1c0.01-0.2-0.24-0.45-0.36-0.57c-0.06-0.06-0.22-0.04-0.4-0.01c-0.17,0.03-0.36,0.06-0.49,0.03
	c-0.29-0.07-0.81-0.6-0.85-0.64c0.01,0.02,0.03,0.16,0.09,0.43c-0.2-0.24-0.26-0.45-0.3-0.55c-0.01-0.03-0.02-0.07-0.03-0.07
	c-0.02,0.01-0.01,0.06-0.01,0.11c0.01,0.12,0.04,0.32,0.02,0.6c-0.14-0.47-0.28-0.65-0.32-0.69c0.01,0.02-0.01,0.15-0.1,0.53
	c-0.02-0.48-0.33-0.57-0.67-0.31c-0.34,0.26-2.62,0.92-3.74,0.92h0c-0.28,0-0.46-0.04-0.55-0.12l-0.01-0.9
	c0.02,0,0.61,0.21,1.09,0.16c0.15-0.02,0.54-0.14,1.02-0.31c1.06-0.35,2.56-0.85,3.26-0.72c0.69,0.13,0.87,0.55,0.99,0.85
	c0.06,0.15,0.11,0.26,0.2,0.3c0.12,0.06,0.36,0.01,0.57-0.04c0.2-0.05,0.37-0.08,0.44-0.03c0.09,0.07,0.08,0.13,0.07,0.2
	c-0.01,0.06-0.01,0.13,0.02,0.22c0.04,0.09,0.12,0.2,0.2,0.32c0.11,0.15,0.22,0.3,0.2,0.38c-0.02,0.12-0.14,0.15-0.29,0.19
	l-0.13,0.04l0,0.21c-0.03-0.03-0.04-0.07-0.06-0.1c-0.05-0.14-0.13-0.09-0.13,0.03c0,0.03,0,0.07-0.01,0.1
	c-0.03-0.12-0.04-0.2-0.1-0.2c-0.06,0.01-0.06,0.07-0.06,0.13c0,0.04,0,0.07-0.01,0.09L48.81,14.81z"/>
<path style="fill:#F5D028;" d="M40.9,13.56c0,0-0.53,0.66-0.89,0.65c-0.36-0.03-0.65-0.46-0.73-0.43c-0.08,0.03-0.1-0.04-0.13-0.16
	c-0.03-0.12,0.03-0.18,0.03-0.17c0.02,0,0.04,0.2,0.05,0.21c0.02,0.02-0.06-0.24,0.05-0.24c0.04-0.01,0.03,0.18,0.07,0.27
	c0.01-0.01-0.04-0.27,0.01-0.28c0.05,0,0.07,0.27,0.14,0.35c0.1,0.14,0.27,0.22,0.48,0.27c0.22-0.03,0.76-0.63,0.8-0.61L40.9,13.56z
	"/>
<path d="M40.02,14.21h-0.01c-0.23-0.02-0.43-0.2-0.56-0.32c-0.05-0.05-0.1-0.09-0.13-0.11c0.05,0.02,0.09,0.05,0.14,0.1
	c0.13,0.12,0.33,0.3,0.56,0.32L40.02,14.21L40.02,14.21c0.35-0.01,0.87-0.65,0.87-0.66l-0.11-0.12c-0.02,0-0.1,0.08-0.2,0.17
	c-0.19,0.17-0.45,0.42-0.59,0.44c-0.24-0.06-0.39-0.14-0.48-0.27c-0.04-0.04-0.06-0.13-0.08-0.21c-0.02-0.07-0.03-0.14-0.05-0.14
	c-0.02,0.02-0.01,0.13-0.01,0.19c0.01,0.06,0.01,0.08,0,0.08c-0.02-0.04-0.03-0.1-0.04-0.15c-0.01-0.03-0.01-0.07-0.02-0.1
	c0.02,0.02,0.02,0.05,0.03,0.09c0.01,0.05,0.01,0.1,0.02,0.14c0-0.02-0.01-0.04-0.01-0.06c-0.01-0.09-0.01-0.18,0.01-0.2
	c0.03-0.01,0.05,0.04,0.07,0.14c0.02,0.08,0.04,0.17,0.08,0.21c0.09,0.13,0.24,0.21,0.48,0.27c0.14-0.02,0.4-0.26,0.58-0.43
	c0.12-0.12,0.19-0.18,0.21-0.18l0.12,0.13C40.9,13.57,40.38,14.21,40.02,14.21"/>
<path style="fill:#F5D028;" d="M40.91,13.19c0,0-0.44-0.7-0.79-0.76c-0.35-0.05-0.7,0.27-0.77,0.22c-0.07-0.05-0.1,0.01-0.14,0.11
	c-0.05,0.1,0.01,0.17,0.01,0.16c0.02,0,0.06-0.17,0.08-0.18c0.02-0.01-0.09,0.2,0.02,0.22c0.04,0.01,0.05-0.16,0.1-0.22
	c0.01,0.01-0.07,0.23-0.03,0.24c0.04,0.01,0.1-0.22,0.18-0.28c0.12-0.1,0.29-0.13,0.51-0.13c0.22,0.08,0.66,0.72,0.71,0.71
	L40.91,13.19z"/>
<path d="M40.79,13.28c-0.02,0-0.08-0.07-0.19-0.2c-0.16-0.19-0.38-0.46-0.52-0.51c-0.24,0-0.4,0.04-0.5,0.13
	c-0.04,0.03-0.08,0.1-0.11,0.17c-0.03,0.06-0.05,0.11-0.08,0.11c-0.03-0.04-0.01-0.12,0.01-0.18c-0.04,0.12-0.06,0.16-0.08,0.16
	c-0.01-0.01-0.02-0.02-0.02-0.03c0.04,0.01,0.05-0.03,0.07-0.08c0.01-0.04,0.03-0.09,0.05-0.12c-0.02,0.13-0.04,0.21-0.03,0.24
	c0.02,0,0.05-0.05,0.07-0.1c0.03-0.06,0.07-0.14,0.11-0.17c0.11-0.09,0.27-0.14,0.51-0.14c0.14,0.05,0.36,0.32,0.52,0.51
	C40.69,13.17,40.76,13.27,40.79,13.28l0.13-0.1c-0.01,0-0.44-0.69-0.79-0.75c-0.22-0.04-0.44,0.08-0.59,0.16
	c-0.07,0.04-0.13,0.07-0.16,0.07c-0.1-0.02-0.12,0.03-0.16,0.11c-0.04,0.08,0,0.14,0.01,0.15c0.01,0,0.03-0.06,0.04-0.09
	c0.02-0.05,0.03-0.08,0.04-0.09c-0.01,0.05-0.02,0.09-0.02,0.13c0-0.04,0.01-0.08,0.02-0.1c-0.05,0.13-0.06,0.15-0.07,0.15
	c-0.02-0.02-0.05-0.08-0.01-0.16c0.04-0.08,0.06-0.13,0.1-0.13c0.1,0.02,0.15-0.01,0.22-0.05c0.15-0.08,0.37-0.2,0.59-0.16
	c0.35,0.07,0.79,0.76,0.79,0.77L40.79,13.28z"/>
<path style="fill:#F5D028;" d="M40.7,12.97l-0.48,0.25l0.35,0.1l-0.25,0.31l0.36-0.13l-0.03,0.42l0.21-0.28L41,14.04l0.14-0.28
	l0.17,0.31l0.07-0.3l0.21,0.3l0.07-0.41l0.25,0.25l-0.04-0.43l0.31,0.11L42,13.26c0,0,0.34-0.02,0.32-0.02s-0.25-0.21-0.46-0.27
	L40.7,12.97z"/>
<path d="M41.6,14.08l-0.21-0.31l-0.07,0.3l-0.18-0.31L41,14.04l-0.14-0.38l-0.2,0.28l0.02-0.43l-0.36,0.13l0.25-0.32l-0.35-0.09
	l0.48-0.26l1.16-0.01c0.15,0.04,0.32,0.17,0.41,0.23l0.05,0.04c-0.15-0.1-0.31-0.22-0.46-0.26l-1.16,0.01l-0.48,0.25l0.35,0.09
	l-0.25,0.32l0.36-0.14l-0.02,0.43l0.2-0.28L41,14.04l0.14-0.28l0.18,0.31l0.07-0.3l0.21,0.29l0.07-0.4l0.26,0.25l-0.04-0.43
	l0.31,0.1L42,13.26c0-0.01,0.31-0.02,0.32-0.03l0.01,0c0,0.01,0,0.01-0.32,0.02l0.19,0.33l-0.31-0.1l0.04,0.43l-0.26-0.25
	L41.6,14.08z"/>
<path style="fill:#F5D028;" d="M40.95,12.86L40.69,13l0.19,0.06l-0.14,0.18l0.2-0.07l-0.01,0.24l0.11-0.15l0.07,0.21l0.08-0.16
	l0.09,0.18l0.04-0.17l0.11,0.17l0.04-0.23l0.14,0.14l-0.02-0.24l0.17,0.06l-0.1-0.19c0,0,0.18-0.01,0.17-0.01
	c-0.01,0-0.14-0.12-0.25-0.16L40.95,12.86z"/>
<path d="M41.44,13.49l-0.12-0.18l-0.03,0.17l-0.1-0.18l-0.07,0.16l-0.08-0.22l-0.11,0.16l0.01-0.24l-0.19,0.07l0.14-0.18l-0.19-0.05
	l0.26-0.15l0.64-0.01c0.08,0.02,0.17,0.09,0.22,0.13c0,0,0.01,0.01,0.01,0.01c-0.08-0.05-0.16-0.11-0.23-0.14l-0.63,0.01l-0.26,0.14
	l0.19,0.05l-0.14,0.18l0.19-0.08l-0.01,0.24l0.11-0.16l0.08,0.22l0.07-0.16l0.1,0.18l0.03-0.17l0.12,0.16l0.04-0.22l0.14,0.14
	l-0.03-0.24l0.17,0.06l-0.11-0.18c0,0,0.12-0.01,0.16-0.01c-0.01,0.01-0.05,0.01-0.16,0.02l0.11,0.18l-0.17-0.06l0.02,0.24
	l-0.15-0.14L41.44,13.49z"/>
<path style="fill:#F5D028;" d="M41.09,12.17c0,0-0.14-0.12-0.19,0c-0.05,0.12,0.12,0.07,0.12,0.09c0,0.02-0.12,0.16-0.12,0.31
	c0,0.16,0.09,0.42,0.09,0.46c0,0.04,0.04,0.15,0.16,0.19c0.13,0.04,0.17-0.13,0.2-0.15c0.03-0.02,0.2,0.03,0.26-0.14
	c0.06-0.17,0.06-0.47,0.06-0.47s0.11,0.09,0.11-0.09c0-0.18-0.12,0-0.12,0s0.02-0.19-0.26-0.28C41.12,12.01,41.1,12.19,41.09,12.17"
	/>
<path d="M41.19,13.23l-0.04-0.01c-0.13-0.04-0.17-0.14-0.17-0.19c0-0.01-0.01-0.05-0.02-0.1c-0.03-0.1-0.07-0.25-0.07-0.36
	c0-0.07,0.02-0.14,0.05-0.19c-0.02,0.06-0.04,0.12-0.04,0.19c0,0.1,0.04,0.26,0.07,0.36c0.01,0.05,0.02,0.09,0.02,0.1
	c0,0.04,0.04,0.14,0.16,0.18L41.19,13.23c0.07-0.01,0.11-0.08,0.13-0.12l0.07-0.04c0.06,0,0.17-0.01,0.21-0.13
	c0.06-0.16,0.06-0.46,0.06-0.47c0.1,0.02,0.11-0.04,0.11-0.09c0-0.03,0-0.08-0.03-0.08c-0.03,0-0.07,0.06-0.08,0.08
	c-0.01,0,0.01-0.18-0.27-0.27c-0.19-0.06-0.28,0.03-0.3,0.06h-0.01c0.03-0.05,0.12-0.13,0.31-0.07c0.26,0.08,0.27,0.25,0.27,0.27
	c0.01-0.03,0.12-0.13,0.12,0.01c0,0.1-0.04,0.11-0.06,0.11c-0.04,0-0.05,0.29-0.11,0.45c-0.05,0.13-0.16,0.13-0.22,0.13l-0.06,0.04
	C41.3,13.16,41.26,13.23,41.19,13.23"/>
<path style="fill:#F5D028;" d="M41.05,12.14c-0.04-0.11-0.14-0.54-0.14-0.54l0.24,0.16C41.06,11.73,41,11.71,41,11.71
	c0.01,0,0.11,0.21,0.11,0.21c0.09-0.01,0.19,0.04,0.3,0.08c0,0,0.09-0.17,0.08-0.17c-0.01,0-0.05-0.03-0.05-0.03l0.21-0.16
	l-0.06,0.22h-0.04L41.46,12c0.1,0.03,0.14,0.05,0.24,0.15c0.08-0.02,0.15-0.09,0.19-0.15c-0.07-0.03-0.11-0.06-0.1-0.06
	c0.01,0,0.31,0.02,0.31,0.02s-0.29,0.31-0.47,0.42C41.48,12.31,41.07,12.18,41.05,12.14"/>
<path d="M41.65,12.39L41.65,12.39c-0.06-0.03-0.16-0.06-0.26-0.1c-0.21-0.07-0.33-0.12-0.34-0.15c-0.04-0.11-0.14-0.54-0.14-0.54
	l0.24,0.15l-0.12-0.03c0,0,0.04,0.08,0.06,0.14c-0.04-0.06-0.08-0.14-0.09-0.15l0.14,0.04l-0.24-0.15c0.01,0.02,0.11,0.43,0.15,0.54
	c0.01,0.02,0.18,0.09,0.33,0.14c0.1,0.03,0.19,0.07,0.25,0.1c0.17-0.11,0.44-0.4,0.46-0.42c-0.01,0.01-0.28-0.01-0.31-0.01
	c0.01,0,0.04,0.02,0.1,0.05c-0.06,0.09-0.13,0.14-0.2,0.16c-0.1-0.1-0.15-0.12-0.24-0.15l0.18-0.38h0l0,0l-0.06,0.22l-0.13,0.16
	c0.09,0.02,0.14,0.04,0.24,0.14c0.06-0.02,0.12-0.07,0.19-0.14c-0.01,0-0.11-0.04-0.1-0.06c0.01-0.01,0.32,0.01,0.32,0.01
	C42.11,11.97,41.82,12.28,41.65,12.39L41.65,12.39z M41.42,11.99l-0.09-0.02c-0.07-0.03-0.13-0.05-0.19-0.05c0,0,0,0-0.01,0
	c0.07-0.01,0.14,0.02,0.21,0.05L41.42,11.99c0.02-0.05,0.06-0.13,0.07-0.16C41.48,11.86,41.46,11.9,41.42,11.99"/>
<path d="M41.19,12.45L41.19,12.45c0.05,0.03,0.07,0.05,0.05,0.04h0c-0.02,0-0.09-0.03-0.14-0.05h0c-0.05-0.03-0.07-0.05-0.05-0.04h0
	C41.08,12.4,41.14,12.43,41.19,12.45"/>
<path d="M41.47,12.57L41.47,12.57c0.05,0.03,0.07,0.05,0.05,0.04h0c-0.03,0-0.09-0.03-0.14-0.05l0,0c-0.05-0.03-0.07-0.05-0.05-0.04
	h0C41.35,12.52,41.42,12.55,41.47,12.57"/>
<path d="M41.29,12.9L41.29,12.9c0.1,0.04,0.14,0.06,0.09,0.06h0c-0.05,0-0.17-0.04-0.27-0.07l0,0c-0.1-0.04-0.14-0.06-0.09-0.06h0
	C41.07,12.83,41.19,12.86,41.29,12.9"/>
<path d="M41.27,12.74L41.27,12.74c0.05,0.02,0.06,0.03,0.04,0.03h0c-0.02,0-0.08-0.02-0.12-0.04l0,0c-0.04-0.02-0.06-0.03-0.04-0.03
	h0C41.17,12.71,41.23,12.72,41.27,12.74"/>
<path d="M41.21,12.78L41.21,12.78c0.01-0.04,0.03-0.06,0.03-0.04c0,0.02-0.01,0.07-0.02,0.11l0,0c-0.01,0.04-0.03,0.06-0.03,0.04
	C41.19,12.87,41.2,12.82,41.21,12.78"/>
<polygon style="fill:#30770E;" points="39.59,20.81 39.37,20.43 39.68,20.8 39.7,20.96 "/>
<path d="M39.7,20.97l-0.12-0.15l-0.22-0.38l0.32,0.37L39.7,20.97z M39.37,20.43l0.32,0.51l-0.01-0.14L39.37,20.43z"/>
<polygon style="fill:#30770E;" points="39.65,20.85 39.69,20.58 39.78,20.91 39.7,20.96 "/>
<polygon points="39.69,20.97 39.65,20.86 39.68,20.57 39.79,20.91 "/>
<polygon style="fill:#30770E;" points="39.57,20.95 39.2,20.76 39.51,20.85 39.71,20.96 "/>
<path d="M39.71,20.97l-0.14-0.02l-0.37-0.19l0.31,0.09L39.71,20.97L39.71,20.97z M39.2,20.76l0.37,0.19l0.11,0.01l-0.18-0.1
	L39.2,20.76z"/>
<polygon style="fill:#30770E;" points="39.68,21.07 39.12,20.91 39.56,20.92 39.71,20.95 "/>
<path d="M39.68,21.07L39.68,21.07l-0.56-0.16l0.59,0.03L39.68,21.07z M39.12,20.91l0.55,0.15l0.03-0.11l-0.15-0.02L39.12,20.91z"/>
<polygon style="fill:#30770E;" points="39.71,20.88 40.05,20.83 39.93,21.05 39.68,20.95 "/>
<polygon points="39.94,21.05 39.67,20.96 39.71,20.88 40.05,20.83 "/>
<polygon style="fill:#30770E;" points="39.9,21 40.34,21.17 39.97,21.12 39.67,20.94 "/>
<path d="M40.34,21.18l-0.36-0.05l-0.31-0.18l0.24,0.05L40.34,21.18L40.34,21.18z M39.67,20.95l0.31,0.17l0.33,0.05L39.9,21
	L39.67,20.95z"/>
<polygon style="fill:#30770E;" points="39.97,21.09 40.43,21.35 40.02,21.2 39.67,20.94 "/>
<path d="M40.43,21.36l-0.41-0.15l-0.34-0.27L40.43,21.36L40.43,21.36z M39.67,20.94l0.34,0.26l0.37,0.13L39.67,20.94z"/>
<polygon style="fill:#30770E;" points="39.97,21.18 40.24,21.58 39.82,21.13 39.69,20.95 "/>
<path d="M40.23,21.58l-0.55-0.63l0.28,0.23L40.23,21.58L40.23,21.58z M39.69,20.95l0.14,0.18l0.38,0.41l-0.24-0.36L39.69,20.95z"/>
<polygon style="fill:#30770E;" points="39.9,21.19 39.91,21.45 39.7,21.07 39.69,20.94 "/>
<path d="M39.9,21.45l-0.2-0.37l-0.02-0.13l0.22,0.24L39.9,21.45L39.9,21.45z M39.68,20.95l0.02,0.13l0.2,0.36l-0.01-0.24
	L39.68,20.95z"/>
<polygon style="fill:#30770E;" points="39.8,21.11 39.59,21.27 39.6,20.99 39.7,20.96 "/>
<polygon points="39.59,21.28 39.6,20.99 39.69,20.96 39.8,21.11 "/>
<polygon style="fill:#30770E;" points="39.54,20.81 39.39,20.59 39.59,20.8 39.69,20.95 "/>
<polygon points="39.69,20.96 39.54,20.81 39.39,20.59 39.6,20.8 39.69,20.95 "/>
<polygon style="fill:#30770E;" points="39.65,20.9 39.5,20.63 39.71,20.92 39.74,21 "/>
<polygon points="39.74,21.01 39.64,20.9 39.5,20.63 39.74,21 "/>
<polygon style="fill:#30770E;" points="39.66,20.98 39.27,20.81 39.6,20.91 39.74,20.99 "/>
<polygon points="39.74,20.99 39.66,20.99 39.27,20.82 39.74,20.98 "/>
<polygon style="fill:#30770E;" points="39.76,20.96 40.11,21.07 39.85,21.02 39.71,20.97 "/>
<polygon points="40.11,21.07 39.71,20.97 40.08,21.06 40.05,21.05 40.11,21.06 "/>
<polygon style="fill:#30770E;" points="39.78,21.05 39.67,21.12 39.72,21.02 39.72,20.97 "/>
<polygon style="fill:#30770E;" points="39.93,21.12 40.15,21.4 39.96,21.2 39.73,20.97 "/>
<path d="M40.15,21.4l-0.42-0.43l0.2,0.14L40.15,21.4L40.15,21.4z M39.72,20.98l0.36,0.35l-0.17-0.21L39.72,20.98z"/>
<polygon style="fill:#30770E;" points="39.87,21.02 39.93,20.94 39.95,21.09 39.74,20.99 "/>
<polygon style="fill:#30770E;" points="39.62,20.86 39.53,20.57 39.68,20.87 39.7,20.96 "/>
<polygon points="39.7,20.96 39.62,20.86 39.52,20.57 39.7,20.96 "/>
<path style="fill:#FFFFFF;" d="M40.7,21.5c0.05-0.04,0.44-0.92,2.29-0.79c-1.05,0.44-1.7,1.37-1.86,1.41
	C41.02,22.15,40.77,21.64,40.7,21.5"/>
<path d="M41.12,22.13c-0.15,0-0.42-0.62-0.43-0.63c0.43-0.63,1.15-0.89,2.3-0.8c-0.72,0.32-1.25,0.86-1.57,1.18
	c-0.14,0.14-0.23,0.23-0.28,0.25L41.12,22.13z M42.63,20.71c-0.91,0-1.54,0.26-1.9,0.76c0.06,0.23,0.28,0.64,0.38,0.64v0.01
	l0.01-0.01c0.04-0.01,0.14-0.11,0.27-0.24c0.32-0.32,0.85-0.86,1.58-1.17C42.87,20.71,42.75,20.71,42.63,20.71"/>
<path style="fill:#FFFFFF;" d="M43.18,21.06c-0.29,0.13-0.43,0.19-0.57,0.21c0.07,0.04,0.24,0.02,0.43,0.09
	c-0.17,0-0.48,0.17-0.6,0.18c0.09,0.07,0.41,0,0.46,0.02c-0.17,0.01-0.44,0.19-0.61,0.19c-0.08,0.08,0.39-0.05,0.58,0.09
	c-0.2-0.01-0.58,0.14-0.78,0.1c0.16,0.12,0.44-0.01,0.67,0.12c-0.07,0.01-0.61,0.09-0.8,0.05c0.11,0.08,0.46,0.06,0.55,0.13
	c-0.14-0.02-0.52,0.08-0.66,0.04c0.12,0.11,0.48,0.05,0.54,0.12c-0.24,0.11-0.59,0.02-0.76,0.05c0.11,0.07,0.2,0.14,0.3,0.2
	c0.14,0.13,0.58,0.5,0.85,0.61c-0.29-0.05-0.4-0.06-0.59-0.08l0.43,0.6c-0.18-0.13-0.5-0.37-0.71-0.5c-0.47-0.3-0.8-0.25-1.13-0.51
	c-0.45-0.58-0.7-1.28-0.73-1.46c-0.02-0.19-0.04-0.52-0.46-0.35c0.4-0.07,0.11-0.5,0.53-0.5c0.25,0,0.22,0.24,0.31,0.4
	c0.06,0.11,0.49,0.52,0.58,0.54C41.82,20.8,42.47,20.73,43.18,21.06"/>
<path d="M42.61,23.81l-0.16-0.12c-0.17-0.13-0.39-0.29-0.54-0.38c-0.23-0.15-0.44-0.21-0.62-0.27c-0.18-0.06-0.35-0.11-0.51-0.24
	c-0.46-0.6-0.71-1.29-0.73-1.47c-0.02-0.2-0.07-0.43-0.33-0.37c0,0,0.01-0.01,0.01-0.01c0,0,0,0,0.01-0.01
	c0.07-0.07,0.09-0.15,0.11-0.23c0.03-0.12,0.06-0.24,0.29-0.24c0.19,0,0.23,0.13,0.26,0.26c0.02,0.05,0.03,0.11,0.06,0.15
	c0.06,0.12,0.49,0.52,0.57,0.54c0.76-0.61,1.39-0.72,2.15-0.36c-0.28,0.15-0.42,0.21-0.57,0.23c0.04-0.01,0.08,0,0.15,0.01
	c0.08,0.01,0.17,0.02,0.28,0.05c-0.09,0.03-0.22,0.08-0.34,0.12c-0.1,0.04-0.19,0.07-0.26,0.08c0.03,0,0.08,0.01,0.15,0.01
	c0.05,0,0.11,0,0.17-0.01c0.04,0,0.08-0.01,0.1-0.01c0,0.01-0.01,0.01-0.01,0.01c0.02,0,0.03,0,0.04,0
	c-0.03,0.01-0.05,0.02-0.07,0.02c-0.05,0.03-0.13,0.06-0.21,0.1c-0.11,0.04-0.22,0.09-0.31,0.1l-0.03-0.02c0.1,0,0.21-0.05,0.33-0.1
	c0.06-0.02,0.11-0.05,0.16-0.06h-0.01c-0.13,0.01-0.29,0.02-0.34-0.03c0.07-0.03,0.17-0.06,0.27-0.1c0.12-0.05,0.25-0.1,0.34-0.1
	c-0.1-0.01-0.2-0.02-0.27-0.03c-0.07-0.01-0.12-0.01-0.16-0.03c0.15-0.05,0.29-0.11,0.57-0.23c-0.75-0.29-1.36-0.22-2.13,0.39
	c-0.11-0.02-0.54-0.44-0.6-0.55c-0.03-0.05-0.05-0.11-0.06-0.16c-0.04-0.13-0.07-0.24-0.24-0.24c-0.2,0-0.23,0.1-0.26,0.22
	c-0.02,0.07-0.04,0.15-0.1,0.21c0.23-0.05,0.28,0.22,0.3,0.38c0.02,0.2,0.27,0.9,0.73,1.48c0.16,0.13,0.32,0.17,0.5,0.23
	c0.18,0.06,0.39,0.12,0.62,0.28c0.16,0.09,0.37,0.25,0.55,0.38l0.09,0.07l-0.38-0.54l0.09-0.01c0.14,0.02,0.26,0.03,0.51,0.07
	c-0.27-0.08-0.7-0.44-0.86-0.59l-0.12-0.08c-0.06-0.04-0.12-0.08-0.18-0.12c0.07-0.06,0.15-0.03,0.24-0.03
	c0.19,0.01,0.4,0.01,0.51-0.05c-0.03,0-0.12-0.01-0.21-0.01c-0.13-0.01-0.27-0.02-0.34-0.08c0.03-0.02,0.06-0.01,0.1-0.01
	c0.07,0,0.17-0.01,0.27-0.03c0.09-0.01,0.18-0.03,0.25-0.03c0.01,0-0.1-0.02-0.2-0.03c-0.12-0.01-0.24-0.03-0.3-0.07
	c0.04-0.02,0.09-0.01,0.15-0.01h0c0.23,0,0.57-0.05,0.65-0.06c-0.09-0.03-0.2-0.04-0.3-0.04h-0.12c-0.1,0-0.18-0.01-0.25-0.06
	l0.08-0.02c0.1,0,0.23-0.03,0.36-0.06c0.12-0.03,0.24-0.05,0.32-0.05c-0.04-0.02-0.15-0.05-0.3-0.05l-0.22,0.01l-0.03-0.03
	l0.24-0.01c0.16,0,0.26,0.03,0.33,0.08c-0.12,0.03-0.23,0.05-0.35,0.07c-0.16,0.03-0.33,0.07-0.44,0.05
	c0.07,0.02,0.14,0.03,0.24,0.03l0.12,0c0.1,0,0.21,0.01,0.32,0.06c-0.11,0.05-0.63,0.12-0.81,0.08c0.07,0.01,0.18,0.03,0.3,0.04
	c0.11,0.02,0.22,0.03,0.26,0.07c-0.13,0.02-0.22,0.03-0.31,0.05c-0.15,0.02-0.29,0.04-0.36,0.02c0.08,0.04,0.22,0.05,0.34,0.05
	c0.1,0.01,0.19,0.01,0.22,0.05c-0.13,0.09-0.34,0.08-0.53,0.07c-0.09-0.01-0.18-0.01-0.23,0c0.07,0.02,0.13,0.06,0.19,0.1l0.12,0.08
	c0.16,0.15,0.59,0.51,0.85,0.61c-0.26-0.02-0.37-0.03-0.51-0.05l-0.08-0.01l0.44,0.58L42.61,23.81z"/>
<path style="fill:#28620A;" d="M45.63,24.31c-0.02-0.09-0.03-0.14,0.02-0.27c0.06-0.09,0.1-0.17,0.21-0.26
	c0.12-0.05,0.17-0.01,0.33-0.17c0.05-0.11,0.13-0.2,0.18-0.32c0.11-0.18,0.14-0.26,0.23-0.4c0.11-0.14,0.2-0.27,0.27-0.38
	c0.07-0.14,0.13-0.23,0.24-0.34c0.04-0.13,0.13-0.23,0.24-0.34c0.08-0.17,0.24-0.35,0.3-0.49c0.12-0.15,0.17-0.22,0.27-0.38
	c0.09-0.07,0.24-0.22,0.37-0.26c0.17-0.08,0.26-0.16,0.38-0.04c0.07,0.08,0.21,0.22,0.11,0.32c-0.05,0.06-0.13,0.07-0.22,0.02
	c-0.09-0.07-0.14-0.27-0.27-0.11c-0.09,0.12-0.14,0.21-0.27,0.34c-0.06,0.1-0.11,0.19-0.17,0.34c-0.08,0.1-0.14,0.21-0.2,0.38
	c-0.08,0.07-0.15,0.22-0.2,0.34c-0.08,0.09-0.14,0.19-0.2,0.34c-0.13,0.14-0.17,0.25-0.27,0.34c-0.06,0.15-0.16,0.29-0.24,0.38
	c-0.06,0.11-0.12,0.22-0.17,0.34c-0.11,0.12-0.11,0.15-0.27,0.34c-0.13,0.19-0.09,0.17-0.29,0.39
	C45.88,24.46,45.77,24.47,45.63,24.31"/>
<path d="M45.87,24.46c-0.08,0-0.16-0.04-0.24-0.14c-0.02-0.11-0.03-0.15,0.02-0.28l0.04-0.07c0.04-0.06,0.08-0.13,0.17-0.19
	c0.04-0.01,0.06-0.02,0.09-0.03c0.07-0.02,0.12-0.03,0.24-0.15c0.02-0.05,0.05-0.09,0.08-0.14c0.03-0.06,0.07-0.11,0.1-0.18
	c0.05-0.09,0.09-0.16,0.12-0.21c0.03-0.06,0.06-0.12,0.11-0.19c0.11-0.14,0.2-0.27,0.27-0.38c0.07-0.13,0.13-0.22,0.24-0.34
	c0.04-0.13,0.14-0.24,0.24-0.34c0.04-0.09,0.1-0.18,0.16-0.27c0.05-0.08,0.11-0.16,0.14-0.22c0.12-0.15,0.17-0.22,0.27-0.38
	l0.09-0.07c0.08-0.07,0.19-0.16,0.28-0.19l0.07-0.04c0.13-0.07,0.22-0.1,0.31,0c0.09,0.1,0.21,0.23,0.11,0.33
	c-0.05,0.06-0.13,0.07-0.23,0.02c-0.03-0.02-0.05-0.05-0.08-0.09c-0.05-0.07-0.11-0.12-0.18-0.03l-0.08,0.11
	c-0.05,0.07-0.1,0.14-0.19,0.23c-0.06,0.1-0.11,0.18-0.17,0.34c-0.08,0.11-0.14,0.22-0.2,0.38c-0.08,0.08-0.15,0.22-0.2,0.34
	c-0.08,0.1-0.14,0.19-0.2,0.34c-0.06,0.07-0.11,0.13-0.15,0.19c-0.04,0.06-0.08,0.11-0.13,0.15c-0.08,0.19-0.2,0.34-0.24,0.38
	c-0.06,0.11-0.12,0.22-0.17,0.34c-0.05,0.06-0.08,0.1-0.12,0.15c-0.03,0.05-0.07,0.1-0.15,0.2l-0.08,0.13
	c-0.04,0.07-0.07,0.11-0.21,0.26C45.96,24.44,45.92,24.46,45.87,24.46 M48.52,20.61c-0.05,0-0.11,0.03-0.18,0.06l-0.07,0.04
	c-0.09,0.04-0.19,0.12-0.28,0.19l-0.09,0.07c-0.1,0.16-0.15,0.22-0.27,0.38c-0.03,0.06-0.08,0.14-0.14,0.22
	c-0.06,0.09-0.12,0.18-0.16,0.27c-0.12,0.13-0.2,0.21-0.23,0.34c-0.11,0.13-0.17,0.21-0.24,0.34c-0.07,0.11-0.16,0.24-0.27,0.38
	c-0.04,0.07-0.07,0.13-0.11,0.19c-0.03,0.06-0.07,0.13-0.12,0.21c-0.03,0.07-0.06,0.13-0.1,0.18c-0.03,0.04-0.06,0.09-0.08,0.14
	c-0.12,0.13-0.18,0.14-0.25,0.15c-0.02,0.01-0.05,0.01-0.09,0.02c-0.08,0.07-0.12,0.13-0.16,0.19l-0.04,0.06
	c-0.04,0.12-0.03,0.16-0.02,0.25c0.12,0.16,0.26,0.15,0.36,0.11c0.14-0.15,0.16-0.19,0.21-0.26l0.08-0.13
	c0.08-0.1,0.12-0.15,0.15-0.19c0.04-0.05,0.06-0.08,0.12-0.15c0.05-0.12,0.11-0.23,0.17-0.34c0.04-0.04,0.16-0.19,0.24-0.38
	c0.05-0.04,0.08-0.09,0.12-0.15c0.04-0.06,0.08-0.12,0.14-0.19c0.06-0.15,0.12-0.24,0.2-0.34c0.05-0.12,0.12-0.27,0.2-0.34
	c0.06-0.16,0.12-0.27,0.2-0.38c0.05-0.15,0.1-0.23,0.17-0.34c0.09-0.09,0.14-0.16,0.19-0.23l0.08-0.11c0.08-0.1,0.15-0.05,0.21,0.03
	c0.02,0.03,0.05,0.06,0.07,0.08c0.09,0.04,0.17,0.04,0.21-0.02c0.08-0.09-0.03-0.21-0.1-0.29C48.6,20.63,48.56,20.61,48.52,20.61"/>
<path style="fill:#F5D028;" d="M47.26,22.85L47.26,22.85c0.05,0.05-0.07,0.26-0.27,0.46l-0.01,0.01c-0.2,0.2-0.4,0.33-0.46,0.28h0
	c-0.05-0.05,0.07-0.26,0.27-0.46l0.01,0C47,22.92,47.21,22.8,47.26,22.85"/>
<path d="M46.56,23.61l-0.04-0.01c0-0.01,0-0.03,0-0.04v0l0.04,0.04c0.08,0,0.25-0.12,0.42-0.28c0.15-0.15,0.25-0.29,0.28-0.38
	c-0.02,0.11-0.13,0.25-0.26,0.39C46.82,23.49,46.64,23.61,46.56,23.61 M46.52,23.53c0.02-0.12,0.13-0.26,0.27-0.41
	c0.18-0.18,0.35-0.3,0.43-0.3c0.01,0.01,0.02,0.02,0.02,0.02c-0.12,0-0.28,0.11-0.44,0.28C46.65,23.29,46.54,23.45,46.52,23.53"/>
<path style="fill:#F5D028;" d="M46.16,22.11L46.16,22.11c0.07,0.03,0.03,0.26-0.07,0.53l0,0.01c-0.11,0.27-0.25,0.46-0.32,0.43l0,0
	c-0.07-0.03-0.03-0.26,0.08-0.53l0-0.01C45.95,22.27,46.09,22.08,46.16,22.11"/>
<path d="M45.78,23.08l-0.02,0c-0.08-0.03-0.03-0.3,0.07-0.54c0.11-0.26,0.24-0.45,0.31-0.45c0.1,0.04,0.04,0.3-0.05,0.54
	C45.98,22.9,45.85,23.08,45.78,23.08 M46.15,22.11c-0.07,0-0.2,0.16-0.31,0.43c-0.12,0.29-0.14,0.5-0.08,0.52l0.01,0
	c0.06,0,0.18-0.16,0.29-0.43C46.19,22.35,46.21,22.13,46.15,22.11L46.15,22.11z"/>
<path style="fill:#F5D028;" d="M46.33,22.23L46.33,22.23c0.07,0.03,0.03,0.27-0.09,0.53l0,0.01c-0.12,0.26-0.26,0.45-0.33,0.42l0,0
	c-0.07-0.03-0.02-0.26,0.09-0.52l0-0.01C46.12,22.39,46.27,22.2,46.33,22.23"/>
<path d="M45.92,23.2l-0.02,0c-0.08-0.04-0.02-0.3,0.09-0.54c0.11-0.26,0.25-0.44,0.33-0.44c0.06,0.02,0.06,0.12,0.05,0.19
	c-0.02,0.1-0.06,0.22-0.12,0.35C46.14,23.02,46,23.2,45.92,23.2 M46.33,22.24c-0.07,0-0.2,0.16-0.32,0.42
	c-0.13,0.29-0.15,0.5-0.1,0.52l0.01,0c0.06,0,0.19-0.16,0.31-0.42c0.06-0.13,0.1-0.26,0.12-0.35
	C46.37,22.31,46.36,22.25,46.33,22.24L46.33,22.24z"/>
<path style="fill:#F5D028;" d="M46.74,22.52L46.74,22.52c0.06,0.04-0.03,0.26-0.2,0.5l0,0.01c-0.17,0.23-0.35,0.39-0.41,0.34h0
	c-0.06-0.04,0.03-0.26,0.2-0.5l0.01-0.01C46.5,22.63,46.68,22.48,46.74,22.52"/>
<path d="M46.15,23.38l-0.03-0.01c0-0.02-0.01-0.03-0.01-0.05c0,0,0,0.01,0,0.01l0.04,0.03c0.07,0,0.24-0.15,0.38-0.35
	c0.15-0.2,0.22-0.38,0.22-0.45c0.01,0.1-0.08,0.29-0.2,0.45C46.39,23.24,46.23,23.38,46.15,23.38 M46.11,23.32
	c0-0.12,0.08-0.28,0.2-0.45c0.15-0.21,0.32-0.36,0.4-0.36c0.01,0.01,0.02,0.01,0.02,0.02c0,0,0,0-0.01,0c-0.1,0-0.25,0.15-0.4,0.34
	C46.2,23.05,46.12,23.23,46.11,23.32"/>
<path style="fill:#F5D028;" d="M47.57,23.05L47.57,23.05c0.05,0.06-0.09,0.25-0.31,0.44l-0.01,0.01c-0.22,0.19-0.43,0.29-0.48,0.24
	l0,0c-0.05-0.06,0.09-0.25,0.31-0.44l0.01,0C47.31,23.11,47.53,23,47.57,23.05"/>
<path d="M46.82,23.76l-0.04-0.02c-0.06-0.07,0.11-0.28,0.31-0.44c0.18-0.16,0.36-0.26,0.45-0.26c0.01,0.01,0.02,0.02,0.02,0.03
	c-0.12,0-0.29,0.1-0.46,0.24c-0.24,0.21-0.35,0.39-0.32,0.43l0.04,0.01c0.08,0,0.26-0.1,0.43-0.25c0.15-0.13,0.26-0.26,0.3-0.34
	c-0.03,0.1-0.15,0.23-0.28,0.34C47.08,23.65,46.91,23.76,46.82,23.76"/>
<path style="fill:#F5D028;" d="M47.43,22.97L47.43,22.97c0.05,0.05-0.07,0.26-0.28,0.46l-0.01,0.01c-0.2,0.2-0.41,0.32-0.46,0.27
	l0,0c-0.05-0.05,0.07-0.25,0.28-0.46l0.01,0C47.17,23.04,47.38,22.91,47.43,22.97"/>
<path d="M46.72,23.72l-0.04-0.01c0-0.02,0-0.03,0-0.05c0,0,0,0,0,0.01l0.04,0.04c0.08,0,0.26-0.12,0.42-0.28
	c0.17-0.17,0.29-0.34,0.29-0.42c-0.12-0.04-0.29,0.08-0.46,0.24c-0.16,0.16-0.27,0.31-0.29,0.4c0.02-0.11,0.13-0.26,0.27-0.4
	c0.18-0.17,0.35-0.29,0.44-0.29L47.45,23c0,0.08-0.12,0.26-0.29,0.43C46.98,23.6,46.8,23.72,46.72,23.72"/>
<path style="fill:#F5D028;" d="M47,22.75L47,22.75c0.06,0.04-0.03,0.27-0.2,0.5l-0.01,0.01c-0.17,0.23-0.35,0.39-0.41,0.34l0,0
	c-0.06-0.04,0.03-0.26,0.2-0.49l0-0.01C46.76,22.86,46.94,22.71,47,22.75"/>
<path d="M46.41,23.61l-0.03-0.01c-0.07-0.05,0.04-0.3,0.2-0.51c0.15-0.21,0.32-0.36,0.4-0.36c0.01,0.01,0.01,0.03,0.01,0.04
	c-0.11-0.02-0.26,0.13-0.39,0.32c-0.18,0.26-0.25,0.46-0.21,0.49l0.02,0.01c0.07,0,0.23-0.15,0.38-0.35
	c0.09-0.13,0.16-0.25,0.2-0.35c-0.02,0.1-0.09,0.23-0.18,0.35C46.66,23.46,46.49,23.61,46.41,23.61"/>
<path style="fill:#F5D028;" d="M46.88,22.62L46.88,22.62c0.06,0.04-0.03,0.26-0.2,0.5l-0.01,0.01c-0.17,0.23-0.35,0.39-0.41,0.35
	l0,0c-0.06-0.04,0.03-0.26,0.2-0.5l0.01-0.01C46.64,22.73,46.82,22.57,46.88,22.62"/>
<path d="M46.29,23.48l-0.03-0.01c-0.01-0.01-0.01-0.03-0.01-0.05c0,0,0,0,0,0.01l0.03,0.03c0.07,0,0.24-0.15,0.38-0.35
	c0.09-0.13,0.16-0.25,0.19-0.35c-0.02,0.11-0.09,0.23-0.18,0.35C46.54,23.33,46.37,23.48,46.29,23.48 M46.26,23.41
	c0-0.12,0.08-0.28,0.2-0.44c0.15-0.21,0.32-0.36,0.4-0.36c0.01,0.01,0.01,0.03,0.02,0.04c-0.12-0.02-0.26,0.13-0.39,0.32
	C46.35,23.14,46.26,23.32,46.26,23.41"/>
<path style="fill:#F5D028;" d="M47.12,20.8L47.12,20.8c0.06,0.04-0.03,0.26-0.2,0.5l-0.01,0.01c-0.17,0.23-0.35,0.39-0.41,0.34h0
	c-0.06-0.04,0.03-0.27,0.2-0.5l0,0C46.88,20.91,47.06,20.76,47.12,20.8"/>
<path d="M46.53,21.66l-0.03-0.01c0-0.01-0.01-0.03-0.01-0.04l0.03,0.03c0.07,0,0.24-0.15,0.38-0.35c0.15-0.21,0.23-0.39,0.22-0.46
	c0.02,0.1-0.08,0.3-0.2,0.47C46.77,21.51,46.61,21.66,46.53,21.66 M46.5,21.58c0.01-0.12,0.09-0.28,0.2-0.44
	c0.15-0.21,0.32-0.36,0.4-0.36c0.01,0.01,0.02,0.01,0.02,0.03c0,0-0.01,0-0.01,0c-0.09,0-0.25,0.15-0.39,0.34
	C46.59,21.32,46.51,21.49,46.5,21.58"/>
<path style="fill:#F5D028;" d="M47.28,20.9L47.28,20.9c0.06,0.04-0.03,0.26-0.2,0.5l0,0.01c-0.17,0.23-0.35,0.39-0.41,0.34h0
	c-0.06-0.04,0.03-0.27,0.2-0.5l0.01-0.01C47.04,21.02,47.22,20.86,47.28,20.9"/>
<path d="M46.69,21.77l-0.03-0.01c-0.07-0.05,0.04-0.3,0.2-0.51c0.15-0.21,0.32-0.36,0.4-0.36c0.01,0.01,0.01,0.03,0.02,0.05
	c-0.11,0-0.26,0.13-0.39,0.32c-0.18,0.25-0.25,0.46-0.21,0.49l0.02,0.01c0.07,0,0.23-0.15,0.38-0.35c0.09-0.13,0.16-0.25,0.19-0.35
	c-0.02,0.1-0.09,0.22-0.18,0.35C46.94,21.62,46.77,21.77,46.69,21.77"/>
<path style="fill:#F5D028;" d="M47.44,21.02L47.44,21.02c0.06,0.04-0.03,0.26-0.2,0.5l-0.01,0.01c-0.17,0.23-0.35,0.39-0.41,0.34
	l0,0c-0.06-0.04,0.03-0.26,0.2-0.5l0-0.01C47.2,21.13,47.39,20.98,47.44,21.02"/>
<path d="M46.86,21.89l-0.03-0.01c-0.07-0.05,0.04-0.3,0.2-0.51c0.15-0.21,0.32-0.36,0.4-0.36c0.01,0.01,0.01,0.03,0.01,0.04
	c-0.1-0.01-0.26,0.13-0.39,0.32c-0.18,0.25-0.25,0.46-0.21,0.49l0.02,0.01c0.07,0,0.23-0.15,0.38-0.34c0.09-0.13,0.16-0.25,0.2-0.35
	c-0.02,0.1-0.09,0.22-0.18,0.35C47.1,21.74,46.94,21.89,46.86,21.89"/>
<path style="fill:#F5D028;" d="M47.62,21.15L47.62,21.15c0.06,0.04-0.03,0.26-0.2,0.5l-0.01,0.01c-0.17,0.23-0.35,0.39-0.41,0.34h0
	c-0.06-0.04,0.03-0.26,0.2-0.5l0-0.01C47.38,21.26,47.56,21.11,47.62,21.15"/>
<path d="M47.03,22.01L47.01,22c-0.07-0.05,0.04-0.3,0.2-0.51c0.16-0.21,0.32-0.36,0.4-0.36c0.01,0.01,0.01,0.03,0.02,0.05
	c-0.11-0.02-0.26,0.13-0.39,0.32c-0.18,0.26-0.25,0.46-0.21,0.49l0.02,0.01c0.07,0,0.23-0.15,0.38-0.35
	c0.09-0.13,0.16-0.25,0.2-0.34c-0.02,0.1-0.09,0.22-0.18,0.35C47.28,21.86,47.11,22.01,47.03,22.01"/>
<path style="fill:#F5D028;" d="M47.75,21.26L47.75,21.26c0.06,0.04-0.03,0.26-0.2,0.5l-0.01,0.01c-0.17,0.23-0.35,0.39-0.41,0.34
	l0,0c-0.06-0.04,0.03-0.26,0.2-0.5l0-0.01C47.51,21.37,47.69,21.22,47.75,21.26"/>
<path d="M47.17,22.12l-0.03-0.01c-0.07-0.05,0.04-0.3,0.2-0.51c0.15-0.21,0.32-0.36,0.4-0.36c0.01,0.01,0.02,0.01,0.03,0.02
	c0,0-0.01,0-0.01,0c-0.1,0-0.25,0.15-0.39,0.34c-0.18,0.26-0.25,0.46-0.21,0.49l0.02,0.01c0.07,0,0.23-0.15,0.38-0.35
	c0.15-0.21,0.23-0.39,0.22-0.46c0.02,0.1-0.08,0.3-0.2,0.46C47.41,21.98,47.24,22.12,47.17,22.12"/>
<path style="fill:#F5D028;" d="M48.63,21.76L48.63,21.76c0.06,0.04-0.03,0.27-0.2,0.5l-0.01,0.01c-0.17,0.23-0.35,0.39-0.41,0.34h0
	c-0.06-0.04,0.03-0.26,0.2-0.5l0-0.01C48.39,21.87,48.57,21.71,48.63,21.76"/>
<path d="M48.05,22.62l-0.03-0.01c-0.07-0.05,0.04-0.3,0.2-0.51c0.16-0.21,0.32-0.36,0.4-0.36c0.01,0.01,0.02,0.01,0.02,0.02
	c0,0-0.01,0-0.01,0c-0.1,0-0.25,0.15-0.39,0.34c-0.18,0.25-0.25,0.46-0.2,0.49l0.02,0.01c0.07,0,0.23-0.15,0.38-0.35
	c0.15-0.21,0.22-0.38,0.22-0.46c0.01,0.1-0.08,0.29-0.2,0.46C48.29,22.47,48.12,22.62,48.05,22.62"/>
<path style="fill:#F5D028;" d="M48.5,21.71L48.5,21.71c0.06,0.04-0.03,0.27-0.2,0.5l-0.01,0.01c-0.17,0.23-0.35,0.39-0.41,0.35l0,0
	c-0.06-0.04,0.03-0.26,0.2-0.5l0-0.01C48.25,21.82,48.44,21.67,48.5,21.71"/>
<path d="M47.91,22.57l-0.03-0.01c-0.07-0.05,0.04-0.3,0.19-0.51c0.15-0.21,0.32-0.36,0.4-0.36c0.01,0.02,0.01,0.03,0.01,0.04
	c-0.11,0-0.26,0.13-0.39,0.32c-0.18,0.25-0.25,0.46-0.21,0.49l0.02,0.01c0.07,0,0.23-0.15,0.38-0.35c0.09-0.13,0.16-0.25,0.19-0.34
	c-0.02,0.1-0.09,0.22-0.18,0.35C48.15,22.42,47.99,22.57,47.91,22.57"/>
<path style="fill:#F5D028;" d="M48.38,21.65L48.38,21.65c0.06,0.04-0.03,0.27-0.2,0.5l-0.01,0.01c-0.17,0.23-0.35,0.39-0.41,0.34
	l0,0c-0.06-0.04,0.03-0.26,0.2-0.49l0-0.01C48.13,21.76,48.32,21.6,48.38,21.65"/>
<path d="M47.79,22.51l-0.03-0.01c-0.07-0.05,0.04-0.3,0.2-0.51c0.16-0.21,0.32-0.36,0.4-0.36c0.01,0.01,0.01,0.03,0.02,0.04
	c-0.12-0.02-0.26,0.13-0.39,0.32c-0.18,0.26-0.25,0.46-0.21,0.49l0.02,0.01c0.07,0,0.23-0.15,0.38-0.35
	c0.09-0.13,0.16-0.25,0.2-0.34c-0.02,0.1-0.09,0.22-0.18,0.35C48.03,22.36,47.87,22.51,47.79,22.51"/>
<path style="fill:#F5D028;" d="M48.21,21.54L48.21,21.54c0.06,0.04-0.03,0.26-0.2,0.5l0,0.01c-0.17,0.23-0.35,0.39-0.41,0.34h0
	c-0.06-0.04,0.03-0.26,0.2-0.5l0.01-0.01C47.97,21.65,48.15,21.49,48.21,21.54"/>
<path d="M47.62,22.4l-0.03-0.01c-0.07-0.05,0.04-0.3,0.2-0.51c0.15-0.21,0.32-0.36,0.4-0.36c0.01,0.01,0.02,0.01,0.02,0.02
	c0,0-0.01,0-0.01,0c-0.1,0-0.25,0.15-0.39,0.34c-0.18,0.25-0.25,0.46-0.21,0.49l0.02,0.01c0.07,0,0.23-0.15,0.38-0.35
	c0.15-0.2,0.22-0.37,0.22-0.45c0.01,0.1-0.08,0.29-0.2,0.45C47.86,22.25,47.7,22.4,47.62,22.4"/>
<path style="fill:#F5D028;" d="M48.03,21.45L48.03,21.45c0.06,0.04-0.03,0.27-0.2,0.5l-0.01,0.01c-0.17,0.23-0.35,0.39-0.41,0.35
	l0,0c-0.06-0.04,0.03-0.26,0.2-0.5l0-0.01C47.79,21.56,47.98,21.41,48.03,21.45"/>
<path d="M47.45,22.31l-0.03-0.01c-0.07-0.05,0.04-0.3,0.2-0.51c0.16-0.21,0.32-0.36,0.4-0.36c0.01,0.01,0.02,0.01,0.02,0.02
	c0,0-0.01,0-0.01,0c-0.1,0-0.25,0.15-0.39,0.34c-0.18,0.25-0.25,0.46-0.2,0.49l0.02,0.01c0.07,0,0.23-0.15,0.38-0.35
	c0.15-0.21,0.22-0.38,0.22-0.46c0.01,0.1-0.08,0.29-0.2,0.46C47.69,22.16,47.53,22.31,47.45,22.31"/>
<path style="fill:#F5D028;" d="M47.89,21.35L47.89,21.35c0.06,0.04-0.03,0.27-0.2,0.5l0,0.01c-0.17,0.23-0.35,0.39-0.41,0.35l0,0
	c-0.06-0.04,0.03-0.26,0.2-0.5l0.01-0.01C47.65,21.46,47.84,21.31,47.89,21.35"/>
<path d="M47.31,22.22l-0.03-0.01c-0.07-0.05,0.04-0.3,0.2-0.51c0.15-0.21,0.32-0.36,0.4-0.36c0.01,0.02,0.01,0.03,0.02,0.04
	c-0.11,0-0.26,0.13-0.39,0.32c-0.18,0.25-0.25,0.46-0.21,0.49l0.02,0.01c0.07,0,0.24-0.15,0.38-0.35c0.09-0.13,0.16-0.25,0.19-0.34
	c-0.02,0.1-0.09,0.22-0.18,0.35C47.55,22.07,47.39,22.22,47.31,22.22"/>
<path style="fill:#F5D028;" d="M46.51,22.37L46.51,22.37c0.06,0.04,0.01,0.27-0.13,0.52l-0.01,0.01c-0.14,0.25-0.3,0.43-0.36,0.4
	l0,0c-0.06-0.03,0-0.27,0.13-0.52l0-0.01C46.29,22.52,46.45,22.34,46.51,22.37"/>
<path d="M46.03,23.3l-0.02-0.01C46,23.28,46,23.27,46,23.25c0,0,0,0.01,0,0.01l0.03,0.03c0.07,0,0.21-0.17,0.34-0.4
	c0.08-0.14,0.13-0.28,0.15-0.38c-0.01,0.11-0.06,0.24-0.13,0.38C46.26,23.14,46.11,23.3,46.03,23.3 M46,23.24
	c-0.02-0.12,0.05-0.29,0.14-0.47c0.13-0.24,0.28-0.41,0.35-0.41c0.01,0.01,0.01,0.03,0.02,0.04c-0.1,0-0.24,0.16-0.35,0.37
	C46.05,22.97,45.99,23.16,46,23.24"/>
<path style="fill:#F5D028;" d="M46.59,21.45L46.59,21.45c0.06,0.04-0.03,0.26-0.2,0.5l0,0.01c-0.17,0.23-0.35,0.39-0.41,0.34l0,0
	c-0.06-0.04,0.03-0.26,0.2-0.5l0.01-0.01C46.35,21.56,46.53,21.4,46.59,21.45"/>
<path d="M46,22.31l-0.03-0.01c-0.07-0.05,0.04-0.3,0.19-0.51c0.15-0.21,0.32-0.36,0.4-0.36c0.01,0.01,0.02,0.01,0.02,0.02h-0.01
	c-0.1,0-0.25,0.15-0.39,0.34c-0.18,0.25-0.25,0.46-0.21,0.49L46,22.29c0.07,0,0.24-0.15,0.38-0.34c0.15-0.2,0.22-0.38,0.22-0.45
	c0.01,0.1-0.08,0.29-0.2,0.45C46.24,22.16,46.08,22.31,46,22.31"/>
<path style="fill:#F5D028;" d="M46.75,21.55L46.75,21.55c0.06,0.04-0.03,0.26-0.2,0.5l0,0.01c-0.17,0.23-0.35,0.39-0.41,0.34h0
	c-0.06-0.04,0.03-0.26,0.2-0.5l0.01-0.01C46.51,21.66,46.69,21.51,46.75,21.55"/>
<path d="M46.16,22.41l-0.03-0.01c0-0.01-0.01-0.03-0.01-0.04l0.03,0.03c0.07,0,0.24-0.15,0.38-0.34c0.15-0.2,0.22-0.38,0.22-0.45
	c0.01,0.1-0.08,0.29-0.2,0.45C46.41,22.26,46.24,22.41,46.16,22.41 M46.13,22.33c0.01-0.12,0.09-0.28,0.2-0.44
	c0.15-0.21,0.32-0.36,0.4-0.36c0.01,0.01,0.02,0.01,0.02,0.02c0,0,0,0-0.01,0c-0.09,0-0.25,0.15-0.39,0.34
	C46.22,22.07,46.14,22.24,46.13,22.33"/>
<path style="fill:#F5D028;" d="M46.91,21.67L46.91,21.67c0.06,0.04-0.03,0.26-0.2,0.5l0,0.01c-0.17,0.23-0.35,0.39-0.41,0.34h0
	c-0.06-0.04,0.03-0.26,0.2-0.5l0.01-0.01C46.67,21.78,46.86,21.63,46.91,21.67"/>
<path d="M46.33,22.53l-0.03-0.01c-0.07-0.05,0.04-0.3,0.2-0.51c0.15-0.21,0.32-0.36,0.4-0.36c0.01,0.01,0.02,0.01,0.02,0.02
	c0,0,0,0-0.01,0c-0.1,0-0.25,0.15-0.39,0.34c-0.18,0.25-0.25,0.46-0.21,0.49l0.02,0.01c0.07,0,0.23-0.15,0.38-0.35
	c0.15-0.2,0.22-0.38,0.22-0.45c0.01,0.1-0.08,0.29-0.2,0.45C46.57,22.38,46.41,22.53,46.33,22.53"/>
<path style="fill:#F5D028;" d="M47.09,21.79L47.09,21.79c0.06,0.04-0.03,0.27-0.2,0.5l-0.01,0.01c-0.17,0.23-0.35,0.39-0.41,0.34
	l0,0c-0.06-0.04,0.03-0.26,0.2-0.49l0-0.01C46.85,21.91,47.03,21.75,47.09,21.79"/>
<path d="M46.51,22.66l-0.03-0.01c0-0.01-0.01-0.03-0.01-0.04l0.04,0.03c0.07,0,0.24-0.15,0.38-0.35c0.15-0.2,0.22-0.38,0.22-0.45
	c0.01,0.1-0.08,0.29-0.2,0.46C46.75,22.51,46.58,22.66,46.51,22.66 M46.47,22.58c0.01-0.12,0.09-0.27,0.2-0.44
	c0.15-0.21,0.32-0.36,0.4-0.36c0.01,0.01,0.02,0.01,0.02,0.02c0,0-0.01,0-0.01,0c-0.09,0-0.25,0.15-0.39,0.34
	C46.56,22.32,46.48,22.49,46.47,22.58"/>
<path style="fill:#F5D028;" d="M47.22,21.91L47.22,21.91c0.06,0.04-0.03,0.26-0.2,0.5l0,0.01c-0.17,0.23-0.35,0.39-0.41,0.35l0,0
	c-0.06-0.04,0.03-0.26,0.2-0.5l0.01-0.01C46.98,22.02,47.17,21.87,47.22,21.91"/>
<path d="M46.64,22.77l-0.03-0.01c-0.07-0.05,0.04-0.3,0.2-0.51c0.15-0.21,0.32-0.36,0.4-0.36c0.01,0.01,0.01,0.03,0.02,0.04
	c-0.11,0-0.26,0.13-0.39,0.32c-0.18,0.26-0.25,0.46-0.21,0.49l0.02,0.01c0.07,0,0.23-0.15,0.38-0.35c0.09-0.13,0.16-0.25,0.19-0.34
	c-0.02,0.1-0.09,0.22-0.18,0.35C46.88,22.62,46.71,22.77,46.64,22.77"/>
<path style="fill:#F5D028;" d="M48.1,22.4L48.1,22.4c0.06,0.05-0.03,0.27-0.2,0.5l-0.01,0.01c-0.17,0.23-0.35,0.39-0.41,0.34l0,0
	c-0.06-0.04,0.03-0.26,0.2-0.5l0-0.01C47.86,22.52,48.05,22.36,48.1,22.4"/>
<path d="M47.52,23.26l-0.03-0.01c0-0.01-0.01-0.03-0.01-0.04l0.03,0.03c0.07,0,0.24-0.15,0.38-0.35c0.15-0.21,0.22-0.38,0.22-0.46
	c0.02,0.1-0.08,0.29-0.2,0.46C47.76,23.12,47.59,23.26,47.52,23.26 M47.48,23.19c0.01-0.12,0.09-0.28,0.2-0.44
	c0.15-0.21,0.32-0.36,0.4-0.36c0.01,0.01,0.02,0.02,0.02,0.03c0,0-0.01,0-0.01,0c-0.09,0-0.25,0.15-0.39,0.34
	C47.58,22.92,47.49,23.09,47.48,23.19"/>
<path style="fill:#F5D028;" d="M47.97,22.35L47.97,22.35c0.06,0.04-0.03,0.27-0.2,0.5l-0.01,0.01c-0.17,0.23-0.35,0.39-0.41,0.35
	l0,0c-0.06-0.04,0.03-0.26,0.2-0.5l0.01-0.01C47.73,22.47,47.91,22.31,47.97,22.35"/>
<path d="M47.38,23.22l-0.03-0.01c-0.07-0.05,0.04-0.3,0.2-0.51c0.15-0.21,0.32-0.36,0.4-0.36c0.01,0.01,0.02,0.01,0.02,0.02
	c0,0,0,0-0.01,0c-0.1,0-0.25,0.15-0.39,0.34c-0.18,0.25-0.25,0.46-0.21,0.49l0.02,0.01c0.07,0,0.23-0.15,0.38-0.35
	c0.15-0.2,0.22-0.38,0.22-0.45c0.01,0.1-0.08,0.29-0.2,0.45C47.62,23.07,47.46,23.22,47.38,23.22"/>
<path style="fill:#F5D028;" d="M47.85,22.29L47.85,22.29c0.06,0.04-0.03,0.27-0.2,0.5l-0.01,0.01c-0.17,0.23-0.35,0.39-0.41,0.35
	l0,0c-0.06-0.04,0.03-0.26,0.2-0.5l0.01-0.01C47.6,22.4,47.79,22.25,47.85,22.29"/>
<path d="M47.26,23.15l-0.03-0.01c0-0.01-0.01-0.03-0.01-0.04v0l0.03,0.03c0.07,0,0.24-0.15,0.38-0.35c0.15-0.2,0.22-0.38,0.22-0.45
	c0.01,0.1-0.08,0.29-0.2,0.45C47.5,23.01,47.34,23.15,47.26,23.15 M47.22,23.08c0-0.12,0.09-0.28,0.2-0.44
	c0.15-0.21,0.32-0.36,0.4-0.36c0.01,0.01,0.02,0.01,0.02,0.02c0,0,0,0-0.01,0c-0.1,0-0.25,0.15-0.39,0.34
	C47.32,22.81,47.23,22.98,47.22,23.08"/>
<path style="fill:#F5D028;" d="M47.68,22.18L47.68,22.18c0.06,0.04-0.03,0.26-0.2,0.5l-0.01,0.01c-0.17,0.23-0.35,0.39-0.41,0.34
	l0,0c-0.06-0.04,0.03-0.26,0.2-0.49l0.01-0.01C47.44,22.29,47.62,22.14,47.68,22.18"/>
<path d="M47.09,23.04l-0.03-0.01c-0.01-0.02-0.01-0.03-0.01-0.05c0,0,0,0,0,0.01l0.03,0.03c0.07,0,0.24-0.15,0.38-0.35
	c0.15-0.21,0.22-0.38,0.22-0.46c0.01,0.1-0.08,0.29-0.2,0.46C47.34,22.9,47.17,23.04,47.09,23.04 M47.06,22.97
	c0-0.12,0.08-0.28,0.2-0.44c0.15-0.21,0.32-0.36,0.4-0.36c0.01,0.01,0.02,0.01,0.02,0.02c0,0-0.01,0-0.01,0
	c-0.09,0-0.25,0.15-0.39,0.34C47.15,22.71,47.06,22.89,47.06,22.97"/>
<path style="fill:#F5D028;" d="M47.5,22.09L47.5,22.09c0.06,0.04-0.03,0.26-0.2,0.5l0,0.01c-0.17,0.23-0.35,0.39-0.41,0.34h0
	c-0.06-0.04,0.03-0.27,0.2-0.5l0.01,0C47.26,22.21,47.45,22.05,47.5,22.09"/>
<path d="M46.92,22.96l-0.03-0.01c0-0.01-0.01-0.02-0.01-0.04l0.03,0.03c0.07,0,0.24-0.15,0.38-0.35c0.15-0.21,0.23-0.39,0.22-0.46
	c0.02,0.1-0.08,0.3-0.2,0.46C47.16,22.81,47,22.96,46.92,22.96 M46.88,22.88c0.01-0.12,0.09-0.28,0.2-0.44
	c0.15-0.21,0.32-0.36,0.4-0.36c0.01,0.01,0.02,0.01,0.02,0.02c0,0-0.01,0-0.01,0c-0.1,0-0.25,0.15-0.39,0.34
	C46.98,22.62,46.89,22.79,46.88,22.88"/>
<path style="fill:#F5D028;" d="M47.37,22L47.37,22c0.06,0.04-0.03,0.27-0.2,0.5l-0.01,0.01c-0.17,0.23-0.35,0.39-0.41,0.35l0,0
	c-0.06-0.04,0.03-0.26,0.2-0.5l0.01-0.01C47.13,22.11,47.31,21.96,47.37,22"/>
<path d="M46.78,22.86l-0.03-0.01c0-0.01-0.01-0.03-0.01-0.05c0,0,0,0.01,0,0.01l0.04,0.03c0.07,0,0.24-0.15,0.38-0.35
	c0.15-0.21,0.22-0.38,0.22-0.46c0.02,0.1-0.08,0.29-0.2,0.46C47.02,22.72,46.86,22.86,46.78,22.86 M46.74,22.79
	c0-0.12,0.08-0.28,0.2-0.45c0.15-0.21,0.32-0.36,0.4-0.36c0.01,0.01,0.02,0.01,0.02,0.03c0,0-0.01-0.01-0.01,0
	c-0.09,0-0.25,0.15-0.39,0.34C46.83,22.53,46.75,22.7,46.74,22.79"/>
<path style="fill:#A87F36;" d="M47.47,15.88L47.47,15.88c0.1,0,0.18,0.03,0.18,0.06v2.09c0,0.03-0.08,0.06-0.18,0.06h0
	c-0.1,0-0.18-0.03-0.18-0.06v-2.09C47.3,15.91,47.38,15.88,47.47,15.88"/>
<path d="M47.48,18.1L47.48,18.1c-0.11,0-0.19-0.03-0.19-0.07v-2.09c0-0.08,0.37-0.07,0.37,0v2.09C47.66,18.07,47.58,18.1,47.48,18.1
	 M47.48,15.89c-0.11,0-0.17,0.03-0.17,0.06v2.09c0,0.03,0.07,0.06,0.17,0.06h0c0.1,0,0.17-0.03,0.17-0.06v-2.09
	C47.65,15.92,47.58,15.89,47.48,15.89"/>
<polygon style="fill:#30770E;" points="47.11,16.72 46.08,17.41 46.74,16.57 47.4,16.42 "/>
<path d="M46.09,17.42l-0.01-0.02l0.66-0.83l0.66-0.16l-0.28,0.32L46.09,17.42z M47.39,16.41l-0.65,0.17l-0.61,0.78l0.97-0.65
	L47.39,16.41z"/>
<polygon style="fill:#30770E;" points="47.08,16.58 45.66,16.76 46.9,16.31 47.44,16.41 "/>
<path d="M45.66,16.77l-0.01-0.02l1.24-0.45l0.55,0.1l-0.36,0.19L45.66,16.77z M46.9,16.32l-1.15,0.41l1.33-0.17l0.36-0.17
	L46.9,16.32z"/>
<polygon style="fill:#30770E;" points="47.8,16.63 48.19,17.4 47.57,16.82 47.39,16.4 "/>
<path d="M48.19,17.41l-0.63-0.58l-0.18-0.43l0.42,0.22l0.4,0.77L48.19,17.41z M47.39,16.4l0.19,0.41l0.58,0.54l-0.37-0.72
	L47.39,16.4z"/>
<polygon style="fill:#30770E;" points="47.97,16.35 49.18,17.41 47.72,16.67 47.32,16.41 "/>
<path d="M49.18,17.42l-1.46-0.74l-0.4-0.27l0.65-0.08l1.22,1.06L49.18,17.42z M47.96,16.36l-0.64,0.06l0.41,0.25l1.38,0.7
	L47.96,16.36z"/>
<polygon style="fill:#30770E;" points="47,16.45 45.55,15.94 46.98,15.95 47.46,16.46 "/>
<path d="M47.48,16.47l-0.48,0l-1.45-0.52l1.43-0.01L47.48,16.47z M45.55,15.95l1.45,0.5l0.43,0l-0.46-0.49L45.55,15.95z"/>
<polygon style="fill:#30770E;" points="46.85,16.04 46.16,15.17 47.19,15.82 47.44,16.48 "/>
<path d="M47.46,16.51l-0.61-0.46l-0.69-0.88l1.04,0.63L47.46,16.51z M46.16,15.18l0.7,0.86l0.55,0.42l-0.23-0.63L46.16,15.18z"/>
<polygon style="fill:#30770E;" points="47.09,15.86 46.69,14.87 47.43,15.68 47.4,16.47 "/>
<path d="M47.41,16.51l-0.33-0.65l-0.4-0.99l0.76,0.8L47.41,16.51z M46.68,14.87l0.42,0.98l0.29,0.58l0.03-0.75L46.68,14.87z"/>
<polygon style="fill:#30770E;" points="47.5,15.77 48.41,14.99 47.79,16.07 47.37,16.44 "/>
<path d="M47.36,16.47l0.13-0.7l0.91-0.79l-0.61,1.09L47.36,16.47z M48.4,14.99l-0.89,0.8l-0.12,0.63l0.39-0.36L48.4,14.99z"/>
<polygon style="fill:#30770E;" points="47.78,15.88 48.95,15.65 47.91,16.31 47.37,16.45 "/>
<path d="M47.34,16.46l0.43-0.59l1.17-0.23l-1.03,0.67L47.34,16.46z M48.95,15.64l-1.16,0.25l-0.39,0.54l0.52-0.13L48.95,15.64z"/>
<polygon style="fill:#30770E;" points="47.78,16.12 49.2,16.32 47.87,16.54 47.43,16.41 "/>
<path d="M47.87,16.55l-0.44-0.13l0.34-0.31l1.44,0.2L47.87,16.55z M47.78,16.13l-0.34,0.29l0.43,0.11l1.33-0.22L47.78,16.13z"/>
<polygon style="fill:#30770E;" points="47.25,16.8 46.76,17.23 47.05,16.72 47.41,16.43 "/>
<path d="M46.77,17.24l-0.02-0.01l0.29-0.52l0.36-0.29l-0.14,0.39L46.77,17.24z M47.4,16.43l-0.34,0.3l-0.26,0.46l0.45-0.39
	L47.4,16.43z"/>
<polygon style="fill:#30770E;" points="47.31,16.55 46.55,17.03 47.18,16.42 47.46,16.3 "/>
<path d="M46.55,17.03L46.55,17.03l0.62-0.62l0.29-0.12l-0.15,0.26L46.55,17.03z M47.46,16.3l-0.27,0.13l-0.58,0.56l0.7-0.44
	L47.46,16.3z"/>
<polygon style="fill:#30770E;" points="47.66,16.46 48.23,17.24 47.54,16.62 47.39,16.32 "/>
<path d="M48.22,17.25l-0.69-0.62l-0.15-0.3l0.28,0.13l0.57,0.79L48.22,17.25z M47.39,16.33l0.16,0.29l0.63,0.58l-0.53-0.73
	L47.39,16.33z"/>
<polygon style="fill:#30770E;" points="47.2,16.31 46.45,15.63 47.18,16.11 47.43,16.38 "/>
<path d="M47.45,16.4l-0.26-0.09l-0.75-0.68l0.74,0.47L47.45,16.4z M46.45,15.64l0.76,0.67l0.21,0.07l-0.23-0.26L46.45,15.64z"/>
<polygon style="fill:#30770E;" points="47.56,16.21 48.26,16.32 47.58,16.32 47.37,16.38 "/>
<path d="M47.37,16.38l-0.01-0.01l0.2-0.17l0.7,0.12l-0.68,0.01L47.37,16.38z M47.56,16.21l-0.17,0.15l0.19-0.05l0.68,0L47.56,16.21z
	"/>
<polygon style="fill:#30770E;" points="47.35,15.9 47.88,15.28 47.6,15.77 47.38,16.35 "/>
<path d="M47.39,16.35l-0.02,0l-0.03-0.45l0.53-0.63l-0.26,0.51L47.39,16.35z M47.87,15.28l-0.51,0.63l0.03,0.4l0.2-0.53L47.87,15.28
	z"/>
<polygon style="fill:#30770E;" points="47.09,16.08 46.52,16.04 47.12,15.88 47.43,16.32 "/>
<path d="M47.42,16.33l-0.33-0.24l-0.57-0.04l0.6-0.18l0.32,0.44L47.42,16.33z M47.11,15.89l-0.59,0.16l0.57,0.02l0.29,0.21
	L47.11,15.89z"/>
<polygon style="fill:#30770E;" points="47.19,16.63 46.2,17.03 47.03,16.52 47.4,16.42 "/>
<path d="M46.2,17.04l-0.01-0.01l0.83-0.52l0.37-0.1l-0.2,0.22L46.2,17.04z M47.39,16.41l-0.36,0.11l-0.75,0.47l0.91-0.37
	L47.39,16.41z"/>
<path style="fill:#A87F36;" d="M42.03,16.4L42.03,16.4c0.05,0.02,0.08,0.06,0.07,0.08l-0.48,1.54c-0.01,0.03-0.05,0.03-0.1,0.01h0
	c-0.05-0.02-0.08-0.05-0.07-0.08l0.48-1.54C41.93,16.39,41.98,16.38,42.03,16.4"/>
<path d="M41.58,18.05l-0.06-0.01c-0.05-0.02-0.09-0.06-0.08-0.08l0.48-1.54l0.11-0.02c0.05,0.02,0.08,0.06,0.08,0.08l-0.48,1.54
	L41.58,18.05z M42.03,16.41l-0.1,0.01l-0.48,1.54c-0.01,0.02,0.03,0.05,0.07,0.07l0.05,0.02l0.04-0.03l0.48-1.54
	C42.1,16.46,42.07,16.42,42.03,16.41"/>
<path style="fill:#A87F36;" d="M41.06,16.26L41.06,16.26c0.05,0,0.09,0.02,0.09,0.05v1.63c0,0.03-0.04,0.05-0.09,0.05h0
	c-0.05,0-0.09-0.02-0.09-0.05v-1.63C40.96,16.28,41,16.26,41.06,16.26"/>
<path d="M41.06,17.98c-0.06,0-0.1-0.02-0.1-0.05v-1.63c0-0.06,0.19-0.06,0.19,0v1.63C41.15,17.96,41.11,17.98,41.06,17.98
	 M41.06,16.26c-0.05,0-0.09,0.02-0.09,0.04v1.63c0,0.02,0.04,0.04,0.09,0.04h0c0.05,0,0.09-0.02,0.09-0.04v-1.63
	C41.14,16.28,41.1,16.26,41.06,16.26"/>
<path style="fill:#1D4805;" d="M40.49,15.38c0.23-0.07,0.4,0.07,0.47,0.38c0,0.03,0.05,0.03,0.05,0.02
	c-0.04-0.51,0.47-0.94,0.8-0.21c0.03,0.12-0.15-0.06-0.27-0.19c-0.15-0.18-0.35,0.04-0.36,0.52c-0.01,0.11-0.03,0.34-0.03,0.34
	s-0.17-0.02-0.17-0.03c0-0.01-0.14-0.59-0.38-0.65c-0.18-0.03-0.13,0.09-0.35,0.13c-0.2,0.02-0.2-0.01-0.04-0.08
	C40.32,15.61,40.4,15.41,40.49,15.38"/>
<path d="M41.14,16.24L41.14,16.24c-0.18-0.02-0.18-0.03-0.18-0.03c-0.06-0.22-0.13-0.38-0.2-0.49c0.1,0.14,0.17,0.34,0.2,0.47
	c0.01,0.02,0.11,0.03,0.17,0.04c0-0.04,0.02-0.24,0.03-0.34c0.01-0.51,0.23-0.69,0.37-0.52c0.06,0.06,0.12,0.13,0.18,0.17
	c-0.06-0.04-0.13-0.11-0.18-0.17c-0.13-0.16-0.34,0.02-0.35,0.51C41.16,16,41.14,16.24,41.14,16.24L41.14,16.24z M41.02,15.78
	c-0.01-0.03-0.03-0.06-0.04-0.08c0.03-0.15,0.09-0.3,0.18-0.41c0.2-0.21,0.48-0.11,0.65,0.28c-0.01,0.01-0.01,0.01-0.02,0.01
	c-0.16-0.4-0.43-0.48-0.62-0.28C41.06,15.41,41,15.59,41.02,15.78 M40.13,15.7c-0.01-0.01-0.02-0.01-0.03-0.02
	c0.06,0.01,0.09,0,0.13,0c0.1-0.02,0.14-0.06,0.18-0.09c0.03-0.03,0.06-0.05,0.12-0.05c0.02,0,0.03,0.01,0.05,0.02
	c-0.1-0.01-0.13,0.02-0.16,0.04c-0.04,0.03-0.08,0.07-0.18,0.09C40.19,15.7,40.16,15.7,40.13,15.7 M40.09,15.67
	c0-0.02,0.03-0.03,0.09-0.06c0.08,0,0.14-0.07,0.19-0.14c0.04-0.04,0.07-0.08,0.11-0.1c0.16-0.05,0.3,0.01,0.39,0.15
	c-0.11-0.14-0.24-0.19-0.39-0.14c-0.03,0.01-0.07,0.05-0.11,0.1c-0.06,0.06-0.12,0.13-0.2,0.14C40.13,15.64,40.1,15.66,40.09,15.67"
	/>
<path style="fill:#1D4805;" d="M40.53,15.67c0.23-0.05,0.39,0.1,0.45,0.41c0,0.03,0.05,0.04,0.05,0.03c-0.01-0.51,0.72-0.53,1,0.22
	c0.02,0.12-0.03,0.11-0.14-0.03c-0.14-0.19-0.67-0.53-0.71-0.06c-0.02,0.11-0.05,0.34-0.05,0.34s-0.17-0.03-0.17-0.04
	c0-0.01-0.1-0.6-0.35-0.68c-0.18-0.04-0.24,0.13-0.46,0.16c-0.2,0.01-0.2-0.02-0.04-0.08C40.15,15.93,40.44,15.7,40.53,15.67"/>
<path d="M41.14,16.58L41.14,16.58c-0.17-0.04-0.18-0.04-0.18-0.05c-0.05-0.25-0.12-0.44-0.2-0.55c0.09,0.11,0.16,0.3,0.21,0.53
	c0.01,0.02,0.1,0.04,0.16,0.06c0.01-0.04,0.03-0.24,0.05-0.34c0.02-0.2,0.12-0.25,0.21-0.25c0.18,0,0.42,0.18,0.51,0.3
	c0.08,0.09,0.11,0.11,0.12,0.11c0.01-0.01,0.02-0.02,0.01-0.07c-0.24-0.63-0.71-0.68-0.9-0.49c-0.06,0.06-0.1,0.16-0.09,0.27
	c-0.01-0.03-0.02-0.05-0.03-0.08c0.03-0.07,0.06-0.15,0.12-0.2c0.19-0.19,0.67-0.15,0.91,0.49c0.01,0.04,0.01,0.07,0,0.08
	c-0.04,0-0.08-0.03-0.14-0.11c-0.09-0.12-0.33-0.3-0.5-0.3c-0.12,0-0.19,0.08-0.2,0.24C41.17,16.34,41.14,16.58,41.14,16.58
	L41.14,16.58z M40.15,16.03C40.02,16.03,40,16.01,40,16c0-0.01,0.01-0.03,0.12-0.07c0.01,0,0.07-0.04,0.13-0.09
	c0.1-0.07,0.23-0.16,0.28-0.18c0.16-0.04,0.29,0.03,0.38,0.17c-0.1-0.14-0.22-0.2-0.38-0.17c-0.05,0.02-0.18,0.11-0.28,0.18
	c-0.08,0.05-0.12,0.09-0.13,0.09c-0.1,0.04-0.11,0.05-0.11,0.06c0,0,0.01,0.01,0.11,0.01c0.14-0.02,0.21-0.06,0.27-0.1
	c0.06-0.04,0.11-0.07,0.18-0.07c0.01,0,0.03,0.01,0.04,0.01c-0.12,0-0.16,0.03-0.22,0.06c-0.06,0.04-0.13,0.08-0.23,0.1H40.15z"/>
<path style="fill:#1D4805;" d="M40.59,16.03c0.23-0.03,0.39,0.14,0.42,0.45c0,0.03,0.05,0.04,0.05,0.03
	c0.03-0.52,0.49-0.23,0.68,0.47c0.02,0.07-0.15-0.08-0.25-0.23c-0.12-0.21-0.22-0.58-0.29-0.11c-0.03,0.11-0.08,0.34-0.08,0.34
	s-0.16-0.05-0.17-0.06c0-0.01-0.06-0.61-0.3-0.71c-0.18-0.05-0.28,0.42-0.51,0.43c-0.2-0.01-0.19-0.04-0.04-0.08
	C40.15,16.57,40.5,16.05,40.59,16.03"/>
<path d="M41.74,17.01c-0.04,0-0.17-0.14-0.25-0.25c-0.03-0.04-0.05-0.1-0.08-0.15c-0.09-0.18-0.16-0.27-0.21,0.04
	c-0.03,0.11-0.08,0.34-0.08,0.34c-0.17-0.04-0.18-0.05-0.18-0.05c-0.05-0.35-0.13-0.58-0.24-0.67c0.12,0.1,0.2,0.33,0.25,0.65
	c0.01,0.02,0.11,0.05,0.16,0.07c0,0,0.04-0.23,0.07-0.33c0.05-0.33,0.13-0.24,0.22-0.04c0.02,0.05,0.05,0.1,0.08,0.15
	c0.08,0.13,0.21,0.25,0.24,0.25V17.01l0-0.01c-0.19-0.75-0.65-0.94-0.67-0.49c-0.01-0.03-0.02-0.06-0.03-0.09
	c0.04-0.11,0.1-0.18,0.18-0.18c0.16,0,0.4,0.28,0.52,0.74L41.74,17.01z M40.16,16.66C40.02,16.65,40,16.64,40,16.62
	c0-0.01,0.01-0.03,0.12-0.06c0.01,0,0.08-0.09,0.14-0.17c0.12-0.16,0.28-0.36,0.33-0.37c0.05,0,0.09,0,0.12,0.01
	c-0.02,0-0.04-0.01-0.07-0.01c-0.11,0.02-0.27,0.22-0.38,0.37c-0.09,0.12-0.13,0.17-0.14,0.17c-0.11,0.03-0.11,0.05-0.11,0.05
	C40.01,16.63,40.02,16.64,40.16,16.66c0.11-0.02,0.19-0.13,0.26-0.25c0.07-0.1,0.13-0.2,0.21-0.2c0.02,0.01,0.05,0.02,0.07,0.04
	c-0.01-0.01-0.03-0.02-0.04-0.02c-0.12-0.03-0.17,0.09-0.23,0.19C40.35,16.53,40.27,16.65,40.16,16.66"/>
<path style="fill:#A87F36;" d="M39.73,16.26L39.73,16.26c0.05-0.02,0.09-0.01,0.1,0.02l0.53,1.54c0.01,0.02-0.02,0.06-0.07,0.08h0
	c-0.05,0.02-0.09,0.01-0.1-0.02l-0.53-1.54C39.65,16.31,39.68,16.28,39.73,16.26"/>
<path d="M40.24,17.91l-0.06-0.03l-0.53-1.54c0.01-0.05,0.04-0.07,0.07-0.08l0.11,0.02l0.53,1.54c0.01,0.03-0.02,0.06-0.07,0.08
	L40.24,17.91z M39.73,16.26L39.73,16.26c-0.03,0.02-0.06,0.04-0.07,0.05l0.53,1.56l0.05,0.03l0.05-0.01
	c0.04-0.02,0.08-0.05,0.07-0.07l-0.53-1.54L39.73,16.26z"/>
<path style="fill:#1D4805;" d="M39.89,15.28c-0.24,0.02-0.34,0.22-0.29,0.53c0.01,0.03-0.04,0.05-0.04,0.04
	c-0.16-0.49-0.69-0.48-0.71,0.32c0.01,0.12,0.12-0.11,0.18-0.28c0.07-0.23,0.23-0.31,0.43,0.13c0.05,0.09,0.16,0.31,0.16,0.31
	s0.15-0.08,0.15-0.09c0-0.01-0.1-0.6,0.1-0.75c0.16-0.1,0.17-0.09,0.39-0.13c0.19-0.06,0.18-0.09,0.01-0.09
	C40.24,15.26,39.98,15.28,39.89,15.28"/>
<path d="M39.61,16.33L39.61,16.33c0,0-0.11-0.22-0.16-0.31c-0.11-0.26-0.21-0.31-0.26-0.31c-0.06,0-0.12,0.07-0.15,0.18
	c-0.03,0.09-0.12,0.31-0.17,0.31v-0.04c0.04,0,0.1-0.13,0.16-0.28c0.08-0.27,0.27-0.24,0.44,0.13c0.05,0.09,0.14,0.27,0.16,0.3
	c0.05-0.03,0.14-0.08,0.14-0.09c-0.05-0.41-0.01-0.66,0.11-0.75c0.15-0.09,0.17-0.09,0.35-0.13c0.17-0.05,0.18-0.06,0.18-0.07
	c0,0-0.01-0.02-0.12-0.02c-0.02,0-0.2,0.01-0.32,0.02c-0.16,0.02-0.23,0.05-0.28,0.12c-0.07,0.09-0.09,0.23-0.06,0.41
	c-0.01-0.02-0.03-0.03-0.04-0.05c0.01-0.17,0.03-0.28,0.1-0.36c0.05-0.07,0.13-0.11,0.23-0.12c0.18-0.01,0.36-0.02,0.38-0.02
	c0.12,0,0.13,0.02,0.13,0.03c0,0.01-0.01,0.03-0.15,0.07c-0.22,0.04-0.24,0.04-0.38,0.13c-0.12,0.09-0.15,0.34-0.1,0.73
	C39.77,16.23,39.77,16.24,39.61,16.33L39.61,16.33z M38.92,15.78c0.12-0.34,0.36-0.32,0.51-0.17
	C39.26,15.48,39.04,15.46,38.92,15.78"/>
<path style="fill:#1D4805;" d="M39.96,15.57c-0.23,0.04-0.33,0.24-0.26,0.55c0.01,0.02-0.03,0.05-0.04,0.04
	c-0.19-0.48-0.71-0.43-0.69,0.36c0.02,0.12,0.11-0.11,0.16-0.29c0.05-0.23,0.21-0.33,0.43,0.1c0.06,0.09,0.18,0.3,0.18,0.3
	s0.14-0.09,0.14-0.1c0-0.01-0.13-0.6,0.06-0.76c0.15-0.1,0.16-0.1,0.38-0.16c0.19-0.07,0.17-0.1,0.01-0.09
	C40.3,15.53,40.05,15.56,39.96,15.57"/>
<path d="M39.75,16.64L39.75,16.64c0-0.01-0.12-0.21-0.18-0.3c-0.13-0.24-0.22-0.29-0.28-0.29c-0.07,0-0.12,0.07-0.15,0.19
	c-0.03,0.09-0.1,0.32-0.15,0.32c0-0.01,0-0.02,0-0.03c0.04,0,0.1-0.14,0.14-0.3c0.07-0.28,0.26-0.26,0.44,0.1
	c0.05,0.08,0.16,0.26,0.18,0.29c0.05-0.03,0.13-0.09,0.13-0.1c-0.04-0.24-0.09-0.63,0.06-0.76c0.14-0.1,0.16-0.1,0.34-0.15
	c0.16-0.06,0.17-0.08,0.17-0.08c0,0-0.01-0.01-0.08-0.01c-0.07,0.01-0.33,0.04-0.42,0.05c-0.1,0.02-0.17,0.06-0.21,0.13
	c-0.06,0.09-0.08,0.24-0.04,0.41c-0.01-0.01-0.03-0.03-0.04-0.05c0-0.17,0.02-0.29,0.07-0.37c0.05-0.07,0.12-0.12,0.22-0.14
	c0.09-0.01,0.35-0.04,0.38-0.04c0.11,0,0.13,0.01,0.14,0.02c0,0.01-0.01,0.03-0.14,0.08c-0.22,0.05-0.23,0.06-0.38,0.16
	c-0.15,0.13-0.1,0.52-0.06,0.74C39.89,16.54,39.89,16.54,39.75,16.64L39.75,16.64z M38.99,16.32c0.01-0.18,0.06-0.3,0.14-0.38
	c0.11-0.12,0.28-0.11,0.4,0.01c-0.13-0.1-0.28-0.11-0.39,0C39.05,16.02,39,16.15,38.99,16.32"/>
<path style="fill:#1D4805;" d="M40.04,15.92c-0.23,0.06-0.3,0.27-0.22,0.57c0.01,0.03-0.03,0.05-0.03,0.05
	c-0.22-0.46-0.74-0.37-0.65,0.43c0.03,0.12,0.1-0.13,0.14-0.3c0.03-0.24,0.18-0.35,0.43,0.06c0.07,0.09,0.2,0.28,0.2,0.28
	s0.13-0.11,0.13-0.11c0-0.01-0.18-0.59,0-0.77c0.14-0.12,0.15-0.12,0.36-0.19c0.18-0.09,0.16-0.11,0-0.09
	C40.38,15.85,40.13,15.9,40.04,15.92"/>
<path d="M39.91,17.01L39.91,17.01c0,0-0.14-0.2-0.2-0.29c-0.14-0.22-0.23-0.27-0.29-0.27c-0.07,0-0.12,0.08-0.14,0.21
	c0,0-0.07,0.34-0.13,0.34c0-0.01,0-0.02-0.01-0.03c0.04,0,0.09-0.14,0.12-0.3c0.04-0.29,0.23-0.29,0.45,0.06
	c0.06,0.08,0.18,0.25,0.2,0.28c0.05-0.04,0.12-0.1,0.13-0.11c-0.06-0.23-0.14-0.62,0-0.77c0.14-0.11,0.15-0.12,0.32-0.18
	c0.1-0.04,0.14-0.07,0.15-0.08c0,0.02-0.04,0.04-0.11,0.08c-0.21,0.07-0.23,0.08-0.36,0.19c-0.1,0.1-0.11,0.38-0.01,0.75
	C40.05,16.89,40.05,16.9,39.91,17.01L39.91,17.01z M39.13,16.76c0-0.19,0.04-0.33,0.12-0.41c0.11-0.12,0.27-0.11,0.4,0
	c-0.14-0.09-0.29-0.11-0.39,0.01C39.18,16.44,39.14,16.58,39.13,16.76 M39.83,16.49c-0.01-0.01-0.03-0.02-0.04-0.04
	c-0.01-0.17,0-0.29,0.05-0.38c0.04-0.08,0.11-0.13,0.21-0.15c0.09-0.02,0.34-0.07,0.37-0.08c0.04,0,0.07-0.01,0.09-0.01
	c0.01,0.01,0.02,0.01,0.02,0.02c-0.05-0.01-0.07,0-0.11,0c-0.03,0.01-0.28,0.06-0.37,0.08c-0.09,0.03-0.16,0.08-0.2,0.15
	C39.78,16.18,39.78,16.32,39.83,16.49"/>
<path style="fill:#1D4805;" d="M41.85,15.17c0.23,0.02,0.35,0.22,0.33,0.53c-0.01,0.03,0.04,0.05,0.04,0.04
	c0.12-0.5,0.73-0.7,0.81,0.1c-0.01,0.12-0.13-0.11-0.2-0.28c-0.08-0.23-0.34-0.09-0.5,0.35c-0.05,0.1-0.14,0.31-0.14,0.31
	s-0.15-0.08-0.15-0.09c0-0.01,0.05-0.61-0.16-0.76c-0.17-0.1-0.15,0.03-0.37-0.01c-0.2-0.06-0.18-0.08-0.02-0.09
	C41.61,15.32,41.75,15.16,41.85,15.17"/>
<path d="M42.2,16.23L42.2,16.23c-0.16-0.09-0.16-0.09-0.16-0.1c0.01-0.19,0.01-0.63-0.16-0.75c-0.04-0.02-0.08-0.04-0.11-0.04
	c-0.14,0.04-0.16,0.05-0.27,0.03c-0.13-0.04-0.15-0.06-0.15-0.07c0-0.01,0.02-0.02,0.13-0.03c0.11,0.01,0.17-0.03,0.22-0.06
	c0.05-0.03,0.1-0.05,0.13-0.05c0.16,0.01,0.27,0.11,0.31,0.26c-0.06-0.15-0.16-0.24-0.31-0.25c-0.04,0-0.08,0.02-0.13,0.05
	c-0.06,0.03-0.12,0.07-0.18,0.07c-0.16-0.01-0.17,0.01-0.17,0.01c0,0.01,0.01,0.02,0.14,0.06c0.1,0.02,0.15,0,0.19-0.02v0l0.07-0.02
	c0.03,0,0.07,0.01,0.11,0.04c0.17,0.12,0.18,0.52,0.16,0.75c0.01,0.02,0.09,0.07,0.15,0.1c0.01-0.03,0.09-0.22,0.13-0.31
	c0.18-0.49,0.43-0.56,0.51-0.35c0.04,0.09,0.08,0.18,0.12,0.24c-0.05-0.07-0.1-0.18-0.13-0.23c-0.07-0.21-0.32-0.13-0.49,0.35
	C42.29,16.01,42.2,16.22,42.2,16.23L42.2,16.23z M43.02,15.84L43.02,15.84c-0.04-0.35-0.17-0.54-0.36-0.54s-0.38,0.19-0.44,0.44
	c0-0.04-0.01-0.07-0.01-0.1c0.1-0.19,0.28-0.34,0.45-0.34c0.2,0,0.34,0.2,0.38,0.54C43.03,15.84,43.02,15.84,43.02,15.84"/>
<path style="fill:#1D4805;" d="M41.8,15.46c0.23,0.04,0.34,0.24,0.3,0.55c-0.01,0.03,0.04,0.05,0.04,0.05
	c0.15-0.49,0.84-0.23,0.87,0.58c-0.01,0.12-0.06,0.09-0.12-0.08c-0.07-0.23-0.47-0.75-0.65-0.32c-0.05,0.09-0.15,0.3-0.15,0.3
	s-0.15-0.09-0.15-0.1c0-0.01,0.08-0.61-0.12-0.77c-0.16-0.1-0.26,0.03-0.48-0.02c-0.19-0.07-0.18-0.1-0.01-0.09
	C41.36,15.57,41.71,15.46,41.8,15.46"/>
<path d="M42.98,16.71c-0.02,0-0.06-0.05-0.09-0.16c-0.05-0.17-0.28-0.48-0.46-0.48c-0.08,0-0.14,0.06-0.19,0.16
	c-0.05,0.09-0.15,0.3-0.15,0.3c-0.15-0.09-0.16-0.1-0.16-0.1c0.03-0.24,0.04-0.64-0.12-0.76c-0.07-0.05-0.15-0.04-0.23-0.03
	c-0.07,0.02-0.15,0.03-0.24,0.01c-0.13-0.05-0.15-0.07-0.15-0.08c0-0.01,0.04-0.02,0.11-0.02c0.05,0,0.11-0.01,0.18-0.03
	c0.11-0.03,0.24-0.06,0.31-0.06c0.17,0.03,0.27,0.13,0.31,0.28c-0.05-0.16-0.15-0.25-0.3-0.27h0c-0.07,0-0.21,0.03-0.32,0.06
	c-0.07,0.02-0.13,0.03-0.15,0.03c-0.11,0.01-0.13,0.01-0.13,0.01c0,0,0.01,0.02,0.14,0.07c0.08,0.02,0.17,0.01,0.24-0.01
	c0.09-0.02,0.17-0.02,0.24,0.03c0.16,0.13,0.15,0.53,0.12,0.76c0,0.02,0.09,0.08,0.14,0.11c0-0.01,0.1-0.21,0.15-0.3
	c0.05-0.11,0.11-0.17,0.2-0.17c0.19,0,0.41,0.32,0.47,0.49C42.95,16.69,42.97,16.7,42.98,16.71c0-0.01,0.02-0.02,0.02-0.08
	c-0.02-0.5-0.32-0.82-0.57-0.82c-0.14,0-0.24,0.09-0.29,0.24c0-0.03,0-0.06-0.01-0.09c0.07-0.09,0.17-0.16,0.3-0.16
	c0.27,0,0.56,0.31,0.58,0.83C43.01,16.69,43,16.71,42.98,16.71"/>
<path style="fill:#1D4805;" d="M41.74,15.82c0.23,0.06,0.32,0.27,0.26,0.57c-0.01,0.03,0.03,0.06,0.04,0.05
	c0.18-0.47,0.54-0.03,0.49,0.7c0,0.08-0.11-0.13-0.16-0.31c-0.05-0.24-0.03-0.62-0.24-0.21c-0.06,0.09-0.17,0.29-0.17,0.29
	s-0.14-0.11-0.14-0.11c0-0.01,0.13-0.59-0.06-0.78c-0.15-0.12-0.39,0.29-0.61,0.22c-0.19-0.09-0.17-0.11-0.01-0.09
	C41.16,16.16,41.65,15.8,41.74,15.82"/>
<path d="M42.53,17.16c-0.03,0-0.12-0.18-0.16-0.33c-0.01-0.05-0.02-0.11-0.03-0.17c-0.03-0.2-0.06-0.31-0.21-0.03
	c-0.06,0.09-0.18,0.29-0.18,0.29c-0.15-0.11-0.15-0.11-0.15-0.12c0.02-0.13,0.05-0.3,0.04-0.46c0.02,0.16-0.01,0.33-0.03,0.45
	c0,0.02,0.08,0.09,0.14,0.12c0-0.01,0.11-0.2,0.17-0.29c0.15-0.3,0.2-0.17,0.22,0.04c0.01,0.06,0.02,0.12,0.03,0.17
	c0.04,0.16,0.13,0.32,0.15,0.32V17.16l0-0.02c0.02-0.41-0.08-0.71-0.19-0.83c-0.11-0.11-0.22-0.06-0.3,0.14c0-0.03,0-0.06,0-0.1
	c0.14-0.16,0.22-0.13,0.3-0.05c0.11,0.12,0.21,0.42,0.19,0.84L42.53,17.16z M41.2,16.26c-0.02-0.01-0.03-0.01-0.05-0.02
	c0.14,0.01,0.23-0.06,0.32-0.12c0.08-0.06,0.16-0.11,0.22-0.11c0.01,0.01,0.02,0.02,0.03,0.03c-0.1-0.01-0.17,0.04-0.25,0.09
	C41.38,16.19,41.29,16.26,41.2,16.26 M41.12,16.23C41.01,16.18,41,16.17,41,16.15c0.07-0.01,0.1-0.01,0.13-0.01
	c0.01,0,0.1-0.05,0.18-0.11c0.16-0.1,0.35-0.22,0.42-0.22c0.16,0.04,0.26,0.15,0.28,0.31c-0.04-0.16-0.13-0.26-0.28-0.3h0
	c-0.07,0-0.27,0.13-0.42,0.22c-0.11,0.07-0.17,0.11-0.18,0.11c-0.04,0-0.06-0.01-0.08-0.01C41.01,16.16,41.02,16.18,41.12,16.23"/>
<path d="M44.34,25.76l-0.02-0.01c-3.36-1.41-5.47-3.16-5.61-7.51v-7.38h11.16v7.38c0,3.65-1.54,5.76-5.5,7.51L44.34,25.76z
	 M38.83,10.99v7.26c0.14,4.3,2.13,5.96,5.52,7.39c3.89-1.72,5.41-3.8,5.41-7.39v-7.26H38.83z"/>
</svg>
