<svg version="1.1" xmlns="http://www.w3.org/2000/svg" xmlns:xlink="http://www.w3.org/1999/xlink" x="0px" y="0px"
	 viewBox="0 0 58.92 34.37" style="enable-background:new 0 0 58.92 34.37;" xml:space="preserve">
<rect style="fill:#81AFDA;" width="58.92" height="34.37"/>
<polygon style="fill:#FFFFFF;" points="29.46,3.44 28.4,6.71 30.03,7.24 "/>
<polygon style="fill:#FFFFFF;" points="29.46,3.44 30.52,6.71 28.89,7.24 "/>
<polygon style="fill:#FFFFFF;" points="32.73,5.81 29.29,5.81 29.29,7.53 "/>
<polygon style="fill:#FFFFFF;" points="32.73,5.81 29.95,7.83 28.94,6.44 "/>
<polygon style="fill:#FFFFFF;" points="26.19,5.81 28.97,7.83 29.98,6.44 "/>
<polygon style="fill:#FFFFFF;" points="26.19,5.81 29.63,5.81 29.63,7.53 "/>
<polygon style="fill:#FFFFFF;" points="31.48,9.66 30.42,6.39 28.79,6.92 "/>
<polygon style="fill:#FFFFFF;" points="31.48,9.66 28.7,7.64 29.71,6.25 "/>
<polygon style="fill:#FFFFFF;" points="27.44,9.66 30.22,7.64 29.21,6.25 "/>
<polygon style="fill:#FFFFFF;" points="27.44,9.66 28.5,6.39 30.14,6.92 "/>
<polygon style="fill:#FFFFFF;" points="43.21,17.19 39.94,16.13 39.41,17.76 "/>
<polygon style="fill:#FFFFFF;" points="43.21,17.19 39.94,18.25 39.41,16.62 "/>
<polygon style="fill:#FFFFFF;" points="40.84,20.46 40.84,17.02 39.12,17.02 "/>
<polygon style="fill:#FFFFFF;" points="40.84,20.46 38.82,17.68 40.21,16.67 "/>
<polygon style="fill:#FFFFFF;" points="40.84,13.92 38.82,16.7 40.21,17.71 "/>
<polygon style="fill:#FFFFFF;" points="40.84,13.92 40.84,17.36 39.12,17.36 "/>
<polygon style="fill:#FFFFFF;" points="36.99,19.21 40.26,18.15 39.73,16.51 "/>
<polygon style="fill:#FFFFFF;" points="36.99,19.21 39.01,16.43 40.4,17.44 "/>
<polygon style="fill:#FFFFFF;" points="36.99,15.17 39.01,17.95 40.4,16.94 "/>
<polygon style="fill:#FFFFFF;" points="36.99,15.17 40.26,16.23 39.73,17.86 "/>
<polygon style="fill:#FFFFFF;" points="15.71,17.19 18.98,18.25 19.51,16.62 "/>
<polygon style="fill:#FFFFFF;" points="15.71,17.19 18.98,16.13 19.51,17.76 "/>
<polygon style="fill:#FFFFFF;" points="18.09,13.92 18.09,17.36 19.81,17.36 "/>
<polygon style="fill:#FFFFFF;" points="18.09,13.92 20.11,16.7 18.72,17.71 "/>
<polygon style="fill:#FFFFFF;" points="18.09,20.46 20.11,17.68 18.72,16.67 "/>
<polygon style="fill:#FFFFFF;" points="18.09,20.46 18.09,17.02 19.81,17.02 "/>
<polygon style="fill:#FFFFFF;" points="21.93,15.17 18.66,16.23 19.19,17.86 "/>
<polygon style="fill:#FFFFFF;" points="21.93,15.17 19.91,17.95 18.52,16.94 "/>
<polygon style="fill:#FFFFFF;" points="21.93,19.21 19.91,16.43 18.52,17.44 "/>
<polygon style="fill:#FFFFFF;" points="21.93,19.21 18.66,18.15 19.19,16.51 "/>
<polygon style="fill:#FFFFFF;" points="29.46,30.94 30.52,27.67 28.89,27.14 "/>
<polygon style="fill:#FFFFFF;" points="29.46,30.94 28.4,27.67 30.03,27.14 "/>
<polygon style="fill:#FFFFFF;" points="26.19,28.56 29.63,28.56 29.63,26.84 "/>
<polygon style="fill:#FFFFFF;" points="26.19,28.56 28.97,26.54 29.98,27.93 "/>
<polygon style="fill:#FFFFFF;" points="32.73,28.56 29.95,26.54 28.94,27.93 "/>
<polygon style="fill:#FFFFFF;" points="32.73,28.56 29.29,28.56 29.29,26.84 "/>
<polygon style="fill:#FFFFFF;" points="27.44,24.72 28.5,27.99 30.14,27.46 "/>
<polygon style="fill:#FFFFFF;" points="27.44,24.72 30.22,26.74 29.21,28.13 "/>
<polygon style="fill:#FFFFFF;" points="31.48,24.72 28.7,26.74 29.71,28.13 "/>
<polygon style="fill:#FFFFFF;" points="31.48,24.72 30.42,27.99 28.79,27.46 "/>
</svg>
